<svg xmlns="http://www.w3.org/2000/svg" viewBox="0 0 1330.38 148"><defs><style>.a{fill:#e00;}</style></defs><title>Logo-Red_Hat-Supported_By-A-Standard-RGB</title><path d="M952.14,37.81h36.62c13.85,0,25.28,10.49,25.28,24.34,0,9.34-5.56,17-13.64,20.88l16,28.22H996.21l-13.75-25.7H970.19v25.7H952.14Zm18.05,15.42V70.65h16.47c4.93,0,9.13-3.67,9.13-8.5a9,9,0,0,0-9.13-8.92Z"/><path d="M1045,112.3c-17,0-30.21-12.59-30.21-28.75a28.5,28.5,0,0,1,29-28.74c16.15,0,28,12.69,28,29.9v4.61H1032.2a14.34,14.34,0,0,0,13.63,8.82c4.62,0,8.5-1.47,11.13-4.2l11.22,10C1061.15,109.78,1054.33,112.3,1045,112.3Zm-12.9-34.83h23.08c-1.89-5.25-6.29-8.71-11.64-8.71C1038,68.76,1033.77,72,1032.09,77.47Z"/><path d="M1119.8,107.16a25.1,25.1,0,0,1-14.9,4.93,28.59,28.59,0,0,1,.53-57.18,28.63,28.63,0,0,1,14.16,3.78V37.81l17-5.24v78.68H1119.8Zm-12.17-9.55a16.86,16.86,0,0,0,12-4.4V73.8a17.91,17.91,0,0,0-12-4.3c-8.18,0-14.58,6.19-14.58,14A14.24,14.24,0,0,0,1107.63,97.61Z"/><path d="M1206.36,82.5h-28.12v28.75h-18V37.81h18V66h28.12V37.81h18v73.44h-18Z"/><path d="M1264,107.89c-4.41,3-9,4.31-14.9,4.31-12.38,0-20.67-7.77-20.67-17.73,0-9.76,7.87-17.11,21.61-17.11a29.74,29.74,0,0,1,14,3.15V77.15c0-5.35-3.57-8.07-10.49-8.07-4.83,0-10.29,1.25-16.68,4l-5-12.69c8.39-3.67,16-5.67,22.87-5.67,17,0,26.33,7.45,26.33,21v35.56h-17Zm-10.39-7.55A19.55,19.55,0,0,0,1264,97.51V91.74a22.08,22.08,0,0,0-10.91-2.94c-5.25,0-8.5,2.2-8.5,5.67C1244.55,98.14,1248,100.34,1253.57,100.34Z"/><path d="M1314,112.09c-11.64,0-18.15-5.56-18.15-17.1V69.92H1284.1V55.75h11.75V43.06l17-5.25V55.75h15.53V69.92h-15.53V91.11c0,4.72,2.52,6.5,7.66,6.5a18.36,18.36,0,0,0,7.45-1.68l-2.31,13.75A29.58,29.58,0,0,1,1314,112.09Z"/><path class="a" d="M852.87,85c12.5,0,30.61-2.58,30.61-17.46a14.52,14.52,0,0,0-.31-3.42l-7.45-32.36C874,24.63,872.48,21.4,860,15.15,850.28,10.19,829.15,2,822.9,2c-5.82,0-7.54,7.54-14.44,7.54-6.68,0-11.64-5.6-17.89-5.6-6,0-9.92,4.1-12.94,12.5,0,0-8.4,23.72-9.48,27.16a6.12,6.12,0,0,0-.22,1.94C767.93,54.76,804.22,85,852.87,85Zm32.55-11.42c1.72,8.19,1.72,9.05,1.72,10.13,0,14-15.73,21.77-36.43,21.77C803.93,105.47,763,78.1,763,60a18.49,18.49,0,0,1,1.51-7.33c-16.81.86-38.58,3.88-38.58,23.06,0,31.48,74.58,70.28,133.65,70.28,45.27,0,56.69-20.48,56.69-36.65C916.24,96.63,905.25,82.19,885.42,73.57Z"/><path d="M885.42,73.57c1.72,8.19,1.72,9.05,1.72,10.13,0,14-15.73,21.77-36.43,21.77C803.93,105.47,763,78.1,763,60a18.49,18.49,0,0,1,1.51-7.33l3.67-9.06a6.12,6.12,0,0,0-.22,1.94c0,9.22,36.29,39.45,84.94,39.45,12.5,0,30.61-2.58,30.61-17.46a14.52,14.52,0,0,0-.31-3.42Z"/><path d="M8.81,91.06c8,7.87,16.16,11.7,25.62,11.7,10.85,0,18.08-5.11,18.08-12.44,0-6.49-4-9.89-15.1-11.7L25,76.6C11.15,74.26,4.66,67.78,4.66,57.25c0-12.86,10.74-21.37,27.43-21.37a50.34,50.34,0,0,1,30,10.1l-6.16,8.51c-8.08-6.17-16.16-9.15-24.35-9.15-9.68,0-16.16,4.47-16.16,11.06,0,6,3.72,8.93,13.29,10.53l12,1.91C56.55,71.39,63.56,78,63.56,89.47c0,13.61-11.9,22.86-29.66,22.86A44.85,44.85,0,0,1,2,98.93Z"/><path d="M83,89.36c0,8.4,5.1,13.72,13.5,13.72a15.24,15.24,0,0,0,13.29-7V57.14h10.63v54.12H109.81v-5.42a22.13,22.13,0,0,1-16.27,6.49c-12.44,0-21.05-8.72-21.05-21.16v-34H83Z"/><path d="M132.77,57.14H143.3v5.11a25.54,25.54,0,0,1,16.58-6c15.42,0,27.33,12.34,27.33,27.86s-11.91,28-27.64,28a26.84,26.84,0,0,1-16.17-5.31v26.47H132.77ZM143.4,71.92V96.59a20.16,20.16,0,0,0,15,6.27c10.52,0,18.39-8.08,18.39-18.6,0-10.74-8.08-18.72-18.39-18.72C152.12,65.54,146.91,67.88,143.4,71.92Z"/><path d="M197.2,57.14h10.53v5.11a25.54,25.54,0,0,1,16.58-6c15.42,0,27.33,12.34,27.33,27.86s-11.91,28-27.65,28a26.79,26.79,0,0,1-16.16-5.31v26.47H197.2Zm10.63,14.78V96.59a20.12,20.12,0,0,0,15,6.27c10.53,0,18.4-8.08,18.4-18.6,0-10.74-8.08-18.72-18.4-18.72C216.55,65.54,211.34,67.88,207.83,71.92Z"/><path d="M287.46,56.08a28.13,28.13,0,1,1-28.17,28.07A27.77,27.77,0,0,1,287.46,56.08Zm0,9.36c-9.88,0-17.75,8.18-17.75,18.71S277.47,103,287.46,103s17.76-8.29,17.76-18.82S297.35,65.44,287.46,65.44Z"/><path d="M325.52,57.14h10.64v6.7A17.35,17.35,0,0,1,350.94,56a15.19,15.19,0,0,1,5.52.86v9.56a19.14,19.14,0,0,0-6.37-1.17c-5.64,0-11,2.77-13.93,9.79v36.25H325.52Z"/><path d="M373.26,66.08H361.78V57.14h11.48V43.32l10.53-2.55V57.14h15.95v8.94H383.79V95.42c0,5.53,2.23,7.55,8,7.55a20.48,20.48,0,0,0,7.76-1.28v8.93a36.29,36.29,0,0,1-10.1,1.6c-10.52,0-16.16-5-16.16-14.35Z"/><path d="M431.1,56.29c14.88,0,26.15,12.34,26.15,28.29v3.08H414.51a18.25,18.25,0,0,0,18.29,15.52,21.1,21.1,0,0,0,13.72-4.78l6.8,6.7a31.93,31.93,0,0,1-20.95,7.12C416.43,112.22,404,100,404,84.15,404,68.63,415.79,56.29,431.1,56.29ZM414.62,79.68h32.11c-1.49-8.29-8-14.46-15.84-14.46C422.59,65.22,416.21,71.18,414.62,79.68Z"/><path d="M509,106.16a25.53,25.53,0,0,1-16.58,6c-15.42,0-27.33-12.44-27.33-28S477,56.29,492.66,56.29a27.09,27.09,0,0,1,16.26,5.32V36.84l10.64-2.34v76.76H509Zm-15.1-3.3a19.35,19.35,0,0,0,15-6.48V71.82a20.2,20.2,0,0,0-15-6.38c-10.52,0-18.39,8.08-18.39,18.6C475.54,94.78,483.62,102.86,493.93,102.86Z"/><path d="M580.9,112.11a26.5,26.5,0,0,1-16.27-5.42v4.57H554.11V36.84l10.63-2.34V62.14a25.18,25.18,0,0,1,16.48-5.85c15.42,0,27.32,12.34,27.32,27.86S596.64,112.11,580.9,112.11ZM564.74,71.92V96.59a20.12,20.12,0,0,0,15,6.27c10.53,0,18.39-8.08,18.39-18.6,0-10.74-8.08-18.72-18.39-18.72C573.46,65.54,568.25,67.88,564.74,71.92Z"/><path d="M632.15,111.37,610.56,57.14h11.7L638.1,98.5l17.44-41.36H667l-25.84,60c-4.89,11.16-10.42,16.16-20.73,16.16a22.92,22.92,0,0,1-5.64-.53v-9.36a17.71,17.71,0,0,0,4.68.43c4.57,0,8.19-2.13,10.74-8Z"/></svg>