<?xml version="1.0" encoding="utf-8"?>
<!-- Generator: Adobe Illustrator 21.1.0, SVG Export Plug-In . SVG Version: 6.00 Build 0)  -->
<svg version="1.1" id="Layer_1" xmlns="http://www.w3.org/2000/svg" xmlns:xlink="http://www.w3.org/1999/xlink" x="0px" y="0px"
	 viewBox="0 0 420 420" style="enable-background:new 0 0 420 420;" xml:space="preserve">
<style type="text/css">
	.st0{fill:#4D5258;}
</style>
<path class="st0" d="M322.7,120l54,90l-54,90H55.4l41.3-68.9c7.8-13,7.8-29.2,0-42.2L55.4,120H322.7 M334,80H20
	C4.5,80-5.1,97,2.9,110.3l59.5,99.2c0.2,0.3,0.2,0.7,0,1L2.9,309.7C-5.1,323,4.5,340,20,340h314c7,0,13.5-3.7,17.1-9.7l66-110
	c3.8-6.3,3.8-14.2,0-20.6l-66-110C347.5,83.7,341,80,334,80L334,80z"/>
</svg>
