<?xml version="1.0" encoding="utf-8"?>
<!-- Generator: Adobe Illustrator 21.1.0, SVG Export Plug-In . SVG Version: 6.00 Build 0)  -->
<svg version="1.1" id="Layer_1" xmlns="http://www.w3.org/2000/svg" xmlns:xlink="http://www.w3.org/1999/xlink" x="0px" y="0px"
	 viewBox="0 0 420 420" style="enable-background:new 0 0 420 420;" xml:space="preserve">
<style type="text/css">
	.st0{fill:#4D5258;}
</style>
<path class="st0" d="M416.6,220.6c-6.8-13.1-22.2-20.6-42.5-20.6H360v-40c0-22.1-17.9-40-40-40H160c0-22.1-17.9-40-40-40H40
	C17.9,80,0,97.9,0,120v60v120c0,22.1,17.9,40,40,40h27.3H120h140.3h42.8c28.6,0,60.4-14.4,73.9-33.4l35.5-50
	C420.8,244.9,422.3,231.8,416.6,220.6z M344.4,283.4c-4.8,6.8-23.3,16.6-41.3,16.6H70.9h-3.6H40V180v-60h80v40h200v40H157.9
	c-28.6,0-60.4,14.4-73.9,33.4c-6.4,9-4.3,21.5,4.7,27.9s21.5,4.3,27.9-4.7c4.8-6.8,23.3-16.6,41.3-16.6h216.2c0.4,0,0.8,0,1.1,0
	L344.4,283.4z"/>
</svg>
