<?xml version="1.0" encoding="utf-8"?>
<!-- Generator: Adobe Illustrator 21.1.0, SVG Export Plug-In . SVG Version: 6.00 Build 0)  -->
<svg version="1.1" id="Layer_1" xmlns="http://www.w3.org/2000/svg" xmlns:xlink="http://www.w3.org/1999/xlink" x="0px" y="0px"
	 viewBox="0 0 420 420" style="enable-background:new 0 0 420 420;" xml:space="preserve">
<style type="text/css">
	.st0{fill:#4D5258;}
</style>
<path id="Icon" class="st0" d="M262.4,286.9c-10.5-1.6-10.8-27.2-10.7-30.4c8.2-3.2,30.7-30.4,37.5-71.3c18,0,40.8-56.9,11.1-56.9
	C301.1,112.3,323.4,0,210,0s-91.1,111.8-90.3,127.8c-31,0-6.9,57.3,11.1,57.3c6.7,40.9,27.9,68,37.5,71.3
	c-1.1,3.3-0.2,28.8-10.7,30.4C123.9,292.3,0,359.1,0,420h420C420,359.1,296.1,292.3,262.4,286.9L262.4,286.9z"/>
</svg>
