<?xml version="1.0" encoding="utf-8"?>
<!--
  ~ Licensed to the Apache Software Foundation (ASF) under one
  ~ or more contributor license agreements.  See the NOTICE file
  ~ distributed with this work for additional information
  ~ regarding copyright ownership.  The ASF licenses this file
  ~ to you under the Apache License, Version 2.0 (the
  ~ "License"); you may not use this file except in compliance
  ~ with the License.  You may obtain a copy of the License at
  ~ 
  ~   http://www.apache.org/licenses/LICENSE-2.0
  ~ 
  ~ Unless required by applicable law or agreed to in writing,
  ~ software distributed under the License is distributed on an
  ~ "AS IS" BASIS, WITHOUT WARRANTIES OR CONDITIONS OF ANY
  ~ KIND, either express or implied.  See the License for the
  ~ specific language governing permissions and limitations
  ~ under the License.      
-->

<svg version="1.1" id="eventIntermediateMessageThrowing" xmlns="http://www.w3.org/2000/svg" x="0px" y="0px"
	 width="448px" height="448px" viewBox="0 0 448 448" style="enable-background:new 0 0 448 448;" xml:space="preserve">
<style type="text/css">
	.st0{display:none;}
	.st1{display:inline;}
	.st2{opacity:0.3;fill:none;enable-background:new    ;}
	.st3{fill:none;}
	.event-intermediate-message-throwing-css {fill: #007a87;}
</style>
<g id="Grid" class="st0">
	<g id="icomoon-ignore_1_" class="st1">
		<line class="st2" x1="16" y1="0" x2="16" y2="448"/>
		<line class="st3" x1="32" y1="0" x2="32" y2="448"/>
		<line class="st2" x1="48" y1="0" x2="48" y2="448"/>
		<line class="st3" x1="64" y1="0" x2="64" y2="448"/>
		<line class="st2" x1="80" y1="0" x2="80" y2="448"/>
		<line class="st3" x1="96" y1="0" x2="96" y2="448"/>
		<line class="st2" x1="112" y1="0" x2="112" y2="448"/>
		<line class="st3" x1="128" y1="0" x2="128" y2="448"/>
		<line class="st2" x1="144" y1="0" x2="144" y2="448"/>
		<line class="st3" x1="160" y1="0" x2="160" y2="448"/>
		<line class="st2" x1="176" y1="0" x2="176" y2="448"/>
		<line class="st3" x1="192" y1="0" x2="192" y2="448"/>
		<line class="st2" x1="208" y1="0" x2="208" y2="448"/>
		<line class="st3" x1="224" y1="0" x2="224" y2="448"/>
		<line class="st2" x1="240" y1="0" x2="240" y2="448"/>
		<line class="st3" x1="256" y1="0" x2="256" y2="448"/>
		<line class="st2" x1="272" y1="0" x2="272" y2="448"/>
		<line class="st3" x1="288" y1="0" x2="288" y2="448"/>
		<line class="st2" x1="304" y1="0" x2="304" y2="448"/>
		<line class="st3" x1="320" y1="0" x2="320" y2="448"/>
		<line class="st2" x1="336" y1="0" x2="336" y2="448"/>
		<line class="st3" x1="352" y1="0" x2="352" y2="448"/>
		<line class="st2" x1="368" y1="0" x2="368" y2="448"/>
		<line class="st3" x1="384" y1="0" x2="384" y2="448"/>
		<line class="st2" x1="400" y1="0" x2="400" y2="448"/>
		<line class="st3" x1="416" y1="0" x2="416" y2="448"/>
		<line class="st2" x1="432" y1="0" x2="432" y2="448"/>
		<line class="st2" x1="0" y1="16" x2="448" y2="16"/>
		<line class="st3" x1="0" y1="32" x2="448" y2="32"/>
		<line class="st2" x1="0" y1="48" x2="448" y2="48"/>
		<line class="st3" x1="0" y1="64" x2="448" y2="64"/>
		<line class="st2" x1="0" y1="80" x2="448" y2="80"/>
		<line class="st3" x1="0" y1="96" x2="448" y2="96"/>
		<line class="st2" x1="0" y1="112" x2="448" y2="112"/>
		<line class="st3" x1="0" y1="128" x2="448" y2="128"/>
		<line class="st2" x1="0" y1="144" x2="448" y2="144"/>
		<line class="st3" x1="0" y1="160" x2="448" y2="160"/>
		<line class="st2" x1="0" y1="176" x2="448" y2="176"/>
		<line class="st3" x1="0" y1="192" x2="448" y2="192"/>
		<line class="st2" x1="0" y1="208" x2="448" y2="208"/>
		<line class="st3" x1="0" y1="224" x2="448" y2="224"/>
		<line class="st2" x1="0" y1="240" x2="448" y2="240"/>
		<line class="st3" x1="0" y1="256" x2="448" y2="256"/>
		<line class="st2" x1="0" y1="272" x2="448" y2="272"/>
		<line class="st3" x1="0" y1="288" x2="448" y2="288"/>
		<line class="st2" x1="0" y1="304" x2="448" y2="304"/>
		<line class="st3" x1="0" y1="320" x2="448" y2="320"/>
		<line class="st2" x1="0" y1="336" x2="448" y2="336"/>
		<line class="st3" x1="0" y1="352" x2="448" y2="352"/>
		<line class="st2" x1="0" y1="368" x2="448" y2="368"/>
		<line class="st3" x1="0" y1="384" x2="448" y2="384"/>
		<line class="st2" x1="0" y1="400" x2="448" y2="400"/>
		<line class="st3" x1="0" y1="416" x2="448" y2="416"/>
		<line class="st2" x1="0" y1="432" x2="448" y2="432"/>
	</g>
</g>
<path id="Icon" class="event-intermediate-message-throwing-css" d="M448,177.5V376c0,11-3.9,20.4-11.8,28.2S419,416,408,416H40c-11,0-20.4-3.9-28.2-11.8S0,387,0,376V177.5
	c7.3,8.2,15.8,15.4,25.2,21.8c60.3,41,101.8,69.8,124.2,86.2c9.5,7,17.2,12.5,23.1,16.4s13.8,7.9,23.6,12s19,6.1,27.5,6.1h0.5
	c8.5,0,17.7-2,27.5-6.1c9.8-4.1,17.7-8.1,23.6-12s13.6-9.4,23.1-16.4c28.3-20.5,69.8-49.2,124.5-86.2
	C432.5,192.8,440.8,185.5,448,177.5z M448,104c0,13.2-4.1,25.8-12.2,37.8s-18.3,22.2-30.5,30.8c-62.7,43.5-101.7,70.6-117,81.2
	c-1.7,1.2-5.2,3.7-10.6,7.6s-9.9,7.1-13.5,9.5s-7.9,5.1-13,8.1c-5.1,3-9.9,5.2-14.4,6.8s-8.7,2.2-12.5,2.2h-0.5
	c-3.8,0-8-0.8-12.5-2.2s-9.3-3.8-14.4-6.8s-9.4-5.7-13-8.1s-8.1-5.6-13.5-9.5s-9-6.5-10.6-7.6c-15.2-10.7-37-25.9-65.5-45.6
	S48.7,176.5,43,172.5c-10.3-7-20.1-16.6-29.2-28.9S0,120,0,109.5c0-13,3.5-23.8,10.4-32.5S27.2,64,40,64h368
	c10.8,0,20.2,3.9,28.1,11.8S448,93,448,104z"/>
</svg>
