<?xml version="1.0" encoding="utf-8"?>
<!--
  ~ Licensed to the Apache Software Foundation (ASF) under one
  ~ or more contributor license agreements.  See the NOTICE file
  ~ distributed with this work for additional information
  ~ regarding copyright ownership.  The ASF licenses this file
  ~ to you under the Apache License, Version 2.0 (the
  ~ "License"); you may not use this file except in compliance
  ~ with the License.  You may obtain a copy of the License at
  ~ 
  ~   http://www.apache.org/licenses/LICENSE-2.0
  ~ 
  ~ Unless required by applicable law or agreed to in writing,
  ~ software distributed under the License is distributed on an
  ~ "AS IS" BASIS, WITHOUT WARRANTIES OR CONDITIONS OF ANY
  ~ KIND, either express or implied.  See the License for the
  ~ specific language governing permissions and limitations
  ~ under the License.      
-->
<svg version="1.1" id="eventIntermediateLinkThrowing" xmlns="http://www.w3.org/2000/svg" x="0px" y="0px"
	 width="448px" height="448px" viewBox="0 0 448 448" style="enable-background:new 0 0 448 448;" xml:space="preserve">
<style type="text/css">
	.event-intermediate-link-throwing-css {fill: #007a87;}
</style>
<path id="Icon" class="event-intermediate-link-throwing-css" d="M222.8,131.3c-4.3,0-8.1,1.6-11.2,4.8l-9.3,9.4c-3.2,3-4.8,6.8-4.8,11.2s1.6,8.2,4.8,11.2
		l36.6,36.8h-96c-4.4,0-7.9,1.6-10.6,4.7s-4,6.9-4,11.3v16c0,4.4,1.3,8.2,4,11.3s6.2,4.7,10.6,4.7h96l-36.6,36.6
		c-3.2,3.2-4.8,7-4.8,11.4c0,4.4,1.6,8.2,4.8,11.4l9.4,9.4c3.2,3.1,7,4.6,11.2,4.6c4.4,0,8.1-1.5,11.4-4.6l81.4-81.4
		c3.1-3.1,4.6-6.9,4.6-11.4c0-4.6-1.5-8.3-4.6-11.2l-81.4-81.3C231.1,132.9,227.3,131.3,222.8,131.3L222.8,131.3z"/>
</svg>
