<?xml version="1.0" encoding="utf-8"?>
<!--
  ~ Licensed to the Apache Software Foundation (ASF) under one
  ~ or more contributor license agreements.  See the NOTICE file
  ~ distributed with this work for additional information
  ~ regarding copyright ownership.  The ASF licenses this file
  ~ to you under the Apache License, Version 2.0 (the
  ~ "License"); you may not use this file except in compliance
  ~ with the License.  You may obtain a copy of the License at
  ~ 
  ~   http://www.apache.org/licenses/LICENSE-2.0
  ~ 
  ~ Unless required by applicable law or agreed to in writing,
  ~ software distributed under the License is distributed on an
  ~ "AS IS" BASIS, WITHOUT WARRANTIES OR CONDITIONS OF ANY
  ~ KIND, either express or implied.  See the License for the
  ~ specific language governing permissions and limitations
  ~ under the License.      
-->

<svg version="1.1" id="eventIntermediateTimer" xmlns="http://www.w3.org/2000/svg"  x="0px" y="0px"
	 width="448px" height="448px" viewBox="0 0 448 448" style="enable-background:new 0 0 448 448;" xml:space="preserve">
<style type="text/css">
	.st0{fill:none;}
	.event-intermediate-timer-css {fill: #e5a000;}
</style>
<g id="Grid">
	<g id="icomoon-ignore_1_">
		<line class="st0" x1="16" y1="1" x2="16" y2="449"/>
		<line class="st0" x1="32" y1="1" x2="32" y2="449"/>
		<line class="st0" x1="48" y1="1" x2="48" y2="449"/>
		<line class="st0" x1="64" y1="1" x2="64" y2="449"/>
		<line class="st0" x1="80" y1="1" x2="80" y2="449"/>
		<line class="st0" x1="96" y1="1" x2="96" y2="449"/>
		<line class="st0" x1="112" y1="1" x2="112" y2="449"/>
		<line class="st0" x1="128" y1="1" x2="128" y2="449"/>
		<line class="st0" x1="144" y1="1" x2="144" y2="449"/>
		<line class="st0" x1="160" y1="1" x2="160" y2="449"/>
		<line class="st0" x1="176" y1="1" x2="176" y2="449"/>
		<line class="st0" x1="192" y1="1" x2="192" y2="449"/>
		<line class="st0" x1="208" y1="1" x2="208" y2="449"/>
		<line class="st0" x1="224" y1="1" x2="224" y2="449"/>
		<line class="st0" x1="240" y1="1" x2="240" y2="449"/>
		<line class="st0" x1="256" y1="1" x2="256" y2="449"/>
		<line class="st0" x1="272" y1="1" x2="272" y2="449"/>
		<line class="st0" x1="288" y1="1" x2="288" y2="449"/>
		<line class="st0" x1="304" y1="1" x2="304" y2="449"/>
		<line class="st0" x1="320" y1="1" x2="320" y2="449"/>
		<line class="st0" x1="336" y1="1" x2="336" y2="449"/>
		<line class="st0" x1="352" y1="1" x2="352" y2="449"/>
		<line class="st0" x1="368" y1="1" x2="368" y2="449"/>
		<line class="st0" x1="384" y1="1" x2="384" y2="449"/>
		<line class="st0" x1="400" y1="1" x2="400" y2="449"/>
		<line class="st0" x1="416" y1="1" x2="416" y2="449"/>
		<line class="st0" x1="432" y1="1" x2="432" y2="449"/>
		<line class="st0" x1="0" y1="17" x2="448" y2="17"/>
		<line class="st0" x1="0" y1="33" x2="448" y2="33"/>
		<line class="st0" x1="0" y1="49" x2="448" y2="49"/>
		<line class="st0" x1="0" y1="65" x2="448" y2="65"/>
		<line class="st0" x1="0" y1="81" x2="448" y2="81"/>
		<line class="st0" x1="0" y1="97" x2="448" y2="97"/>
		<line class="st0" x1="0" y1="113" x2="448" y2="113"/>
		<line class="st0" x1="0" y1="129" x2="448" y2="129"/>
		<line class="st0" x1="0" y1="145" x2="448" y2="145"/>
		<line class="st0" x1="0" y1="161" x2="448" y2="161"/>
		<line class="st0" x1="0" y1="177" x2="448" y2="177"/>
		<line class="st0" x1="0" y1="193" x2="448" y2="193"/>
		<line class="st0" x1="0" y1="209" x2="448" y2="209"/>
		<line class="st0" x1="0" y1="225" x2="448" y2="225"/>
		<line class="st0" x1="0" y1="241" x2="448" y2="241"/>
		<line class="st0" x1="0" y1="257" x2="448" y2="257"/>
		<line class="st0" x1="0" y1="273" x2="448" y2="273"/>
		<line class="st0" x1="0" y1="289" x2="448" y2="289"/>
		<line class="st0" x1="0" y1="305" x2="448" y2="305"/>
		<line class="st0" x1="0" y1="321" x2="448" y2="321"/>
		<line class="st0" x1="0" y1="337" x2="448" y2="337"/>
		<line class="st0" x1="0" y1="353" x2="448" y2="353"/>
		<line class="st0" x1="0" y1="369" x2="448" y2="369"/>
		<line class="st0" x1="0" y1="385" x2="448" y2="385"/>
		<line class="st0" x1="0" y1="401" x2="448" y2="401"/>
		<line class="st0" x1="0" y1="417" x2="448" y2="417"/>
		<line class="st0" x1="0" y1="433" x2="448" y2="433"/>
	</g>
</g>
<path id="Icon" class="event-intermediate-timer-css" d="M256,136v112c0,2.3-0.8,4.2-2.2,5.8s-3.4,2.2-5.8,2.2h-80c-2.3,0-4.2-0.8-5.8-2.2s-2.2-3.4-2.2-5.8v-16
	c0-2.3,0.8-4.2,2.2-5.8s3.4-2.2,5.8-2.2h56v-88c0-2.3,0.8-4.2,2.2-5.8s3.4-2.2,5.8-2.2h16c2.3,0,4.2,0.8,5.8,2.2S256,133.7,256,136z
	 M376,224c0-27.6-6.8-53-20.3-76.2s-32.1-41.7-55.3-55.3C277,78.8,251.6,72,224,72s-53,6.8-76.2,20.3s-41.7,32.1-55.3,55.3
	S72,196.4,72,224s6.8,53,20.3,76.2s32.1,41.7,55.3,55.3c23.2,13.6,48.7,20.5,76.3,20.5s53-6.8,76.2-20.3
	c23.2-13.6,41.7-32.1,55.3-55.3C369.2,277.1,376,251.6,376,224z M416,224c0,34.8-8.6,67-25.8,96.4s-40.5,52.7-69.9,69.9
	S258.8,416,224,416s-67-8.6-96.4-25.8s-52.7-40.5-69.9-69.9S32,258.8,32,224s8.6-67,25.8-96.4s40.5-52.7,69.9-69.9S189.2,32,224,32
	s67,8.6,96.4,25.8s52.7,40.5,69.9,69.9S416,189.2,416,224z"/>
</svg>
