<svg version="1.1" xmlns="http://www.w3.org/2000/svg" width="1024" height="1024" viewBox="0 0 1024 1024">
  <!--
	- Licensed to the Apache Software Foundation (ASF) under one
	- or more contributor license agreements.  See the NOTICE file
	- distributed with this work for additional information
	- regarding copyright ownership.  The ASF licenses this file
	- to you under the Apache License, Version 2.0 (the
	- "License"); you may not use this file except in compliance
	- with the License.  You may obtain a copy of the License at
	-
	-   http://www.apache.org/licenses/LICENSE-2.0
	-
	- Unless required by applicable law or agreed to in writing,
	- software distributed under the License is distributed on an
	- "AS IS" BASIS, WITHOUT WARRANTIES OR CONDITIONS OF ANY
	- KIND, either express or implied.  See the License for the
	- specific language governing permissions and limitations
	- under the License.
	-->
  <path
    d="m 164.20405,860.87605 c -15.47191,0.0922 -30.21897,-6.55361 -40.39976,-18.20652 C -14.704001,683.48358 -39.404725,454.87303 61.904675,269.77604 79.220376,238.36607 99.800759,208.87098 123.3043,181.77817 c 19.46792,-22.33943 53.35975,-24.66799 75.69953,-5.20188 22.33979,19.45587 24.6679,53.35822 5.19998,75.69765 -18.47379,21.26425 -34.66254,44.41263 -48.2997,69.06016 -79.620419,145.55855 -60.104327,325.31235 48.89969,450.39312 13.86742,15.89228 17.15569,38.43455 8.40868,57.63031 -8.74715,19.18957 -27.9131,31.51032 -49.00836,31.46936 m 698.0957,-3.01056 c -20.91781,-0.0409 -39.90191,-12.24694 -48.6241,-31.25634 -8.72223,-19.00531 -5.5892,-41.36113 8.02427,-57.24325 C 949.31428,620.31959 948.5485,400.33105 819.8998,252.22479 807.1514,237.82745 803.09432,217.706 809.26883,199.49735 c 6.17452,-18.2066 21.63367,-31.71512 40.50818,-35.3892 18.87458,-3.6659 38.26984,3.0515 50.82222,17.61268 163.58097,188.13619 164.64467,467.71497 2.5,657.09227 -10.15747,12.00118 -25.07234,18.94386 -40.79976,19.0053 M 622.00095,511.86233 c 0,60.64088 -49.15883,109.79868 -109.79933,109.79868 -60.64048,0 -109.79931,-49.1578 -109.79931,-109.79868 0,-60.63882 49.15883,-109.79867 109.79931,-109.79867 60.62907,0.0287 109.77174,49.17009 109.79933,109.79867 m 99.69939,191.89837 c -17.06414,-0.0389 -32.68533,-9.5846 -40.50955,-24.74582 -7.82418,-15.1551 -6.54787,-33.42518 3.30977,-47.35353 50.67866,-71.7635 50.51828,-167.70344 -0.39936,-239.29696 -14.63542,-20.5454 -9.84494,-49.0636 10.69999,-63.69851 20.54486,-14.64321 49.06415,-9.85088 63.69959,10.69057 73.43684,103.2185 73.75749,241.53949 0.80077,345.09591 -8.73206,12.06273 -22.70358,19.23053 -37.59977,19.29197 m -420.59743,-0.2007 c -14.87626,-0.0123 -28.82065,-7.24992 -37.39976,-19.39437 -72.28169,-102.94825 -72.4016,-240.12441 -0.29901,-343.1975 14.29996,-20.59865 42.89973,-25.59779 63.69959,-11.20257 20.60453,14.5406 25.60663,42.99541 11.1999,63.69851 -24.69984,34.89973 -37.39976,76.19943 -37.39976,119.09858 -0.10257,42.63498 13.03552,84.25006 37.59975,119.0986 6.98983,9.91232 9.73804,22.2104 7.63597,34.15835 -2.10207,11.93984 -8.88115,22.5647 -18.83587,29.50125 -7.72506,5.28384 -16.84603,8.13056 -26.19984,8.192"
    id="path1"
    style="fill:#000000;fill-opacity:1;stroke-width:204.8;stroke-dasharray:none"
  />
</svg>
