<svg version="1.1" xmlns="http://www.w3.org/2000/svg" width="1024" height="1024" viewBox="0 0 1024 1024">
  <!--
	- Licensed to the Apache Software Foundation (ASF) under one
	- or more contributor license agreements.  See the NOTICE file
	- distributed with this work for additional information
	- regarding copyright ownership.  The ASF licenses this file
	- to you under the Apache License, Version 2.0 (the
	- "License"); you may not use this file except in compliance
	- with the License.  You may obtain a copy of the License at
	-
	-   http://www.apache.org/licenses/LICENSE-2.0
	-
	- Unless required by applicable law or agreed to in writing,
	- software distributed under the License is distributed on an
	- "AS IS" BASIS, WITHOUT WARRANTIES OR CONDITIONS OF ANY
	- KIND, either express or implied.  See the License for the
	- specific language governing permissions and limitations
	- under the License.
	-->
  <path
    d="m 106.83369,511.97507 c 0.0219,-58.51489 12.87254,-116.31045 37.64326,-169.29963 L 65.202663,262.97551 c -1.101824,2.10853 -2.294375,4.11652 -3.396608,6.22506 -101.168527,185.76258 -76.482478,414.964 61.910485,574.81745 10.18491,11.64405 24.87687,18.33391 40.3285,18.3649 12.92083,0.0787 25.41355,-4.63899 35.06825,-13.24428 22.36353,-19.46825 24.5578,-53.59526 5.00976,-76.07551 -62.73137,-72.45907 -97.27513,-165.16151 -97.28936,-261.08806 z m 191.71314,0.85368 c 0,-4.82942 0.2004,-9.45795 0.50176,-13.97606 l -75.91854,-76.23634 c -27.80687,88.93363 -12.86124,185.76262 40.45875,262.12224 8.35809,11.93852 22.00791,19.03428 36.56114,19.0074 9.16992,0.0641 18.13095,-2.74407 25.6299,-8.03337 20.13749,-14.29468 24.93283,-42.22374 10.72085,-62.44065 -24.79956,-35.25239 -38.06163,-77.35252 -37.95386,-120.48364 z m 605.63877,326.3799 c 161.1431,-190.42283 159.573,-470.16988 -3.69721,-658.76444 -9.28868,-10.77934 -22.48925,-17.3943 -36.66796,-18.37468 -14.17872,-0.98038 -28.16086,3.75499 -38.83899,13.15372 -22.41362,19.4782 -24.60789,53.61521 -5.20012,76.09546 126.18348,145.89595 129.63909,361.5118 8.19595,511.39288 l -73.50307,-73.7862 c 1.24109,-1.35028 2.37671,-2.79312 3.39661,-4.31721 35.51816,-50.30231 54.50095,-110.45043 54.30571,-172.07076 0,-62.54104 -18.89669,-122.37124 -55.00707,-172.97437 -6.82823,-9.67156 -17.21897,-16.22024 -28.87569,-18.19827 -11.65681,-1.97822 -23.61983,0.7757 -33.2452,7.6562 -20.10911,14.2572 -24.60791,42.16928 -10.50051,62.35028 49.19708,69.44517 51.57312,161.81542 6.0117,233.70818 l -75.31653,-75.39299 c 4.41043,-12.02424 6.64635,-24.74009 6.60285,-37.55076 0.0221,-60.805 -49.11474,-110.1338 -109.79369,-110.22243 -12.76518,-0.0408 -25.43503,2.20335 -37.41282,6.62659 L 81.804979,13.694829 C 63.488692,-4.6040766 33.83701,-4.5591314 15.57608,13.795227 -2.6848709,32.149544 -2.6399992,61.862792 15.676268,80.161636 l 104.032482,104.499494 76.20833,76.30631 136.91648,137.43169 75.80754,76.09547 140.43333,140.94578 393.21532,394.83492 c 18.31342,18.3212 47.98091,18.2963 66.26405,-0.055 18.2831,-18.3514 18.2583,-48.08048 -0.055,-66.4015 z"
    id="path1"
    style="stroke-width:1.00299"
  />
</svg>
