<svg
  version="1.1"
  xmlns="http://www.w3.org/2000/svg"
  xmlns:xlink="http://www.w3.org/1999/xlink"
  width="1544"
  height="514"
  viewBox="0 0 1544 514"
>
  <defs />
  <g transform="matrix(1,0,0,1,0,0)">
    <g>
      <g>
        <g>
          <path
            fill="none"
            stroke="#d3d3d3"
            paint-order="fill stroke markers"
            d=" M 0 0 L 1200 0"
            stroke-miterlimit="10"
            stroke-opacity="0.8"
            stroke-dasharray="5"
          />
        </g>
        <g>
          <path
            fill="none"
            stroke="#d3d3d3"
            paint-order="fill stroke markers"
            d=" M 0 0 L 0 800"
            stroke-miterlimit="10"
            stroke-opacity="0.8"
            stroke-dasharray="5"
          />
        </g>
      </g>
      <g
        id="_9861B686-DF6B-4B1C-B370-F9898EEB47FD"
        bpmn2nodeid="_9861B686-DF6B-4B1C-B370-F9898EEB47FD"
        transform="matrix(1,0,0,1,166.99999999999997,235)"
      >
        <g>
          <path fill="none" stroke="none" />
        </g>
        <g transform="matrix(0.125,0,0,0.125,0,0)">
          <g transform="matrix(1,0,0,1,0,0)">
            <path
              fill="#e8fae6"
              stroke="black"
              id="_9861B686-DF6B-4B1C-B370-F9898EEB47FD?shapeType=BACKGROUND"
              paint-order="fill stroke markers"
              d=" M 0 0 M 444 224 C 444 263.9 434.2 300.8 414.4 334.5 C 394.7 368.2 368 394.9 334.4 414.5 C 300.79999999999995 434.1 263.9 444 224 444 C 184.10000000000002 444 147.2 434.2 113.5 414.4 C 79.8 394.7 53.1 368 33.5 334.4 C 13.899999999999999 300.79999999999995 4 263.9 4 224 C 4 184.10000000000002 13.8 147.2 33.6 113.5 C 53.400000000000006 79.80000000000001 80.1 53.1 113.6 33.5 C 147.1 13.899999999999999 184.1 4 224 4 C 263.9 4 300.8 13.8 334.5 33.6 C 368.2 53.400000000000006 394.9 80.1 414.5 113.6 C 434.1 147.1 444 184.1 444 224 Z"
              stroke-miterlimit="10"
              stroke-dasharray=""
            />
          </g>
          <g>
            <g transform="matrix(1,0,0,1,0,0)">
              <g transform="matrix(1,0,0,1,0,0)">
                <path
                  fill="#4aa241"
                  stroke="black"
                  id="_9861B686-DF6B-4B1C-B370-F9898EEB47FD?shapeType=BORDER&amp;renderType=FILL"
                  paint-order="fill stroke markers"
                  d=" M 0 0 M 224 0 C 100.3 0 0 100.3 0 224 C 0 347.7 100.3 448 224 448 C 347.7 448 448 347.7 448 224 C 448 100.30000000000001 347.7 0 224 0 Z M 0 0 M 224 432 C 109.1 432 16 338.9 16 224 C 16 109.10000000000002 109.1 16 224 16 C 338.9 16 432 109.1 432 224 C 432 338.9 338.9 432 224 432 Z"
                  stroke-miterlimit="10"
                  stroke-dasharray=""
                />
              </g>
            </g>
          </g>
        </g>
        <g transform="matrix(1,0,0,1,-61.16015625,61)">
          <text
            fill="#000000"
            stroke="none"
            font-family="Open Sans"
            font-size="12pt"
            font-style="normal"
            font-weight="normal"
            text-decoration="normal"
            x="89.16015625"
            y="12"
            text-anchor="middle"
            dominant-baseline="alphabetic"
          >start new hiring process</text>
        </g>
      </g>
      <g transform="matrix(1,0,0,1,166.99999999999997,235)" />
      <g
        id="_0DBFABE8-92B0-46E6-B52E-A9593AFA4371"
        bpmn2nodeid="_0DBFABE8-92B0-46E6-B52E-A9593AFA4371"
        transform="matrix(1,0,0,1,545,212)"
      >
        <g>
          <path fill="none" stroke="none" />
        </g>
        <g transform="matrix(1,0,0,1,0,0)">
          <path
            fill="#ffffff"
            stroke="none"
            id="_0DBFABE8-92B0-46E6-B52E-A9593AFA4371?shapeType=BACKGROUND"
            paint-order="stroke fill markers"
            d=" M 2 0 L 152 0 L 152 0 A 2 2 0 0 1 154 2 L 154 100 L 154 100 A 2 2 0 0 1 152 102 L 2 102 L 2 102 A 2 2 0 0 1 0 100 L 0 2 L 0 2.0000000000000004 A 2 2 0 0 1 1.9999999999999996 0 Z"
          />
        </g>
        <g transform="matrix(1,0,0,1,0,0)">
          <path
            fill="none"
            stroke="rgb(0,0,0)"
            id="_0DBFABE8-92B0-46E6-B52E-A9593AFA4371?shapeType=BORDER&amp;renderType=STROKE"
            paint-order="fill stroke markers"
            d=" M 2 0 L 152 0 L 152 0 A 2 2 0 0 1 154 2 L 154 100 L 154 100 A 2 2 0 0 1 152 102 L 2 102 L 2 102 A 2 2 0 0 1 0 100 L 0 2 L 0 2.0000000000000004 A 2 2 0 0 1 1.9999999999999996 0 Z"
            stroke-miterlimit="10"
            stroke-width="1.5"
            stroke-dasharray=""
          />
        </g>
        <g>
          <g transform="matrix(0.06,0,0,0.06,9.4,9.4)">
            <g transform="matrix(1,0,0,1,0,0)">
              <path
                fill="#393f44"
                stroke="black"
                id="_0DBFABE8-92B0-46E6-B52E-A9593AFA4371_task__dV4m__UdzN"
                paint-order="fill stroke markers"
                d=" M 0 0 M 16 445.2101 C 16 440.86867 18.784312 431.12906000000004 22.001325 424.21728 C 35.767643 394.6402 77.282944 359.28049 129 333.08362 C 144.51625 325.22398 157.34689 319.96394 167.80739 317.17416 C 171.93153 316.07426 175.72913 314.41389999999996 176.5251 313.36265 C 178.89361 310.23449999999997 180.91404 302.90781 181.72673 294.5 L 182.5 286.5 L 178.50715 283.45457 C 166.30327 274.14645 154.2837 251.67767 148.03953 226.5 C 145.61086 216.70715 145.05603000000002 215.46246 142.98364 215.1579 C 141.70332000000002 214.96974 138.08302 212.24302 134.93852 209.09852 C 123.23314 197.39314000000002 116.89146000000001 177.37556 121.43982000000001 166.48978 C 123.00204000000001 162.75088 128.15457 159.00970999999998 131.75 159.00374 C 134.44781 158.99974 134.47062 158.60296 132.91375 138.78796 C 130.92658 113.4962 134.27903 92.26542699999999 143.13217 74.075676 C 152.23162 55.379835 167.56889 42.88208 189.04934 36.659507000000005 C 210.20334 30.531504000000005 237.79666 30.531504000000005 258.95065999999997 36.659507000000005 C 300.04166 48.562968000000005 318.95842 83.80634 314.95504999999997 141 C 314.31982999999997 150.075 313.62402 157.78816 313.4088 158.14035 C 313.19359 158.49254000000002 314.57532 159.07295000000002 316.47931 159.43014000000002 C 328.92867 161.76565000000002 330.98619 177.01772000000003 321.49638 196.62092 C 316.90319 206.10912000000002 309.35724 214.50797 304.81732 215.18517000000003 C 303.02259 215.45289000000002 302.2931 217.14618000000002 299.94277999999997 226.50000000000003 C 296.65948 239.56693 294.47402 245.30522000000002 287.94764 257.99534000000006 C 282.49071999999995 268.60596000000004 273.03466 281.10922000000005 268.10756999999995 284.2288300000001 L 264.87062 286.27832000000006 L 265.51815999999997 292.88916000000006 C 266.34490999999997 301.32961000000006 268.63948999999997 309.8706000000001 270.87735999999995 312.83742000000007 C 272.06735 314.4150200000001 275.00244999999995 315.78963000000005 280.0630699999999 317.13941000000005 C 291.06929999999994 320.0750300000001 303.61700999999994 325.27420000000006 320.99999999999994 334.10171 C 369.81470999999993 358.89104000000003 410.84810999999996 393.75797 425.03216 422.5 C 429.06985999999995 430.68183 432 440.23198 432 445.2101 L 432 448 L 224 448 L 16 448 L 16 445.2101 Z"
                stroke-miterlimit="10"
                stroke-dasharray=""
              />
            </g>
          </g>
        </g>
        <g transform="matrix(1,0,0,1,4.039999999999992,13.680000000000007)">
          <g transform="matrix(0.04,0,0,0.04,63.36,69.12)">
            <g transform="matrix(1,0,0,1,0,0)">
              <path fill="none" stroke="none" />
            </g>
            <g transform="matrix(1,0,0,1,0,0)">
              <path fill="none" stroke="none" />
            </g>
          </g>
        </g>
        <g transform="matrix(1,0,0,1,35,43.5)">
          <text
            fill="#000000"
            stroke="none"
            font-family="Open Sans"
            font-size="12pt"
            font-style="normal"
            font-weight="normal"
            text-decoration="normal"
            x="47.2265625"
            y="12"
            text-anchor="middle"
            dominant-baseline="alphabetic"
          >HR Interview</text>
        </g>
      </g>
      <g transform="matrix(1,0,0,1,545,212)" />
      <g
        id="_8B62D3CA-5D03-4B2B-832B-126469288BB4"
        bpmn2nodeid="_8B62D3CA-5D03-4B2B-832B-126469288BB4"
        transform="matrix(1,0,0,1,307,212)"
      >
        <g>
          <path fill="none" stroke="none" />
        </g>
        <g transform="matrix(1,0,0,1,0,0)">
          <path
            fill="#ffffff"
            stroke="none"
            id="_8B62D3CA-5D03-4B2B-832B-126469288BB4?shapeType=BACKGROUND"
            paint-order="stroke fill markers"
            d=" M 2 0 L 152 0 L 152 0 A 2 2 0 0 1 154 2 L 154 100 L 154 100 A 2 2 0 0 1 152 102 L 2 102 L 2 102 A 2 2 0 0 1 0 100 L 0 2 L 0 2.0000000000000004 A 2 2 0 0 1 1.9999999999999996 0 Z"
          />
        </g>
        <g transform="matrix(1,0,0,1,0,0)">
          <path
            fill="none"
            stroke="rgb(0,0,0)"
            id="_8B62D3CA-5D03-4B2B-832B-126469288BB4?shapeType=BORDER&amp;renderType=STROKE"
            paint-order="fill stroke markers"
            d=" M 2 0 L 152 0 L 152 0 A 2 2 0 0 1 154 2 L 154 100 L 154 100 A 2 2 0 0 1 152 102 L 2 102 L 2 102 A 2 2 0 0 1 0 100 L 0 2 L 0 2.0000000000000004 A 2 2 0 0 1 1.9999999999999996 0 Z"
            stroke-miterlimit="10"
            stroke-width="1.5"
            stroke-dasharray=""
          />
        </g>
        <g>
          <g transform="matrix(0.06,0,0,0.06,9.4,9.4)">
            <g transform="matrix(1,0,0,1,0,0)">
              <path
                fill="#393f44"
                stroke="black"
                id="_8B62D3CA-5D03-4B2B-832B-126469288BB4_task__7anR__BPXk"
                paint-order="fill stroke markers"
                d=" M 0 0 M 197.3 130.2 C 194.4 127.29999999999998 189.60000000000002 127.29999999999998 186.70000000000002 130.2 L 130.20000000000002 186.7 C 127.30000000000001 189.6 127.30000000000001 194.39999999999998 130.20000000000002 197.29999999999998 L 186.70000000000002 253.79999999999998 C 188.10000000000002 255.29999999999998 190.10000000000002 255.99999999999997 192.00000000000003 255.99999999999997 C 193.90000000000003 255.99999999999997 195.90000000000003 255.29999999999998 197.30000000000004 253.69999999999996 C 200.20000000000005 250.79999999999995 200.20000000000005 245.99999999999997 197.30000000000004 243.09999999999997 L 146.2 192 L 197.29999999999998 140.8 C 200.2 137.9 200.2 133.1 197.3 130.2 Z"
                stroke-miterlimit="10"
                stroke-dasharray=""
              />
            </g>
            <g transform="matrix(1,0,0,1,0,0)">
              <path
                fill="#393f44"
                stroke="black"
                id="_8B62D3CA-5D03-4B2B-832B-126469288BB4_task__7anR__uD6S"
                paint-order="fill stroke markers"
                d=" M 0 0 M 261.3 130.2 C 258.40000000000003 127.29999999999998 253.60000000000002 127.29999999999998 250.70000000000002 130.2 C 247.8 133.1 247.8 137.89999999999998 250.70000000000002 140.79999999999998 L 301.8 191.89999999999998 L 250.7 243 C 247.79999999999998 245.9 247.79999999999998 250.7 250.7 253.6 C 252.1 255.29999999999998 254.1 256 256 256 C 257.9 256 259.9 255.3 261.3 253.8 L 317.8 197.3 C 320.7 194.4 320.7 189.60000000000002 317.8 186.70000000000002 L 261.3 130.2 Z"
                stroke-miterlimit="10"
                stroke-dasharray=""
              />
            </g>
            <g transform="matrix(1,0,0,1,0,0)">
              <path
                fill="#393f44"
                stroke="black"
                id="_8B62D3CA-5D03-4B2B-832B-126469288BB4_task__7anR__yltP"
                paint-order="fill stroke markers"
                d=" M 0 0 M 400 32 C 400 32 152.8 32 128 32 C 62 32 64 96 64 96 L 64 288 L 1 288 C 1 288 -4 416 78 416 L 320 416 C 368 416 384 368 384 336 C 384 314.2 384 224.4 384 160 L 448 160 L 448 96 C 448 96 449 32 400 32 Z M 0 0 M 78 383.9 C 68.5 383.9 61.6 381.09999999999997 55.5 374.9 C 43.4 362.4 37.5 339.59999999999997 34.9 320 L 256.9 320 C 257.09999999999997 322.7 257.29999999999995 325.4 257.59999999999997 328.2 C 259.99999999999994 351.59999999999997 264.7 370.09999999999997 271.9 383.9 L 78 383.9 L 78 383.9 Z M 0 0 M 352 336 C 352 345.9 349.6 360.3 342.9 371 C 337.2 380.1 330.4 384 320 384 C 285 384 288 288 288 288 L 96 288 L 96 96 L 96 95.9 L 96 95.10000000000001 C 96 90.60000000000001 97.6 78.30000000000001 104.7 71.20000000000002 C 106.5 69.40000000000002 111.9 64.00000000000001 128 64.00000000000001 L 356.5 64.00000000000001 C 354.4 72.80000000000001 352.8 81.80000000000001 352.2 89.9 C 352.2 90.5 352.09999999999997 91.10000000000001 352.09999999999997 91.7 C 352.09999999999997 92 352.09999999999997 92.3 352.09999999999997 92.60000000000001 C 352 94.8 352 96 352 96 L 352 160 L 352 336 Z"
                stroke-miterlimit="10"
                stroke-dasharray=""
              />
            </g>
          </g>
        </g>
        <g transform="matrix(1,0,0,1,35.83203125,43.5)">
          <text
            fill="#000000"
            stroke="none"
            font-family="Open Sans"
            font-size="12pt"
            font-style="normal"
            font-weight="normal"
            text-decoration="normal"
            x="41.16796875"
            y="12"
            text-anchor="middle"
            dominant-baseline="alphabetic"
          >New Hiring</text>
        </g>
      </g>
      <g transform="matrix(1,0,0,1,307,212)" />
      <g
        id="_017E0AD7-E662-4765-9C88-4D43ED8DF994"
        bpmn2nodeid="_017E0AD7-E662-4765-9C88-4D43ED8DF994"
        transform="matrix(1,0,0,1,764,235)"
      >
        <g>
          <path fill="none" stroke="none" />
        </g>
        <g transform="matrix(0.125,0,0,0.125,0,0)">
          <g transform="matrix(1,0,0,1,0,0)">
            <path
              fill="#fef4ea"
              stroke="black"
              id="_017E0AD7-E662-4765-9C88-4D43ED8DF994?shapeType=BACKGROUND"
              paint-order="fill stroke markers"
              d=" M 0 0 M 224.4 4.3 C 216.4 4.3 208.4 7.3 202.3 13.399999999999999 L 13.5 202.2 C 1.3000000000000007 214.39999999999998 1.3000000000000007 234.2 13.5 246.39999999999998 L 202.2 435.09999999999997 C 208.29999999999998 441.2 216.39999999999998 444.2 224.29999999999998 444.2 C 232.2 444.2 240.29999999999998 441.2 246.39999999999998 435.09999999999997 L 435.09999999999997 246.39999999999998 C 447.29999999999995 234.2 447.29999999999995 214.39999999999998 435.09999999999997 202.2 L 246.5 13.4 C 240.4 7.3 232.4 4.3 224.4 4.3 L 224.4 4.3 Z"
              stroke-miterlimit="10"
              stroke-dasharray=""
            />
          </g>
          <g>
            <g transform="matrix(1,0,0,1,0,0)">
              <g transform="matrix(1,0,0,1,0,0)">
                <path
                  fill="rgb(236,122,8)"
                  stroke="black"
                  id="_017E0AD7-E662-4765-9C88-4D43ED8DF994?shapeType=BORDER&amp;renderType=FILL"
                  paint-order="fill stroke markers"
                  d=" M 0 0 M 20.8 212.7 L 213.3 20.2 C 219.60000000000002 13.899999999999999 229.70000000000002 13.899999999999999 235.9 20.2 L 428.4 212.7 C 434.7 219 434.7 229.1 428.4 235.29999999999998 L 235.9 427.8 C 229.6 434.1 219.5 434.1 213.3 427.8 L 20.8 235.3 C 14.5 229.1 14.5 218.9 20.8 212.7 L 20.8 212.7 Z M 0 0 M 0 224 C 0 232.1 3.1 240.3 9.3 246.5 L 201.5 438.7 C 213.9 451.09999999999997 234.1 451.09999999999997 246.5 438.7 L 438.7 246.5 C 444.9 240.3 448 232.1 448 224 C 448 215.9 444.9 207.7 438.7 201.5 L 246.5 9.3 C 234.1 -3.0999999999999996 213.9 -3.0999999999999996 201.5 9.3 L 9.3 201.5 C 3.1 207.7 0 215.9 0 224 L 0 224 Z"
                  stroke-miterlimit="10"
                  stroke-dasharray=""
                />
              </g>
            </g>
          </g>
          <g>
            <g transform="matrix(1,0,0,1,0,0)">
              <g transform="matrix(1,0,0,1,0,0)">
                <path
                  fill="#ec7a08"
                  stroke="black"
                  id="_017E0AD7-E662-4765-9C88-4D43ED8DF994_exclusive"
                  paint-order="fill stroke markers"
                  d=" M 0 0 M 298.2 269.2 C 298.2 272.59999999999997 297.09999999999997 275.3 294.7 277.7 L 277.7 294.7 C 275.3 297.09999999999997 272.59999999999997 298.2 269.2 298.2 C 265.8 298.2 263.09999999999997 297.09999999999997 260.7 294.7 L 224 258 L 187.2 294.8 C 184.79999999999998 297.2 182.1 298.3 178.7 298.3 C 175.29999999999998 298.3 172.6 297.2 170.2 294.8 L 153.2 277.8 C 150.79999999999998 275.40000000000003 149.7 272.7 149.7 269.3 C 149.7 265.90000000000003 150.79999999999998 263.2 153.2 260.8 L 190 224 L 153.2 187.2 C 150.79999999999998 184.79999999999998 149.7 182 149.7 178.7 C 149.7 175.29999999999998 150.79999999999998 172.5 153.2 170.2 L 170.2 153.2 C 172.6 150.79999999999998 175.29999999999998 149.7 178.7 149.7 C 182.1 149.7 184.79999999999998 150.79999999999998 187.2 153.2 L 224 190 L 260.8 153.2 C 263.2 150.79999999999998 265.90000000000003 149.7 269.3 149.7 C 272.7 149.7 275.40000000000003 150.79999999999998 277.8 153.2 L 294.8 170.2 C 297.2 172.5 298.3 175.29999999999998 298.3 178.7 C 298.3 182 297.2 184.79999999999998 294.8 187.2 L 258 224 L 294.8 260.8 C 297.1 263.1 298.2 265.9 298.2 269.2 Z"
                  stroke-miterlimit="10"
                  stroke-dasharray=""
                />
              </g>
            </g>
          </g>
        </g>
        <g transform="matrix(1,0,0,1,-23.7890625,61)">
          <text
            fill="#000000"
            stroke="none"
            font-family="Open Sans"
            font-size="12pt"
            font-style="normal"
            font-weight="normal"
            text-decoration="normal"
            x="51.7890625"
            y="12"
            text-anchor="middle"
            dominant-baseline="alphabetic"
          >HR approved?</text>
        </g>
      </g>
      <g transform="matrix(1,0,0,1,764,235)" />
      <g
        id="_47EA05EC-0577-4627-8A2A-90FC3EBDE317"
        bpmn2nodeid="_47EA05EC-0577-4627-8A2A-90FC3EBDE317"
        transform="matrix(1,0,0,1,885,212)"
      >
        <g>
          <path fill="none" stroke="none" />
        </g>
        <g transform="matrix(1,0,0,1,0,0)">
          <path
            fill="#ffffff"
            stroke="none"
            id="_47EA05EC-0577-4627-8A2A-90FC3EBDE317?shapeType=BACKGROUND"
            paint-order="stroke fill markers"
            d=" M 2 0 L 152 0 L 152 0 A 2 2 0 0 1 154 2 L 154 100 L 154 100 A 2 2 0 0 1 152 102 L 2 102 L 2 102 A 2 2 0 0 1 0 100 L 0 2 L 0 2.0000000000000004 A 2 2 0 0 1 1.9999999999999996 0 Z"
          />
        </g>
        <g transform="matrix(1,0,0,1,0,0)">
          <path
            fill="none"
            stroke="rgb(0,0,0)"
            id="_47EA05EC-0577-4627-8A2A-90FC3EBDE317?shapeType=BORDER&amp;renderType=STROKE"
            paint-order="fill stroke markers"
            d=" M 2 0 L 152 0 L 152 0 A 2 2 0 0 1 154 2 L 154 100 L 154 100 A 2 2 0 0 1 152 102 L 2 102 L 2 102 A 2 2 0 0 1 0 100 L 0 2 L 0 2.0000000000000004 A 2 2 0 0 1 1.9999999999999996 0 Z"
            stroke-miterlimit="10"
            stroke-width="1.5"
            stroke-dasharray=""
          />
        </g>
        <g>
          <g transform="matrix(0.06,0,0,0.06,9.4,9.4)">
            <g transform="matrix(1,0,0,1,0,0)">
              <path
                fill="#393f44"
                stroke="black"
                id="_47EA05EC-0577-4627-8A2A-90FC3EBDE317_task__dV4m__UdzN"
                paint-order="fill stroke markers"
                d=" M 0 0 M 16 445.2101 C 16 440.86867 18.784312 431.12906000000004 22.001325 424.21728 C 35.767643 394.6402 77.282944 359.28049 129 333.08362 C 144.51625 325.22398 157.34689 319.96394 167.80739 317.17416 C 171.93153 316.07426 175.72913 314.41389999999996 176.5251 313.36265 C 178.89361 310.23449999999997 180.91404 302.90781 181.72673 294.5 L 182.5 286.5 L 178.50715 283.45457 C 166.30327 274.14645 154.2837 251.67767 148.03953 226.5 C 145.61086 216.70715 145.05603000000002 215.46246 142.98364 215.1579 C 141.70332000000002 214.96974 138.08302 212.24302 134.93852 209.09852 C 123.23314 197.39314000000002 116.89146000000001 177.37556 121.43982000000001 166.48978 C 123.00204000000001 162.75088 128.15457 159.00970999999998 131.75 159.00374 C 134.44781 158.99974 134.47062 158.60296 132.91375 138.78796 C 130.92658 113.4962 134.27903 92.26542699999999 143.13217 74.075676 C 152.23162 55.379835 167.56889 42.88208 189.04934 36.659507000000005 C 210.20334 30.531504000000005 237.79666 30.531504000000005 258.95065999999997 36.659507000000005 C 300.04166 48.562968000000005 318.95842 83.80634 314.95504999999997 141 C 314.31982999999997 150.075 313.62402 157.78816 313.4088 158.14035 C 313.19359 158.49254000000002 314.57532 159.07295000000002 316.47931 159.43014000000002 C 328.92867 161.76565000000002 330.98619 177.01772000000003 321.49638 196.62092 C 316.90319 206.10912000000002 309.35724 214.50797 304.81732 215.18517000000003 C 303.02259 215.45289000000002 302.2931 217.14618000000002 299.94277999999997 226.50000000000003 C 296.65948 239.56693 294.47402 245.30522000000002 287.94764 257.99534000000006 C 282.49071999999995 268.60596000000004 273.03466 281.10922000000005 268.10756999999995 284.2288300000001 L 264.87062 286.27832000000006 L 265.51815999999997 292.88916000000006 C 266.34490999999997 301.32961000000006 268.63948999999997 309.8706000000001 270.87735999999995 312.83742000000007 C 272.06735 314.4150200000001 275.00244999999995 315.78963000000005 280.0630699999999 317.13941000000005 C 291.06929999999994 320.0750300000001 303.61700999999994 325.27420000000006 320.99999999999994 334.10171 C 369.81470999999993 358.89104000000003 410.84810999999996 393.75797 425.03216 422.5 C 429.06985999999995 430.68183 432 440.23198 432 445.2101 L 432 448 L 224 448 L 16 448 L 16 445.2101 Z"
                stroke-miterlimit="10"
                stroke-dasharray=""
              />
            </g>
          </g>
        </g>
        <g transform="matrix(1,0,0,1,4.039999999999992,13.680000000000007)">
          <g transform="matrix(0.04,0,0,0.04,63.36,69.12)">
            <g transform="matrix(1,0,0,1,0,0)">
              <path fill="none" stroke="none" />
            </g>
            <g transform="matrix(1,0,0,1,0,0)">
              <path fill="none" stroke="none" />
            </g>
          </g>
        </g>
        <g transform="matrix(1,0,0,1,35,43.5)">
          <text
            fill="#000000"
            stroke="none"
            font-family="Open Sans"
            font-size="12pt"
            font-style="normal"
            font-weight="normal"
            text-decoration="normal"
            x="43.03515625"
            y="12"
            text-anchor="middle"
            dominant-baseline="alphabetic"
          >IT Interview</text>
        </g>
      </g>
      <g transform="matrix(1,0,0,1,885,212)" />
      <g
        id="_E0AC0EF9-E643-4F63-B414-7E7B78E4CF4B"
        bpmn2nodeid="_E0AC0EF9-E643-4F63-B414-7E7B78E4CF4B"
        transform="matrix(1,0,0,1,1104,235)"
      >
        <g>
          <path fill="none" stroke="none" />
        </g>
        <g transform="matrix(0.125,0,0,0.125,0,0)">
          <g transform="matrix(1,0,0,1,0,0)">
            <path
              fill="#fef4ea"
              stroke="black"
              id="_E0AC0EF9-E643-4F63-B414-7E7B78E4CF4B?shapeType=BACKGROUND"
              paint-order="fill stroke markers"
              d=" M 0 0 M 224.4 4.3 C 216.4 4.3 208.4 7.3 202.3 13.399999999999999 L 13.5 202.2 C 1.3000000000000007 214.39999999999998 1.3000000000000007 234.2 13.5 246.39999999999998 L 202.2 435.09999999999997 C 208.29999999999998 441.2 216.39999999999998 444.2 224.29999999999998 444.2 C 232.2 444.2 240.29999999999998 441.2 246.39999999999998 435.09999999999997 L 435.09999999999997 246.39999999999998 C 447.29999999999995 234.2 447.29999999999995 214.39999999999998 435.09999999999997 202.2 L 246.5 13.4 C 240.4 7.3 232.4 4.3 224.4 4.3 L 224.4 4.3 Z"
              stroke-miterlimit="10"
              stroke-dasharray=""
            />
          </g>
          <g>
            <g transform="matrix(1,0,0,1,0,0)">
              <g transform="matrix(1,0,0,1,0,0)">
                <path
                  fill="#ec7a08"
                  stroke="black"
                  id="_E0AC0EF9-E643-4F63-B414-7E7B78E4CF4B?shapeType=BORDER&amp;renderType=FILL"
                  paint-order="fill stroke markers"
                  d=" M 0 0 M 20.8 212.7 L 213.3 20.2 C 219.60000000000002 13.899999999999999 229.70000000000002 13.899999999999999 235.9 20.2 L 428.4 212.7 C 434.7 219 434.7 229.1 428.4 235.29999999999998 L 235.9 427.8 C 229.6 434.1 219.5 434.1 213.3 427.8 L 20.8 235.3 C 14.5 229.1 14.5 218.9 20.8 212.7 L 20.8 212.7 Z M 0 0 M 0 224 C 0 232.1 3.1 240.3 9.3 246.5 L 201.5 438.7 C 213.9 451.09999999999997 234.1 451.09999999999997 246.5 438.7 L 438.7 246.5 C 444.9 240.3 448 232.1 448 224 C 448 215.9 444.9 207.7 438.7 201.5 L 246.5 9.3 C 234.1 -3.0999999999999996 213.9 -3.0999999999999996 201.5 9.3 L 9.3 201.5 C 3.1 207.7 0 215.9 0 224 L 0 224 Z"
                  stroke-miterlimit="10"
                  stroke-dasharray=""
                />
              </g>
            </g>
          </g>
          <g>
            <g transform="matrix(1,0,0,1,0,0)">
              <g transform="matrix(1,0,0,1,0,0)">
                <path
                  fill="#ec7a08"
                  stroke="black"
                  id="_E0AC0EF9-E643-4F63-B414-7E7B78E4CF4B_exclusive"
                  paint-order="fill stroke markers"
                  d=" M 0 0 M 298.2 269.2 C 298.2 272.59999999999997 297.09999999999997 275.3 294.7 277.7 L 277.7 294.7 C 275.3 297.09999999999997 272.59999999999997 298.2 269.2 298.2 C 265.8 298.2 263.09999999999997 297.09999999999997 260.7 294.7 L 224 258 L 187.2 294.8 C 184.79999999999998 297.2 182.1 298.3 178.7 298.3 C 175.29999999999998 298.3 172.6 297.2 170.2 294.8 L 153.2 277.8 C 150.79999999999998 275.40000000000003 149.7 272.7 149.7 269.3 C 149.7 265.90000000000003 150.79999999999998 263.2 153.2 260.8 L 190 224 L 153.2 187.2 C 150.79999999999998 184.79999999999998 149.7 182 149.7 178.7 C 149.7 175.29999999999998 150.79999999999998 172.5 153.2 170.2 L 170.2 153.2 C 172.6 150.79999999999998 175.29999999999998 149.7 178.7 149.7 C 182.1 149.7 184.79999999999998 150.79999999999998 187.2 153.2 L 224 190 L 260.8 153.2 C 263.2 150.79999999999998 265.90000000000003 149.7 269.3 149.7 C 272.7 149.7 275.40000000000003 150.79999999999998 277.8 153.2 L 294.8 170.2 C 297.2 172.5 298.3 175.29999999999998 298.3 178.7 C 298.3 182 297.2 184.79999999999998 294.8 187.2 L 258 224 L 294.8 260.8 C 297.1 263.1 298.2 265.9 298.2 269.2 Z"
                  stroke-miterlimit="10"
                  stroke-dasharray=""
                />
              </g>
            </g>
          </g>
        </g>
        <g transform="matrix(1,0,0,1,-19.59765625,61)">
          <text
            fill="#000000"
            stroke="none"
            font-family="Open Sans"
            font-size="12pt"
            font-style="normal"
            font-weight="normal"
            text-decoration="normal"
            x="47.59765625"
            y="12"
            text-anchor="middle"
            dominant-baseline="alphabetic"
          >IT approved?</text>
        </g>
      </g>
      <g transform="matrix(1,0,0,1,1104,235)" />
      <g
        id="_C24FB701-0AB1-473F-9818-26EB00035B06"
        bpmn2nodeid="_C24FB701-0AB1-473F-9818-26EB00035B06"
        transform="matrix(1,0,0,1,1438,235)"
      >
        <g>
          <path fill="none" stroke="none" />
        </g>
        <g transform="matrix(0.125,0,0,0.125,0,0)">
          <g transform="matrix(1,0,0,1,0,0)">
            <path
              fill="#fce7e7"
              stroke="black"
              id="_C24FB701-0AB1-473F-9818-26EB00035B06?shapeType=BACKGROUND"
              paint-order="fill stroke markers"
              d=" M 0 0 M 444 224 C 444 263.9 434.2 300.8 414.4 334.5 C 394.7 368.2 368 394.9 334.4 414.5 C 300.79999999999995 434.1 263.9 444 224 444 C 184.10000000000002 444 147.2 434.2 113.5 414.4 C 79.8 394.7 53.1 368 33.5 334.4 C 13.899999999999999 300.79999999999995 4 263.9 4 224 C 4 184.10000000000002 13.8 147.2 33.6 113.5 C 53.400000000000006 79.80000000000001 80.1 53.1 113.6 33.5 C 147.1 13.899999999999999 184.1 4 224 4 C 263.9 4 300.8 13.8 334.5 33.6 C 368.2 53.400000000000006 394.9 80.1 414.5 113.6 C 434.1 147.1 444 184.1 444 224 Z"
              stroke-miterlimit="10"
              stroke-dasharray=""
            />
          </g>
          <g>
            <g transform="matrix(1,0,0,1,0,0)">
              <g transform="matrix(1,0,0,1,0,0)">
                <path
                  fill="#a30000"
                  stroke="black"
                  id="_C24FB701-0AB1-473F-9818-26EB00035B06?shapeType=BORDER&amp;renderType=FILL"
                  paint-order="fill stroke markers"
                  d=" M 0 0 M 224 0 C 100.3 0 0 100.3 0 224 C 0 347.7 100.3 448 224 448 C 347.7 448 448 347.7 448 224 C 448 100.30000000000001 347.7 0 224 0 Z M 0 0 M 224 400 C 126.8 400 48 321.2 48 224 C 48 126.80000000000001 126.8 48 224 48 C 321.2 48 400 126.8 400 224 C 400 321.2 321.2 400 224 400 Z"
                  stroke-miterlimit="10"
                  stroke-dasharray=""
                />
              </g>
            </g>
          </g>
        </g>
        <g transform="matrix(1,0,0,1,-7.4296875,61)">
          <text
            fill="#000000"
            stroke="none"
            font-family="Open Sans"
            font-size="12pt"
            font-style="normal"
            font-weight="normal"
            text-decoration="normal"
            x="35.4296875"
            y="12"
            text-anchor="middle"
            dominant-baseline="alphabetic"
          >approved</text>
        </g>
      </g>
      <g transform="matrix(1,0,0,1,1438,235)" />
      <g
        id="_6F3EBC4F-1493-4272-BE80-CDD268715AD6"
        bpmn2nodeid="_6F3EBC4F-1493-4272-BE80-CDD268715AD6"
        transform="matrix(1,0,0,1,1104,385.4100000000001)"
      >
        <g>
          <path fill="none" stroke="none" />
        </g>
        <g transform="matrix(0.125,0,0,0.125,0,0)">
          <g transform="matrix(1,0,0,1,0,0)">
            <path
              fill="#fef4ea"
              stroke="black"
              id="_6F3EBC4F-1493-4272-BE80-CDD268715AD6?shapeType=BACKGROUND"
              paint-order="fill stroke markers"
              d=" M 0 0 M 224.4 4.3 C 216.4 4.3 208.4 7.3 202.3 13.399999999999999 L 13.5 202.2 C 1.3000000000000007 214.39999999999998 1.3000000000000007 234.2 13.5 246.39999999999998 L 202.2 435.09999999999997 C 208.29999999999998 441.2 216.39999999999998 444.2 224.29999999999998 444.2 C 232.2 444.2 240.29999999999998 441.2 246.39999999999998 435.09999999999997 L 435.09999999999997 246.39999999999998 C 447.29999999999995 234.2 447.29999999999995 214.39999999999998 435.09999999999997 202.2 L 246.5 13.4 C 240.4 7.3 232.4 4.3 224.4 4.3 L 224.4 4.3 Z"
              stroke-miterlimit="10"
              stroke-dasharray=""
            />
          </g>
          <g>
            <g transform="matrix(1,0,0,1,0,0)">
              <g transform="matrix(1,0,0,1,0,0)">
                <path
                  fill="#ec7a08"
                  stroke="black"
                  id="_6F3EBC4F-1493-4272-BE80-CDD268715AD6?shapeType=BORDER&amp;renderType=FILL"
                  paint-order="fill stroke markers"
                  d=" M 0 0 M 20.8 212.7 L 213.3 20.2 C 219.60000000000002 13.899999999999999 229.70000000000002 13.899999999999999 235.9 20.2 L 428.4 212.7 C 434.7 219 434.7 229.1 428.4 235.29999999999998 L 235.9 427.8 C 229.6 434.1 219.5 434.1 213.3 427.8 L 20.8 235.3 C 14.5 229.1 14.5 218.9 20.8 212.7 L 20.8 212.7 Z M 0 0 M 0 224 C 0 232.1 3.1 240.3 9.3 246.5 L 201.5 438.7 C 213.9 451.09999999999997 234.1 451.09999999999997 246.5 438.7 L 438.7 246.5 C 444.9 240.3 448 232.1 448 224 C 448 215.9 444.9 207.7 438.7 201.5 L 246.5 9.3 C 234.1 -3.0999999999999996 213.9 -3.0999999999999996 201.5 9.3 L 9.3 201.5 C 3.1 207.7 0 215.9 0 224 L 0 224 Z"
                  stroke-miterlimit="10"
                  stroke-dasharray=""
                />
              </g>
            </g>
          </g>
          <g>
            <g transform="matrix(1,0,0,1,0,0)">
              <g transform="matrix(1,0,0,1,0,0)">
                <path
                  fill="#ec7a08"
                  stroke="black"
                  id="_6F3EBC4F-1493-4272-BE80-CDD268715AD6_exclusive"
                  paint-order="fill stroke markers"
                  d=" M 0 0 M 298.2 269.2 C 298.2 272.59999999999997 297.09999999999997 275.3 294.7 277.7 L 277.7 294.7 C 275.3 297.09999999999997 272.59999999999997 298.2 269.2 298.2 C 265.8 298.2 263.09999999999997 297.09999999999997 260.7 294.7 L 224 258 L 187.2 294.8 C 184.79999999999998 297.2 182.1 298.3 178.7 298.3 C 175.29999999999998 298.3 172.6 297.2 170.2 294.8 L 153.2 277.8 C 150.79999999999998 275.40000000000003 149.7 272.7 149.7 269.3 C 149.7 265.90000000000003 150.79999999999998 263.2 153.2 260.8 L 190 224 L 153.2 187.2 C 150.79999999999998 184.79999999999998 149.7 182 149.7 178.7 C 149.7 175.29999999999998 150.79999999999998 172.5 153.2 170.2 L 170.2 153.2 C 172.6 150.79999999999998 175.29999999999998 149.7 178.7 149.7 C 182.1 149.7 184.79999999999998 150.79999999999998 187.2 153.2 L 224 190 L 260.8 153.2 C 263.2 150.79999999999998 265.90000000000003 149.7 269.3 149.7 C 272.7 149.7 275.40000000000003 150.79999999999998 277.8 153.2 L 294.8 170.2 C 297.2 172.5 298.3 175.29999999999998 298.3 178.7 C 298.3 182 297.2 184.79999999999998 294.8 187.2 L 258 224 L 294.8 260.8 C 297.1 263.1 298.2 265.9 298.2 269.2 Z"
                  stroke-miterlimit="10"
                  stroke-dasharray=""
                />
              </g>
            </g>
          </g>
        </g>
        <g transform="matrix(1,0,0,1,28,61)" />
      </g>
      <g transform="matrix(1,0,0,1,1104,385.4100000000001)" />
      <g
        id="_FC9F6C75-5C47-414C-9A27-53B104C4329B"
        bpmn2nodeid="_FC9F6C75-5C47-414C-9A27-53B104C4329B"
        transform="matrix(1,0,0,1,1225,362.4100000000001)"
      >
        <g>
          <path fill="none" stroke="none" />
        </g>
        <g transform="matrix(1,0,0,1,0,0)">
          <path
            fill="#ffffff"
            stroke="none"
            id="_FC9F6C75-5C47-414C-9A27-53B104C4329B?shapeType=BACKGROUND"
            paint-order="stroke fill markers"
            d=" M 2 0 L 152 0 L 152 0 A 2 2 0 0 1 154 2 L 154 100 L 154 100 A 2 2 0 0 1 152 102 L 2 102 L 2 102 A 2 2 0 0 1 0 100 L 0 2 L 0 2.0000000000000004 A 2 2 0 0 1 1.9999999999999996 0 Z"
          />
        </g>
        <g transform="matrix(1,0,0,1,0,0)">
          <path
            fill="none"
            stroke="#000000"
            id="_FC9F6C75-5C47-414C-9A27-53B104C4329B?shapeType=BORDER&amp;renderType=STROKE"
            paint-order="fill stroke markers"
            d=" M 2 0 L 152 0 L 152 0 A 2 2 0 0 1 154 2 L 154 100 L 154 100 A 2 2 0 0 1 152 102 L 2 102 L 2 102 A 2 2 0 0 1 0 100 L 0 2 L 0 2.0000000000000004 A 2 2 0 0 1 1.9999999999999996 0 Z"
            stroke-miterlimit="10"
            stroke-width="1.5"
            stroke-dasharray=""
          />
        </g>
        <g>
          <g transform="matrix(0.06,0,0,0.06,9.4,9.4)">
            <g transform="matrix(1,0,0,1,0,0)">
              <path
                fill="#393f44"
                stroke="black"
                id="_FC9F6C75-5C47-414C-9A27-53B104C4329B_task__7anR__BPXk"
                paint-order="fill stroke markers"
                d=" M 0 0 M 197.3 130.2 C 194.4 127.29999999999998 189.60000000000002 127.29999999999998 186.70000000000002 130.2 L 130.20000000000002 186.7 C 127.30000000000001 189.6 127.30000000000001 194.39999999999998 130.20000000000002 197.29999999999998 L 186.70000000000002 253.79999999999998 C 188.10000000000002 255.29999999999998 190.10000000000002 255.99999999999997 192.00000000000003 255.99999999999997 C 193.90000000000003 255.99999999999997 195.90000000000003 255.29999999999998 197.30000000000004 253.69999999999996 C 200.20000000000005 250.79999999999995 200.20000000000005 245.99999999999997 197.30000000000004 243.09999999999997 L 146.2 192 L 197.29999999999998 140.8 C 200.2 137.9 200.2 133.1 197.3 130.2 Z"
                stroke-miterlimit="10"
                stroke-dasharray=""
              />
            </g>
            <g transform="matrix(1,0,0,1,0,0)">
              <path
                fill="#393f44"
                stroke="black"
                id="_FC9F6C75-5C47-414C-9A27-53B104C4329B_task__7anR__uD6S"
                paint-order="fill stroke markers"
                d=" M 0 0 M 261.3 130.2 C 258.40000000000003 127.29999999999998 253.60000000000002 127.29999999999998 250.70000000000002 130.2 C 247.8 133.1 247.8 137.89999999999998 250.70000000000002 140.79999999999998 L 301.8 191.89999999999998 L 250.7 243 C 247.79999999999998 245.9 247.79999999999998 250.7 250.7 253.6 C 252.1 255.29999999999998 254.1 256 256 256 C 257.9 256 259.9 255.3 261.3 253.8 L 317.8 197.3 C 320.7 194.4 320.7 189.60000000000002 317.8 186.70000000000002 L 261.3 130.2 Z"
                stroke-miterlimit="10"
                stroke-dasharray=""
              />
            </g>
            <g transform="matrix(1,0,0,1,0,0)">
              <path
                fill="#393f44"
                stroke="black"
                id="_FC9F6C75-5C47-414C-9A27-53B104C4329B_task__7anR__yltP"
                paint-order="fill stroke markers"
                d=" M 0 0 M 400 32 C 400 32 152.8 32 128 32 C 62 32 64 96 64 96 L 64 288 L 1 288 C 1 288 -4 416 78 416 L 320 416 C 368 416 384 368 384 336 C 384 314.2 384 224.4 384 160 L 448 160 L 448 96 C 448 96 449 32 400 32 Z M 0 0 M 78 383.9 C 68.5 383.9 61.6 381.09999999999997 55.5 374.9 C 43.4 362.4 37.5 339.59999999999997 34.9 320 L 256.9 320 C 257.09999999999997 322.7 257.29999999999995 325.4 257.59999999999997 328.2 C 259.99999999999994 351.59999999999997 264.7 370.09999999999997 271.9 383.9 L 78 383.9 L 78 383.9 Z M 0 0 M 352 336 C 352 345.9 349.6 360.3 342.9 371 C 337.2 380.1 330.4 384 320 384 C 285 384 288 288 288 288 L 96 288 L 96 96 L 96 95.9 L 96 95.10000000000001 C 96 90.60000000000001 97.6 78.30000000000001 104.7 71.20000000000002 C 106.5 69.40000000000002 111.9 64.00000000000001 128 64.00000000000001 L 356.5 64.00000000000001 C 354.4 72.80000000000001 352.8 81.80000000000001 352.2 89.9 C 352.2 90.5 352.09999999999997 91.10000000000001 352.09999999999997 91.7 C 352.09999999999997 92 352.09999999999997 92.3 352.09999999999997 92.60000000000001 C 352 94.8 352 96 352 96 L 352 160 L 352 336 Z"
                stroke-miterlimit="10"
                stroke-dasharray=""
              />
            </g>
          </g>
        </g>
        <g transform="matrix(1,0,0,1,35,36)">
          <text
            fill="#000000"
            stroke="none"
            font-family="Open Sans"
            font-size="12pt"
            font-style="normal"
            font-weight="normal"
            text-decoration="normal"
            x="43.83984375"
            y="12"
            text-anchor="middle"
            dominant-baseline="alphabetic"
          >Application </text>
          <text
            fill="#000000"
            stroke="none"
            font-family="Open Sans"
            font-size="12pt"
            font-style="normal"
            font-weight="normal"
            text-decoration="normal"
            x="43.83984375"
            y="27"
            text-anchor="middle"
            dominant-baseline="alphabetic"
          >    denied     </text>
        </g>
      </g>
      <g transform="matrix(1,0,0,1,1225,362.4100000000001)" />
      <g
        id="_D1060AB3-6C3E-4315-A0BE-CB9328EE505C"
        bpmn2nodeid="_D1060AB3-6C3E-4315-A0BE-CB9328EE505C"
        transform="matrix(1,0,0,1,1222,212.41000000000008)"
      >
        <g>
          <path fill="none" stroke="none" />
        </g>
        <g transform="matrix(1,0,0,1,0,0)">
          <path
            fill="#ffffff"
            stroke="none"
            id="_D1060AB3-6C3E-4315-A0BE-CB9328EE505C?shapeType=BACKGROUND"
            paint-order="stroke fill markers"
            d=" M 2 0 L 152 0 L 152 0 A 2 2 0 0 1 154 2 L 154 100 L 154 100 A 2 2 0 0 1 152 102 L 2 102 L 2 102 A 2 2 0 0 1 0 100 L 0 2 L 0 2.0000000000000004 A 2 2 0 0 1 1.9999999999999996 0 Z"
          />
        </g>
        <g transform="matrix(1,0,0,1,0,0)">
          <path
            fill="none"
            stroke="#000000"
            id="_D1060AB3-6C3E-4315-A0BE-CB9328EE505C?shapeType=BORDER&amp;renderType=STROKE"
            paint-order="fill stroke markers"
            d=" M 2 0 L 152 0 L 152 0 A 2 2 0 0 1 154 2 L 154 100 L 154 100 A 2 2 0 0 1 152 102 L 2 102 L 2 102 A 2 2 0 0 1 0 100 L 0 2 L 0 2.0000000000000004 A 2 2 0 0 1 1.9999999999999996 0 Z"
            stroke-miterlimit="10"
            stroke-width="1.5"
            stroke-dasharray=""
          />
        </g>
        <g>
          <g transform="matrix(0.06,0,0,0.06,9.4,9.4)">
            <g transform="matrix(1,0,0,1,0,0)">
              <path
                fill="#393f44"
                stroke="black"
                id="_D1060AB3-6C3E-4315-A0BE-CB9328EE505C_task__7anR__BPXk"
                paint-order="fill stroke markers"
                d=" M 0 0 M 197.3 130.2 C 194.4 127.29999999999998 189.60000000000002 127.29999999999998 186.70000000000002 130.2 L 130.20000000000002 186.7 C 127.30000000000001 189.6 127.30000000000001 194.39999999999998 130.20000000000002 197.29999999999998 L 186.70000000000002 253.79999999999998 C 188.10000000000002 255.29999999999998 190.10000000000002 255.99999999999997 192.00000000000003 255.99999999999997 C 193.90000000000003 255.99999999999997 195.90000000000003 255.29999999999998 197.30000000000004 253.69999999999996 C 200.20000000000005 250.79999999999995 200.20000000000005 245.99999999999997 197.30000000000004 243.09999999999997 L 146.2 192 L 197.29999999999998 140.8 C 200.2 137.9 200.2 133.1 197.3 130.2 Z"
                stroke-miterlimit="10"
                stroke-dasharray=""
              />
            </g>
            <g transform="matrix(1,0,0,1,0,0)">
              <path
                fill="#393f44"
                stroke="black"
                id="_D1060AB3-6C3E-4315-A0BE-CB9328EE505C_task__7anR__uD6S"
                paint-order="fill stroke markers"
                d=" M 0 0 M 261.3 130.2 C 258.40000000000003 127.29999999999998 253.60000000000002 127.29999999999998 250.70000000000002 130.2 C 247.8 133.1 247.8 137.89999999999998 250.70000000000002 140.79999999999998 L 301.8 191.89999999999998 L 250.7 243 C 247.79999999999998 245.9 247.79999999999998 250.7 250.7 253.6 C 252.1 255.29999999999998 254.1 256 256 256 C 257.9 256 259.9 255.3 261.3 253.8 L 317.8 197.3 C 320.7 194.4 320.7 189.60000000000002 317.8 186.70000000000002 L 261.3 130.2 Z"
                stroke-miterlimit="10"
                stroke-dasharray=""
              />
            </g>
            <g transform="matrix(1,0,0,1,0,0)">
              <path
                fill="#393f44"
                stroke="black"
                id="_D1060AB3-6C3E-4315-A0BE-CB9328EE505C_task__7anR__yltP"
                paint-order="fill stroke markers"
                d=" M 0 0 M 400 32 C 400 32 152.8 32 128 32 C 62 32 64 96 64 96 L 64 288 L 1 288 C 1 288 -4 416 78 416 L 320 416 C 368 416 384 368 384 336 C 384 314.2 384 224.4 384 160 L 448 160 L 448 96 C 448 96 449 32 400 32 Z M 0 0 M 78 383.9 C 68.5 383.9 61.6 381.09999999999997 55.5 374.9 C 43.4 362.4 37.5 339.59999999999997 34.9 320 L 256.9 320 C 257.09999999999997 322.7 257.29999999999995 325.4 257.59999999999997 328.2 C 259.99999999999994 351.59999999999997 264.7 370.09999999999997 271.9 383.9 L 78 383.9 L 78 383.9 Z M 0 0 M 352 336 C 352 345.9 349.6 360.3 342.9 371 C 337.2 380.1 330.4 384 320 384 C 285 384 288 288 288 288 L 96 288 L 96 96 L 96 95.9 L 96 95.10000000000001 C 96 90.60000000000001 97.6 78.30000000000001 104.7 71.20000000000002 C 106.5 69.40000000000002 111.9 64.00000000000001 128 64.00000000000001 L 356.5 64.00000000000001 C 354.4 72.80000000000001 352.8 81.80000000000001 352.2 89.9 C 352.2 90.5 352.09999999999997 91.10000000000001 352.09999999999997 91.7 C 352.09999999999997 92 352.09999999999997 92.3 352.09999999999997 92.60000000000001 C 352 94.8 352 96 352 96 L 352 160 L 352 336 Z"
                stroke-miterlimit="10"
                stroke-dasharray=""
              />
            </g>
          </g>
        </g>
        <g transform="matrix(1,0,0,1,35,36)">
          <text
            fill="#000000"
            stroke="none"
            font-family="Open Sans"
            font-size="12pt"
            font-style="normal"
            font-weight="normal"
            text-decoration="normal"
            x="43.83984375"
            y="12"
            text-anchor="middle"
            dominant-baseline="alphabetic"
          >Application </text>
          <text
            fill="#000000"
            stroke="none"
            font-family="Open Sans"
            font-size="12pt"
            font-style="normal"
            font-weight="normal"
            text-decoration="normal"
            x="43.83984375"
            y="27"
            text-anchor="middle"
            dominant-baseline="alphabetic"
          >  approved  </text>
        </g>
      </g>
      <g transform="matrix(1,0,0,1,1222,212.41000000000008)" />
      <g
        id="_DF9ECFF2-2E01-4292-BE86-A363FBB7FC6A"
        bpmn2nodeid="_DF9ECFF2-2E01-4292-BE86-A363FBB7FC6A"
        transform="matrix(1,0,0,1,1438,385.4100000000001)"
      >
        <g>
          <path fill="none" stroke="none" />
        </g>
        <g transform="matrix(0.125,0,0,0.125,0,0)">
          <g transform="matrix(1,0,0,1,0,0)">
            <path
              fill="#fce7e7"
              stroke="black"
              id="_DF9ECFF2-2E01-4292-BE86-A363FBB7FC6A?shapeType=BACKGROUND"
              paint-order="fill stroke markers"
              d=" M 0 0 M 444 224 C 444 263.9 434.2 300.8 414.4 334.5 C 394.7 368.2 368 394.9 334.4 414.5 C 300.79999999999995 434.1 263.9 444 224 444 C 184.10000000000002 444 147.2 434.2 113.5 414.4 C 79.8 394.7 53.1 368 33.5 334.4 C 13.899999999999999 300.79999999999995 4 263.9 4 224 C 4 184.10000000000002 13.8 147.2 33.6 113.5 C 53.400000000000006 79.80000000000001 80.1 53.1 113.6 33.5 C 147.1 13.899999999999999 184.1 4 224 4 C 263.9 4 300.8 13.8 334.5 33.6 C 368.2 53.400000000000006 394.9 80.1 414.5 113.6 C 434.1 147.1 444 184.1 444 224 Z"
              stroke-miterlimit="10"
              stroke-dasharray=""
            />
          </g>
          <g>
            <g transform="matrix(1,0,0,1,0,0)">
              <g transform="matrix(1,0,0,1,0,0)">
                <path
                  fill="#a30000"
                  stroke="black"
                  id="_DF9ECFF2-2E01-4292-BE86-A363FBB7FC6A?shapeType=BORDER&amp;renderType=FILL"
                  paint-order="fill stroke markers"
                  d=" M 0 0 M 224 0 C 100.3 0 0 100.3 0 224 C 0 347.7 100.3 448 224 448 C 347.7 448 448 347.7 448 224 C 448 100.30000000000001 347.7 0 224 0 Z M 0 0 M 224 400 C 126.8 400 48 321.2 48 224 C 48 126.80000000000001 126.8 48 224 48 C 321.2 48 400 126.8 400 224 C 400 321.2 321.2 400 224 400 Z"
                  stroke-miterlimit="10"
                  stroke-dasharray=""
                />
              </g>
            </g>
          </g>
        </g>
        <g transform="matrix(1,0,0,1,2.28515625,61)">
          <text
            fill="#000000"
            stroke="none"
            font-family="Open Sans"
            font-size="12pt"
            font-style="normal"
            font-weight="normal"
            text-decoration="normal"
            x="25.71484375"
            y="12"
            text-anchor="middle"
            dominant-baseline="alphabetic"
          >denied</text>
        </g>
      </g>
      <g transform="matrix(1,0,0,1,1438,385.4100000000001)" />
      <g id="_9EAFE6C1-69B4-4908-B764-EF3C4A55BEE3" bpmn2nodeid="_9EAFE6C1-69B4-4908-B764-EF3C4A55BEE3">
        <g>
          <path
            fill="none"
            stroke="#000000"
            paint-order="fill stroke markers"
            d=" M 222.99999999999997 263 L 292 263"
            stroke-miterlimit="10"
            stroke-dasharray=""
          />
        </g>
        <g transform="matrix(1,0,0,1,222.99999999999997,263)" />
        <g transform="matrix(6.123233995736766e-17,1,-1,6.123233995736766e-17,307,258)">
          <path
            fill="#000000"
            stroke="#000000"
            paint-order="fill stroke markers"
            d=" M 10 15 L 0 15 L 5 0 Z"
            stroke-miterlimit="10"
            stroke-dasharray=""
          />
        </g>
        <g transform="matrix(1,0,0,1,223,253)" />
      </g>
      <g id="_C13522F1-230A-4C26-B5A9-533A5D9FEE9D" bpmn2nodeid="_C13522F1-230A-4C26-B5A9-533A5D9FEE9D">
        <g>
          <path
            fill="none"
            stroke="#000000"
            paint-order="fill stroke markers"
            d=" M 461 263 L 530 263"
            stroke-miterlimit="10"
            stroke-dasharray=""
          />
        </g>
        <g transform="matrix(1,0,0,1,461,263)" />
        <g transform="matrix(6.123233995736766e-17,1,-1,6.123233995736766e-17,545,258)">
          <path
            fill="#000000"
            stroke="#000000"
            paint-order="fill stroke markers"
            d=" M 10 15 L 0 15 L 5 0 Z"
            stroke-miterlimit="10"
            stroke-dasharray=""
          />
        </g>
        <g transform="matrix(1,0,0,1,461,253)" />
      </g>
      <g id="_0F9C12A3-097E-42BF-8724-9DEEF2DF54AE" bpmn2nodeid="_0F9C12A3-097E-42BF-8724-9DEEF2DF54AE">
        <g>
          <path
            fill="none"
            stroke="rgb(0,0,0)"
            paint-order="fill stroke markers"
            d=" M 699 263 L 749 263"
            stroke-miterlimit="10"
            stroke-dasharray=""
          />
        </g>
        <g transform="matrix(1,0,0,1,699,263)" />
        <g transform="matrix(6.123233995736766e-17,1,-1,6.123233995736766e-17,764,258)">
          <path
            fill="rgb(0,0,0)"
            stroke="rgb(0,0,0)"
            paint-order="fill stroke markers"
            d=" M 10 15 L 0 15 L 5 0 Z"
            stroke-miterlimit="10"
            stroke-dasharray=""
          />
        </g>
        <g transform="matrix(1,0,0,1,699,253)" />
      </g>
      <g id="_FE874A8D-BE6F-4543-B985-FBE2A59F12D6" bpmn2nodeid="_FE874A8D-BE6F-4543-B985-FBE2A59F12D6">
        <g>
          <path
            fill="none"
            stroke="rgb(0,0,0)"
            paint-order="fill stroke markers"
            d=" M 820 263 L 870 263"
            stroke-miterlimit="10"
            stroke-dasharray=""
          />
        </g>
        <g transform="matrix(1,0,0,1,820,263)" />
        <g transform="matrix(6.123233995736766e-17,1,-1,6.123233995736766e-17,885,258)">
          <path
            fill="rgb(0,0,0)"
            stroke="rgb(0,0,0)"
            paint-order="fill stroke markers"
            d=" M 10 15 L 0 15 L 5 0 Z"
            stroke-miterlimit="10"
            stroke-dasharray=""
          />
        </g>
        <g transform="matrix(1,0,0,1,820,240)">
          <text
            fill="#000000"
            stroke="none"
            font-family="Open Sans"
            font-size="10pt"
            font-style="normal"
            font-weight="normal"
            text-decoration="normal"
            x="0"
            y="10.4"
            text-anchor="start"
            dominant-baseline="alphabetic"
          >Yes             </text>
        </g>
      </g>
      <g id="_E8AF0944-7B82-434F-8C75-9D8FA992BBE9" bpmn2nodeid="_E8AF0944-7B82-434F-8C75-9D8FA992BBE9">
        <g>
          <path
            fill="none"
            stroke="#000000"
            paint-order="fill stroke markers"
            d=" M 1039 263 L 1089 263"
            stroke-miterlimit="10"
            stroke-dasharray=""
          />
        </g>
        <g transform="matrix(1,0,0,1,1039,263)" />
        <g transform="matrix(6.123233995736766e-17,1,-1,6.123233995736766e-17,1104,258)">
          <path
            fill="#000000"
            stroke="#000000"
            paint-order="fill stroke markers"
            d=" M 10 15 L 0 15 L 5 0 Z"
            stroke-miterlimit="10"
            stroke-dasharray=""
          />
        </g>
        <g transform="matrix(1,0,0,1,1039,253)" />
      </g>
      <g id="_B9D6D940-6DAF-47CB-A328-88479C930C09" bpmn2nodeid="_B9D6D940-6DAF-47CB-A328-88479C930C09">
        <g>
          <path
            fill="none"
            stroke="rgb(0,0,0)"
            paint-order="fill stroke markers"
            d=" M 1132 291 L 1132 370.4100000000001"
            stroke-miterlimit="10"
            stroke-dasharray=""
          />
        </g>
        <g transform="matrix(1,0,0,1,1132,291)" />
        <g transform="matrix(-1,1.2246467991473532e-16,-1.2246467991473532e-16,-1,1137,385.4100000000001)">
          <path
            fill="rgb(0,0,0)"
            stroke="rgb(0,0,0)"
            paint-order="fill stroke markers"
            d=" M 10 15 L 0 15 L 5 0 Z"
            stroke-miterlimit="10"
            stroke-dasharray=""
          />
        </g>
        <g transform="matrix(1,0,0,1,1142,325.20500000000004)">
          <text
            fill="#000000"
            stroke="none"
            font-family="Open Sans"
            font-size="10pt"
            font-style="normal"
            font-weight="normal"
            text-decoration="normal"
            x="0"
            y="10.4"
            text-anchor="start"
            dominant-baseline="alphabetic"
          >No                      </text>
        </g>
      </g>
      <g id="_9FCBEBF9-BC54-40B7-BAC3-F4D17F34D9F8" bpmn2nodeid="_9FCBEBF9-BC54-40B7-BAC3-F4D17F34D9F8">
        <g>
          <path
            fill="none"
            stroke="#000000"
            paint-order="fill stroke markers"
            d=" M 1160 413.4100000000001 L 1210 413.4100000000001"
            stroke-miterlimit="10"
            stroke-dasharray=""
          />
        </g>
        <g transform="matrix(1,0,0,1,1160,413.4100000000001)" />
        <g transform="matrix(6.123233995736766e-17,1,-1,6.123233995736766e-17,1225,408.4100000000001)">
          <path
            fill="#000000"
            stroke="#000000"
            paint-order="fill stroke markers"
            d=" M 10 15 L 0 15 L 5 0 Z"
            stroke-miterlimit="10"
            stroke-dasharray=""
          />
        </g>
        <g transform="matrix(1,0,0,1,1160,403.4100000000001)" />
      </g>
      <g id="_EC8D8528-F94A-4821-9489-A17332EC6028" bpmn2nodeid="_EC8D8528-F94A-4821-9489-A17332EC6028">
        <g>
          <path
            fill="none"
            stroke="#000000"
            paint-order="fill stroke markers"
            d=" M 1379 413.4100000000001 L 1423 413.4100000000001"
            stroke-miterlimit="10"
            stroke-dasharray=""
          />
        </g>
        <g transform="matrix(1,0,0,1,1379,413.4100000000001)" />
        <g transform="matrix(6.123233995736766e-17,1,-1,6.123233995736766e-17,1438,408.4100000000001)">
          <path
            fill="#000000"
            stroke="#000000"
            paint-order="fill stroke markers"
            d=" M 10 15 L 0 15 L 5 0 Z"
            stroke-miterlimit="10"
            stroke-dasharray=""
          />
        </g>
        <g transform="matrix(1,0,0,1,1379,403.4100000000001)" />
      </g>
      <g id="_26035DE5-18F2-4B5D-9A03-E058B8928229" bpmn2nodeid="_26035DE5-18F2-4B5D-9A03-E058B8928229">
        <g>
          <path
            fill="none"
            stroke="rgb(0,0,0)"
            paint-order="fill stroke markers"
            d=" M 1160 263.1275555555556 L 1207.0001556457255 263.3416673757195"
            stroke-miterlimit="10"
            stroke-dasharray=""
          />
        </g>
        <g transform="matrix(1,0,0,1,1160,263.1275555555556)" />
        <g
          transform="matrix(-0.004555508285371479,0.9999896236182964,-0.9999896236182964,-0.004555508285371479,1222.0227775414269,258.4100518819086)"
        >
          <path
            fill="rgb(0,0,0)"
            stroke="rgb(0,0,0)"
            paint-order="fill stroke markers"
            d=" M 10 15 L 0 15 L 5 0 Z"
            stroke-miterlimit="10"
            stroke-dasharray=""
          />
        </g>
        <g transform="matrix(1,0,0,1,1160.0455550828538,240.26888154159485)">
          <text
            fill="#000000"
            stroke="none"
            font-family="Open Sans"
            font-size="10pt"
            font-style="normal"
            font-weight="normal"
            text-decoration="normal"
            x="0"
            y="10.4"
            text-anchor="start"
            dominant-baseline="alphabetic"
          >Yes            </text>
        </g>
      </g>
      <g id="_0607C51D-198C-40FD-A599-A65E7B66F300" bpmn2nodeid="_0607C51D-198C-40FD-A599-A65E7B66F300">
        <g>
          <path
            fill="none"
            stroke="#000000"
            paint-order="fill stroke markers"
            d=" M 1376 263.1828776978418 L 1423.000065252408 263.04424441184545"
            stroke-miterlimit="10"
            stroke-dasharray=""
          />
        </g>
        <g transform="matrix(1,0,0,1,1376,263.1828776978418)" />
        <g
          transform="matrix(0.002949627456363697,0.9999956498394724,-0.9999956498394724,0.002949627456363697,1437.985251862718,258.00002175080266)"
        >
          <path
            fill="#000000"
            stroke="#000000"
            paint-order="fill stroke markers"
            d=" M 10 15 L 0 15 L 5 0 Z"
            stroke-miterlimit="10"
            stroke-dasharray=""
          />
        </g>
        <g transform="matrix(1,0,0,1,1376.0294962745636,253.09148235052618)" />
      </g>
      <g id="_C1A10B02-AD97-4A55-B945-1FBBC80A40DA" bpmn2nodeid="_C1A10B02-AD97-4A55-B945-1FBBC80A40DA">
        <g>
          <path
            fill="none"
            stroke="rgb(0,0,0)"
            paint-order="fill stroke markers"
            d=" M 792 291 L 792 413.4100000000001 L 1089 413.4100000000001"
            stroke-miterlimit="10"
            stroke-dasharray=""
          />
        </g>
        <g transform="matrix(1,0,0,1,792,291)" />
        <g transform="matrix(6.123233995736766e-17,1,-1,6.123233995736766e-17,1104,408.4100000000001)">
          <path
            fill="rgb(0,0,0)"
            stroke="rgb(0,0,0)"
            paint-order="fill stroke markers"
            d=" M 10 15 L 0 15 L 5 0 Z"
            stroke-miterlimit="10"
            stroke-dasharray=""
          />
        </g>
        <g transform="matrix(1,0,0,1,802,339.20500000000004)">
          <text
            fill="#000000"
            stroke="none"
            font-family="Open Sans"
            font-size="10pt"
            font-style="normal"
            font-weight="normal"
            text-decoration="normal"
            x="0"
            y="10.4"
            text-anchor="start"
            dominant-baseline="alphabetic"
          >No                              </text>
        </g>
      </g>
    </g>
  </g>
</svg>
