<?xml version="1.0" encoding="utf-8"?>
<!--
  ~ Licensed to the Apache Software Foundation (ASF) under one
  ~ or more contributor license agreements.  See the NOTICE file
  ~ distributed with this work for additional information
  ~ regarding copyright ownership.  The ASF licenses this file
  ~ to you under the Apache License, Version 2.0 (the
  ~ "License"); you may not use this file except in compliance
  ~ with the License.  You may obtain a copy of the License at
  ~ 
  ~   http://www.apache.org/licenses/LICENSE-2.0
  ~ 
  ~ Unless required by applicable law or agreed to in writing,
  ~ software distributed under the License is distributed on an
  ~ "AS IS" BASIS, WITHOUT WARRANTIES OR CONDITIONS OF ANY
  ~ KIND, either express or implied.  See the License for the
  ~ specific language governing permissions and limitations
  ~ under the License.      
-->

<svg version="1.1" id="taskManual" xmlns="http://www.w3.org/2000/svg"  x="0px" y="0px"
	 viewBox="0 0 448 448" style="enable-background:new 0 0 448 448;" xml:space="preserve">
<style type="text/css">
	.st0{display:none;}
	.st1{display:inline;}
	.st2{fill:none;}
</style>
<g id="Grid" class="st0">
	<g id="icomoon-ignore" class="st1">
		<line class="st2" x1="16" y1="0" x2="16" y2="448"/>
		<line class="st2" x1="32" y1="0" x2="32" y2="448"/>
		<line class="st2" x1="48" y1="0" x2="48" y2="448"/>
		<line class="st2" x1="64" y1="0" x2="64" y2="448"/>
		<line class="st2" x1="80" y1="0" x2="80" y2="448"/>
		<line class="st2" x1="96" y1="0" x2="96" y2="448"/>
		<line class="st2" x1="112" y1="0" x2="112" y2="448"/>
		<line class="st2" x1="128" y1="0" x2="128" y2="448"/>
		<line class="st2" x1="144" y1="0" x2="144" y2="448"/>
		<line class="st2" x1="160" y1="0" x2="160" y2="448"/>
		<line class="st2" x1="176" y1="0" x2="176" y2="448"/>
		<line class="st2" x1="192" y1="0" x2="192" y2="448"/>
		<line class="st2" x1="208" y1="0" x2="208" y2="448"/>
		<line class="st2" x1="224" y1="0" x2="224" y2="448"/>
		<line class="st2" x1="240" y1="0" x2="240" y2="448"/>
		<line class="st2" x1="256" y1="0" x2="256" y2="448"/>
		<line class="st2" x1="272" y1="0" x2="272" y2="448"/>
		<line class="st2" x1="288" y1="0" x2="288" y2="448"/>
		<line class="st2" x1="304" y1="0" x2="304" y2="448"/>
		<line class="st2" x1="320" y1="0" x2="320" y2="448"/>
		<line class="st2" x1="336" y1="0" x2="336" y2="448"/>
		<line class="st2" x1="352" y1="0" x2="352" y2="448"/>
		<line class="st2" x1="368" y1="0" x2="368" y2="448"/>
		<line class="st2" x1="384" y1="0" x2="384" y2="448"/>
		<line class="st2" x1="400" y1="0" x2="400" y2="448"/>
		<line class="st2" x1="416" y1="0" x2="416" y2="448"/>
		<line class="st2" x1="432" y1="0" x2="432" y2="448"/>
		<line class="st2" x1="0" y1="16" x2="448" y2="16"/>
		<line class="st2" x1="0" y1="32" x2="448" y2="32"/>
		<line class="st2" x1="0" y1="48" x2="448" y2="48"/>
		<line class="st2" x1="0" y1="64" x2="448" y2="64"/>
		<line class="st2" x1="0" y1="80" x2="448" y2="80"/>
		<line class="st2" x1="0" y1="96" x2="448" y2="96"/>
		<line class="st2" x1="0" y1="112" x2="448" y2="112"/>
		<line class="st2" x1="0" y1="128" x2="448" y2="128"/>
		<line class="st2" x1="0" y1="144" x2="448" y2="144"/>
		<line class="st2" x1="0" y1="160" x2="448" y2="160"/>
		<line class="st2" x1="0" y1="176" x2="448" y2="176"/>
		<line class="st2" x1="0" y1="192" x2="448" y2="192"/>
		<line class="st2" x1="0" y1="208" x2="448" y2="208"/>
		<line class="st2" x1="0" y1="224" x2="448" y2="224"/>
		<line class="st2" x1="0" y1="240" x2="448" y2="240"/>
		<line class="st2" x1="0" y1="256" x2="448" y2="256"/>
		<line class="st2" x1="0" y1="272" x2="448" y2="272"/>
		<line class="st2" x1="0" y1="288" x2="448" y2="288"/>
		<line class="st2" x1="0" y1="304" x2="448" y2="304"/>
		<line class="st2" x1="0" y1="320" x2="448" y2="320"/>
		<line class="st2" x1="0" y1="336" x2="448" y2="336"/>
		<line class="st2" x1="0" y1="352" x2="448" y2="352"/>
		<line class="st2" x1="0" y1="368" x2="448" y2="368"/>
		<line class="st2" x1="0" y1="384" x2="448" y2="384"/>
		<line class="st2" x1="0" y1="400" x2="448" y2="400"/>
		<line class="st2" x1="0" y1="416" x2="448" y2="416"/>
		<line class="st2" x1="0" y1="432" x2="448" y2="432"/>
	</g>
	<title>circle-intermediate-3</title>
</g>
<path id="Icon" d="M416,260c0-7.7-2.8-14.2-8.2-19.8S395.7,232,388,232H224v-8h132c7.7,0,14.2-2.8,19.8-8.2s8.2-12.1,8.2-19.8
	s-2.8-14.2-8.2-19.8S363.7,168,356,168H160l51.2-38.5c8.5-6.3,12.8-14.8,12.8-25.5c0-8.8-3.1-16.4-9.4-22.6S200.8,72,192,72
	c-7.2,0-13.6,2.2-19.2,6.5l-128,96C36.2,180.8,32,189.3,32,200v172c0,5.7,1.8,10.8,5.5,15.2s8.3,7.3,14,8.5l101.2,19
	c5.3,0.8,10.2,1.2,14.8,1.2H292c7.7,0,14.2-2.8,19.8-8.2s8.2-12.1,8.2-19.8s-2.8-14.2-8.2-19.8S299.7,360,292,360h-68v-8h132
	c7.7,0,14.2-2.8,19.8-8.2s8.2-12.1,8.2-19.8s-2.8-14.2-8.2-19.8S363.7,296,356,296H224v-8h164c7.7,0,14.2-2.8,19.8-8.2
	S416,267.7,416,260z M448,260c0,11.3-3,21.8-8.9,31.4s-14,17-24.1,22.1c0.7,3.2,1,6.7,1,10.5c0,16.5-5.9,30.6-17.6,42.4
	S372.5,384,356,384h-4.2c1,17.5-4.3,32.5-16,45.1S309.5,448,292,448H167.5c-6.7,0-13.6-0.7-20.8-2l-101-19
	c-13.2-2.3-24.1-8.7-32.8-19.1S0,385.5,0,372V200c0-10,2.3-19.5,6.9-28.6s10.8-16.6,18.6-22.6l128-96C164.8,44.2,177.7,40,192,40
	c17.7,0,32.8,6.2,45.2,18.8S256,86.3,256,104c0,13-2.8,23.7-8.5,32H356c16.5,0,30.6,5.9,42.4,17.6S416,179.5,416,196
	c0,3.8-0.3,7.3-1,10.5c10.2,5.2,18.2,12.5,24.1,22.1S448,248.7,448,260z"/>
</svg>
