<?xml version="1.0" encoding="utf-8"?>
<!--
  ~ Licensed to the Apache Software Foundation (ASF) under one
  ~ or more contributor license agreements.  See the NOTICE file
  ~ distributed with this work for additional information
  ~ regarding copyright ownership.  The ASF licenses this file
  ~ to you under the Apache License, Version 2.0 (the
  ~ "License"); you may not use this file except in compliance
  ~ with the License.  You may obtain a copy of the License at
  ~ 
  ~   http://www.apache.org/licenses/LICENSE-2.0
  ~ 
  ~ Unless required by applicable law or agreed to in writing,
  ~ software distributed under the License is distributed on an
  ~ "AS IS" BASIS, WITHOUT WARRANTIES OR CONDITIONS OF ANY
  ~ KIND, either express or implied.  See the License for the
  ~ specific language governing permissions and limitations
  ~ under the License.      
-->

<svg version="1.1" id="taskGenericService" xmlns="http://www.w3.org/2000/svg"  x="0px" y="0px"
	 width="448px" height="448px" viewBox="0 0 480 448" style="enable-background:new 0 0 480 448;" xml:space="preserve">
<style type="text/css">
	.st0{display:none;}
	.st1{display:inline;}
	.st2{fill:none;}
</style>
	  <g class="task_group_generic_service" transform="translate(-170,-170) scale(0.4,0.4)">
    <path
        style="color:#000000;font-style:normal;font-variant:normal;font-weight:normal;font-stretch:normal;font-size:medium;line-height:normal;font-family:sans-serif;text-indent:0;text-align:start;text-decoration:none;text-decoration-line:none;text-decoration-style:solid;text-decoration-color:#000000;letter-spacing:normal;word-spacing:normal;text-transform:none;direction:ltr;block-progression:tb;writing-mode:lr-tb;baseline-shift:baseline;text-anchor:start;white-space:normal;clip-rule:nonzero;display:inline;overflow:visible;visibility:visible;opacity:1;isolation:auto;mix-blend-mode:normal;color-interpolation:sRGB;color-interpolation-filters:linearRGB;solid-color:#000000;solid-opacity:1;fill:#000000;fill-opacity:1;fill-rule:nonzero;stroke:none;stroke-width:70;stroke-linecap:round;stroke-linejoin:miter;stroke-miterlimit:4;stroke-dasharray:none;stroke-dashoffset:0;stroke-opacity:1;color-rendering:auto;image-rendering:auto;shape-rendering:auto;text-rendering:auto;enable-background:accumulate"
        d="m 825.74609,438.17383 c -0.0463,36.99847 0.0102,73.9978 0.10547,110.99609 -31.55327,8.92669 -60.38632,21.3842 -87.61523,36.64453 l -79.58203,-78.625 -148.80664,149.66797 79.57617,78.61133 c -15.37167,27.55154 -27.37512,56.8307 -35.75195,87.24219 l -112.72461,0.20508 0,210.78908 113.90234,-0.4102 c 10.4159,41.2984 33.08461,78.4252 55.66211,111.6231 l 0,-181.82425 -99.56445,0.35742 0,-70.66211 99.06835,-0.17968 5.56055,-28.17188 c 8.10952,-41.08459 24.16986,-80.24945 47.24414,-115.29297 l 15.78516,-23.97265 -69.60352,-68.76172 50.09375,-50.38477 69.73047,68.89258 23.73047,-15.83594 c 36.26386,-23.92554 75.92787,-39.96352 115.48047,-48.31641 l 27.95898,-5.80468 -0.25,-96.78516 71.9668,0 -0.55664,96.28125 28.42773,0 160.40622,0 c -17.7134,-21.14365 -91.1204,-48.65765 -118.5078,-56.32422 l 0.6348,-109.95703 c -78.40004,-0.002 -139.86546,0.004 -212.37111,-0.002 z m 199.15821,201.6582 0.2871,110.99219 c -31.55442,8.92669 -60.38757,21.38251 -87.61718,36.64453 l -79.58399,-78.625 -148.80664,149.66797 79.57813,78.61133 c -15.37235,27.55303 -27.3771,56.83125 -35.75391,87.24415 l -112.72265,0.2031 0,210.7891 113.90039,-0.4082 c 8.96543,31.257 21.39414,59.7998 36.625,86.7461 l -81.49414,81.1757 150.46484,147.879 81.20117,-80.8243 c 27.8143,15.4447 57.38048,27.436 88.03318,35.7813 l 0.053,114.7129 c 72.3917,0.6338 149.467,0.3073 211.3359,0.3008 l 0,-116.0704 c 31.5778,-8.9038 60.501,-21.4509 87.7363,-36.705 l 81.1348,79.9961 148.9043,-149.4805 -81.3047,-80.1231 c 15.407,-27.6256 27.4124,-56.9537 35.7988,-87.3984 l 110.3789,-0.6816 0,-210.586 -111.6172,0.6797 c -8.9724,-31.28698 -21.2213,-59.63676 -36.6543,-86.7617 l 77.1211,-77.31836 -150.3808,-148.13086 -77.0215,77.28515 c -27.7003,-15.31896 -57.1463,-27.28236 -87.6797,-35.63867 l 0.6328,-109.95703 -212.5488,0 z m 70.1797,70 71.9668,0 -0.5547,96.2832 28.4258,5.57813 c 41.2724,8.09903 80.8306,24.13939 116.0156,47.07226 l 23.8242,15.5293 67.2168,-67.44531 50.6172,49.86133 -67.3105,67.48242 16.1953,23.90625 c 23.7647,35.87289 39.5283,74.64989 48.4277,114.58009 l 5.8555,28.0117 97.2812,-0.5918 0,70.5899 -96.7383,0.5957 -5.5566,28.0117 c -8.1598,41.1307 -24.1851,80.2941 -47.2988,115.3984 l -15.8028,24.0059 71.2578,70.2226 -50.0859,50.2793 -71.2656,-70.2656 -23.6895,15.7383 c -36.2752,23.7065 -75.6246,40.1227 -115.3242,48.2109 l -28.1445,5.6211 0,102.2149 c -19.241,0.047 -40.2309,0.017 -71.3692,-0.027 l -0.045,-101.4492 -28.2715,-5.5215 c -41.3301,-8.0708 -80.8232,-24.0375 -115.94723,-47.0664 l -23.7539,-15.5742 -71.54102,71.2109 -50.625,-49.7578 71.64063,-71.3613 -16.34766,-24.0039 c -23.78683,-35.7942 -39.5229,-74.6123 -48.4375,-114.4961 l -5.84961,-27.9258 -99.56445,0.3555 0,-70.6602 99.06836,-0.1816 5.56054,-28.168 c 8.10958,-41.0849 24.17017,-80.25187 47.24414,-115.29492 l 15.78516,-23.97461 -69.60547,-68.76172 50.09375,-50.38476 69.73242,68.89258 23.73047,-15.83399 c 36.30986,-23.76972 74.84087,-39.54139 115.48047,-48.31445 l 27.9609,-5.80469 -0.2519,-96.78711 z m 37.166,257.20313 c -86.6469,0 -157.63867,70.99364 -157.63867,157.64064 0,86.647 70.99177,157.6367 157.63867,157.6367 86.6469,0 157.6387,-70.9897 157.6387,-157.6367 0,-86.647 -70.9918,-157.64064 -157.6387,-157.64064 z m 0,70.00004 c 48.8162,0 87.6387,38.8245 87.6387,87.6406 0,48.8161 -38.8225,87.6367 -87.6387,87.6367 -48.8162,0 -87.6367,-38.8206 -87.6367,-87.6367 0,-48.8161 38.8205,-87.6406 87.6367,-87.6406 z"
    />
		</g>
</svg>
