<?xml version="1.0" encoding="utf-8"?>
<!--
  ~ Licensed to the Apache Software Foundation (ASF) under one
  ~ or more contributor license agreements.  See the NOTICE file
  ~ distributed with this work for additional information
  ~ regarding copyright ownership.  The ASF licenses this file
  ~ to you under the Apache License, Version 2.0 (the
  ~ "License"); you may not use this file except in compliance
  ~ with the License.  You may obtain a copy of the License at
  ~ 
  ~   http://www.apache.org/licenses/LICENSE-2.0
  ~ 
  ~ Unless required by applicable law or agreed to in writing,
  ~ software distributed under the License is distributed on an
  ~ "AS IS" BASIS, WITHOUT WARRANTIES OR CONDITIONS OF ANY
  ~ KIND, either express or implied.  See the License for the
  ~ specific language governing permissions and limitations
  ~ under the License.      
-->

<svg version="1.1" id="taskUser"
	 xmlns="http://www.w3.org/2000/svg" x="0px" y="0px" width="448px" height="448px"
	 viewBox="0 0 448 448" enable-background="new 0 0 448 448" xml:space="preserve">
	<path d="m 16,445.2101 c 0,-4.34143 2.784312,-14.08104 6.001325,-20.99282 C 35.767643,394.6402 77.282944,359.28049 129,333.08362 c 15.51625,-7.85964 28.34689,-13.11968 38.80739,-15.90946 4.12414,-1.0999 7.92174,-2.76026 8.71771,-3.81151 2.36851,-3.12815 4.38894,-10.45484 5.20163,-18.86265 l 0.77327,-8 -3.99285,-3.04543 C 166.30327,274.14645 154.2837,251.67767 148.03953,226.5 c -2.42867,-9.79285 -2.9835,-11.03754 -5.05589,-11.3421 -1.28032,-0.18816 -4.90062,-2.91488 -8.04512,-6.05938 -11.70538,-11.70538 -18.04706,-31.72296 -13.4987,-42.60874 1.56222,-3.7389 6.71475,-7.48007 10.31018,-7.48604 2.69781,-0.004 2.72062,-0.40078 1.16375,-20.21578 -1.98717,-25.29176 1.36528,-46.522533 10.21842,-64.712284 9.09945,-18.695841 24.43672,-31.193596 45.91717,-37.416169 21.154,-6.128003 48.74732,-6.128003 69.90132,0 41.091,11.903461 60.00776,47.146833 56.00439,104.340493 -0.63522,9.075 -1.33103,16.78816 -1.54625,17.14035 -0.21521,0.35219 1.16652,0.9326 3.07051,1.28979 12.44936,2.33551 14.50688,17.58758 5.01707,37.19078 -4.59319,9.4882 -12.13914,17.88705 -16.67906,18.56425 -1.79473,0.26772 -2.52422,1.96101 -4.87454,11.31483 -3.2833,13.06693 -5.46876,18.80522 -11.99514,31.49534 -5.45692,10.61062 -14.91298,23.11388 -19.84007,26.23349 l -3.23695,2.04949 0.64754,6.61084 c 0.82675,8.44045 3.12133,16.98144 5.3592,19.94826 1.18999,1.5776 4.12509,2.95221 9.18571,4.30199 11.00623,2.93562 23.55394,8.13479 40.93693,16.9623 48.81471,24.78933 89.84811,59.65626 104.03216,88.39829 4.0377,8.18183 6.96784,17.73198 6.96784,22.7101 l 0,2.7899 -208,0 -208,0 0,-2.7899 z"/>
</svg>
