<?xml version="1.0" encoding="utf-8"?>
<!--
  ~ Licensed to the Apache Software Foundation (ASF) under one
  ~ or more contributor license agreements.  See the NOTICE file
  ~ distributed with this work for additional information
  ~ regarding copyright ownership.  The ASF licenses this file
  ~ to you under the Apache License, Version 2.0 (the
  ~ "License"); you may not use this file except in compliance
  ~ with the License.  You may obtain a copy of the License at
  ~ 
  ~   http://www.apache.org/licenses/LICENSE-2.0
  ~ 
  ~ Unless required by applicable law or agreed to in writing,
  ~ software distributed under the License is distributed on an
  ~ "AS IS" BASIS, WITHOUT WARRANTIES OR CONDITIONS OF ANY
  ~ KIND, either express or implied.  See the License for the
  ~ specific language governing permissions and limitations
  ~ under the License.      
-->

<svg version="1.1" id="taskBusinessRule" xmlns="http://www.w3.org/2000/svg"
	 x="0px" y="0px" width="416px" height="448px"
	 viewBox="0 0 416 448" style="enable-background:new 0 0 416 448;" xml:space="preserve">
<g id="icomoon-ignore">
</g>
<path d="M128,344v-48c0-2.3-0.8-4.2-2.2-5.8s-3.4-2.2-5.8-2.2H40c-2.3,0-4.2,0.8-5.8,2.2S32,293.7,32,296v48c0,2.3,0.8,4.2,2.2,5.8
	s3.4,2.2,5.8,2.2h80c2.3,0,4.2-0.8,5.8-2.2S128,346.3,128,344z M128,248v-48c0-2.3-0.8-4.2-2.2-5.8s-3.4-2.2-5.8-2.2H40
	c-2.3,0-4.2,0.8-5.8,2.2S32,197.7,32,200v48c0,2.3,0.8,4.2,2.2,5.8s3.4,2.2,5.8,2.2h80c2.3,0,4.2-0.8,5.8-2.2S128,250.3,128,248z
	 M376,352c2.3,0,4.2-0.8,5.8-2.2s2.2-3.4,2.2-5.8v-48c0-2.3-0.8-4.2-2.2-5.8s-3.4-2.2-5.8-2.2H168c-2.3,0-4.2,0.8-5.8,2.2
	s-2.2,3.4-2.2,5.8v48c0,2.3,0.8,4.2,2.2,5.8s3.4,2.2,5.8,2.2H376z M128,152v-48c0-2.3-0.8-4.2-2.2-5.8S122.3,96,120,96H40
	c-2.3,0-4.2,0.8-5.8,2.2S32,101.7,32,104v48c0,2.3,0.8,4.2,2.2,5.8s3.4,2.2,5.8,2.2h80c2.3,0,4.2-0.8,5.8-2.2S128,154.3,128,152z
	 M376,256c2.3,0,4.2-0.8,5.8-2.2s2.2-3.4,2.2-5.8v-48c0-2.3-0.8-4.2-2.2-5.8s-3.4-2.2-5.8-2.2H168c-2.3,0-4.2,0.8-5.8,2.2
	s-2.2,3.4-2.2,5.8v48c0,2.3,0.8,4.2,2.2,5.8s3.4,2.2,5.8,2.2H376z M376,160c2.3,0,4.2-0.8,5.8-2.2s2.2-3.4,2.2-5.8v-48
	c0-2.3-0.8-4.2-2.2-5.8S378.3,96,376,96H168c-2.3,0-4.2,0.8-5.8,2.2s-2.2,3.4-2.2,5.8v48c0,2.3,0.8,4.2,2.2,5.8s3.4,2.2,5.8,2.2H376
	z M416,72v272c0,11-3.9,20.4-11.8,28.2S387,384,376,384H40c-11,0-20.4-3.9-28.2-11.8S0,355,0,344V72c0-11,3.9-20.4,11.8-28.2
	S29,32,40,32h336c11,0,20.4,3.9,28.2,11.8S416,61,416,72z"/>
</svg>
