<?xml version="1.0" encoding="utf-8"?>
<!-- Generator: Adobe Illustrator 20.0.0, SVG Export Plug-In . SVG Version: 6.00 Build 0)  -->
<svg version="1.1" id="Layer_1" xmlns="http://www.w3.org/2000/svg" xmlns:xlink="http://www.w3.org/1999/xlink" x="0px" y="0px"
	 viewBox="0 0 448 448" style="enable-background:new 0 0 448 448;" xml:space="preserve">
<style type="text/css">
	.st0{display:none;}
	.st1{display:inline;}
	.st2{fill:none;}
</style>
<g id="Grid" class="st0">
	<g id="icomoon-ignore" class="st1">
		<line class="st2" x1="16" y1="0" x2="16" y2="448"/>
		<line class="st2" x1="32" y1="0" x2="32" y2="448"/>
		<line class="st2" x1="48" y1="0" x2="48" y2="448"/>
		<line class="st2" x1="64" y1="0" x2="64" y2="448"/>
		<line class="st2" x1="80" y1="0" x2="80" y2="448"/>
		<line class="st2" x1="96" y1="0" x2="96" y2="448"/>
		<line class="st2" x1="112" y1="0" x2="112" y2="448"/>
		<line class="st2" x1="128" y1="0" x2="128" y2="448"/>
		<line class="st2" x1="144" y1="0" x2="144" y2="448"/>
		<line class="st2" x1="160" y1="0" x2="160" y2="448"/>
		<line class="st2" x1="176" y1="0" x2="176" y2="448"/>
		<line class="st2" x1="192" y1="0" x2="192" y2="448"/>
		<line class="st2" x1="208" y1="0" x2="208" y2="448"/>
		<line class="st2" x1="224" y1="0" x2="224" y2="448"/>
		<line class="st2" x1="240" y1="0" x2="240" y2="448"/>
		<line class="st2" x1="256" y1="0" x2="256" y2="448"/>
		<line class="st2" x1="272" y1="0" x2="272" y2="448"/>
		<line class="st2" x1="288" y1="0" x2="288" y2="448"/>
		<line class="st2" x1="304" y1="0" x2="304" y2="448"/>
		<line class="st2" x1="320" y1="0" x2="320" y2="448"/>
		<line class="st2" x1="336" y1="0" x2="336" y2="448"/>
		<line class="st2" x1="352" y1="0" x2="352" y2="448"/>
		<line class="st2" x1="368" y1="0" x2="368" y2="448"/>
		<line class="st2" x1="384" y1="0" x2="384" y2="448"/>
		<line class="st2" x1="400" y1="0" x2="400" y2="448"/>
		<line class="st2" x1="416" y1="0" x2="416" y2="448"/>
		<line class="st2" x1="432" y1="0" x2="432" y2="448"/>
		<line class="st2" x1="0" y1="16" x2="448" y2="16"/>
		<line class="st2" x1="0" y1="32" x2="448" y2="32"/>
		<line class="st2" x1="0" y1="48" x2="448" y2="48"/>
		<line class="st2" x1="0" y1="64" x2="448" y2="64"/>
		<line class="st2" x1="0" y1="80" x2="448" y2="80"/>
		<line class="st2" x1="0" y1="96" x2="448" y2="96"/>
		<line class="st2" x1="0" y1="112" x2="448" y2="112"/>
		<line class="st2" x1="0" y1="128" x2="448" y2="128"/>
		<line class="st2" x1="0" y1="144" x2="448" y2="144"/>
		<line class="st2" x1="0" y1="160" x2="448" y2="160"/>
		<line class="st2" x1="0" y1="176" x2="448" y2="176"/>
		<line class="st2" x1="0" y1="192" x2="448" y2="192"/>
		<line class="st2" x1="0" y1="208" x2="448" y2="208"/>
		<line class="st2" x1="0" y1="224" x2="448" y2="224"/>
		<line class="st2" x1="0" y1="240" x2="448" y2="240"/>
		<line class="st2" x1="0" y1="256" x2="448" y2="256"/>
		<line class="st2" x1="0" y1="272" x2="448" y2="272"/>
		<line class="st2" x1="0" y1="288" x2="448" y2="288"/>
		<line class="st2" x1="0" y1="304" x2="448" y2="304"/>
		<line class="st2" x1="0" y1="320" x2="448" y2="320"/>
		<line class="st2" x1="0" y1="336" x2="448" y2="336"/>
		<line class="st2" x1="0" y1="352" x2="448" y2="352"/>
		<line class="st2" x1="0" y1="368" x2="448" y2="368"/>
		<line class="st2" x1="0" y1="384" x2="448" y2="384"/>
		<line class="st2" x1="0" y1="400" x2="448" y2="400"/>
		<line class="st2" x1="0" y1="416" x2="448" y2="416"/>
		<line class="st2" x1="0" y1="432" x2="448" y2="432"/>
	</g>
</g>
<path id="Icon" d="M224,0.1h-0.1l0,0h-0.1l0,0h-0.1l0,0h-0.1l0,0c0,0,0,0-0.1,0c0,0,0,0-0.1,0h-0.1c0,0,0,0-0.1,0c0,0,0,0-0.1,0
	c0,0,0,0-0.1,0l0,0h-0.1l0,0c0,0,0,0-0.1,0l0,0c-0.1,0-0.2,0-0.2,0l0,0c-0.6,0-1.3,0-1.9,0l0,0h-0.1l0,0c0,0,0,0-0.1,0h-0.1l0,0
	h-0.1l0,0c-0.1,0-0.2,0-0.2,0c-4.4,0.1-7.9,3.7-7.9,8.1c0.1,4.4,3.6,7.9,8,7.9h0.1c1.2,0,2.5,0,3.7,0c4.4,0,8-3.6,8-8
	S228.4,0.1,224,0.1L224,0.1L224,0.1z M181.8,4.2c-0.5,0-1,0-1.5,0.1c-1.3,0.3-2.6,0.5-3.9,0.8l0,0l0,0c-4.3,0.9-7.1,5.2-6.1,9.5
	c0.8,3.7,4.1,6.3,7.8,6.3c0.6,0,1.1-0.1,1.7-0.2c1.2-0.3,2.4-0.5,3.6-0.8c4.3-0.9,7.2-5.1,6.3-9.4C188.9,6.8,185.6,4.2,181.8,4.2
	L181.8,4.2z M141.3,16.5c-1,0-2.1,0.2-3.1,0.6c-0.3,0.1-0.6,0.3-0.9,0.4l0,0h-0.1l0,0c0,0,0,0-0.1,0l0,0c0,0,0,0-0.1,0h-0.1l0,0
	c-0.8,0.3-1.6,0.7-2.4,1c-4,1.8-5.9,6.5-4.1,10.5c1.3,3,4.3,4.8,7.3,4.8c1.1,0,2.2-0.2,3.2-0.7c1.1-0.5,2.3-1,3.4-1.5
	c4.1-1.7,6-6.4,4.3-10.5C147.4,18.3,144.4,16.5,141.3,16.5L141.3,16.5z M104,36.5c-1.5,0-3.1,0.4-4.4,1.3c-0.5,0.3-1,0.7-1.5,1l0,0
	c0,0,0,0-0.1,0c0,0,0,0-0.1,0l0,0c0,0,0,0-0.1,0l0,0c0,0-0.1,0-0.1,0.1l0,0c0,0-0.1,0-0.1,0.1l0,0c-0.4,0.3-0.9,0.6-1.3,0.9
	c-3.6,2.5-4.5,7.5-2,11.1c1.6,2.2,4,3.4,6.6,3.4c1.6,0,3.2-0.5,4.6-1.4c1-0.7,2-1.4,3.1-2.1c3.7-2.5,4.7-7.4,2.2-11.1
	C109.1,37.7,106.5,36.5,104,36.5L104,36.5z M71.2,63.4c-2,0-4.1,0.8-5.7,2.3c-0.1,0.1-0.1,0.1-0.2,0.2l0,0l0,0
	c-0.9,0.9-1.7,1.8-2.6,2.7c-3,3.2-3,8.2,0.2,11.3c1.6,1.5,3.6,2.2,5.6,2.2c2.1,0,4.2-0.8,5.8-2.4c0.9-0.9,1.7-1.8,2.6-2.7
	c3.1-3.1,3.1-8.2,0-11.3C75.3,64.2,73.3,63.4,71.2,63.4L71.2,63.4z M44.4,96.1c-2.6,0-5.1,1.2-6.6,3.5c-0.1,0.1-0.1,0.2-0.2,0.3l0,0
	c0,0,0,0,0,0.1l0,0c0,0,0,0.1-0.1,0.1l0,0l0,0l0,0c0,0,0,0,0,0.1c0,0,0,0,0,0.1l0,0c0,0,0,0,0,0.1l0,0c0,0,0,0.1-0.1,0.1l0,0
	c0,0,0,0.1-0.1,0.1l0,0c0,0,0,0.1-0.1,0.1l0,0c0,0,0,0.1-0.1,0.1l0,0c0,0,0,0.1-0.1,0.1l0,0c0,0,0,0.1-0.1,0.1l0,0
	c0,0,0,0.1-0.1,0.1l0,0c0,0,0,0.1-0.1,0.1l0,0c0,0,0,0.1-0.1,0.1l0,0c0,0,0,0.1-0.1,0.1l0,0c0,0,0,0.1-0.1,0.1l0,0
	c0,0,0,0.1-0.1,0.1l0,0c0,0,0,0.1-0.1,0.1l0,0c0,0,0,0,0,0.1l0,0c0,0,0,0,0,0.1c0,0,0,0,0,0.1l0,0c0,0,0,0,0,0.1l0,0
	c-0.2,0.3-0.3,0.5-0.5,0.8c-2.4,3.7-1.3,8.7,2.4,11c1.3,0.9,2.8,1.3,4.3,1.3c2.6,0,5.2-1.3,6.7-3.7c0.7-1,1.4-2.1,2-3.1
	c2.5-3.7,1.5-8.6-2.2-11.1C47.4,96.6,45.9,96.1,44.4,96.1L44.4,96.1z M24.4,133.5c-3.1,0-6.1,1.9-7.4,4.9c-0.1,0.2-0.2,0.4-0.2,0.6
	l0,0c-0.4,1-0.8,2.1-1.3,3.1c-1.6,4.1,0.4,8.8,4.5,10.4c1,0.4,2,0.6,2.9,0.6c3.2,0,6.2-1.9,7.4-5.1c0.5-1.1,0.9-2.3,1.4-3.4
	c1.7-4.1-0.2-8.8-4.3-10.5C26.4,133.7,25.4,133.5,24.4,133.5L24.4,133.5z M12.1,174c-3.7,0-7.1,2.6-7.8,6.5
	c-0.2,1.2-0.5,2.5-0.7,3.7l0,0v0.1l0,0v0.1l0,0c-0.8,4.3,2.1,8.5,6.5,9.3c0.5,0.1,1,0.1,1.4,0.1c3.8,0,7.2-2.7,7.9-6.6
	c0.2-1.2,0.4-2.4,0.7-3.6c0.9-4.3-2-8.5-6.3-9.4C13.1,174,12.6,174,12.1,174L12.1,174z M8,216.2L8,216.2c-4.4,0-8,3.6-8,8
	c0,0.8,0,1.6,0,2.3l0,0c0,0,0,0,0,0.1l0,0v0.1l0,0c0,0,0,0,0,0.1l0,0c0,0,0,0,0,0.1c0,0,0,0,0,0.1v0.1l0,0c0,0,0,0,0,0.1l0,0
	c0,0.1,0,0.2,0,0.3l0,0c0,0.2,0,0.5,0,0.7c0.1,4.4,3.7,7.8,8,7.8h0.1c4.4-0.1,7.9-3.7,7.9-8.1c0-1.2,0-2.5,0-3.7
	C16,219.8,12.4,216.2,8,216.2L8,216.2z M12.1,258.3c-0.5,0-1,0.1-1.6,0.2c-4.3,0.9-7.1,5.1-6.3,9.4l0,0v0.1l0,0v0.1l0,0v0.1l0,0v0.1
	l0,0c0,0.1,0,0.2,0,0.2l0,0c0,0.1,0,0.2,0,0.2l0,0c0,0.2,0.1,0.4,0.1,0.6l0,0c0,0.1,0,0.2,0,0.2l0,0c0.1,0.7,0.3,1.4,0.4,2.1
	c0.8,3.7,4.1,6.3,7.8,6.3c0.6,0,1.1-0.1,1.7-0.2c4.3-0.9,7.1-5.2,6.1-9.5c-0.3-1.2-0.5-2.4-0.8-3.6C19.2,261,15.9,258.3,12.1,258.3
	L12.1,258.3z M24.4,298.9c-1,0-2.1,0.2-3.1,0.6c-4.1,1.7-6,6.4-4.3,10.5c0.5,1.2,1,2.5,1.6,3.7c1.3,3,4.3,4.8,7.3,4.8
	c1.1,0,2.2-0.2,3.2-0.7c4-1.8,5.9-6.5,4.1-10.5c-0.5-1.1-1-2.3-1.5-3.4C30.6,300.7,27.6,298.9,24.4,298.9L24.4,298.9z M44.5,336.2
	c-1.5,0-3.1,0.4-4.4,1.4c-3.7,2.5-4.6,7.4-2.2,11.1c0.8,1.1,1.5,2.2,2.3,3.3c1.6,2.2,4,3.4,6.6,3.4c1.6,0,3.2-0.5,4.6-1.4
	c3.6-2.5,4.5-7.5,2-11.1c-0.7-1-1.4-2-2.1-3.1C49.6,337.4,47.1,336.2,44.5,336.2L44.5,336.2z M71.4,368.9c-2,0-4.1,0.8-5.7,2.3
	c-3.1,3.1-3.1,8.2,0,11.3c0.1,0.1,0.2,0.2,0.2,0.2l0,0l0,0c0.8,0.8,1.7,1.7,2.6,2.5c1.5,1.5,3.5,2.2,5.5,2.2c2.1,0,4.2-0.8,5.8-2.4
	c3.1-3.2,3-8.2-0.2-11.3c-0.9-0.9-1.8-1.7-2.7-2.6C75.5,369.7,73.5,368.9,71.4,368.9L71.4,368.9z M104.2,395.8
	c-2.6,0-5.1,1.2-6.7,3.6c-2.5,3.7-1.5,8.6,2.2,11.1l0,0c0.1,0,0.1,0.1,0.2,0.1l0,0c0.4,0.3,0.8,0.5,1.1,0.8l0,0c0,0,0.1,0,0.1,0.1
	l0,0c0,0,0,0,0.1,0l0,0c0,0,0,0,0.1,0c0,0,0,0,0.1,0l0,0c0,0,0,0,0.1,0l0,0c0.5,0.3,1,0.7,1.6,1c1.3,0.9,2.8,1.3,4.3,1.3
	c2.6,0,5.2-1.3,6.7-3.7c2.4-3.7,1.3-8.7-2.4-11.1c-1-0.7-2.1-1.4-3.1-2C107.2,396.2,105.7,395.8,104.2,395.8L104.2,395.8z
	 M141.5,415.7c-3.1,0-6.1,1.9-7.4,4.9c-1.7,4.1,0.2,8.7,4.3,10.4c1.2,0.5,2.5,1,3.7,1.5c1,0.4,1.9,0.5,2.9,0.5
	c3.2,0,6.2-1.9,7.4-5.1c1.6-4.1-0.4-8.8-4.5-10.4c-1.1-0.5-2.3-0.9-3.4-1.4C143.6,415.9,142.5,415.7,141.5,415.7L141.5,415.7z
	 M182,428c-3.7,0-7.1,2.6-7.8,6.5c-0.9,4.3,2,8.5,6.3,9.4c0.7,0.1,1.4,0.3,2.1,0.4l0,0c0,0,0,0,0.1,0c0.6,0.1,1.2,0.2,1.8,0.3
	c0.5,0.1,0.9,0.1,1.4,0.1c3.8,0,7.2-2.7,7.9-6.6c0.8-4.3-2.1-8.5-6.5-9.3c-1.2-0.2-2.4-0.4-3.6-0.7C183.1,428,182.6,428,182,428
	L182,428z M228.1,432c-0.1,0-0.1,0-0.2,0c-1.2,0-2.5,0-3.7,0c-4.4,0-8,3.6-8,8s3.6,8,8,8c0.7,0,1.5,0,2.2,0l0,0h0.1l0,0h0.1l0,0
	c0,0,0,0,0.1,0l0,0c0,0,0,0,0.1,0c0,0,0,0,0.1,0h0.1c0,0,0,0,0.1,0c0,0,0,0,0.1,0l0,0c0.1,0,0.1,0,0.2,0l0,0h0.1l0,0
	c0.3,0,0.5,0,0.8,0c4.4-0.1,7.9-3.7,7.8-8.1C236,435.5,232.4,432,228.1,432L228.1,432z M270.2,427.1c-0.6,0-1.1,0.1-1.7,0.2
	c-1.2,0.3-2.4,0.5-3.6,0.8c-4.3,0.9-7.1,5.1-6.3,9.4c0.8,3.8,4.1,6.4,7.8,6.4c0.5,0,1-0.1,1.6-0.2c1.3-0.3,2.6-0.5,3.9-0.8
	c4.3-0.9,7.1-5.2,6.1-9.5C277.2,429.7,273.9,427.1,270.2,427.1L270.2,427.1z M310.5,414c-1.1,0-2.2,0.2-3.2,0.7
	c-1.1,0.5-2.3,1-3.4,1.5c-4.1,1.7-6,6.4-4.3,10.5c1.3,3.1,4.3,4.9,7.4,4.9c1,0,2.1-0.2,3.1-0.6c0.6-0.3,1.2-0.5,1.8-0.8l0,0h0.1l0,0
	h0.1l0,0h0.1l0,0h0.1l0,0c0,0,0,0,0.1,0l0,0h0.1l0,0c0,0,0,0,0.1,0l0,0c0,0,0,0,0.1,0c0,0,0,0,0.1,0c0,0,0,0,0.1,0c0,0,0,0,0.1,0
	c0,0,0,0,0.1,0c0,0,0,0,0.1,0c0,0,0,0,0.1,0l0,0l0,0h0.1c0,0,0,0,0.1,0l0,0c0,0,0,0,0.1,0c0,0,0,0,0.1,0c0,0,0,0,0.1,0
	c0,0,0,0,0.1,0l0,0l0,0c4-1.8,5.9-6.5,4.1-10.5C316.5,415.8,313.5,414,310.5,414L310.5,414z M347.4,393.3c-1.6,0-3.2,0.5-4.6,1.4
	c-1,0.7-2,1.4-3.1,2.1c-3.7,2.5-4.6,7.4-2.2,11.1c1.5,2.3,4.1,3.5,6.6,3.5c1.5,0,3.1-0.4,4.4-1.4c0.2-0.1,0.3-0.2,0.5-0.3l0,0
	c0,0,0,0,0.1,0l0,0c0,0,0.1,0,0.1-0.1l0,0l0,0c0,0,0,0,0.1,0c0,0,0,0,0.1,0c0,0,0,0,0.1,0l0,0c0,0,0.1,0,0.1-0.1l0,0
	c0,0,0.1,0,0.1-0.1l0,0c0.1,0,0.1-0.1,0.2-0.1l0,0c0.7-0.4,1.3-0.9,2-1.3c3.6-2.5,4.5-7.5,2-11.1
	C352.4,394.5,349.9,393.3,347.4,393.3L347.4,393.3z M379.6,365.8c-2.1,0-4.2,0.8-5.8,2.5c-0.9,0.9-1.7,1.8-2.6,2.7
	c-3.1,3.1-3.1,8.2,0,11.3c1.6,1.6,3.6,2.3,5.6,2.3s4.1-0.8,5.6-2.3c0.3-0.3,0.5-0.5,0.8-0.8l0,0l0.1-0.1l0,0l0,0c0,0,0,0,0.1-0.1
	l0,0c0,0,0,0,0.1-0.1l0,0c0.1-0.1,0.1-0.1,0.2-0.2l0,0c0.5-0.5,1-1.1,1.6-1.6c3.1-3.2,3-8.2-0.2-11.3
	C383.6,366.6,381.6,365.8,379.6,365.8L379.6,365.8z M405.9,332.6c-2.6,0-5.2,1.3-6.7,3.7c-0.7,1-1.4,2.1-2,3.1
	c-2.5,3.7-1.5,8.6,2.2,11.1c1.4,0.9,2.9,1.3,4.4,1.3c2.6,0,5.1-1.2,6.7-3.6c0.3-0.4,0.6-0.8,0.8-1.2l0,0c0.4-0.7,0.9-1.3,1.3-2l0,0
	c0,0,0-0.1,0.1-0.1l0,0c2.4-3.7,1.3-8.7-2.4-11.1C408.9,333,407.4,332.6,405.9,332.6L405.9,332.6z M425.2,294.9
	c-3.2,0-6.2,1.9-7.4,5.1c-0.4,1.1-0.9,2.3-1.4,3.4c-1.7,4.1,0.3,8.8,4.3,10.4c1,0.4,2,0.6,3.1,0.6c3.1,0,6.1-1.9,7.4-4.9
	c0.2-0.4,0.3-0.8,0.5-1.3l0,0v-0.1l0,0V308l0,0l0,0c0,0,0,0,0-0.1l0,0c0,0,0-0.1,0.1-0.1l0,0c0.2-0.5,0.4-1,0.6-1.5l0,0
	c0,0,0,0,0-0.1c0,0,0,0,0-0.1l0,0V306l0,0v-0.1c1.6-4.1-0.4-8.8-4.5-10.4C427.1,295,426.1,294.9,425.2,294.9L425.2,294.9z
	 M436.6,254.1c-3.8,0-7.2,2.7-7.9,6.6c-0.2,1.2-0.4,2.4-0.7,3.6c-0.9,4.3,2,8.5,6.3,9.4c0.5,0.1,1,0.2,1.6,0.2
	c3.7,0,7.1-2.6,7.8-6.5l0,0l0,0v-0.1c0,0,0,0,0-0.1c0,0,0,0,0-0.1c0,0,0,0,0-0.1c0,0,0,0,0-0.1c0,0,0,0,0-0.1c0,0,0,0,0-0.1l0,0
	c0,0,0,0,0-0.1c0,0,0,0,0-0.1v-0.1l0,0c0,0,0,0,0-0.1l0,0v-0.1l0,0c0,0,0,0,0-0.1l0,0c0-0.1,0-0.2,0-0.2l0,0c0-0.1,0-0.2,0-0.2l0,0
	c0-0.2,0.1-0.4,0.1-0.6l0,0c0-0.1,0-0.2,0-0.2l0,0c0,0,0,0,0-0.1c0,0,0,0,0-0.1c0,0,0,0,0-0.1v-0.1l0,0c0.1-0.4,0.1-0.7,0.2-1.1
	c0.8-4.4-2.1-8.5-6.5-9.3C437.6,254.1,437.1,254.1,436.6,254.1L436.6,254.1z M440,211.8c-0.1,0-0.1,0-0.2,0
	c-4.4,0.1-7.9,3.7-7.8,8.2c0,1.2,0,2.5,0,3.7c0,4.4,3.6,8,8,8l0,0c4.4,0,8-3.6,8-8c0-0.3,0-0.6,0-0.9l0,0c0-0.1,0-0.2,0-0.2l0,0
	v-0.1l0,0v-0.1c0,0,0,0,0-0.1l0,0c0,0,0,0,0-0.1l0,0c0-0.1,0-0.2,0-0.3l0,0c0-0.5,0-1,0-1.5l0,0v-0.1l0,0c0,0,0,0,0-0.1v-0.1l0,0
	V220l0,0c0-0.1,0-0.2,0-0.2C447.9,215.3,444.3,211.8,440,211.8L440,211.8z M435,169.8c-0.6,0-1.1,0.1-1.7,0.2
	c-4.3,0.9-7.1,5.2-6.1,9.5c0.3,1.2,0.5,2.4,0.8,3.6c0.8,3.8,4.1,6.4,7.8,6.4c0.5,0,1-0.1,1.6-0.2c4.3-0.9,7.1-5.1,6.3-9.4l0,0v-0.1
	l0,0v-0.1l0,0c0-0.1,0-0.2,0-0.2l0,0c-0.2-1.1-0.5-2.3-0.7-3.4C442,172.3,438.7,169.8,435,169.8L435,169.8z M421.9,129.5
	c-1.1,0-2.2,0.2-3.2,0.7c-4,1.8-5.9,6.5-4.1,10.5c0.5,1.1,1,2.3,1.5,3.4c1.3,3.1,4.3,4.9,7.4,4.9c1,0,2.1-0.2,3.1-0.6
	c4.1-1.7,6-6.4,4.3-10.5l0,0c0,0,0,0,0-0.1l0,0v-0.1l0,0c0,0,0,0,0-0.1l0,0v-0.1l0,0c0,0,0,0,0-0.1l0,0v-0.1l0,0c0,0,0,0,0-0.1l0,0
	c0,0,0,0,0-0.1c0,0,0,0,0-0.1c0,0,0,0,0-0.1l0,0c0,0,0,0,0-0.1c0,0,0,0,0-0.1c0,0,0,0,0-0.1l0,0c0,0,0,0,0-0.1v-0.1c0,0,0,0,0-0.1
	c0,0,0,0,0-0.1l0,0v-0.1l0,0c0,0,0,0,0-0.1l0,0c0-0.1-0.1-0.1-0.1-0.2l0,0c0-0.1-0.1-0.1-0.1-0.2l0,0c0,0,0,0,0-0.1l0,0
	c0-0.1,0-0.1-0.1-0.1l0,0c-0.2-0.4-0.3-0.8-0.5-1.2C427.9,131.3,425,129.5,421.9,129.5L421.9,129.5z M401.2,92.6
	c-1.6,0-3.2,0.5-4.6,1.4c-3.6,2.5-4.5,7.5-2,11.1c0.7,1,1.4,2,2.1,3.1c1.5,2.3,4.1,3.5,6.6,3.5c1.5,0,3.1-0.4,4.5-1.4
	c3.7-2.5,4.6-7.4,2.2-11.1l0,0c0,0,0,0,0-0.1c0,0,0,0,0-0.1l0,0c-0.5-0.8-1.1-1.6-1.6-2.4l0,0c0,0,0-0.1-0.1-0.1c0,0,0,0,0-0.1l0,0
	c0,0,0,0,0-0.1l0,0c0,0,0-0.1-0.1-0.1l0,0c-0.1-0.1-0.2-0.3-0.3-0.4C406.2,93.7,403.7,92.6,401.2,92.6L401.2,92.6z M373.7,60.4
	c-2.1,0-4.2,0.8-5.8,2.5c-3.1,3.2-3,8.2,0.2,11.3c0.9,0.9,1.8,1.7,2.7,2.6c1.6,1.6,3.6,2.3,5.6,2.3c2.1,0,4.1-0.8,5.7-2.4
	c3.1-3.1,3.1-8.2,0-11.3c-0.5-0.5-0.9-0.9-1.4-1.4l0,0c0,0,0,0-0.1-0.1l0,0l0,0c0,0,0,0-0.1-0.1l0,0c-0.4-0.4-0.8-0.8-1.3-1.2
	C377.7,61.1,375.7,60.4,373.7,60.4L373.7,60.4z M340.4,34.1c-2.6,0-5.2,1.3-6.7,3.7c-2.4,3.7-1.3,8.7,2.4,11.1c1,0.7,2.1,1.3,3.1,2
	c1.4,0.9,2.9,1.3,4.4,1.3c2.6,0,5.1-1.3,6.7-3.6c2.5-3.7,1.5-8.6-2.2-11.1c-0.9-0.6-1.7-1.1-2.6-1.7l0,0c0,0-0.1,0-0.1-0.1l0,0
	c0,0-0.1,0-0.1-0.1l0,0l0,0c-0.1,0-0.1-0.1-0.2-0.1l0,0c-0.1-0.1-0.2-0.1-0.3-0.2C343.4,34.5,341.9,34.1,340.4,34.1L340.4,34.1z
	 M302.7,14.8c-3.2,0-6.2,1.9-7.5,5.1c-1.6,4.1,0.4,8.8,4.5,10.4c1.1,0.4,2.3,0.9,3.4,1.4c1,0.4,2,0.6,3,0.6c3.1,0,6.1-1.9,7.4-5
	c1.7-4.1-0.3-8.8-4.3-10.4c-0.7-0.3-1.5-0.6-2.2-0.9l0,0h-0.1l0,0h-0.1l0,0h-0.1l0,0h-0.1l0,0c0,0,0,0-0.1,0c0,0,0,0-0.1,0l0,0
	c-0.1,0-0.1,0-0.2-0.1l0,0c-0.3-0.1-0.5-0.2-0.8-0.3C304.6,15,303.7,14.8,302.7,14.8L302.7,14.8z M261.9,3.4c-3.8,0-7.2,2.7-7.9,6.6
	c-0.8,4.4,2.1,8.5,6.5,9.3c1.2,0.2,2.4,0.4,3.6,0.7c0.5,0.1,1,0.2,1.5,0.2c3.7,0,7.1-2.6,7.8-6.5c0.8-4.3-2-8.5-6.3-9.4
	c-1.3-0.3-2.6-0.5-4-0.7C262.8,3.4,262.4,3.4,261.9,3.4L261.9,3.4z"/>
</svg>
