<svg version="1.1" id="Layer_1" x="0px" y="0px" viewBox="0 0 560.2 60" height="60" width="560.2" style="enable-background:new 0 0 560.2 60;" xmlns="http://www.w3.org/2000/svg">
	<defs></defs>
	<style type="text/css">
		.st0{fill:#FFFFFF;}
		.st1{fill:#AFD4EB;}
		.st2{fill:#F48227;}
		.st3{fill:#014E64;}
		.st4{fill:none;}
	</style>
	<title>Serverless Logic Web Tools</title>
	<path class="st1" d="M3.4,45.1l20.8,12.3l22.7-12.1L42,30.2l-6.3,5.5c0,0,2.6,4.8,1.3,5.1l-5.5-0.5l-5.8,3.2l-4.5-1.8l-1.5-1.4
	l-2.1-0.5l-3,1.4L13.4,40l0.9-3.3l-3.1-2.9L6.7,31L3.4,45.1z"></path>
	<polygon class="st1" points="21,30.6 24.9,33 29,31.2 33,33.4 34.7,35.2 37,38 36.9,40.8 33.2,39.8 26.7,39.4 19.9,39.5 15.6,40.4
	13.3,40 14.9,35.1 "></polygon>
	<polygon class="st2" points="10.8,18.2 22.4,17.5 24.9,19.8 27.4,17.8 39.2,18.1 40.8,21.8 41.1,27.9 40.2,32.9 36.7,35.4
	34.7,35.2 31.8,32.5 29,31.2 26.5,32.6 21.2,31.4 18.7,32.3 14.9,35.1 11.1,33.7 8.4,30.2 8.2,26.6 "></polygon>
	<polygon class="st2" points="19.9,39.5 24.5,39.7 29.6,39.8 30.9,40.6 27.4,43.3 22.1,43 "></polygon>
	<polygon class="st0" points="3.4,2.2 13,3.9 16,8.4 22.8,4.3 28,4.3 33.6,8.3 38.4,3.8 47.7,2.6 47.7,5.6 44.6,12.1 45.4,17.5
	41.2,20.6 39.3,18.2 26.7,17.9 25,19.9 23.3,17.6 10.9,18.3 9.3,20.2 5.2,18.6 4.7,15.2 5.2,11.9 4.3,8.6 2.1,4.6 "></polygon>
	<path class="st3" d="M11.1,21.5c2.1-8.7,8.8-15.8,14.1-15.9c4.4,0.3,12.1,6.5,14.1,15.9l2.4,0.3c-1.4-9.4-8.4-18-16.5-18
	s-13.9,8-16.3,17.7L11.1,21.5z"></path>
	<path class="st3" d="M36.7,49.6c-0.3-1.7-0.3-3.4,0-5.1c0,0,0.6,4.3,1.4,4.5L36.7,49.6z"></path>
	<path class="st3" d="M31.1,53c-0.3-1.7-0.3-3.4,0-5.1c0,0,0.6,4.3,1.4,4.5L31.1,53z"></path>
	<path class="st3" d="M13.8,49.7c0.3-1.7,0.3-3.4,0-5.1c0,0-0.6,4.3-1.4,4.5L13.8,49.7z"></path>
	<path class="st3" d="M19.4,53.2c0.3-1.7,0.3-3.4,0-5.1c0,0-0.6,4.3-1.4,4.5L19.4,53.2z"></path>
	<polygon class="st3" points="7.5,19.2 1.6,46.3 25.3,60 49.1,46.3 43.1,19.5 39,20.5 44.4,44.4 25.3,55.2 6.1,44.3 11.3,20.2 "></polygon>
	<path class="st3" d="M39.9,17.5c0,0,3.3,0.7,4-1.6c0,0,0.5-1.9-0.7-2.8c-0.4-0.4-0.8-0.6-1.4-0.7l4.4-8.2l-7.2,1.1l-3,5.2l-3-3
	l2.5-4.3c0.5-1.1,1.6-1.8,2.7-1.9l7.8-1.2c0,0,5.7-0.7,4.2,5.2l-3.3,6.1c1.9,2.9,1.3,6.7-1.4,8.8c-1.4,1.1-3.2,1.7-4.9,1.5
	L39.9,17.5z"></path>
	<path class="st3" d="M10.8,17.5c0,0-3.3,0.7-4-1.6c0,0-0.5-1.9,0.7-2.8c0.4-0.4,0.8-0.6,1.4-0.7L4.3,4.1l7.2,1.1l3,5.2l2.9-3L15,3.1
	c-0.5-1.1-1.6-1.8-2.7-1.9L4.5,0c0,0-5.7-0.7-4.2,5.2l3.3,6.1c-1.9,2.9-1.3,6.7,1.4,8.8c1.4,1.1,3.2,1.7,4.9,1.5L10.8,17.5z"></path>
	<path class="st3" d="M29.6,39.8c-1.8,2.4-5.3,2.8-7.6,1c-0.4-0.3-0.7-0.6-1-1h-3.6c2.3,4.4,7.7,6,12.1,3.7c1.6-0.8,2.9-2.1,3.7-3.7
	H29.6z"></path>
	<ellipse class="st4" cx="25.4" cy="13.2" rx="12.1" ry="11.5"></ellipse>
	<path class="st3" d="M19.1,6.2c1.9-1,3.9-1.5,6-1.4c2.1,0,5.3,1.9,6.9,2.7c1.9,0.4,2.5-0.4,4,0.3c-3.3-6-10.9-8.2-16.9-4.9
	c-2.1,1.2-3.8,2.9-5,5.1C15.8,7.2,17.4,6.6,19.1,6.2z"></path>
	<path class="st3" d="M36.1,36.7c3.3-0.5,5.7-3.2,5.8-6.5l-2.3-8.2c0,0,2.5,12.8-4.7,12.4L36.1,36.7z"></path>
	<path class="st3" d="M14.2,36.7c-3.3-0.5-5.7-3.2-5.8-6.5l2.3-8.2c0,0-2.5,12.8,4.7,12.4L14.2,36.7z"></path>
	<rect x="30.8" y="20.7" transform="matrix(0.7071 -0.7071 0.7071 0.7071 -7.9 29.9319)" class="st3" width="2.7" height="7.6"></rect>
	<rect x="28.4" y="23.1" transform="matrix(0.7071 -0.7071 0.7071 0.7071 -7.8677 29.947)" class="st3" width="7.6" height="2.7"></rect>
	<path class="st3" d="M14.5,24.7c0,0,4.2-6.1,8.5,0C23,24.7,19.1,30.3,14.5,24.7z"></path>
	<path class="st3" d="M25.1,40.5c3.3-0.1,6.6,0.4,9.7,1.5c0,0,3.6,1.2,3.5-2.2c-0.1-3.4-4-7.6-7.4-9.1c-0.2-0.4-0.3-0.8-0.4-1.2
	c-0.3-0.5-1-0.6-1.4-0.3c-0.1,0.1-0.1,0.1-0.2,0.2c-1,1.2-2.3,1.9-3.8,2.1v2.4c1.1,0.1,2.2-0.3,3.1-1c0.5-0.5,1.4-0.5,1.9,0
	c2.5,1.4,4.5,3.5,5.7,6c0,0,0.7,1.9-0.9,0.8c-0.6-0.3-1.2-0.5-1.8-0.7c-0.1-0.8-0.4-1.6-1-2.2c0.2,0.7,0.2,1.4,0,2.1
	c-0.9-0.2-1.8-0.3-2.7-0.4c0-0.9-0.3-1.7-0.9-2.3c0.2,0.7,0.2,1.5,0,2.2c-1.2-0.1-2.3-0.1-3.5,0L25.1,40.5z"></path>
	<path class="st3" d="M25.5,40.5c-3.3-0.1-6.6,0.4-9.7,1.5c0,0-3.6,1.2-3.5-2.2c0.1-3.4,4-7.6,7.4-9.1c0.2-0.4,0.3-0.8,0.4-1.2
	c0.3-0.5,1-0.6,1.4-0.3c0.1,0.1,0.1,0.1,0.2,0.2c1,1.1,2.3,1.9,3.8,2.1v2.4c-1.1,0.1-2.2-0.3-3.1-1c-0.5-0.5-1.4-0.5-1.9,0
	c-2.5,1.4-4.5,3.5-5.7,6c0,0-0.7,1.9,0.9,0.8c0.6-0.3,1.2-0.5,1.8-0.7c0.1-0.8,0.4-1.6,1-2.2c-0.2,0.7-0.2,1.4,0,2.1
	c0.9-0.2,1.8-0.3,2.7-0.4c0-0.9,0.3-1.7,0.9-2.3c-0.2,0.7-0.2,1.5,0,2.2c1.2-0.1,2.3-0.1,3.5,0L25.5,40.5z"></path>
	<polygon class="st3" points="10.7,19.4 22.8,18.7 25.1,21.2 27.6,18.8 39.8,19.4 39,17 26.6,16.1 25.1,18 23.8,16.2 11.1,17 "></polygon>
	<text style="fill: rgb(51, 51, 51); fill-opacity: 0; font-family: Arial, sans-serif; font-size: 9.4px; paint-order: fill; stroke-width: 4.56531px; white-space: pre;" transform="matrix(4.218454, 0, 0, 4.543271, -200.767197, -13.27547)" x="62.38" y="12.27">Serverless Logic Web Tools</text>
</svg>