<?xml version="1.0" encoding="UTF-8" ?>
<svg
  xmlns="http://www.w3.org/2000/svg"
  xmlns:xlink="http://www.w3.org/1999/xlink"
  width="150px"
  height="150px"
  viewBox="0 0 150 150"
  version="1.1"
>
  <g id="surface1">
    <path
      style=" stroke:none;fill-rule:nonzero;fill:rgb(0%,0%,0%);fill-opacity:1;"
      d="M 148.402344 48.46875 C 147.335938 47.398438 146.074219 46.871094 144.640625 46.871094 L 5.359375 46.871094 C 3.898438 46.871094 2.664062 47.398438 1.597656 48.46875 C 0.527344 49.539062 0 50.796875 0 52.234375 L 0 69.621094 C 0 71.085938 0.527344 72.316406 1.566406 73.398438 C 2.636719 74.46875 3.867188 74.996094 5.332031 74.996094 L 144.640625 74.996094 C 146.101562 74.996094 147.335938 74.46875 148.402344 73.398438 C 149.472656 72.332031 150 71.101562 150 69.636719 L 150 52.234375 C 150 50.769531 149.472656 49.539062 148.402344 48.46875 Z M 18.75 65.621094 L 9.375 65.621094 L 9.375 56.246094 L 18.75 56.246094 Z M 37.5 65.621094 L 28.125 65.621094 L 28.125 56.246094 L 37.5 56.246094 Z M 56.25 65.621094 L 46.875 65.621094 L 46.875 56.246094 L 56.25 56.246094 Z M 75 65.621094 L 65.625 65.621094 L 65.625 56.246094 L 75 56.246094 Z M 140.625 65.621094 L 131.25 65.621094 L 131.25 56.246094 L 140.625 56.246094 Z M 0 35.914062 C 0 34.566406 0.175781 34.375 1.40625 33.175781 C 1.40625 33.175781 22.132812 12.640625 23.671875 10.839844 C 25.210938 9.039062 27.171875 9.40625 27.171875 9.40625 L 123.136719 9.40625 C 123.136719 9.40625 124.867188 9.199219 126.433594 10.898438 C 127.96875 12.597656 148.460938 33.164062 148.460938 33.164062 C 149.691406 34.394531 150 34.585938 150 35.917969 C 150 37.324219 148.285156 37.5 146.585938 37.5 L 3.238281 37.5 C 1.582031 37.511719 0 37.261719 0 35.914062 Z M 148.402344 123.46875 C 147.335938 122.398438 146.074219 121.871094 144.640625 121.871094 L 5.359375 121.871094 C 3.898438 121.871094 2.664062 122.398438 1.597656 123.46875 C 0.527344 124.539062 0 125.796875 0 127.234375 L 0 144.621094 C 0 146.085938 0.527344 147.316406 1.566406 148.398438 C 2.636719 149.46875 3.867188 149.996094 5.332031 149.996094 L 144.640625 149.996094 C 146.101562 149.996094 147.335938 149.46875 148.402344 148.398438 C 149.472656 147.332031 150 146.101562 150 144.636719 L 150 127.234375 C 150 125.769531 149.472656 124.539062 148.402344 123.46875 Z M 18.75 140.621094 L 9.375 140.621094 L 9.375 131.246094 L 18.75 131.246094 Z M 37.5 140.621094 L 28.125 140.621094 L 28.125 131.246094 L 37.5 131.246094 Z M 56.25 140.621094 L 46.875 140.621094 L 46.875 131.246094 L 56.25 131.246094 Z M 75 140.621094 L 65.625 140.621094 L 65.625 131.246094 L 75 131.246094 Z M 140.625 140.621094 L 131.25 140.621094 L 131.25 131.246094 L 140.625 131.246094 Z M 148.402344 85.96875 C 147.335938 84.898438 146.074219 84.371094 144.640625 84.371094 L 5.359375 84.371094 C 3.898438 84.371094 2.664062 84.898438 1.597656 85.96875 C 0.527344 87.039062 0 88.296875 0 89.734375 L 0 107.121094 C 0 108.585938 0.527344 109.816406 1.566406 110.898438 C 2.636719 111.96875 3.867188 112.496094 5.332031 112.496094 L 144.640625 112.496094 C 146.101562 112.496094 147.335938 111.96875 148.402344 110.898438 C 149.472656 109.832031 150 108.601562 150 107.136719 L 150 89.734375 C 150 88.269531 149.472656 87.039062 148.402344 85.96875 Z M 18.75 103.121094 L 9.375 103.121094 L 9.375 93.746094 L 18.75 93.746094 Z M 37.5 103.121094 L 28.125 103.121094 L 28.125 93.746094 L 37.5 93.746094 Z M 56.25 103.121094 L 46.875 103.121094 L 46.875 93.746094 L 56.25 93.746094 Z M 75 103.121094 L 65.625 103.121094 L 65.625 93.746094 L 75 93.746094 Z M 140.625 103.121094 L 131.25 103.121094 L 131.25 93.746094 L 140.625 93.746094 Z M 140.625 103.121094 "
    />
  </g>
</svg>
