<?xml version="1.0" encoding="UTF-8" ?>
<svg
  xmlns="http://www.w3.org/2000/svg"
  xmlns:xlink="http://www.w3.org/1999/xlink"
  width="150px"
  height="150px"
  viewBox="0 0 150 150"
  version="1.1"
>
  <g id="surface1">
    <path
      style=" stroke:none;fill-rule:nonzero;fill:rgb(96.078431%,53.72549%,12.156863%);fill-opacity:1;"
      d="M 134.9375 55.914062 L 134.9375 41.042969 L 98.046875 53.625 C 91.417969 56.234375 86.050781 61.300781 83.0625 67.769531 L 76.238281 82.582031 L 82.867188 86.992188 L 75 105.382812 L 67.132812 86.992188 L 73.761719 82.582031 L 66.933594 67.769531 C 63.96875 61.339844 58.648438 56.292969 52.070312 53.671875 L 15.0625 41.808594 L 15.0625 55.914062 C 2.429688 69.765625 2.429688 90.964844 15.0625 104.820312 L 15.0625 129.804688 L 58.292969 143.476562 L 58.292969 147.632812 C 58.296875 148.859375 59.289062 149.851562 60.511719 149.851562 L 89.371094 149.851562 C 90.59375 149.847656 91.585938 148.859375 91.589844 147.632812 L 91.589844 143.25 L 134.9375 128.941406 L 134.9375 104.820312 C 147.570312 90.96875 147.570312 69.769531 134.933594 55.917969 Z M 134.9375 55.914062 "
    />
    <path
      style=" stroke:none;fill-rule:nonzero;fill:rgb(59.215686%,83.137255%,90.980392%);fill-opacity:1;"
      d="M 95.003906 45.28125 L 134.9375 31.65625 L 134.9375 0.148438 L 75 31.027344 L 15.0625 0.96875 L 15.0625 32.484375 L 55.050781 45.300781 C 63.878906 48.730469 71.03125 55.453125 75 64.050781 C 78.976562 55.433594 86.152344 48.699219 95.003906 45.28125 Z M 95.003906 45.28125 "
    />
    <path
      style=" stroke:none;fill-rule:nonzero;fill:rgb(100%,100%,100%);fill-opacity:1;"
      d="M 129.429688 80.367188 C 129.429688 92.171875 119.859375 101.738281 108.058594 101.738281 C 96.257812 101.738281 86.6875 92.171875 86.6875 80.367188 C 86.6875 68.566406 96.257812 59 108.058594 59 C 119.859375 59 129.429688 68.566406 129.429688 80.367188 Z M 129.429688 80.367188 "
    />
    <path
      style=" stroke:none;fill-rule:nonzero;fill:rgb(3.137255%,34.509804%,43.921569%);fill-opacity:1;"
      d="M 115.289062 67.84375 C 109.621094 64.570312 102.460938 65.511719 97.832031 70.140625 C 93.203125 74.769531 92.257812 81.929688 95.53125 87.601562 C 98.804688 93.269531 105.480469 96.035156 111.800781 94.339844 C 118.125 92.644531 122.523438 86.914062 122.523438 80.367188 L 108.058594 80.367188 Z M 115.289062 67.84375 "
    />
    <path
      style=" stroke:none;fill-rule:nonzero;fill:rgb(100%,100%,100%);fill-opacity:1;"
      d="M 63.3125 80.367188 C 63.3125 92.171875 53.742188 101.738281 41.941406 101.738281 C 30.140625 101.738281 20.570312 92.171875 20.570312 80.367188 C 20.570312 68.566406 30.140625 59 41.941406 59 C 53.742188 59 63.3125 68.566406 63.3125 80.367188 Z M 63.3125 80.367188 "
    />
    <path
      style=" stroke:none;fill-rule:nonzero;fill:rgb(3.137255%,34.509804%,43.921569%);fill-opacity:1;"
      d="M 49.171875 67.84375 C 43.503906 64.570312 36.339844 65.515625 31.710938 70.144531 C 27.085938 74.773438 26.140625 81.933594 29.414062 87.601562 C 32.691406 93.273438 39.363281 96.035156 45.6875 94.339844 C 52.007812 92.644531 56.40625 86.914062 56.40625 80.367188 L 41.941406 80.367188 Z M 49.171875 67.84375 "
    />
    <path
      style=" stroke:none;fill-rule:nonzero;fill:rgb(100%,100%,100%);fill-opacity:1;"
      d="M 60.773438 59.214844 C 63.359375 61.640625 65.453125 64.546875 66.933594 67.769531 L 73.761719 82.582031 L 67.132812 86.992188 L 75 105.382812 L 82.867188 86.992188 L 76.238281 82.582031 L 83.0625 67.769531 C 86.050781 61.300781 91.417969 56.234375 98.046875 53.625 L 134.9375 41.042969 L 134.9375 31.667969 L 95.003906 45.292969 C 86.152344 48.707031 78.976562 55.4375 75 64.050781 C 71.03125 55.453125 63.878906 48.730469 55.046875 45.300781 L 15.058594 32.484375 L 15.058594 41.8125 L 52.066406 53.675781 C 55.292969 54.953125 58.246094 56.832031 60.773438 59.214844 Z M 60.773438 59.214844 "
    />
  </g>
</svg>
