<svg xmlns="http://www.w3.org/2000/svg" viewBox="0 0 91 109">
  <!--
	- Licensed to the Apache Software Foundation (ASF) under one
	- or more contributor license agreements.  See the NOTICE file
	- distributed with this work for additional information
	- regarding copyright ownership.  The ASF licenses this file
	- to you under the Apache License, Version 2.0 (the
	- "License"); you may not use this file except in compliance
	- with the License.  You may obtain a copy of the License at
	-
	-   http://www.apache.org/licenses/LICENSE-2.0
	-
	- Unless required by applicable law or agreed to in writing,
	- software distributed under the License is distributed on an
	- "AS IS" BASIS, WITHOUT WARRANTIES OR CONDITIONS OF ANY
	- KIND, either express or implied.  See the License for the
	- specific language governing permissions and limitations
	- under the License.
	-->
  <path
    d="M79,0c-23,0-27,32-14,32c12,0,36-32,14-32zM41,28c7,0,14-26,2-24c-13,2-8,24-2,24zM10,44c5-2,1-22-7-17c-7,6,3,19,7,17zM24,33c6-1,6-24-4-20c-10,4-2,22,4,20zM54,86c1,7-6,11-13,6c-20-16,35-23,31-45c-3-18-58-13-64,16c-4,19,17,45,40,45c11,0,24-10,26-23c2-10-21-6-20,1z"
  />
</svg>
