<?xml version="1.0" encoding="utf-8"?>
<!-- Generator: Adobe Illustrator 22.1.0, SVG Export Plug-In . SVG Version: 6.00 Build 0)  -->
<svg version="1.1" id="Layer_1" xmlns="http://www.w3.org/2000/svg" x="0px" y="0px"
     viewBox="0 0 420 420" style="enable-background:new 0 0 420 420;" xml:space="preserve">
<style type="text/css">
	.st0{fill:#4D5258;}
</style>
<path class="st0" d="M350,80H70c-38.7,0-70,31.3-70,70v120c0,38.7,31.3,70,70,70h280c38.7,0,70-31.3,70-70V150
	C420,111.3,388.7,80,350,80z M78,119.9h264c21,0,38,17,38,38V200H40v-42.1C40,136.9,57,119.9,78,119.9z M342,299.9H78
	c-21,0-38-17-38-38V220h340v41.9C380,282.9,363,299.9,342,299.9z"/>
</svg>
