<?xml version="1.0" encoding="utf-8"?>
<!-- Generator: Adobe Illustrator 21.1.0, SVG Export Plug-In . SVG Version: 6.00 Build 0) -->
<svg version="1.1" id="Layer_1" xmlns="http://www.w3.org/2000/svg" x="0px" y="0px" viewBox="0 0 420 420" style="enable-background:new 0 0 420 420;" xml:space="preserve">
	<!--
	- Licensed to the Apache Software Foundation (ASF) under one
	- or more contributor license agreements.  See the NOTICE file
	- distributed with this work for additional information
	- regarding copyright ownership.  The ASF licenses this file
	- to you under the Apache License, Version 2.0 (the
	- "License"); you may not use this file except in compliance
	- with the License.  You may obtain a copy of the License at
	-
	-   http://www.apache.org/licenses/LICENSE-2.0
	-
	- Unless required by applicable law or agreed to in writing,
	- software distributed under the License is distributed on an
	- "AS IS" BASIS, WITHOUT WARRANTIES OR CONDITIONS OF ANY
	- KIND, either express or implied.  See the License for the
	- specific language governing permissions and limitations
	- under the License.
	-->
	<style type="text/css">
		.st0{fill:#4D5258;}
	</style>
	<path id="Icon" class="st0" d="M292,120c48.5,0,88,39.5,88,88v4c0,48.5-39.5,88-88,88H128c-48.5,0-88-39.5-88-88v-4
	c0-48.5,39.5-88,88-88H292 M292,80H128C57.3,80,0,137.3,0,208v4c0,70.7,57.3,128,128,128h164c70.7,0,128-57.3,128-128v-4
	C420,137.3,362.7,80,292,80L292,80z" />
</svg>
