<?xml version="1.0" encoding="utf-8" ?>
<!-- Generator: Adobe Illustrator 21.1.0, SVG Export Plug-In . SVG Version: 6.00 Build 0) -->
<svg
  version="1.1"
  id="Layer_1"
  xmlns="http://www.w3.org/2000/svg"
  x="0px"
  y="0px"
  viewBox="0 0 420 420"
  style="enable-background:new 0 0 420 420;"
  xml:space="preserve"
>
	<!--
	- Licensed to the Apache Software Foundation (ASF) under one
	- or more contributor license agreements.  See the NOTICE file
	- distributed with this work for additional information
	- regarding copyright ownership.  The ASF licenses this file
	- to you under the Apache License, Version 2.0 (the
	- "License"); you may not use this file except in compliance
	- with the License.  You may obtain a copy of the License at
	-
	-   http://www.apache.org/licenses/LICENSE-2.0
	-
	- Unless required by applicable law or agreed to in writing,
	- software distributed under the License is distributed on an
	- "AS IS" BASIS, WITHOUT WARRANTIES OR CONDITIONS OF ANY
	- KIND, either express or implied.  See the License for the
	- specific language governing permissions and limitations
	- under the License.
	-->
	<style type="text/css">
.st0 {
  fill: #4d5258;
}
  </style>
	<path
    id="Icon"
    class="st0"
    d="M380.3,120.1v109.4c-24.6-9.5-49.1-14.3-73-14.3c-22,0-43.2,4.1-63.3,12.2c-22.4,9.1-43.2,23.2-62,42
	c-20.8,20.8-43.2,30.8-68.7,30.8c-29.6,0-57.1-13.7-73-23.4V120.1H380.3 M400.3,80.1h-380c-11,0-20,9-20,20v195.2
	c0,1.5,0.7,3,1.9,3.9c9.8,7.6,56,41,111.1,41c31.1,0,65.1-10.6,97-42.6c31.9-31.9,65.9-42.6,97-42.6c47.6,0,88.6,24.9,105.1,36.6
	c0.9,0.6,1.9,0.9,2.9,0.9c2.6,0,5-2.1,5-5V100.1C420.3,89,411.3,80.1,400.3,80.1L400.3,80.1z"
  />
</svg>
