<?xml version="1.0" encoding="utf-8"?>
<!-- Generator: Adobe Illustrator 23.0.0, SVG Export Plug-In . SVG Version: 6.00 Build 0)  -->
<svg version="1.1" xmlns="http://www.w3.org/2000/svg" x="0px" y="0px"
     viewBox="0 0 24 24" style="enable-background:new 0 0 24 24;" xml:space="preserve">
<style type="text/css">
	.st0{display:none;}
	.st1{display:inline;}
	.st2{fill:#00659C;}
	.st3{fill:#B2121E;}
	.st4{fill:none;}
	.st5{fill:#FFFFFF;}
</style>
	<g id="Blue_Outline" class="st0">
	<g class="st1">

	</g>
</g>
	<g id="Icon_Designs">
	<g transform="translate(-3.5,-3.5) scale(1.3)">
		<path d="M18.8,6.8l-6.3-2.4c-0.3-0.1-0.7-0.1-1,0L5.9,6.5L5.1,6.8C4.9,6.9,4.8,7,4.6,7.1l0.4,0.2l6.9,3l7.5-2.9
			C19.3,7.1,19.1,6.9,18.8,6.8z"/>
		<path d="M4.1,8.3V12v3.2c0,0.6,0.3,1.1,0.8,1.3l0.4,0.2l1.2,0.6L9.9,19l1.3,0.6c0,0,0.1,0,0.1,0l0-8.3L4.1,8.3
			C4.1,8.3,4.1,8.3,4.1,8.3z"/>
		<path d="M12.7,11.4v8.2c0,0,0.1,0,0.1,0l6.3-3.2c0.5-0.2,0.8-0.8,0.8-1.3V8.6L12.7,11.4z"/>
	</g>
</g>
</svg>
