<?xml version="1.0" encoding="utf-8"?>
<!-- Generator: Adobe Illustrator 20.0.0, SVG Export Plug-In . SVG Version: 6.00 Build 0)  -->
<svg version="1.1" id="Layer_1" xmlns="http://www.w3.org/2000/svg"  x="0px" y="0px"
	 viewBox="0 0 448 448" style="enable-background:new 0 0 448 448;" xml:space="preserve">
<style type="text/css">
	.st0{opacity:0.3;fill:none;stroke:#449FDB;enable-background:new    ;}
	.st1{fill:none;stroke:#449FDB;}
	.st2{display:none;}
	.st3{display:inline;}
	.st4{fill:#FFFFFF;}
	.st5{fill:#FFFFFF;stroke:#000000;stroke-width:32;stroke-miterlimit:10;}
	.st6{display:inline;fill:none;stroke:#000000;stroke-width:16;stroke-linecap:round;stroke-miterlimit:10;}
	.st7{fill:none;stroke:#000000;stroke-width:16;stroke-linecap:round;stroke-miterlimit:10;}
</style>
<g id="Layer_1_1_">
	<title>circle-intermediate-3</title>
	<g id="Grid">
		<g id="icomoon-ignore">
			<line class="st0" x1="16" y1="0" x2="16" y2="448"/>
			<line class="st1" x1="32" y1="0" x2="32" y2="448"/>
			<line class="st0" x1="48" y1="0" x2="48" y2="448"/>
			<line class="st1" x1="64" y1="0" x2="64" y2="448"/>
			<line class="st0" x1="80" y1="0" x2="80" y2="448"/>
			<line class="st1" x1="96" y1="0" x2="96" y2="448"/>
			<line class="st0" x1="112" y1="0" x2="112" y2="448"/>
			<line class="st1" x1="128" y1="0" x2="128" y2="448"/>
			<line class="st0" x1="144" y1="0" x2="144" y2="448"/>
			<line class="st1" x1="160" y1="0" x2="160" y2="448"/>
			<line class="st0" x1="176" y1="0" x2="176" y2="448"/>
			<line class="st1" x1="192" y1="0" x2="192" y2="448"/>
			<line class="st0" x1="208" y1="0" x2="208" y2="448"/>
			<line class="st1" x1="224" y1="0" x2="224" y2="448"/>
			<line class="st0" x1="240" y1="0" x2="240" y2="448"/>
			<line class="st1" x1="256" y1="0" x2="256" y2="448"/>
			<line class="st0" x1="272" y1="0" x2="272" y2="448"/>
			<line class="st1" x1="288" y1="0" x2="288" y2="448"/>
			<line class="st0" x1="304" y1="0" x2="304" y2="448"/>
			<line class="st1" x1="320" y1="0" x2="320" y2="448"/>
			<line class="st0" x1="336" y1="0" x2="336" y2="448"/>
			<line class="st1" x1="352" y1="0" x2="352" y2="448"/>
			<line class="st0" x1="368" y1="0" x2="368" y2="448"/>
			<line class="st1" x1="384" y1="0" x2="384" y2="448"/>
			<line class="st0" x1="400" y1="0" x2="400" y2="448"/>
			<line class="st1" x1="416" y1="0" x2="416" y2="448"/>
			<line class="st0" x1="432" y1="0" x2="432" y2="448"/>
			<line class="st0" x1="0" y1="16" x2="448" y2="16"/>
			<line class="st1" x1="0" y1="32" x2="448" y2="32"/>
			<line class="st0" x1="0" y1="48" x2="448" y2="48"/>
			<line class="st1" x1="0" y1="64" x2="448" y2="64"/>
			<line class="st0" x1="0" y1="80" x2="448" y2="80"/>
			<line class="st1" x1="0" y1="96" x2="448" y2="96"/>
			<line class="st0" x1="0" y1="112" x2="448" y2="112"/>
			<line class="st1" x1="0" y1="128" x2="448" y2="128"/>
			<line class="st0" x1="0" y1="144" x2="448" y2="144"/>
			<line class="st1" x1="0" y1="160" x2="448" y2="160"/>
			<line class="st0" x1="0" y1="176" x2="448" y2="176"/>
			<line class="st1" x1="0" y1="192" x2="448" y2="192"/>
			<line class="st0" x1="0" y1="208" x2="448" y2="208"/>
			<line class="st1" x1="0" y1="224" x2="448" y2="224"/>
			<line class="st0" x1="0" y1="240" x2="448" y2="240"/>
			<line class="st1" x1="0" y1="256" x2="448" y2="256"/>
			<line class="st0" x1="-4.9" y1="272" x2="443.1" y2="272"/>
			<line class="st1" x1="0" y1="288" x2="448" y2="288"/>
			<line class="st0" x1="0" y1="304" x2="448" y2="304"/>
			<line class="st1" x1="0" y1="320" x2="448" y2="320"/>
			<line class="st0" x1="0" y1="336" x2="448" y2="336"/>
			<line class="st1" x1="0" y1="352" x2="448" y2="352"/>
			<line class="st0" x1="0" y1="368" x2="448" y2="368"/>
			<line class="st1" x1="0" y1="384" x2="448" y2="384"/>
			<line class="st0" x1="0" y1="400" x2="448" y2="400"/>
			<line class="st1" x1="0" y1="416" x2="448" y2="416"/>
			<line class="st0" x1="0" y1="432" x2="448" y2="432"/>
		</g>
	</g>
	<g id="icomoon-ignore_1_">
	</g>
</g>
<g id="Layer_2" class="st2">
	<path class="st3" d="M384,96H96V32h256c0,0,32,0,32,32S384,96,384,96z"/>
	<path class="st3" d="M320,416H64c0,0,64-32,64-96S64,192,64,128s32-96,32-96h256c0,0-32,32-32,96s64,128,64,192S320,416,320,416z"
		/>
</g>
<g id="Layer_4_copy" class="st2">
	<g class="st3">
		<g>
			<path class="st4" d="M102.6,400L80,377.4V95.7v-0.2c0-0.1-0.3-21.7,13.2-35.3C101.1,52.1,112.8,48,128,48h249.6
				C373,62.8,368,82,368,96v240c0,15.7-4.3,31.9-11.6,43.5c-8.6,13.8-20.5,20.5-36.4,20.5H102.6z"/>
			<path d="M356.5,64c-2.6,11-4.5,22.4-4.5,32v240c0,9.9-2.4,24.3-9.1,35c-5.7,9.1-12.5,13-22.9,13H109.3L96,370.7V96v-0.1v-0.8
				c0-4.5,1.6-16.8,8.7-23.9c1.8-1.8,7.2-7.2,23.3-7.2L356.5,64 M400,32c0,0-247.2,0-272,0c-66,0-64,64-64,64v288l32,32
				c0,0,192,0,224,0c48,0,64-48,64-80s0-210,0-240C384,73.6,400,32,400,32L400,32z"/>
		</g>
		<g>
			<path class="st4" d="M78,400c-13.9,0-25-4.6-34.1-14c-19.2-20-25.4-57.9-26.7-82h254.9c0.2,6.5,0.6,14.3,1.5,22.6
				c3.1,30.4,10.1,50.8,21.3,62.4c2.8,2.9,5.8,5.2,9.1,7v4H78z"/>
			<path d="M256.9,320c0.2,2.7,0.4,5.4,0.7,8.2c2.4,23.4,7.1,41.9,14.3,55.7H78c-9.5,0-16.4-2.8-22.5-9
				c-12.1-12.5-18-35.3-20.6-54.9L256.9,320 M288,288H1c0,0-5,128,77,128h242v-32C285,384,288,288,288,288L288,288z"/>
		</g>
		<g>
			<path d="M448,160V96c0,0,1-64-48-64s-48,64-48,64v64H448z"/>
		</g>
		<path class="st5" d="M-73,363"/>
	</g>
	<line class="st6" x1="142" y1="120" x2="302" y2="120"/>
	<line class="st6" x1="142" y1="184" x2="302" y2="184"/>
	<line class="st6" x1="142" y1="248" x2="302" y2="248"/>
</g>
<g id="Layer_3" class="st2">
	<g class="st3">
		<path class="st4" d="M304,80V16.2c8.3,0.1,19.3,0.1,31.3,0.1c15.4,0,29.5-0.1,42-0.3c0.3,0,0.6,0,0.8,0c11.6,0,21.1,3.5,29,10.6
			c6.7,6.1,12.3,15,16.6,26.3c3.6,9.6,5.7,19.3,6.8,27.1H304z"/>
		<path d="M378.1,32c7.6,0,13.2,1.9,18.1,6.3c4.7,4.2,9,11,12.3,19.7c0.8,2,1.5,4,2.1,6H320V32.2c4.8,0,9.9,0,15.3,0
			c15.5,0,29.7-0.1,42.2-0.3C377.7,32,377.9,32,378.1,32 M378.1,0c-0.4,0-0.7,0-1.1,0c-14,0.2-28.6,0.3-41.7,0.3
			C308.9,0.3,288,0,288,0v96h160C448,96,447,0,378.1,0L378.1,0z"/>
	</g>
	<g class="st3">
		<path class="st4" d="M168.3,431c1-27.3-18.6-70.6-50.7-139.2c-21-44.9-44.9-95.7-60.2-141.7c-16.5-49.6-20.6-86.6-12-109.8
			C49.6,29,56.9,20.7,67.7,15h299.9l-0.1,2.6c-16,3.6-25.2,12.6-30.3,20.4c-14.3,21.8-13.1,57.2,3.7,111.6
			c13.3,43.1,34.4,91.6,53,134.4c17.4,40.2,37.2,85.7,37.2,99.9c0,24.6-20,47-42,47H168.3V431z"/>
		<path d="M322.6,31c-9.3,15.2-12.9,34.5-10.9,58.9c1.5,18.1,6,39.2,13.8,64.5c13.6,43.9,34.8,92.9,53.6,136.1
			c9.9,22.9,19.3,44.5,26,62c8.9,23.2,9.8,30.4,9.8,31.7c-0.1,15.6-12.9,30.9-26,30.9H183.2c-1.6-10.5-5.1-22.9-10.6-37.9
			c-9.6-26.2-24.6-58.2-40.5-92c-20.8-44.5-44.5-94.9-59.5-140C62,113.4,51.4,70.4,60.4,45.8c2.4-6.5,6-11.2,11.6-14.8H322.6 M384-1
			c0,0-112,0-320,0c-143,65,160,448,72,448c-21,0-30,0-30,0s199.7,0,283,0c32,0,58-30.9,58-63c0-56-182-352-63.9-352L384-1L384-1z"
			/>
	</g>
	<g class="st3">
		<path class="st4" d="M77.1,432c-13.8,0-25-4.6-34-14c-11.6-12.1-20-32.4-24.2-58.7c-1.4-8.7-2.1-16.8-2.5-23.3h318.8
			c0.2,6.5,0.6,14.3,1.5,22.6c3.1,30.4,10.1,50.8,21.3,62.4c2.8,2.9,5.8,5.2,9.1,7v4H77.1z"/>
		<path d="M320,352c0.2,2.7,0.4,5.4,0.7,8.2c2.4,23.4,7.1,41.9,14.3,55.7H77c-9.5,0-16.4-2.8-22.5-9c-12.1-12.5-18-35.3-20.6-54.9
			L320,352 M351.1,320H0.1c0,0-5,128,77,128h306v-32C348.1,416,351.1,320,351.1,320L351.1,320z"/>
	</g>
	<g class="st3">
		<line class="st7" x1="97" y1="88" x2="272" y2="88"/>
	</g>
	<g class="st3">
		<line class="st7" x1="114" y1="152" x2="283" y2="152"/>
	</g>
	<g class="st3">
		<line class="st7" x1="140" y1="216" x2="309" y2="216"/>
	</g>
	<g class="st3">
		<line class="st7" x1="169" y1="280" x2="335" y2="280"/>
	</g>
</g>
<path d="M448,448V256c0,0-0.2-32.2-32.2-32.2c-36.6,0-128,0-128,0l-22.7-35.5c0,0-13.1-28.3-41.1-28.3c-32,0-74.4,0-96,0
	c-36.6,0-32,32-32,32v256H448z"/>
<path d="M64,288v-94.5c-0.6-8.2-0.4-28.2,14.1-45c8.1-9.4,23.4-20.5,49.9-20.5h96c20.4,0,39.1,8.3,54.2,24
	c7.8,8.1,12.6,16.3,14.8,20.4l12.4,19.4h46.8V96c0,0-0.2-32.2-32.2-32.2c-36.6,0-128,0-128,0l-22.7-35.5c0,0-13.1-28.3-41.1-28.3
	c-32,0-74.4,0-96,0c-36.6,0-32,32-32,32v256H64z"/>
</svg>
