<?xml version="1.0" encoding="utf-8"?>
<!-- Generator: Adobe Illustrator 20.0.0, SVG Export Plug-In . SVG Version: 6.00 Build 0)  -->
<svg version="1.1" id="Layer_1" xmlns="http://www.w3.org/2000/svg" xmlns:xlink="http://www.w3.org/1999/xlink" x="0px" y="0px"
	 viewBox="0 0 480 448" style="enable-background:new 0 0 480 448;" xml:space="preserve">
<style type="text/css">
	.st0{display:none;}
	.st1{display:inline;}
	.st2{fill:none;}
</style>
<g id="Grid" class="st0">
	<g id="icomoon-ignore" class="st1">
		<line class="st2" x1="16" y1="0" x2="16" y2="448"/>
		<line class="st2" x1="32" y1="0" x2="32" y2="448"/>
		<line class="st2" x1="48" y1="0" x2="48" y2="448"/>
		<line class="st2" x1="64" y1="0" x2="64" y2="448"/>
		<line class="st2" x1="80" y1="0" x2="80" y2="448"/>
		<line class="st2" x1="96" y1="0" x2="96" y2="448"/>
		<line class="st2" x1="112" y1="0" x2="112" y2="448"/>
		<line class="st2" x1="128" y1="0" x2="128" y2="448"/>
		<line class="st2" x1="144" y1="0" x2="144" y2="448"/>
		<line class="st2" x1="160" y1="0" x2="160" y2="448"/>
		<line class="st2" x1="176" y1="0" x2="176" y2="448"/>
		<line class="st2" x1="192" y1="0" x2="192" y2="448"/>
		<line class="st2" x1="208" y1="0" x2="208" y2="448"/>
		<line class="st2" x1="224" y1="0" x2="224" y2="448"/>
		<line class="st2" x1="240" y1="0" x2="240" y2="448"/>
		<line class="st2" x1="256" y1="0" x2="256" y2="448"/>
		<line class="st2" x1="272" y1="0" x2="272" y2="448"/>
		<line class="st2" x1="288" y1="0" x2="288" y2="448"/>
		<line class="st2" x1="304" y1="0" x2="304" y2="448"/>
		<line class="st2" x1="320" y1="0" x2="320" y2="448"/>
		<line class="st2" x1="336" y1="0" x2="336" y2="448"/>
		<line class="st2" x1="352" y1="0" x2="352" y2="448"/>
		<line class="st2" x1="368" y1="0" x2="368" y2="448"/>
		<line class="st2" x1="384" y1="0" x2="384" y2="448"/>
		<line class="st2" x1="400" y1="0" x2="400" y2="448"/>
		<line class="st2" x1="416" y1="0" x2="416" y2="448"/>
		<line class="st2" x1="432" y1="0" x2="432" y2="448"/>
		<line class="st2" x1="448" y1="0" x2="448" y2="448"/>
		<line class="st2" x1="464" y1="0" x2="464" y2="448"/>
		<line class="st2" x1="0" y1="16" x2="480" y2="16"/>
		<line class="st2" x1="0" y1="32" x2="480" y2="32"/>
		<line class="st2" x1="0" y1="48" x2="480" y2="48"/>
		<line class="st2" x1="0" y1="64" x2="480" y2="64"/>
		<line class="st2" x1="0" y1="80" x2="480" y2="80"/>
		<line class="st2" x1="0" y1="96" x2="480" y2="96"/>
		<line class="st2" x1="0" y1="112" x2="480" y2="112"/>
		<line class="st2" x1="0" y1="128" x2="480" y2="128"/>
		<line class="st2" x1="0" y1="144" x2="480" y2="144"/>
		<line class="st2" x1="0" y1="160" x2="480" y2="160"/>
		<line class="st2" x1="0" y1="176" x2="480" y2="176"/>
		<line class="st2" x1="0" y1="192" x2="480" y2="192"/>
		<line class="st2" x1="0" y1="208" x2="480" y2="208"/>
		<line class="st2" x1="0" y1="224" x2="480" y2="224"/>
		<line class="st2" x1="0" y1="240" x2="480" y2="240"/>
		<line class="st2" x1="0" y1="256" x2="480" y2="256"/>
		<line class="st2" x1="0" y1="272" x2="480" y2="272"/>
		<line class="st2" x1="0" y1="288" x2="480" y2="288"/>
		<line class="st2" x1="0" y1="304" x2="480" y2="304"/>
		<line class="st2" x1="0" y1="320" x2="480" y2="320"/>
		<line class="st2" x1="0" y1="336" x2="480" y2="336"/>
		<line class="st2" x1="0" y1="352" x2="480" y2="352"/>
		<line class="st2" x1="0" y1="368" x2="480" y2="368"/>
		<line class="st2" x1="0" y1="384" x2="480" y2="384"/>
		<line class="st2" x1="0" y1="400" x2="480" y2="400"/>
		<line class="st2" x1="0" y1="416" x2="480" y2="416"/>
		<line class="st2" x1="0" y1="432" x2="480" y2="432"/>
	</g>
</g>
<path id="Icon" d="M224,224c0-17.7-6.2-32.8-18.8-45.2S177.7,160,160,160s-32.8,6.2-45.2,18.8S96,206.3,96,224s6.2,32.8,18.8,45.2
	S142.3,288,160,288s32.8-6.2,45.2-18.8S224,241.7,224,224z M416,352c0-8.7-3.2-16.2-9.5-22.5S392.7,320,384,320s-16.2,3.2-22.5,9.5
	S352,343.3,352,352c0,8.8,3.1,16.4,9.4,22.6s13.8,9.4,22.6,9.4s16.4-3.1,22.6-9.4S416,360.8,416,352z M416,96
	c0-8.7-3.2-16.2-9.5-22.5S392.7,64,384,64s-16.2,3.2-22.5,9.5S352,87.3,352,96c0,8.8,3.1,16.4,9.4,22.6s13.8,9.4,22.6,9.4
	s16.4-3.1,22.6-9.4S416,104.8,416,96z M320,201.2v46.2c0,1.7-0.6,3.3-1.8,4.9s-2.5,2.5-4,2.6l-38.8,6c-1.8,5.8-4.5,12.2-8,19
	c5.7,8,13.2,17.6,22.5,28.8c1.2,1.7,1.8,3.3,1.8,5c0,2-0.6,3.6-1.8,4.8c-3.8,5-10.7,12.5-20.6,22.4s-16.5,14.9-19.6,14.9
	c-1.8,0-3.6-0.6-5.2-1.8l-28.8-22.5c-6.2,3.2-12.6,5.8-19.2,7.8c-1.8,18-3.8,30.9-5.8,38.8c-1.2,4-3.7,6-7.5,6h-46.5
	c-1.8,0-3.5-0.6-5-1.9s-2.3-2.7-2.5-4.4l-5.8-38.2c-5.7-1.7-11.9-4.2-18.8-7.8L75.2,354c-1.2,1.2-2.8,1.8-5,1.8
	c-1.8,0-3.6-0.7-5.2-2c-24-22.2-36-35.5-36-40c0-1.5,0.6-3.1,1.8-4.8c1.7-2.3,5.1-6.8,10.2-13.2s9.1-11.6,11.8-15.2
	c-3.8-7.3-6.8-14.2-8.8-20.5l-38-6c-1.7-0.2-3.1-1-4.2-2.4s-1.8-3-1.8-4.9v-46.2c0-1.7,0.6-3.3,1.8-4.9s2.5-2.5,4-2.6l38.8-6
	c1.8-5.8,4.5-12.2,8-19c-5.7-8-13.2-17.6-22.5-28.8c-1.2-1.8-1.8-3.5-1.8-5c0-2,0.6-3.7,1.8-5c3.7-5,10.5-12.4,20.5-22.2
	s16.6-14.8,19.8-14.8c1.8,0,3.6,0.6,5.2,1.8l28.8,22.5c5.7-3,12.1-5.7,19.2-8c1.8-18,3.8-30.8,5.8-38.5c1.2-4,3.7-6,7.5-6h46.5
	c1.8,0,3.5,0.6,5,1.9s2.3,2.7,2.5,4.4l5.8,38.2c5.7,1.7,11.9,4.2,18.8,7.8L244.8,94c1.3-1.2,3-1.8,5-1.8c1.8,0,3.6,0.7,5.2,2
	c24,22.2,36,35.5,36,40c0,1.5-0.6,3.1-1.8,4.8c-2,2.7-5.5,7.2-10.5,13.5s-8.8,11.3-11.2,15c3.8,8,6.7,14.8,8.5,20.5l38,5.8
	c1.7,0.3,3.1,1.2,4.2,2.6S320,199.4,320,201.2z M480,334.5v35c0,2.7-12.4,5.2-37.2,7.8c-2,4.5-4.5,8.8-7.5,13
	c8.5,18.8,12.8,30.3,12.8,34.5c0,0.7-0.3,1.2-1,1.8c-20.3,11.8-30.7,17.8-31,17.8c-1.3,0-5.2-3.9-11.5-11.8s-10.7-13.5-13-17
	c-3.3,0.3-5.8,0.5-7.5,0.5s-4.2-0.2-7.5-0.5c-2.3,3.5-6.7,9.2-13,17s-10.2,11.8-11.5,11.8c-0.3,0-10.7-5.9-31-17.8
	c-0.7-0.5-1-1.1-1-1.8c0-4.2,4.2-15.7,12.8-34.5c-3-4.2-5.5-8.5-7.5-13c-24.8-2.5-37.2-5.1-37.2-7.8v-35c0-2.7,12.4-5.2,37.2-7.8
	c2.2-4.8,4.7-9.2,7.5-13c-8.5-18.8-12.8-30.3-12.8-34.5c0-0.7,0.3-1.2,1-1.8c0.7-0.3,3.6-2,8.8-5s10.1-5.8,14.8-8.5s7.2-4,7.5-4
	c1.3,0,5.2,3.9,11.5,11.6s10.7,13.4,13,16.9c3.3-0.3,5.8-0.5,7.5-0.5s4.2,0.2,7.5,0.5c8.5-11.8,16.2-21.2,23-28l1.5-0.5
	c0.7,0,11,5.8,31,17.5c0.7,0.5,1,1.1,1,1.8c0,4.2-4.2,15.7-12.8,34.5c2.8,3.8,5.3,8.2,7.5,13C467.6,329.2,480,331.8,480,334.5z
	 M480,78.5v35c0,2.7-12.4,5.2-37.2,7.8c-2,4.5-4.5,8.8-7.5,13c8.5,18.8,12.8,30.3,12.8,34.5c0,0.7-0.3,1.2-1,1.8
	c-20.3,11.8-30.7,17.8-31,17.8c-1.3,0-5.2-3.9-11.5-11.8s-10.7-13.5-13-17c-3.3,0.3-5.8,0.5-7.5,0.5s-4.2-0.2-7.5-0.5
	c-2.3,3.5-6.7,9.2-13,17s-10.2,11.8-11.5,11.8c-0.3,0-10.7-5.9-31-17.8c-0.7-0.5-1-1.1-1-1.8c0-4.2,4.2-15.7,12.8-34.5
	c-3-4.2-5.5-8.5-7.5-13c-24.8-2.5-37.2-5.1-37.2-7.8v-35c0-2.7,12.4-5.2,37.2-7.8c2.2-4.8,4.7-9.2,7.5-13
	C324.2,38.9,320,27.4,320,23.2c0-0.7,0.3-1.2,1-1.8c0.7-0.3,3.6-2,8.8-5s10.1-5.8,14.8-8.5s7.2-4,7.5-4c1.3,0,5.2,3.9,11.5,11.6
	s10.7,13.4,13,16.9c3.3-0.3,5.8-0.5,7.5-0.5s4.2,0.2,7.5,0.5c8.5-11.8,16.2-21.2,23-28L416,4c0.7,0,11,5.8,31,17.5
	c0.7,0.5,1,1.1,1,1.8c0,4.2-4.2,15.7-12.8,34.5c2.8,3.8,5.3,8.2,7.5,13C467.6,73.2,480,75.8,480,78.5z"/>
</svg>
