<?xml version="1.0" encoding="utf-8"?>
<!-- Generator: Adobe Illustrator 22.0.1, SVG Export Plug-In . SVG Version: 6.00 Build 0)  -->
<svg version="1.1" id="Layer_1" xmlns="http://www.w3.org/2000/svg" x="0px" y="0px"
     viewBox="0 0 208.7 63" style="enable-background:new 0 0 208.7 63;" xml:space="preserve">
<style type="text/css">
	.st0{fill:#2494D2;}
	.st1{fill:#765AA6;}
	.st2{fill:#F68A20;}
	.st3{fill:#DB1F26;}
	.st4{fill:#757575;}
</style>
<path class="st0" d="M15.5,49.3c-0.1,0-0.2,0-0.3,0c-0.6-0.2-1-0.8-0.8-1.4c1.9-7,1.5-25.8,1.5-26c0-0.6,0.5-1.1,1.1-1.2
	c0,0,0,0,0,0c0.6,0,1.1,0.5,1.1,1.1c0,0.8,0.4,19.3-1.6,26.6C16.4,49,16,49.3,15.5,49.3z"/>
<path class="st1" d="M31.9,35.1c-2.3,0-4.2-0.9-4.3-1c-0.6-0.3-0.8-1-0.5-1.5c0.3-0.6,1-0.8,1.5-0.5c0.1,0,3.6,1.7,5.9,0
	c0.5-0.4,1.2-0.3,1.6,0.2c0.4,0.5,0.3,1.2-0.2,1.6C34.6,34.8,33.2,35.1,31.9,35.1z"/>
<path class="st2" d="M36.4,46.2c-0.9,0-1.9-0.1-3.1-0.1c-0.6,0-1.1-0.6-1.1-1.2c0-0.6,0.6-1.1,1.2-1.1c2.4,0.1,5.1,0.3,5.7-0.5
	c0.5-0.6,0.4-2.2-0.3-4.7c-1.6-6.2-0.2-8.3,1.3-9.8c0.1-0.1,0.2-0.2,0.3-0.3c1-1.1,4.2-2.9,4.9-3.2c0.6-0.3,1.2-0.1,1.5,0.5
	c0.3,0.6,0.1,1.2-0.5,1.5c-1.4,0.8-3.7,2.1-4.2,2.7c-0.1,0.1-0.2,0.3-0.4,0.4c-0.8,0.8-2.1,2.1-0.7,7.6c0.9,3.5,0.9,5.5-0.1,6.7
	C40,45.9,38.5,46.2,36.4,46.2z"/>
<g>
	<path class="st3" d="M34.1,62.7c-2.8,0-5.6-1.3-7.5-3.5c-4.5-5.3-7.9-5.3-7.9-5.3c-0.6,0-1.2-0.5-1.2-1.1c0-0.6,0.4-1.1,1-1.2
		c0.4,0,4.5-0.1,9.8,6.1c2,2.4,5,3.3,7.9,2.4c5.5-1.7,9.5-9.6,10.8-21.6c1.1-10.6,1.8-21.5-3.4-27.4c-3.1-3.5-8.2-5.2-15.6-5.2
		C12.1,5.9,8.9,16.2,8.2,20.6c-1,6.7,1.6,13.6,5.5,14.8c0.6,0.2,0.9,0.8,0.8,1.4c-0.2,0.6-0.8,0.9-1.4,0.8C8,36,4.8,28.1,6,20.3
		c1.6-10.4,9.8-16.7,22-16.7c8,0,13.7,1.9,17.3,5.9c5.9,6.6,5.2,18,4,29.2c-1.9,17.8-8.6,22.4-12.4,23.6
		C36,62.5,35.1,62.7,34.1,62.7z"/>
	<g>
		<path class="st4" d="M89.7,38.6c0,3.6-0.7,6.8-2.2,9.7c-1.5,2.9-3.4,5.1-5.8,6.8c-2,1.2-4,2.1-6.1,2.5c-2,0.4-4.7,0.6-7.8,0.6h-9
			V19h8.9c3.7,0,6.6,0.3,8.7,0.8c2.1,0.6,3.9,1.3,5.4,2.3c2.5,1.7,4.5,3.9,5.9,6.7C89,31.5,89.7,34.8,89.7,38.6z M84.2,38.6
			c0-3-0.5-5.6-1.5-7.7c-1-2.1-2.5-3.8-4.5-5c-1.4-0.8-2.9-1.5-4.5-1.8c-1.6-0.4-3.6-0.6-5.9-0.6h-4v30.3h4c2.3,0,4.4-0.2,6.1-0.6
			c1.7-0.4,3.3-1.1,4.8-2.1c1.8-1.2,3.2-2.9,4.1-4.9C83.8,44.2,84.2,41.6,84.2,38.6z"/>
		<path class="st4" d="M110.6,34.1h-0.3c-0.4-0.1-0.8-0.2-1.2-0.2c-0.4,0-0.9,0-1.5,0c-1.3,0-2.7,0.3-4,0.9
			c-1.3,0.6-2.6,1.4-3.7,2.6v20.9h-5V28.8h5v4.4c1.8-1.6,3.4-2.7,4.7-3.4c1.3-0.7,2.7-1,3.9-1c0.5,0,0.9,0,1.1,0
			c0.3,0,0.5,0.1,0.9,0.1V34.1z"/>
		<path class="st4" d="M138.4,43.5c0,5-1.2,8.8-3.6,11.5c-2.4,2.7-5.6,4-9.5,4c-4.1,0-7.3-1.4-9.7-4.2c-2.3-2.8-3.5-6.6-3.5-11.4
			c0-4.9,1.2-8.7,3.6-11.5c2.4-2.7,5.6-4.1,9.6-4.1c4,0,7.2,1.4,9.5,4.1C137.2,34.7,138.4,38.6,138.4,43.5z M133.3,43.5
			c0-3.8-0.7-6.6-2.1-8.5c-1.4-1.9-3.4-2.8-5.9-2.8c-2.6,0-4.6,0.9-6,2.8c-1.4,1.9-2.1,4.7-2.1,8.5c0,3.7,0.7,6.5,2.1,8.4
			c1.4,1.9,3.4,2.9,6,2.9c2.5,0,4.5-0.9,5.9-2.8C132.6,50.1,133.3,47.3,133.3,43.5z"/>
		<path class="st4" d="M167.7,43.5c0,5-1.2,8.8-3.6,11.5c-2.4,2.7-5.6,4-9.5,4c-4.1,0-7.3-1.4-9.7-4.2c-2.3-2.8-3.5-6.6-3.5-11.4
			c0-4.9,1.2-8.7,3.6-11.5c2.4-2.7,5.6-4.1,9.6-4.1c4,0,7.2,1.4,9.5,4.1C166.5,34.7,167.7,38.6,167.7,43.5z M162.6,43.5
			c0-3.8-0.7-6.6-2.1-8.5c-1.4-1.9-3.4-2.8-5.9-2.8c-2.6,0-4.6,0.9-6,2.8c-1.4,1.9-2.1,4.7-2.1,8.5c0,3.7,0.7,6.5,2.1,8.4
			c1.4,1.9,3.4,2.9,6,2.9c2.5,0,4.5-0.9,5.9-2.8C161.9,50.1,162.6,47.3,162.6,43.5z"/>
		<path class="st4" d="M177.9,58.2h-5v-41h5V58.2z"/>
		<path class="st4" d="M193.1,58.9c-2,0-3.8-0.3-5.5-0.8c-1.7-0.5-3.1-1.1-4.3-1.7v-5.6h0.3c0.4,0.3,0.9,0.7,1.5,1.1
			c0.6,0.4,1.3,0.8,2.3,1.3c0.8,0.4,1.8,0.7,2.8,1c1,0.3,2.1,0.4,3.2,0.4c0.8,0,1.6-0.1,2.5-0.3c0.9-0.2,1.6-0.4,2-0.7
			c0.6-0.4,1.1-0.8,1.3-1.3c0.3-0.5,0.4-1.1,0.4-2.1c0-1.2-0.3-2.1-1-2.7c-0.6-0.6-1.8-1.1-3.4-1.5c-0.6-0.2-1.5-0.3-2.5-0.6
			c-1-0.2-2-0.4-2.8-0.7c-2.3-0.7-3.9-1.7-4.9-3c-1-1.4-1.5-3-1.5-4.9c0-2.7,1-4.8,3-6.5c2-1.7,4.7-2.5,8-2.5c1.6,0,3.3,0.2,4.9,0.6
			c1.7,0.4,3,0.9,4.2,1.5v5.3h-0.3c-1.3-1-2.7-1.8-4.2-2.4c-1.6-0.6-3.1-0.9-4.7-0.9c-1.6,0-3,0.3-4.1,1c-1.1,0.7-1.7,1.7-1.7,3.1
			c0,1.2,0.3,2.1,1,2.8c0.7,0.6,1.7,1.1,3.2,1.5c0.7,0.2,1.6,0.4,2.5,0.6c0.9,0.2,1.9,0.4,2.9,0.6c2.2,0.5,3.8,1.5,4.9,2.7
			c1.1,1.3,1.6,3,1.6,5.2c0,1.3-0.3,2.5-0.8,3.6c-0.5,1.1-1.2,2.1-2.2,2.9c-1.1,0.9-2.2,1.5-3.6,2C196.8,58.7,195.1,58.9,193.1,58.9
			z"/>
	</g>
</g>
</svg>
