<?xml version="1.0" encoding="utf-8"?>
<!--
  ~ Licensed to the Apache Software Foundation (ASF) under one
  ~ or more contributor license agreements.  See the NOTICE file
  ~ distributed with this work for additional information
  ~ regarding copyright ownership.  The ASF licenses this file
  ~ to you under the Apache License, Version 2.0 (the
  ~ "License"); you may not use this file except in compliance
  ~ with the License.  You may obtain a copy of the License at
  ~ 
  ~   http://www.apache.org/licenses/LICENSE-2.0
  ~ 
  ~ Unless required by applicable law or agreed to in writing,
  ~ software distributed under the License is distributed on an
  ~ "AS IS" BASIS, WITHOUT WARRANTIES OR CONDITIONS OF ANY
  ~ KIND, either express or implied.  See the License for the
  ~ specific language governing permissions and limitations
  ~ under the License.      
-->
<!-- add  filter="url(#selectShadow)"  to make the selection shadow -->
<svg version="1.1" id="gateway" xmlns="http://www.w3.org/2000/svg"
     xmlns:stunner="http://kiegroup.org/2017/stunner"
     x="0px" y="0px"
     width="56px" height="56px"
     viewBox="0 0 448 448"
     style="enable-background:new 0 0 448 448; width: 56px; height: 56px;" xml:space="preserve">
<style type="text/css">
	<!--.st0{display:none;}-->
</style>
<path id="gateway-background" class="st0" d="M224.4,4.3c-8,0-16,3-22.1,9.1L13.5,202.2c-12.2,12.2-12.2,32,0,44.2l188.7,188.7
    c6.1,6.1,14.2,9.1,22.1,9.1s16-3,22.1-9.1l188.7-188.7c12.2-12.2,12.2-32,0-44.2L246.5,13.4C240.4,7.3,232.4,4.3,224.4,4.3
    L224.4,4.3z"/>
<g id="gateway-type">
	<path id="gateway" class="st0" stunner:shape-state="fill" d="M20.8,212.7L213.3,20.2c6.3-6.3,16.4-6.3,22.6,0l192.5,192.5c6.3,6.3,6.3,16.4,0,22.6
		L235.9,427.8c-6.3,6.3-16.4,6.3-22.6,0L20.8,235.3C14.5,229.1,14.5,218.9,20.8,212.7L20.8,212.7z M0,224c0,8.1,3.1,16.3,9.3,22.5
		l192.2,192.2c12.4,12.4,32.6,12.4,45,0l192.2-192.2c6.2-6.2,9.3-14.4,9.3-22.5s-3.1-16.3-9.3-22.5L246.5,9.3
		c-12.4-12.4-32.6-12.4-45,0L9.3,201.5C3.1,207.7,0,215.9,0,224L0,224z"/>
</g>
<g id="gateway-subtypes">
	<path id="parallel-event" class="st0" d="M224,111.9c-61.9,0-112,50.1-112,112s50.1,112,112,112s112-50.1,112-112
		S285.9,111.9,224,111.9z M292.5,236.5c-2.4,2.3-5.1,3.5-8.5,3.5h-44v44c0,3.4-1.1,6.1-3.5,8.5s-5.1,3.5-8.5,3.5h-8
		c-3.4,0-6.1-1.1-8.5-3.5s-3.5-5.1-3.5-8.5v-44h-44c-3.4,0-6.1-1.2-8.5-3.5c-2.4-2.4-3.5-5.2-3.5-8.5v-8c0-3.4,1.1-6.2,3.5-8.5
		c2.4-2.4,5.1-3.5,8.5-3.5h43.5v-44c0-3.4,1.1-6.2,3.5-8.5c2.4-2.4,5.1-3.5,8.5-3.5h8.5c3.4,0,6.1,1.1,8.5,3.5
		c2.4,2.3,3.5,5.1,3.5,8.5v44h44c3.4,0,6.1,1.1,8.5,3.5c2.4,2.3,3.5,5.1,3.5,8.5v8C296,231.3,294.9,234.1,292.5,236.5z"/>
	<path id="parallel" class="st0" d="M312,212v24c0,3.4-1.1,6.1-3.5,8.5s-5.1,3.5-8.5,3.5h-52v52c0,3.4-1.1,6.1-3.5,8.5
		s-5.1,3.5-8.5,3.5h-24c-3.4,0-6.1-1.1-8.5-3.5s-3.5-5.1-3.5-8.5v-52h-52c-3.4,0-6.1-1.1-8.5-3.5s-3.5-5.1-3.5-8.5v-24
		c0-3.4,1.1-6.1,3.5-8.5s5.1-3.5,8.5-3.5h52v-52c0-3.4,1.1-6.1,3.5-8.5s5.1-3.5,8.5-3.5h24c3.4,0,6.1,1.1,8.5,3.5s3.5,5.1,3.5,8.5
		v52h52c3.4,0,6.1,1.1,8.5,3.5S312,208.6,312,212z"/>
	<path id="inclusive" class="st0" d="M224,127.9c25.6,0,49.8,10,67.9,28.1c18.1,18.2,28.1,42.3,28.1,67.9s-10,49.7-28.1,67.9
		c-18.1,18.1-42.2,28.1-67.9,28.1s-49.8-10-67.9-28.1C138,273.7,128,249.6,128,223.9s10-49.8,28.1-67.9S198.4,127.9,224,127.9
		 M224,111.9c-61.9,0-112,50.1-112,112s50.1,112,112,112s112-50.1,112-112S285.9,111.9,224,111.9L224,111.9z"/>
	<path id="exclusive" class="st0" d="M298.2,269.2c0,3.4-1.1,6.1-3.5,8.5l-17,17c-2.4,2.4-5.1,3.5-8.5,3.5s-6.1-1.1-8.5-3.5
		L224,258l-36.8,36.8c-2.4,2.4-5.1,3.5-8.5,3.5s-6.1-1.1-8.5-3.5l-17-17c-2.4-2.4-3.5-5.1-3.5-8.5s1.1-6.1,3.5-8.5L190,224
		l-36.8-36.8c-2.4-2.4-3.5-5.2-3.5-8.5c0-3.4,1.1-6.2,3.5-8.5l17-17c2.4-2.4,5.1-3.5,8.5-3.5s6.1,1.1,8.5,3.5L224,190l36.8-36.8
		c2.4-2.4,5.1-3.5,8.5-3.5s6.1,1.1,8.5,3.5l17,17c2.4,2.3,3.5,5.1,3.5,8.5c0,3.3-1.1,6.1-3.5,8.5L258,224l36.8,36.8
		C297.1,263.1,298.2,265.9,298.2,269.2z"/>
	<path id="event" class="st0" d="M224,128c25.6,0,49.8,10,67.9,28.1S320,198.3,320,224s-10,49.8-28.1,67.9S249.6,320,224,320
		s-49.8-10-67.9-28.1C138,273.7,128,249.6,128,224s10-49.8,28.1-67.9S198.4,128,224,128 M224,112c-61.9,0-112,50.2-112,112
		s50.1,112,112,112s112-50.1,112-112S285.9,112,224,112L224,112z M224.1,176.3l9.2,18.6v0.1v0.1c2.9,5.8,8.4,9.7,14.6,10.6l20.6,3
		l-14.9,14.6l-0.1,0.1l-0.1,0.1c-4.5,4.5-6.6,10.9-5.4,17.2l3.6,20.6l-18.4-9.6c-2.8-1.5-5.9-2.3-9.1-2.3s-6.3,0.8-9.1,2.3
		l-18.4,9.6l3.6-20.6c1.1-6.2-0.9-12.6-5.4-17.2l-0.1-0.1l-0.1-0.1l-15.1-14.6l20.6-3c6.4-0.9,11.9-4.9,14.8-10.7L224.1,176.3
		 M224,144.4c-1.2,0-2.4,0.7-3,1.9l-20.5,41.6c-0.5,1.1-1.5,1.8-2.6,1.9l-45.8,6.7c-2.8,0.4-3.9,3.9-1.9,5.9l33.2,32.4
		c0.8,0.8,1.2,1.9,1,3.1l-7.8,45.6c-0.4,2.2,1.3,4,3.3,4c0.6,0,1.1-0.1,1.7-0.4l41-21.5c0.5-0.3,1-0.4,1.6-0.4s1.1,0.1,1.6,0.4
		l41,21.5c0.5,0.2,1.1,0.4,1.6,0.4c2,0,3.8-1.8,3.4-4l-7.9-45.7c-0.2-1.1,0.2-2.2,1-3.1l33.1-32.3c2.1-2,0.9-5.5-1.9-5.9l-45.9-6.6
		c-1.1-0.2-2.1-0.9-2.6-1.9l-20.5-41.6C226.5,145,225.2,144.4,224,144.4L224,144.4z"/>
	<path id="complex" class="st0" d="M312.5,211.5c-2.4-2.4-5.1-3.5-8.5-3.5h-41.4l28.1-28.1c2.4-2.4,2.5-4.1,2.5-7.5
		c0-3.3-1.2-6.1-3.5-8.5l-5.6-5.6c-2.4-2.4-5.1-3.6-8.5-3.6s-6.1,1.2-8.5,3.6l-27.1,27V144c0-3.4-1.1-6.2-3.5-8.5
		c-2.4-2.4-5.1-3.5-8.5-3.5h-8c-3.4,0-6.1,1.1-8.5,3.5c-2.4,2.3-3.5,5.1-3.5,8.5v41.3l-26.6-26.6c-2.4-2.4-5.1-3.6-8.5-3.6
		c-3.3,0-6.1,1.2-8.5,3.6l-5.6,5.6c-2.4,2.4-3.6,5.2-3.6,8.5c0,3.4,1.2,6.2,3.6,8.5l26.6,26.6H144c-3.4,0-6.1,1.1-8.5,3.5
		c-2.4,2.3-3.5,5.1-3.5,8.5v8c0,3.3,1.1,6.1,3.5,8.5c2.4,2.3,5.1,3.5,8.5,3.5h41.4L158.3,267c-2.4,2.4-3.6,5.1-3.6,8.5
		s1.2,6.1,3.6,8.5l5.6,5.6c2.4,2.4,5.2,3.5,8.5,3.5c3.4,0,6.2-1.2,8.5-3.5l27.1-27.1V304c0,3.4,1.1,6.1,3.5,8.5s5.1,3.5,8.5,3.5h8
		c3.4,0,6.1-1.1,8.5-3.5s3.5-5.1,3.5-8.5v-41.4l26.5,26.5c2.4,2.4,5.2,3.6,8.5,3.6c3.4,0,6.2-1.2,8.5-3.6l5.7-5.6
		c2.4-2.4,3.5-5.1,3.6-8.4c0-3.4-1.2-6.1-3.5-8.5L262.6,240H304c3.4,0,6.1-1.2,8.5-3.5c2.4-2.4,3.5-5.2,3.5-8.5v-8
		C316,216.6,314.9,213.8,312.5,211.5z"/>
</g>

<defs>

<filter id="selectShadow" height="300%" width="300%" x="-75%" y="-75%">
  <!-- Thicken out the original shape -->
  <feMorphology operator="dilate" radius="0" in="SourceAlpha" result="thicken" />

	<!-- Create a drop shadow -->
  <feDropShadow dx="0" dy="2" stdDeviation="2" flood-color="#000000" flood-opacity=".6" result="droppedShadow"/>

	<!--	Layer the effects together -->
  <feMerge>
	<feMergeNode in="droppedShadow"/>
	<feMergeNode in="SourceGraphic"/>
  </feMerge>

</filter>

</defs>

</svg>
