<?xml version="1.0" encoding="utf-8"?>

<!--
  ~ Licensed to the Apache Software Foundation (ASF) under one
  ~ or more contributor license agreements.  See the NOTICE file
  ~ distributed with this work for additional information
  ~ regarding copyright ownership.  The ASF licenses this file
  ~ to you under the Apache License, Version 2.0 (the
  ~ "License"); you may not use this file except in compliance
  ~ with the License.  You may obtain a copy of the License at
  ~ 
  ~   http://www.apache.org/licenses/LICENSE-2.0
  ~ 
  ~ Unless required by applicable law or agreed to in writing,
  ~ software distributed under the License is distributed on an
  ~ "AS IS" BASIS, WITHOUT WARRANTIES OR CONDITIONS OF ANY
  ~ KIND, either express or implied.  See the License for the
  ~ specific language governing permissions and limitations
  ~ under the License.      
-->
<svg id="subProcess" version="1.1" xmlns="http://www.w3.org/2000/svg"
     xmlns:stunner="http://kiegroup.org/2017/stunner"
     x="0" y="0" width="650px" height="250px" viewBox="0 0 650 250">
  <rect id="subProcess-background" class="subProcess_background" x="0" y="0" width="650px" height="250px" rx="5" ry="5" />
  <rect  id="subProcess-border" class="subProcess_border" stunner:shape-state="stroke" x="0" y="0" width="650px" height="250px" rx="5" ry="5" />

  <g class="subProcess_group_multipleInstance" stunner:layout="BOTTOM" stunner:transform="non-scalable" transform="translate(300,220) scale(0.05,0.05)">
    <path id="multipleInstanceIconParallel" class="subProcess_multipleInstance_icon" d="M92,44v424c0,6.6-5.4,12-12,12H48c-6.6,0-12-5.4-12-12V44c0-6.6,5.4-12,12-12h32C86.6,32,92,37.4,92,44z M252,44v424
      c0,6.6-5.4,12-12,12h-32c-6.6,0-12-5.4-12-12V44c0-6.6,5.4-12,12-12h32C246.6,32,252,37.4,252,44z M412,44v424c0,6.6-5.4,12-12,12
      h-32c-6.6,0-12-5.4-12-12V44c0-6.6,5.4-12,12-12h32C406.6,32,412,37.4,412,44z"/>
    <path id="multipleInstanceIconSequential" class="subProcess_multipleInstance_icon" d="M468 92l-424 0c-6.6 0-12-5.4-12-12L32 48c0-6.6 5.4-12 12-12L468 36c6.6 0 12 5.4 12 12l0 32C480 86.6 474.6 92 468 92zM468 252l-424 0c-6.6 0-12-5.4-12-12l0-32c0-6.6 5.4-12 12-12L468 196c6.6 0 12 5.4 12 12l0 32C480 246.6 474.6 252 468 252zM468 412l-424 0c-6.6 0-12-5.4-12-12l0-32c0-6.6 5.4-12 12-12L468 356c6.6 0 12 5.4 12 12l0 32C480 406.6 474.6 412 468 412z"/>
  </g>
</svg>
