<?xml version="1.0" encoding="utf-8"?>

<!--
  ~ Licensed to the Apache Software Foundation (ASF) under one
  ~ or more contributor license agreements.  See the NOTICE file
  ~ distributed with this work for additional information
  ~ regarding copyright ownership.  The ASF licenses this file
  ~ to you under the Apache License, Version 2.0 (the
  ~ "License"); you may not use this file except in compliance
  ~ with the License.  You may obtain a copy of the License at
  ~ 
  ~   http://www.apache.org/licenses/LICENSE-2.0
  ~ 
  ~ Unless required by applicable law or agreed to in writing,
  ~ software distributed under the License is distributed on an
  ~ "AS IS" BASIS, WITHOUT WARRANTIES OR CONDITIONS OF ANY
  ~ KIND, either express or implied.  See the License for the
  ~ specific language governing permissions and limitations
  ~ under the License.      
-->

<!-- add  filter="url(#selectShadow)"  to make the selection shadow -->
<svg id="subProcess" version="1.1" xmlns="http://www.w3.org/2000/svg"
     xmlns:stunner="http://kiegroup.org/2017/stunner"
     x="0" y="0"
     width="653px" height="253px"
     viewBox="-1.5 -1.5 653 253">
  <rect  id="subProcess-background" class="subProcess_background" x="0" y="0" width="650px" height="250px" rx="2" ry="2"/>
  <rect id="subProcess-border" class="subProcess_border" stunner:shape-state="stroke" x="0" y="0" width="650px" height="250px" rx="2" ry="2"/>

  <g class="subProcess_group_adHoc" stunner:layout="BOTTOM" stunner:transform="non-scalable" transform="translate(300,220) scale(0.05,0.05)">
    <path class="subProcess_adHoc_icon" d="M421.5,159.5c-15.9-3.1-31.4,6.3-36.4,21.3l0,0l0.1-0.3c0,0.1-4.3,11.8-14.9,22.9c-13,13.6-29.2,20.2-49.6,20.2
	c-24.1,0-48.9-23-75.1-47.4c-32.3-30-68.8-64.1-117.4-64.1c-29.5,0-71.2,12.8-102.9,73.6C8.7,217.6,2.3,249.2,2,250.6v0.1
	c-0.1,0.4-0.2,0.9-0.2,1.3c0,0.1,0,0.2,0,0.3c-0.1,0.4-0.1,0.9-0.2,1.3c0,0.1,0,0.2,0,0.3c0,0.4-0.1,0.9-0.1,1.3c0,0.1,0,0.2,0,0.3
	c0,0.4,0,0.8,0,1.1c0,0.2,0,0.3,0,0.5c0,0.3,0,0.6,0,0.9c0,0.2,0,0.5,0,0.7s0,0.5,0.1,0.7c0,0.3,0,0.6,0.1,0.9c0,0.1,0,0.3,0.1,0.4
	c0,0.4,0.1,0.8,0.2,1.2v0.1c2.1,12.7,11.9,23.5,25.3,26.1c2.1,0.4,4.2,0.6,6.3,0.6c13.6,0,25.9-8.7,30.3-21.7
	c0.6-1.4,4.9-11.4,13.7-21.2c13.3-14.7,29.9-21.8,50.8-21.8c23.4,0,47.9,22.8,73.8,46.9c32.5,30.3,69.4,64.6,118.7,64.6
	c24.6,0,46.9-8.5,66.5-25.3c14-12,26.4-28.3,36.7-48.3c16.5-31.9,22.7-63.6,22.9-65C450.3,179.6,438.9,162.8,421.5,159.5z"/>
  </g>
  <defs>

    <filter id="selectShadow" height="300%" width="300%" x="-75%" y="-75%">
      <!-- Thicken out the original shape -->
      <feMorphology operator="dilate" radius="0" in="SourceAlpha" result="thicken" />

      <!-- Create a drop shadow -->
      <feDropShadow dx="0" dy="2" stdDeviation="2" flood-color="#000000" flood-opacity=".6" result="droppedShadow"/>

      <!--	Layer the effects together -->
      <feMerge>
        <feMergeNode in="droppedShadow"/>
        <feMergeNode in="SourceGraphic"/>
      </feMerge>

    </filter>

  </defs>
</svg>
