<?xml version="1.0" encoding="utf-8"?>
<!-- Generator: Adobe Illustrator 23.1.1, SVG Export Plug-In . SVG Version: 6.00 Build 0)  -->
<svg version="1.1" id="Layer_1" xmlns="http://www.w3.org/2000/svg" xmlns:xlink="http://www.w3.org/1999/xlink" x="0px" y="0px"
	 width="452px" height="38px" viewBox="0 0 452 38" style="enable-background:new 0 0 452 38;" xml:space="preserve">
<style type="text/css">
	.st0{fill:#DD3926;}
	.st1{fill:#CC3427;}
	.st2{fill:#FFFFFF;}
	.st3{fill:#E5E5E4;}
</style>
<title>Automation</title>
<desc>Created with Sketch.</desc>
<title>Automation</title>
<desc>Created with Sketch.</desc>
<g>
	<g>
		<circle class="st0" cx="19" cy="19" r="19"/>
		<path class="st1" d="M32.4,5.6L5.5,32.4c7.4,7.3,19.4,7.3,26.8-0.1S39.8,13,32.4,5.6z"/>
		<polygon class="st2" points="20,17.3 24.4,8.4 13.7,8.3 13.7,21.8 16.2,21.8 20.7,17.2 		"/>
		<polygon class="st3" points="18.9,30.5 25.5,17.2 20.7,17.2 16.2,21.8 18.9,21.9 		"/>
	</g>
</g>
<g>
	<path class="st2" d="M56.3,8.9c4,0,6.7,2.2,6.7,5.5c0,2-1.1,3.6-2.9,4.5c2.3,0.9,3.7,2.6,3.7,4.9c0,3.5-2.8,5.9-7.1,5.9h-9.3V8.9
		H56.3z M50.4,11.5v6.1h5.7c2.3,0,3.8-1.2,3.8-3.1s-1.5-3.1-3.8-3.1H50.4z M60.6,23.5c0-2-1.7-3.4-4.2-3.4h-6v6.8h6
		C59,26.9,60.6,25.5,60.6,23.5z"/>
	<path class="st2" d="M69.4,23.4c0,2.4,1.4,3.8,3.7,3.8c1.6,0,2.9-0.7,3.7-2V14.5h2.9v15h-2.9V28c-1.2,1.2-2.7,1.8-4.5,1.8
		c-3.4,0-5.8-2.4-5.8-5.9v-9.4h2.9V23.4z"/>
	<path class="st2" d="M83.4,25.6c1.6,1.2,3.2,1.9,4.9,1.9c2.1,0,3.6-0.9,3.6-2.2c0-1.1-0.8-1.7-2.4-1.9l-2.7-0.4
		c-3-0.4-4.5-1.8-4.5-4.2c0-2.7,2.4-4.5,5.9-4.5c2.2,0,4.2,0.6,6,1.9l-1.5,1.9c-1.7-1.1-3.2-1.6-4.7-1.6c-1.8,0-3,0.8-3,2
		c0,1.1,0.7,1.6,2.5,1.9l2.7,0.4c3,0.4,4.5,1.9,4.5,4.2c0,2.7-2.7,4.7-6.3,4.7c-2.6,0-4.9-0.8-6.6-2.2L83.4,25.6z"/>
	<path class="st2" d="M96.6,10.2c0-1,0.8-1.8,1.8-1.8c1,0,1.8,0.8,1.8,1.8s-0.8,1.8-1.8,1.8C97.4,12.1,96.6,11.2,96.6,10.2z
		 M99.9,29.5h-2.9v-15h2.9V29.5z"/>
	<path class="st2" d="M103.3,14.5h2.9V16c1.2-1.2,2.7-1.8,4.5-1.8c3.4,0,5.9,2.4,5.9,5.9v9.4h-2.9v-8.9c0-2.4-1.4-3.8-3.7-3.8
		c-1.6,0-2.9,0.7-3.7,1.9v10.8h-2.9V14.5z"/>
	<path class="st2" d="M127.3,29.8c-4.4,0-7.9-3.4-7.9-7.8c0-4.3,3.3-7.7,7.5-7.7c4.1,0,7.3,3.4,7.3,7.8v0.9h-11.9
		c0.4,2.5,2.5,4.3,5.1,4.3c1.5,0,2.9-0.5,3.8-1.3l1.9,1.9C131.3,29.1,129.5,29.8,127.3,29.8z M122.3,20.7h8.9c-0.4-2.3-2.2-4-4.4-4
		C124.6,16.7,122.8,18.4,122.3,20.7z"/>
	<path class="st2" d="M137.3,25.6c1.6,1.2,3.2,1.9,4.9,1.9c2.1,0,3.6-0.9,3.6-2.2c0-1.1-0.8-1.7-2.4-1.9l-2.7-0.4
		c-3-0.4-4.5-1.8-4.5-4.2c0-2.7,2.4-4.5,5.9-4.5c2.2,0,4.2,0.6,6,1.9l-1.5,1.9c-1.7-1.1-3.2-1.6-4.7-1.6c-1.8,0-3,0.8-3,2
		c0,1.1,0.7,1.6,2.5,1.9l2.7,0.4c3,0.4,4.5,1.9,4.5,4.2c0,2.7-2.7,4.7-6.3,4.7c-2.6,0-4.9-0.8-6.6-2.2L137.3,25.6z"/>
	<path class="st2" d="M151.2,25.6c1.6,1.2,3.2,1.9,4.9,1.9c2.1,0,3.6-0.9,3.6-2.2c0-1.1-0.8-1.7-2.4-1.9l-2.7-0.4
		c-3-0.4-4.5-1.8-4.5-4.2c0-2.7,2.4-4.5,5.9-4.5c2.2,0,4.2,0.6,6,1.9l-1.5,1.9c-1.7-1.1-3.2-1.6-4.7-1.6c-1.8,0-3,0.8-3,2
		c0,1.1,0.7,1.6,2.5,1.9l2.7,0.4c3,0.4,4.5,1.9,4.5,4.2c0,2.7-2.7,4.7-6.3,4.7c-2.6,0-4.9-0.8-6.6-2.2L151.2,25.6z"/>
	<path class="st2" d="M174.1,12.7v16.8h-2.9V8.9h4.1l6.5,13.2l6.5-13.2h4.1v20.6h-2.9V12.7L181.8,28L174.1,12.7z"/>
	<path class="st2" d="M203.4,14.2c4.4,0,7.8,3.4,7.8,7.8c0,4.4-3.4,7.8-7.8,7.8c-4.4,0-7.8-3.4-7.8-7.8
		C195.6,17.6,199,14.2,203.4,14.2z M208.3,22c0-2.9-2.2-5.2-4.9-5.2c-2.7,0-4.9,2.3-4.9,5.2c0,2.9,2.2,5.2,4.9,5.2
		C206.1,27.2,208.3,24.9,208.3,22z"/>
	<path class="st2" d="M225.5,28.1c-1.3,1.1-2.9,1.7-4.6,1.7c-4.2,0-7.6-3.4-7.6-7.8c0-4.3,3.3-7.7,7.6-7.7c1.7,0,3.2,0.5,4.5,1.5
		V8.9l2.9-0.6v21.3h-2.9V28.1z M221.3,27.2c1.7,0,3.2-0.6,4.2-1.8v-6.8c-1-1.1-2.5-1.8-4.2-1.8c-2.9,0-5.1,2.2-5.1,5.2
		S218.5,27.2,221.3,27.2z"/>
	<path class="st2" d="M239.1,29.8c-4.4,0-7.9-3.4-7.9-7.8c0-4.3,3.3-7.7,7.5-7.7c4.1,0,7.3,3.4,7.3,7.8v0.9h-11.9
		c0.4,2.5,2.5,4.3,5.1,4.3c1.5,0,2.9-0.5,3.8-1.3l1.9,1.9C243.2,29.1,241.4,29.8,239.1,29.8z M234.2,20.7h8.9c-0.4-2.3-2.2-4-4.4-4
		C236.4,16.7,234.6,18.4,234.2,20.7z"/>
	<path class="st2" d="M251.8,29.5h-2.9V8.9l2.9-0.6V29.5z"/>
	<path class="st2" d="M262.4,29.8c-4.4,0-7.9-3.4-7.9-7.8c0-4.3,3.3-7.7,7.5-7.7c4.1,0,7.3,3.4,7.3,7.8v0.9h-11.9
		c0.4,2.5,2.5,4.3,5.1,4.3c1.5,0,2.9-0.5,3.8-1.3l1.9,1.9C266.5,29.1,264.7,29.8,262.4,29.8z M257.5,20.7h8.9c-0.4-2.3-2.2-4-4.4-4
		C259.8,16.7,258,18.4,257.5,20.7z"/>
	<path class="st2" d="M272.1,14.5h2.9v1.9c0.9-1.4,2.4-2.2,4.1-2.2c0.6,0,1.1,0.1,1.5,0.2v2.7c-0.6-0.2-1.2-0.3-1.7-0.3
		c-1.7,0-3.1,0.9-3.9,2.7v10h-2.9V14.5z"/>
	<path class="st2" d="M289.6,8.9h3.1v8.8h11V8.9h3.1v20.6h-3.1v-9h-11v9h-3.1V8.9z"/>
	<path class="st2" d="M313.5,23.4c0,2.4,1.4,3.8,3.7,3.8c1.6,0,2.9-0.7,3.7-2V14.5h2.9v15h-2.9V28c-1.2,1.2-2.7,1.8-4.5,1.8
		c-3.4,0-5.8-2.4-5.8-5.9v-9.4h2.9V23.4z"/>
	<path class="st2" d="M334.8,29.7c-1.7,0-3.2-0.5-4.5-1.5v1.3h-2.9V8.9l2.9-0.6v7.7c1.2-1.1,2.8-1.7,4.6-1.7c4.2,0,7.6,3.4,7.6,7.7
		C342.4,26.3,339.1,29.7,334.8,29.7z M330.3,18.6v6.8c0.9,1.1,2.5,1.8,4.2,1.8c2.9,0,5.1-2.2,5.1-5.2c0-2.9-2.2-5.2-5.1-5.2
		C332.8,16.8,331.3,17.5,330.3,18.6z"/>
	<path class="st2" d="M351.9,8.9h9c4,0,6.7,2.4,6.7,6c0,3.6-2.7,6-6.7,6h-6.7v8.7h-2.3V8.9z M354.2,10.9v7.9h6.5
		c2.8,0,4.6-1.5,4.6-4c0-2.4-1.8-4-4.6-4H354.2z"/>
	<path class="st2" d="M370.6,14.7h2.2v2.1c0.9-1.5,2.3-2.4,4.1-2.4c0.6,0,0.9,0.1,1.4,0.2v2c-0.5-0.2-1-0.3-1.5-0.3
		c-1.8,0-3.2,1.1-4,3v10.1h-2.2V14.7z"/>
	<path class="st2" d="M386.7,29.8c-4.3,0-7.6-3.3-7.6-7.7c0-4.2,3.2-7.6,7.3-7.6c3.9,0,7,3.4,7,7.6v0.7h-12.1
		c0.3,2.9,2.6,5.1,5.5,5.1c1.5,0,3.1-0.5,4.1-1.4l1.4,1.4C390.5,29.2,388.8,29.8,386.7,29.8z M381.3,21h9.9
		c-0.4-2.6-2.4-4.6-4.9-4.6C383.7,16.4,381.7,18.3,381.3,21z"/>
	<path class="st2" d="M394.1,14.7h2.4l5,11.9l5-11.9h2.3l-6.4,14.8h-2.1L394.1,14.7z"/>
	<path class="st2" d="M410.5,10.4c0-0.8,0.7-1.5,1.5-1.5c0.8,0,1.5,0.6,1.5,1.5c0,0.8-0.6,1.5-1.5,1.5
		C411.2,11.9,410.5,11.2,410.5,10.4z M413.1,29.5h-2.2V14.7h2.2V29.5z"/>
	<path class="st2" d="M423.7,29.8c-4.3,0-7.6-3.3-7.6-7.7c0-4.2,3.2-7.6,7.3-7.6c3.9,0,7,3.4,7,7.6v0.7h-12.1
		c0.3,2.9,2.6,5.1,5.5,5.1c1.5,0,3.1-0.5,4.1-1.4l1.4,1.4C427.6,29.2,425.8,29.8,423.7,29.8z M418.3,21h9.9
		c-0.4-2.6-2.4-4.6-4.9-4.6C420.8,16.4,418.7,18.3,418.3,21z"/>
	<path class="st2" d="M435.8,29.5l-4.2-14.8h2.2l3.2,11.8l3.7-11.8h1.9l3.7,11.8l3.2-11.8h2.1l-4.2,14.8h-2.1l-3.7-11.8L438,29.5
		H435.8z"/>
</g>
</svg>
