<?xml version="1.0" encoding="utf-8"?>
<!-- Generator: Adobe Illustrator 23.1.1, SVG Export Plug-In . SVG Version: 6.00 Build 0)  -->
<svg version="1.1" id="Layer_1" xmlns="http://www.w3.org/2000/svg" xmlns:xlink="http://www.w3.org/1999/xlink" x="0px" y="0px"
	 width="52px" height="50.7px" viewBox="0 0 52 50.7" style="enable-background:new 0 0 52 50.7;" xml:space="preserve">
<title>Product_Icon-Red_Hat-Automation-RGB</title>
<g>
	<path d="M25.7,0c4.8,0,9.2,1.1,13.2,3.4s7.2,5.3,9.5,9.1c2.4,4,3.6,8.4,3.6,13.1c0,5.8-1.6,11-4.9,15.6s-7.5,7.7-12.7,9.5
		c-0.6,0.1-1,0.1-1.3-0.2c-0.3-0.3-0.5-0.6-0.5-1v-8.8c0-2.2-0.6-3.8-1.8-4.8c2.6-0.3,4.5-0.6,5.8-1c2-0.7,3.5-1.7,4.5-3.1
		c1.2-1.8,1.8-4.3,1.8-7.4c0-1.3-0.2-2.5-0.7-3.5c-0.3-0.7-1-1.6-2-2.6c0.3-0.7,0.5-1.5,0.5-2.5c0.1-1.5-0.2-3.1-0.7-4.6
		c-0.7-0.2-1.7-0.1-2.9,0.4c-0.8,0.3-1.8,0.8-2.9,1.5l-1.4,0.9c-2.2-0.6-4.4-0.9-6.7-0.9s-4.5,0.3-6.6,0.9l-1.4-0.9
		c-1.1-0.6-2.1-1.1-3-1.5c-1.3-0.5-2.2-0.6-2.8-0.4c-0.6,1.5-0.9,3.1-0.7,4.6c0,1,0.1,1.8,0.4,2.4c-0.8,1-1.5,2-1.8,2.9
		c-0.4,0.9-0.6,2-0.6,3.3c0,3.1,0.6,5.6,1.7,7.3c1,1.5,2.4,2.6,4.4,3.3c1.3,0.4,3.1,0.8,5.7,1c-0.9,0.8-1.5,2-1.7,3.6
		c-1.2,0.6-2.3,0.8-3.5,0.6c-1.8-0.1-3.2-1.1-4.2-2.8c-0.4-0.8-1-1.4-1.7-1.9c-0.5-0.3-1-0.5-1.6-0.7L8,34.4c-0.8,0-1.2,0.1-1.2,0.4
		c0,0.2,0.1,0.5,0.5,0.8L7.8,36c0.5,0.3,1,0.7,1.5,1.4c0.4,0.5,0.8,1,1,1.7l0.4,0.8c0.3,1,1,1.9,2,2.4c0.8,0.5,1.9,0.8,3,0.9
		c0.8,0.1,1.7,0,2.6-0.1l1.2-0.1l0.1,6.4c0,0.4-0.2,0.8-0.5,1c-0.3,0.3-0.8,0.3-1.3,0.2c-5.3-1.7-9.6-4.9-12.9-9.5S0,31.4,0,25.6
		c0-4.8,1.1-9.1,3.4-13s5.3-7,9.2-9.2S20.9,0,25.7,0z M9,35.3c0.1-0.1,0.3-0.2,0.5-0.1c0.2,0.1,0.3,0.2,0.2,0.4
		c-0.1,0.2-0.2,0.2-0.5,0.1C9,35.6,8.9,35.5,9,35.3z M10.2,36.2c0.1-0.1,0.3-0.1,0.5,0.1c0.2,0.2,0.2,0.4,0.1,0.5
		c-0.1,0.1-0.3,0.1-0.5-0.1C10.1,36.5,10,36.3,10.2,36.2z M11.2,37.5c0.1-0.1,0.3-0.1,0.4-0.1c0.1,0,0.2,0.1,0.3,0.3
		c0.2,0.3,0.2,0.5,0,0.6c-0.1,0.1-0.2,0.1-0.3,0c-0.1-0.1-0.2-0.1-0.4-0.2C11.1,37.8,11.1,37.6,11.2,37.5z M12.5,39
		c0.1-0.1,0.2-0.1,0.3-0.1s0.3,0.1,0.4,0.2s0.2,0.2,0.2,0.4s0,0.2-0.1,0.3c-0.2,0.2-0.5,0.2-0.7-0.1c-0.1-0.1-0.2-0.3-0.2-0.4
		C12.4,39.2,12.4,39.1,12.5,39z M14.2,40.4c0.1-0.3,0.3-0.4,0.6-0.3s0.5,0.2,0.5,0.4s-0.1,0.3-0.3,0.4s-0.3,0.1-0.4,0
		s-0.3-0.2-0.4-0.3C14.1,40.5,14.1,40.4,14.2,40.4z M17.4,40.8c0-0.1-0.1-0.1-0.2-0.2c-0.1-0.1-0.3-0.1-0.5-0.1
		c-0.3,0-0.5,0.1-0.5,0.4c0,0.3,0.2,0.4,0.6,0.4S17.4,41.1,17.4,40.8z M18.8,40.2c0.3,0,0.5,0.1,0.6,0.3c0,0.2-0.1,0.4-0.5,0.5
		c-0.1,0-0.3,0-0.4-0.1c-0.1,0-0.2-0.2-0.2-0.4C18.3,40.4,18.4,40.2,18.8,40.2z"/>
</g>
</svg>
