<?xml version="1.0" encoding="utf-8"?>
<!-- Generator: Adobe Illustrator 23.1.1, SVG Export Plug-In . SVG Version: 6.00 Build 0)  -->
<svg version="1.1" id="Layer_1" xmlns="http://www.w3.org/2000/svg" xmlns:xlink="http://www.w3.org/1999/xlink" x="0px" y="0px"
	 viewBox="0 0 141 188" style="enable-background:new 0 0 141 188;" xml:space="preserve">
<style type="text/css">
	.st0{fill:#030303;}
</style>
<g>
	<path class="st0" d="M135.8,36c3.4,3.4,5.2,7.6,5.2,12.5v121.9c0,4.9-1.7,9.1-5.2,12.5c-3.4,3.4-7.6,5.2-12.5,5.2H17.6
		c-4.9,0-9.1-1.7-12.5-5.2c-3.4-3.4-5.2-7.6-5.2-12.5V17.6c0-4.9,1.7-9.1,5.2-12.5S12.7,0,17.6,0h74.9c4.9,0,9.1,1.7,12.5,5.2
		L135.8,36z M17.6,170.4h105.7V64.6H85.1c-2.5,0-4.5-0.9-6.2-2.6c-1.7-1.7-2.6-3.8-2.6-6.2V17.6H17.6V170.4z M121.9,47L94,19.1V47
		H121.9z"/>
</g>
<path class="st0" d="M112,139.6c-0.6-0.6-1.3-0.9-2.1-0.9h-2.3v-5.3c0-1.4-0.5-2.8-1.6-3.9c-1-1-2.3-1.6-3.7-1.6H97v-5.2h2.2
	c0.8,0,1.5-0.3,2.1-0.9s0.9-1.3,0.9-2.1v-10c0-0.8-0.3-1.5-0.9-2.1c-0.6-0.6-1.3-0.9-2.1-0.9h-9.4L81.1,98c0-0.1,0-0.3,0-0.4V84.3
	c0-1.1-0.4-2-1.2-2.8s-1.7-1.2-2.8-1.2H63.8c-1.1,0-2,0.4-2.8,1.2c-0.8,0.8-1.2,1.7-1.2,2.8v13.2c0,0.2,0,0.3,0,0.5l-8.8,8.8
	c-0.8,0-6.5,0-6.5,0h-3c-0.8,0-1.5,0.3-2.1,0.9c-0.6,0.6-0.9,1.3-0.9,2.1v10c0,0.8,0.3,1.5,0.9,2.1c0.6,0.6,1.3,0.9,2.1,0.9h2.3v5.2
	h-5.3c-1.4,0-2.7,0.5-3.7,1.6c0,0-1.4,1.9-1.6,4v5.1h-2.2c-0.8,0-1.5,0.3-2.1,0.9c-0.6,0.6-0.9,1.3-0.9,2.1v9.9
	c0,0.8,0.3,1.5,0.9,2.1c0.6,0.6,1.3,0.9,2.1,0.9H41c0.8,0,1.5-0.3,2.1-0.9c0.6-0.6,0.9-1.3,0.9-2.1v-9.9c0-0.8-0.3-1.5-0.9-2.1
	c-0.6-0.6-1.3-0.9-2.1-0.9h-2.3v-5.4h15.9v0l0,5.3h-2.3c-0.8,0-1.5,0.3-2.1,0.9s-0.9,1.3-0.9,2.1v9.9c0,0.8,0.3,1.5,0.9,2.1
	c0.6,0.6,1.3,0.9,2.1,0.9h9.9c0.8,0,1.5-0.3,2.1-0.9c0.6-0.6,0.9-1.3,0.9-2.1v-9.9c0-0.8-0.3-1.5-0.9-2.1c-0.6-0.6-1.3-0.9-2.1-0.9
	h-2.3v-5.3c0-1.4-0.5-2.8-1.6-3.9c-1-1-2.3-1.6-3.7-1.6h-5.3v-5.2h2.2c0.8,0,1.5-0.3,2.1-0.9c0.6-0.6,0.9-1.3,0.9-2.1v-9.4l8.9-8.9
	c0.1,0,0.3,0,0.4,0h13.2c0.2,0,0.3,0,0.4,0l8.8,8.8v9.5c0,0.8,0.3,1.5,0.9,2.1c0.6,0.6,1.3,0.9,2.1,0.9h2.3v5.2h-5.3
	c-1.4,0-2.7,0.5-3.7,1.6c0,0-1.4,1.9-1.6,4v5.1h-2.2c-0.8,0-1.5,0.3-2.1,0.9c-0.6,0.6-0.9,1.3-0.9,2.1v9.9c0,0.8,0.3,1.5,0.9,2.1
	c0.6,0.6,1.3,0.9,2.1,0.9h9.9c0.8,0,1.5-0.3,2.1-0.9c0.6-0.6,0.9-1.3,0.9-2.1v-9.9c0-0.8-0.3-1.5-0.9-2.1c-0.6-0.6-1.3-0.9-2.1-0.9
	h-2.3v-5.4h15.9v0l0,5.3H100c-0.8,0-1.5,0.3-2.1,0.9c-0.6,0.6-0.9,1.3-0.9,2.1v9.9c0,0.8,0.3,1.5,0.9,2.1c0.6,0.6,1.3,0.9,2.1,0.9
	h9.9c0.8,0,1.5-0.3,2.1-0.9c0.6-0.6,0.9-1.3,0.9-2.1v-9.9C112.9,140.9,112.6,140.2,112,139.6L112,139.6z M75.8,96.1H65.2V85.5h10.6
	V96.1z"/>
</svg>
