<?xml version="1.0" encoding="utf-8"?>
<!-- Generator: Adobe Illustrator 23.1.1, SVG Export Plug-In . SVG Version: 6.00 Build 0)  -->
<svg version="1.1" id="artwork" xmlns="http://www.w3.org/2000/svg" xmlns:xlink="http://www.w3.org/1999/xlink" x="0px" y="0px"
	 width="43.8px" height="52px" viewBox="0 0 43.8 52" style="enable-background:new 0 0 43.8 52;" xml:space="preserve">
<style type="text/css">
	.st0{fill:#00586F;}
	.st1{fill:#FFFFFF;}
	.st2{fill:#F88D2B;}
	.st3{fill:#B8D8EB;}
</style>
<path class="st0" d="M43.1,1.5C42.5,0.6,41.4,0,40.2,0c-0.2,0-6.8,1.2-6.8,1.2c-1,0.2-1.9,0.8-2.4,1.7l-1.1,1.9
	c-2.5-2.2-5.2-3.3-7.9-3.3S16.4,2.6,14,4.7l-1.1-1.9c-0.5-0.9-1.4-1.5-2.4-1.7c0,0-6.6-1.2-6.8-1.2C1.6,0,0,1.6,0,3.6
	c0,0.6,0.2,1.2,0.5,1.7L3,9.9c-1.7,2.7-0.9,6.4,1.9,8.1c0.4,0.2,0.8,0.4,1.2,0.6L1.4,40.4L21.9,52l20.5-11.6l-4.7-21.8
	c3.1-1,4.7-4.4,3.6-7.4c-0.1-0.4-0.3-0.8-0.6-1.2l2.6-4.6C44,4.1,43.9,2.6,43.1,1.5z"/>
<path class="st1" d="M20.3,14.1h0.4l1.2,1.2l1.2-1.2h0.4c3.2,0,6.3,0.2,9,0.4C30.1,9.4,26.3,5,21.9,5s-8.2,4.4-10.6,9.5
	C14,14.3,17.1,14.1,20.3,14.1z"/>
<path class="st2" d="M18.7,35.4c2,1.4,4.7,1.4,6.7,0C23.1,35.1,20.9,35.1,18.7,35.4z"/>
<path class="st3" d="M31,34.5c-0.2-0.7-0.5-1.4-0.9-2.1c-0.1-0.1-0.1-0.2-0.2-0.3c0-0.1-0.1-0.1-0.1-0.2c-0.1-0.1-0.1-0.2-0.2-0.3
	c0-0.1-0.1-0.1-0.1-0.2c-0.1-0.1-0.1-0.1-0.2-0.2c-0.1-0.1-0.1-0.2-0.2-0.2c-0.1-0.1-0.1-0.1-0.2-0.2c-1.1-1.3-2.5-2.2-4.1-2.7
	c-0.9,0.6-2,1.2-3,1.2s-2.1-0.6-3-1.2c-1.6,0.5-3,1.5-4.1,2.7c-0.1,0.1-0.1,0.1-0.1,0.2c0,0.1-0.1,0.2-0.2,0.2
	c-0.1,0.1-0.1,0.1-0.2,0.2s-0.1,0.1-0.1,0.2c-0.1,0.1-0.1,0.2-0.2,0.3c0,0.1-0.1,0.1-0.1,0.2c-0.1,0.1-0.1,0.2-0.2,0.3
	c-0.4,0.7-0.7,1.4-0.9,2.1c0.7-0.2,1.3-0.4,2.1-0.6c0,0,0,0,0,0l0.2-0.1l0.9-2.4v2.2l0.2,0c0.3-0.1,0.6-0.1,1-0.2l0.1,0
	c0.4-0.1,0.8-0.1,1.2-0.2l0.7-2.8v2.8c0.4,0,0.9-0.1,1.3-0.1l0.2,0c0.2,0,0.3,0,0.5,0c0.3,0,0.5,0,0.8,0s0.6,0,0.8,0l0.4,0
	c0.1,0,0.2,0,0.3,0c0.4,0,0.8,0,1.3,0.1v-2.8l0.7,2.8l0.1,0c0.4,0,0.7,0.1,1.1,0.1c0.1,0,0.3,0,0.4,0.1c0.2,0,0.4,0.1,0.6,0.1
	c0.1,0,0.2,0,0.3,0v-2.2l0.9,2.4c0.1,0,0.1,0,0.2,0l0.3,0.1l0,0C29.8,34.2,30.5,34.3,31,34.5z"/>
<path class="st2" d="M33.4,16.6l-0.5,0c-2.6-0.2-5.7-0.4-8.9-0.4l-2,2l-2-2c-3.2,0-6.3,0.2-8.9,0.4l-0.5,0C9.5,19.2,9,21.7,9,23.9
	c0,3.6,1.4,5.3,3.8,6.2c1.2-1.5,2.7-2.7,4.4-3.5c-0.3-0.5-0.1-1.1,0.5-1.4c0.4-0.2,0.9-0.1,1.2,0.2c0.8,0.8,2.3,1.8,3.1,1.8
	s2.3-1.1,3.1-1.8c0.4-0.4,1.1-0.4,1.5,0c0.3,0.3,0.4,0.8,0.2,1.2c1.7,0.8,3.2,2,4.4,3.5c2.3-0.9,3.8-2.6,3.8-6.2
	C34.8,21.7,34.3,19.2,33.4,16.6z M16.4,23.5c-1.5,0-2.9-0.8-3.8-2.2c0.9-1.4,2.2-2.3,3.7-2.4s2.9,0.8,3.8,2.2
	C19.2,22.5,17.9,23.5,16.4,23.5z M31.2,22.8l-1.6,1.6L28,22.8l-1.6,1.6l-1.6-1.6l1.6-1.6l-1.6-1.6l1.6-1.6l1.6,1.6l1.6-1.6l1.6,1.6
	l-1.6,1.6L31.2,22.8z"/>
<path class="st3" d="M26.8,40.5l1,4.1l3.9-2.2v-4.5l1,3.9l5.7-3.2L36.1,28c-0.8,1.7-2.1,3-3.9,3.8c0.4,0.7,0.6,1.4,0.9,2.2
	c0.3,1.1-0.3,2.3-1.4,2.6c-0.4,0.1-0.8,0.1-1.2,0c-0.8-0.3-1.6-0.5-2.4-0.7c-2.9,3.3-8,3.6-11.3,0.6c-0.2-0.2-0.4-0.4-0.7-0.7
	c-0.9,0.2-1.8,0.4-2.6,0.7c-1.1,0.4-2.3-0.2-2.6-1.3c-0.1-0.4-0.1-0.8,0-1.2c0.2-0.7,0.5-1.5,0.8-2.2c-1.9-0.8-3.2-2-3.9-3.8
	L5.4,38.6l5.7,3.2l1-3.9v4.5l3.9,2.2l1-4.1v4.6l4.9,2.8l4.9-2.8V40.5z"/>
<path class="st1" d="M8.8,15.1c0.6-1.5,1.4-3,2.2-4.5c0.4-0.7,0.8-1.3,1.3-1.9L9.8,4.7L3.6,3.6l4,7.2l0,0c-1.2,0.3-2,1.5-1.8,2.7
	c0.3,1.2,1.5,2,2.7,1.8C8.6,15.2,8.7,15.2,8.8,15.1z"/>
<path class="st1" d="M36.2,10.8L36.2,10.8l4-7.2L34,4.7l-2.5,4.1c0.4,0.6,0.9,1.2,1.3,1.9c0.9,1.4,1.6,2.9,2.2,4.5
	c1.2,0.4,2.5-0.2,2.9-1.3c0.4-1.2-0.2-2.5-1.3-2.9C36.5,10.8,36.4,10.8,36.2,10.8L36.2,10.8z"/>
</svg>
