<?xml version="1.0" encoding="utf-8"?>
<!-- Generator: Adobe Illustrator 21.1.0, SVG Export Plug-In . SVG Version: 6.00 Build 0)  -->
<svg version="1.1" id="Layer_1" xmlns="http://www.w3.org/2000/svg" x="0px" y="0px"
     viewBox="0 0 420 420" style="enable-background:new 0 0 420 420;" xml:space="preserve">
<style type="text/css">
	.st0{fill:#4D5258;}
</style>
<path id="Icon_1_" class="st0" d="M380,120v143.4L343.4,300H40V156.6L76.6,120H380 M400,80H68.3c-5.3,0-10.4,2.1-14.1,5.9L5.9,134.1
	C2.1,137.9,0,143,0,148.3V320c0,11,9,20,20,20h331.7c5.3,0,10.4-2.1,14.1-5.9l48.3-48.3c3.8-3.8,5.9-8.8,5.9-14.1V100
	C420,89,411,80,400,80L400,80z"/>
</svg>
