<?xml version="1.0" encoding="utf-8"?>
<!-- Generator: Adobe Illustrator 21.1.0, SVG Export Plug-In . SVG Version: 6.00 Build 0)  -->
<svg version="1.1" id="Layer_1" xmlns="http://www.w3.org/2000/svg" x="0px" y="0px"
     viewBox="0 0 420 420" style="enable-background:new 0 0 420 420;" xml:space="preserve">
<style type="text/css">
	.st0{fill:#4D5258;}
</style>
<path id="Icon" class="st0" d="M292,120c48.5,0,88,39.5,88,88v4c0,48.5-39.5,88-88,88H128c-48.5,0-88-39.5-88-88v-4
	c0-48.5,39.5-88,88-88H292 M292,80H128C57.3,80,0,137.3,0,208v4c0,70.7,57.3,128,128,128h164c70.7,0,128-57.3,128-128v-4
	C420,137.3,362.7,80,292,80L292,80z"/>
</svg>
