<?xml version="1.0" encoding="utf-8"?>
<!--
  ~ Copyright 2018 Red Hat, Inc. and/or its affiliates.
  ~
  ~ Licensed under the Apache License, Version 2.0 (the "License");
  ~ you may not use this file except in compliance with the License.
  ~ You may obtain a copy of the License atå
  ~
  ~   http://www.apache.org/licenses/LICENSE-2.0
  ~
  ~ Unless required by applicable law or agreed to in writing, software
  ~ distributed under the License is distributed on an "AS IS" BASIS,
  ~ WITHOUT WARRANTIES OR CONDITIONS OF ANY KIND, either express or implied.
  ~ See the License for the specific language governing permissions and
  ~ limitations under the License.
  -->

<!-- add  filter="url(#selectShadow)"  to make the selection shadow -->
<svg id="stage" version="1.1" xmlns="http://www.w3.org/2000/svg"
     xmlns:stunner="http://kiegroup.org/2017/stunner"
     x="0" y="0"
     width="175px" height="50px"
     viewBox="0 0 175 50">

<path class="stage_background" d="M 163 51 H 2.6 c -0.9 0 -1.7 -0.5 -2.2 -1.2 c -0.5 -0.8 -0.5 -1.7 0 -2.5 l 12.8 -23
c 0.3 -0.5 0.2 -1.1 -0.1 -1.5 L 0.8 3.9 c -0.5 -0.8 -0.6 -1.8 -0.1 -2.6 c 0.4 -0.8 1.3 -1.3 2.2 -1.3 h 160.2 c 0.9 0 1.6
0.4 2.1 1.2 l 13.8 21.6 c 0.5 0.8 0.5 1.8 0.1 2.6 l -13.9 24.3 C 164.8 50.5 163.9 51 163 51 z"/>

<path class="stage_border" stunner:shape-state="stroke" d="M 163 51 H 2.6 c -0.9 0 -1.7 -0.5 -2.2 -1.2 c -0.5 -0.8 -0.5
-1.7 0 -2.5 l 12.8 -23 c 0.3 -0.5 0.2 -1.1 -0.1 -1.5 L 0.8 3.9 c -0.5 -0.8 -0.6 -1.8 -0.1 -2.6 c 0.4 -0.8 1.3 -1.3 2.2
-1.3 h 160.2 c 0.9 0 1.6 0.4 2.1 1.2 l 13.8 21.6 c 0.5 0.8 0.5 1.8 0.1 2.6 l -13.9 24.3 C 164.8 50.5 163.9 51 163 51 z"/>
<defs>
  <filter id="selectShadow" height="300%" width="300%" x="-75%" y="-75%">
    <!-- Thicken out the original shape -->
    <feMorphology operator="dilate" radius="0" in="SourceAlpha" result="thicken" />

    <!-- Create a drop shadow -->
    <feDropShadow dx="0" dy="2" stdDeviation="2" flood-color="#000000" flood-opacity=".6" result="droppedShadow"/>

    <!--	Layer the effects together -->
    <feMerge>
      <feMergeNode in="droppedShadow"/>
      <feMergeNode in="SourceGraphic"/>
    </feMerge>
  </filter>
</defs>
</svg>