<?xml version="1.0" encoding="utf-8"?>
<!--
  ~ Copyright 2018 Red Hat, Inc. and/or its affiliates.
  ~
  ~ Licensed under the Apache License, Version 2.0 (the "License");
  ~ you may not use this file except in compliance with the License.
  ~ You may obtain a copy of the License atå
  ~
  ~   http://www.apache.org/licenses/LICENSE-2.0
  ~
  ~ Unless required by applicable law or agreed to in writing, software
  ~ distributed under the License is distributed on an "AS IS" BASIS,
  ~ WITHOUT WARRANTIES OR CONDITIONS OF ANY KIND, either express or implied.
  ~ See the License for the specific language governing permissions and
  ~ limitations under the License.
  -->

<!-- add  filter="url(#selectShadow)"  to make the selection shadow -->
<svg id="subcase" version="1.1" xmlns="http://www.w3.org/2000/svg"
     xmlns:stunner="http://kiegroup.org/2017/stunner"
     x="0px" y="0px"
     width="153px" height="103px"
     viewBox="0 0 153 103">

  <rect id="subcase-background" class="subcase_background" x="0" y="0" width="150px" height="100px" rx="2" ry="2"/>
  <rect id="subcase-border" class="subcase_border" stunner:shape-state="stroke" x="0" y="0" width="150px" height="100px" rx="2" ry="2"/>

  <g class="subcase_group" stunner:transform="non-scalable" transform="translate(10,10) scale(0.05,0.05)">
    <path class="subcase_group_icon" d="M416.6,220.6c-6.8-13.1-22.2-20.6-42.5-20.6H360v-40c0-22.1-17.9-40-40-40H160c0-22.1-17.9-40-40-40H40
    C17.9,80,0,97.9,0,120v60v120c0,22.1,17.9,40,40,40h27.3H120h140.3h42.8c28.6,0,60.4-14.4,73.9-33.4l35.5-50
    C420.8,244.9,422.3,231.8,416.6,220.6z M344.4,283.4c-4.8,6.8-23.3,16.6-41.3,16.6H70.9h-3.6H40V180v-60h80v40h200v40H157.9
    c-28.6,0-60.4,14.4-73.9,33.4c-6.4,9-4.3,21.5,4.7,27.9s21.5,4.3,27.9-4.7c4.8-6.8,23.3-16.6,41.3-16.6h216.2c0.4,0,0.8,0,1.1,0
    L344.4,283.4z"/>
  </g>
  <defs>
    <filter id="selectShadow" height="300%" width="300%" x="-75%" y="-75%">
      <!-- Thicken out the original shape -->
      <feMorphology operator="dilate" radius="0" in="SourceAlpha" result="thicken" />

      <!-- Create a drop shadow -->
      <feDropShadow dx="0" dy="2" stdDeviation="2" flood-color="#000000" flood-opacity=".6" result="droppedShadow"/>

      <!--	Layer the effects together -->
      <feMerge>
        <feMergeNode in="droppedShadow"/>
        <feMergeNode in="SourceGraphic"/>
      </feMerge>
    </filter>
  </defs>
</svg>