<?xml version="1.0" encoding="utf-8"?>
<!--
  ~ Copyright 2018 Red Hat, Inc. and/or its affiliates.
  ~
  ~ Licensed under the Apache License, Version 2.0 (the "License");
  ~ you may not use this file except in compliance with the License.
  ~ You may obtain a copy of the License atå
  ~
  ~   http://www.apache.org/licenses/LICENSE-2.0
  ~
  ~ Unless required by applicable law or agreed to in writing, software
  ~ distributed under the License is distributed on an "AS IS" BASIS,
  ~ WITHOUT WARRANTIES OR CONDITIONS OF ANY KIND, either express or implied.
  ~ See the License for the specific language governing permissions and
  ~ limitations under the License.
  -->

<!-- add  filter="url(#selectShadow)"  to make the selection shadow -->
<svg id="user-task" version="1.1" xmlns="http://www.w3.org/2000/svg"
     xmlns:stunner="http://kiegroup.org/2017/stunner"
     x="0px" y="0px"
     width="153px" height="103px"
     viewBox="0 0 153 103">

  <rect id="user-task-background" class="user_task_background" x="0" y="0" width="150px" height="100px" rx="2" ry="2"/>
  <rect id="user-task-border" class="user_task_border" stunner:shape-state="stroke" x="0" y="0" width="150px" height="100px" rx="2" ry="2"/>

  <g class="user_task_group" stunner:transform="non-scalable" transform="translate(10,10) scale(0.05,0.05)">
    <path class="user_task_group_icon" d="M262.4,286.9c-10.5-1.6-10.8-27.2-10.7-30.4c8.2-3.2,30.7-30.4,37.5-71.3c18,0,40.8-56.9,11.1-56.9
	C301.1,112.3,323.4,0,210,0s-91.1,111.8-90.3,127.8c-31,0-6.9,57.3,11.1,57.3c6.7,40.9,27.9,68,37.5,71.3
	c-1.1,3.3-0.2,28.8-10.7,30.4C123.9,292.3,0,359.1,0,420h420C420,359.1,296.1,292.3,262.4,286.9L262.4,286.9z"/>
  </g>
  <defs>
    <filter id="selectShadow" height="300%" width="300%" x="-75%" y="-75%">
      <!-- Thicken out the original shape -->
      <feMorphology operator="dilate" radius="0" in="SourceAlpha" result="thicken" />

      <!-- Create a drop shadow -->
      <feDropShadow dx="0" dy="2" stdDeviation="2" flood-color="#000000" flood-opacity=".6" result="droppedShadow"/>

      <!--	Layer the effects together -->
      <feMerge>
        <feMergeNode in="droppedShadow"/>
        <feMergeNode in="SourceGraphic"/>
      </feMerge>
    </filter>
  </defs>
</svg>