<?xml version="1.0" encoding="utf-8"?>
<!--
  ~ Copyright 2018 Red Hat, Inc. and/or its affiliates.
  ~
  ~ Licensed under the Apache License, Version 2.0 (the "License");
  ~ you may not use this file except in compliance with the License.
  ~ You may obtain a copy of the License atå
  ~
  ~   http://www.apache.org/licenses/LICENSE-2.0
  ~
  ~ Unless required by applicable law or agreed to in writing, software
  ~ distributed under the License is distributed on an "AS IS" BASIS,
  ~ WITHOUT WARRANTIES OR CONDITIONS OF ANY KIND, either express or implied.
  ~ See the License for the specific language governing permissions and
  ~ limitations under the License.
  -->

<!-- add  filter="url(#selectShadow)"  to make the selection shadow -->
<svg id="user-task" version="1.1" xmlns="http://www.w3.org/2000/svg"
     xmlns:stunner="http://kiegroup.org/2017/stunner"
     x="0px" y="0px"
     width="153px" height="103px"
     viewBox="0 0 153 103">

  <rect id="user-task-background" class="user_task_background" x="0" y="0" width="150px" height="100px" rx="2" ry="2"/>
  <rect id="user-task-border" class="user_task_border" stunner:shape-state="stroke" x="0" y="0" width="150px" height="100px" rx="2" ry="2"/>

  <g class="user_task_group" stunner:transform="non-scalable" transform="translate(10,10) scale(0.05,0.05)">
    <path class="user_task_group_icon" d="M262.4,286.9c-10.5-1.6-10.8-27.2-10.7-30.4c8.2-3.2,30.7-30.4,37.5-71.3c18,0,40.8-56.9,11.1-56.9
	C301.1,112.3,323.4,0,210,0s-91.1,111.8-90.3,127.8c-31,0-6.9,57.3,11.1,57.3c6.7,40.9,27.9,68,37.5,71.3
	c-1.1,3.3-0.2,28.8-10.7,30.4C123.9,292.3,0,359.1,0,420h420C420,359.1,296.1,292.3,262.4,286.9L262.4,286.9z"/>
  </g>

  <g class="user_task_group" stunner:transform="non-scalable" stunner:layout="BOTTOM" transform="translate(66,72) scale(0.035,0.035)">
  	<path id="userTaskMIIMultipleInstanceIconParallel" class="user_task_group_icon" d="M92,44v424c0,6.6-5.4,12-12,12H48c-6.6,0-12-5.4-12-12V44c0-6.6,5.4-12,12-12h32C86.6,32,92,37.4,92,44z M252,44v424 c0,6.6-5.4,12-12,12h-32c-6.6,0-12-5.4-12-12V44c0-6.6,5.4-12,12-12h32C246.6,32,252,37.4,252,44z M412,44v424c0,6.6-5.4,12-12,12      h-32c-6.6,0-12-5.4-12-12V44c0-6.6,5.4-12,12-12h32C406.6,32,412,37.4,412,44z"/>
    <path id="userTaskMIIMultipleInstanceIconSequential" class="user_task_group_icon" d="M468 92l-424 0c-6.6 0-12-5.4-12-12L32 48c0-6.6 5.4-12 12-12L468 36c6.6 0 12 5.4 12 12l0 32C480 86.6 474.6 92 468 92zM468 252l-424 0c-6.6 0-12-5.4-12-12l0-32c0-6.6 5.4-12 12-12L468 196c6.6 0 12 5.4 12 12l0 32C480 246.6 474.6 252 468 252zM468 412l-424 0c-6.6 0-12-5.4-12-12l0-32c0-6.6 5.4-12 12-12L468 356c6.6 0 12 5.4 12 12l0 32C480 406.6 474.6 412 468 412z"/>
  </g>

  <defs>
    <filter id="selectShadow" height="300%" width="300%" x="-75%" y="-75%">
      <!-- Thicken out the original shape -->
      <feMorphology operator="dilate" radius="0" in="SourceAlpha" result="thicken" />

      <!-- Create a drop shadow -->
      <feDropShadow dx="0" dy="2" stdDeviation="2" flood-color="#000000" flood-opacity=".6" result="droppedShadow"/>

      <!--	Layer the effects together -->
      <feMerge>
        <feMergeNode in="droppedShadow"/>
        <feMergeNode in="SourceGraphic"/>
      </feMerge>
    </filter>
  </defs>
</svg>