<?xml version="1.0" encoding="utf-8" ?>
<svg xmlns="http://www.w3.org/2000/svg" width="2284.265" height="435.59" viewBox="-1281.766 -150.943 4078.3 583.153">
  <!--
	- Licensed to the Apache Software Foundation (ASF) under one
	- or more contributor license agreements.  See the NOTICE file
	- distributed with this work for additional information
	- regarding copyright ownership.  The ASF licenses this file
	- to you under the Apache License, Version 2.0 (the
	- "License"); you may not use this file except in compliance
	- with the License.  You may obtain a copy of the License at
	-
	-   http://www.apache.org/licenses/LICENSE-2.0
	-
	- Unless required by applicable law or agreed to in writing,
	- software distributed under the License is distributed on an
	- "AS IS" BASIS, WITHOUT WARRANTIES OR CONDITIONS OF ANY
	- KIND, either express or implied.  See the License for the
	- specific language governing permissions and limitations
	- under the License.
	-->
  <path
    class="st0"
    d="M 300.187 213.641 L 233.633 80.53 L 233.633 226.023 L 208.868 226.023 L 208.868 47.512 L 244.466 47.512 L 300.703 161.534 L 356.423 47.512 L 392.538 47.512 L 392.538 226.023 L 367.258 226.023 L 367.258 80.53 L 300.187 213.641 Z"
    style="fill: rgb(255, 255, 255);"
  />
  <path
    class="st0"
    d="M 463.735 228.603 C 451.353 229.119 438.972 225.508 429.171 217.769 C 420.397 211.062 415.754 200.229 415.754 189.394 C 415.239 178.043 420.397 167.207 429.685 160.501 C 441.036 152.761 454.45 149.151 468.379 149.666 C 474.571 149.666 480.761 150.182 486.953 151.729 C 492.629 152.761 498.306 154.823 503.978 156.89 L 503.978 142.959 C 504.496 135.22 501.4 127.481 495.725 122.322 C 489.018 117.162 480.761 115.099 472.508 115.615 C 466.315 115.615 460.125 116.648 453.933 118.197 C 446.711 120.259 438.972 123.354 432.265 126.45 L 422.978 107.361 C 431.749 103.233 441.036 99.622 450.324 97.557 C 458.576 95.494 467.349 94.462 475.603 94.462 C 489.532 93.431 503.464 98.074 514.814 106.844 C 524.099 115.615 529.261 127.998 528.743 140.894 L 528.743 227.057 L 503.464 227.057 L 503.464 215.705 C 497.788 220.35 491.596 223.444 484.89 226.023 C 478.185 227.571 470.96 228.603 463.735 228.603 Z M 440.518 188.362 C 440.518 194.552 443.614 200.229 448.775 203.84 C 454.968 207.968 462.189 210.03 469.928 209.515 C 476.118 209.515 482.828 208.483 489.018 206.42 C 494.692 204.354 499.853 201.259 504.496 197.133 L 504.496 174.946 C 499.853 172.368 494.176 170.304 489.018 168.755 C 483.342 167.207 477.151 166.693 470.96 166.693 C 463.221 166.177 455.482 168.24 448.775 172.368 C 444.132 175.979 440.518 182.169 440.518 188.362 Z"
    style="fill: rgb(255, 255, 255);"
  />
  <path
    class="st0"
    d="M 558.669 226.023 L 558.669 96.526 L 583.949 96.526 L 583.949 109.423 C 589.107 104.265 594.784 100.652 601.489 98.074 C 608.197 95.494 615.418 93.945 623.157 93.945 C 649.989 92.913 672.688 113.552 674.234 140.38 C 674.234 141.927 674.234 143.476 674.234 145.022 L 674.234 226.54 L 648.955 226.54 L 648.955 149.151 C 649.471 140.38 646.374 131.608 640.702 124.901 C 634.51 119.225 625.738 116.13 617.485 116.648 C 611.293 116.648 604.585 118.197 598.91 120.773 C 593.235 123.869 588.593 127.998 584.981 133.155 L 584.981 226.54 L 558.669 226.023 Z"
    style="fill: rgb(255, 255, 255);"
  />
  <path
    class="st0"
    d="M 744.403 228.603 C 732.021 229.119 719.639 225.508 709.835 217.769 C 701.066 211.062 696.422 200.229 696.422 189.394 C 695.905 178.043 701.066 167.207 710.352 160.501 C 721.702 152.761 735.116 149.151 749.048 149.666 C 755.238 149.666 761.43 150.182 767.62 151.729 C 773.295 152.761 778.97 154.823 784.646 156.89 L 784.646 142.959 C 785.16 135.22 782.066 127.481 776.389 122.322 C 769.684 117.162 761.43 115.099 753.173 115.615 C 746.981 115.615 740.791 116.648 734.599 118.197 C 727.378 120.259 719.639 123.354 712.931 126.45 L 703.644 107.361 C 712.414 103.233 721.702 99.622 730.989 97.557 C 739.242 95.494 748.013 94.462 756.269 94.462 C 770.716 93.431 784.646 97.557 795.995 105.813 C 805.282 114.583 810.441 126.964 809.926 139.863 L 809.926 226.023 L 785.16 226.023 L 785.16 214.673 C 779.485 219.318 773.295 222.412 766.588 224.993 C 758.849 227.057 751.624 228.089 744.403 228.603 Z M 721.186 188.362 C 721.186 194.552 724.282 200.229 729.441 203.84 C 735.632 207.968 742.855 210.03 750.594 209.515 C 756.786 209.515 763.492 208.483 769.684 206.42 C 775.359 204.354 780.517 201.259 785.16 197.133 L 785.16 174.946 C 780.517 172.368 774.841 170.304 769.684 168.755 C 764.007 167.207 757.815 166.693 751.624 166.693 C 743.885 166.177 736.146 168.24 729.441 172.368 C 723.764 176.494 720.67 182.169 721.186 188.362 Z"
    style="fill: rgb(255, 255, 255);"
  />
  <path
    class="st0"
    d="M 898.151 227.057 C 889.377 227.057 880.609 225.508 872.871 221.898 C 856.876 215.189 844.492 202.291 838.301 186.299 C 831.594 169.787 831.594 150.699 838.301 134.188 C 841.395 126.45 846.04 119.225 852.231 113.034 C 858.422 106.844 865.132 102.201 873.385 99.104 C 881.638 95.494 889.895 93.945 898.665 93.945 C 912.595 93.945 926.01 98.588 937.359 106.844 L 937.359 96.008 L 962.642 96.008 L 962.642 227.571 C 963.673 242.019 957.998 256.464 947.165 266.265 C 934.781 276.07 918.786 280.714 903.308 279.682 C 894.022 279.682 884.735 278.647 875.448 276.585 C 866.678 274.522 858.422 271.426 850.683 267.298 L 860.488 247.177 C 867.195 250.787 874.417 253.368 881.638 255.43 C 888.348 257.497 895.055 258.011 902.277 258.011 C 911.565 258.526 920.334 255.948 927.558 250.272 C 933.749 244.082 936.844 235.827 935.812 227.057 L 935.812 212.611 C 930.654 217.254 924.462 220.35 917.755 222.926 C 911.565 226.023 904.856 227.057 898.151 227.057 Z M 857.908 160.501 C 857.391 172.368 862.035 183.718 870.29 191.972 C 878.544 200.229 889.377 204.872 901.245 204.872 C 907.952 204.872 915.174 203.84 921.367 200.743 C 927.558 198.164 932.717 194.552 936.844 189.394 L 936.844 131.093 C 932.717 126.45 927.558 122.322 921.367 120.259 C 915.174 117.679 907.952 116.13 901.245 116.13 C 889.377 116.13 878.544 120.773 870.29 129.03 C 862.035 137.283 857.908 148.633 857.908 160.501 Z"
    style="fill: rgb(255, 255, 255);"
  />
  <path
    class="st0"
    d="M 1105.038 211.579 C 1090.591 222.926 1073.051 229.119 1054.991 228.603 C 1036.936 228.603 1019.393 221.898 1006.495 208.997 C 1000.304 202.805 995.661 195.584 992.051 187.845 C 985.34 170.819 985.34 151.729 992.051 134.704 C 995.145 126.964 999.79 120.259 1005.462 114.066 C 1011.138 107.876 1018.362 103.233 1026.101 100.137 C 1034.356 96.526 1042.609 94.98 1051.38 94.98 C 1068.407 94.98 1084.398 102.201 1096.266 114.583 C 1101.943 120.773 1106.587 127.998 1109.164 136.251 C 1112.259 145.022 1114.326 153.795 1113.808 163.08 L 1113.808 169.787 L 1011.138 169.787 C 1014.75 191.457 1033.322 206.934 1054.991 206.42 C 1061.182 206.42 1067.375 205.386 1073.051 203.323 C 1078.726 201.259 1083.37 198.68 1088.013 195.066 L 1105.038 211.579 Z M 1051.38 115.615 C 1042.095 115.615 1032.808 118.711 1026.101 125.418 C 1018.877 132.126 1013.719 140.894 1012.172 150.182 L 1089.043 150.182 C 1087.495 140.894 1082.852 132.126 1075.631 125.418 C 1069.438 119.225 1060.668 115.615 1051.38 115.615 Z"
    style="fill: rgb(255, 255, 255);"
  />
  <path
    class="st0"
    d="M 1138.572 226.023 L 1138.572 96.526 L 1163.854 96.526 L 1163.854 108.909 C 1168.497 104.265 1174.172 100.652 1180.362 98.074 C 1186.554 95.494 1193.776 93.945 1200.483 94.462 C 1208.74 94.462 1216.996 96.526 1223.7 100.137 C 1230.409 103.747 1236.082 109.423 1240.212 116.13 C 1245.369 109.423 1251.56 103.747 1259.299 100.137 C 1267.04 96.526 1275.296 94.462 1284.064 94.462 C 1297.479 93.945 1309.861 99.104 1319.149 108.909 C 1328.436 118.711 1333.078 132.126 1332.564 145.538 L 1332.564 227.057 L 1307.281 227.057 L 1307.281 149.666 C 1307.799 140.894 1304.703 132.126 1299.542 125.418 C 1293.869 119.743 1285.612 116.648 1277.874 117.162 C 1271.682 117.162 1266.009 118.711 1260.847 121.291 C 1255.689 124.387 1251.046 129.03 1247.436 134.188 C 1247.95 136.251 1247.95 137.8 1247.95 139.863 C 1247.95 141.927 1247.95 143.476 1247.95 145.538 L 1247.95 226.54 L 1222.671 226.54 L 1222.671 149.151 C 1223.186 140.38 1220.09 131.608 1214.932 124.901 C 1209.257 119.225 1201.001 116.13 1193.262 116.648 C 1187.586 116.648 1181.911 118.197 1176.752 120.773 C 1171.594 123.354 1167.465 127.481 1163.854 132.641 L 1163.854 227.057 L 1138.572 226.023 Z"
    style="fill: rgb(255, 255, 255);"
  />
  <path
    class="st0"
    d="M 1475.475 211.579 C 1461.031 222.926 1443.486 229.119 1425.432 228.603 C 1407.372 228.603 1389.832 221.898 1376.932 208.997 C 1370.74 202.805 1366.097 195.584 1362.486 187.845 C 1355.78 170.819 1355.78 151.729 1362.486 134.704 C 1365.582 126.964 1370.225 119.743 1376.418 113.552 C 1382.093 107.361 1389.314 102.719 1397.053 99.622 C 1405.31 96.008 1413.563 94.462 1422.336 94.462 C 1439.361 94.462 1455.354 101.684 1467.221 114.066 C 1472.895 120.259 1477.539 127.481 1480.12 135.737 C 1483.214 144.508 1485.278 153.277 1484.761 162.565 L 1484.761 169.787 L 1382.093 169.787 C 1385.189 191.457 1404.278 207.45 1425.946 206.934 C 1432.138 206.934 1438.328 205.902 1444.004 203.84 C 1449.678 201.776 1454.322 199.195 1458.964 195.584 L 1475.475 211.579 Z M 1421.302 115.615 C 1412.017 115.615 1402.729 118.711 1396.022 125.418 C 1388.799 132.126 1383.64 140.894 1382.093 150.182 L 1458.964 150.182 C 1457.417 140.894 1452.774 132.126 1445.553 125.418 C 1439.361 119.225 1430.589 115.615 1421.302 115.615 Z"
    style="fill: rgb(255, 255, 255);"
  />
  <path
    class="st0"
    d="M 1509.013 226.023 L 1509.013 96.526 L 1534.292 96.526 L 1534.292 109.423 C 1539.449 104.265 1545.125 100.652 1551.832 98.074 C 1558.541 95.494 1565.763 93.945 1573.502 93.945 C 1600.331 92.913 1623.03 113.552 1624.578 140.38 C 1624.578 141.927 1624.578 143.476 1624.578 145.022 L 1624.578 226.54 L 1599.299 226.54 L 1599.299 149.151 C 1599.814 140.38 1596.718 131.608 1591.045 124.901 C 1584.854 119.225 1576.081 116.13 1567.828 116.648 C 1561.638 116.648 1554.927 118.197 1549.254 120.773 C 1543.579 123.869 1538.935 127.998 1535.324 133.155 L 1535.324 226.54 L 1509.013 226.023 Z"
    style="fill: rgb(255, 255, 255);"
  />
  <path
    class="st0"
    d="M 1665.339 194.038 L 1665.339 117.679 L 1637.993 117.679 L 1637.993 96.008 L 1665.339 96.008 L 1665.339 62.99 L 1690.619 56.799 L 1690.619 96.008 L 1728.799 96.008 L 1728.799 117.679 L 1690.619 117.679 L 1690.619 187.845 C 1690.102 193.004 1691.65 198.164 1695.26 201.776 C 1699.389 204.872 1704.548 206.42 1709.706 205.902 C 1712.803 205.902 1715.898 205.902 1719.512 205.386 C 1722.606 204.872 1725.702 203.84 1728.281 202.805 L 1728.281 224.475 C 1724.67 226.023 1720.542 226.54 1716.416 227.057 C 1712.287 227.571 1708.159 228.089 1704.034 228.089 C 1693.714 228.603 1683.394 226.023 1675.141 219.832 C 1668.435 213.125 1664.821 203.84 1665.339 194.038 Z"
    style="fill: rgb(255, 255, 255);"
  />
  <path
    class="st0"
    d="M 1890.798 204.354 C 1901.117 204.354 1910.92 202.291 1920.205 198.164 C 1929.493 194.038 1937.232 187.845 1943.941 180.622 L 1961.481 198.68 C 1952.709 208.483 1941.875 216.222 1929.493 221.38 C 1917.111 227.057 1903.699 229.637 1890.283 229.637 C 1877.901 229.637 1865.002 227.057 1853.651 222.412 C 1819.084 208.483 1796.899 174.43 1796.899 137.283 C 1796.899 124.901 1799.479 112.52 1804.123 101.17 C 1813.408 78.984 1831.466 61.441 1853.651 52.674 C 1865.519 48.03 1877.901 45.449 1890.283 45.449 C 1904.213 45.449 1917.629 48.545 1930.525 53.702 C 1942.908 58.865 1953.743 66.603 1961.997 76.405 L 1943.941 94.98 C 1937.232 87.238 1928.979 81.048 1919.691 76.92 C 1910.404 72.791 1900.086 70.729 1890.283 70.729 C 1881.511 70.729 1872.226 72.277 1863.97 75.887 C 1856.231 78.984 1849.008 84.144 1842.816 90.336 C 1836.624 96.526 1831.983 103.747 1828.886 112.004 C 1822.181 129.03 1822.181 148.119 1828.886 165.144 C 1831.983 172.883 1836.624 180.107 1842.816 186.299 C 1849.008 192.49 1856.231 197.133 1863.97 200.743 C 1872.741 202.805 1881.511 204.354 1890.798 204.354 Z"
    style="fill: rgb(255, 255, 255);"
  />
  <path
    class="st0"
    d="M 1973.863 161.016 C 1973.863 151.729 1975.411 142.959 1979.023 134.704 C 1982.118 126.45 1987.279 119.225 1993.47 113.034 C 1999.662 106.844 2006.883 102.201 2015.14 98.588 C 2049.19 84.144 2088.401 99.622 2103.362 133.673 C 2106.973 141.927 2109.036 151.215 2109.036 160.501 C 2109.036 169.787 2107.487 178.561 2103.879 187.328 C 2088.915 221.38 2049.705 237.376 2015.14 222.926 C 2006.883 219.832 1999.662 214.673 1993.47 208.483 C 1987.279 202.291 1982.636 195.066 1979.023 186.814 C 1975.926 179.589 1973.863 170.304 1973.863 161.016 Z M 2041.451 206.42 C 2052.801 206.42 2063.636 201.776 2071.375 193.52 C 2079.628 184.751 2083.757 173.398 2083.757 161.534 C 2084.272 149.666 2079.628 138.317 2071.375 129.544 C 2055.897 113.034 2029.583 112.004 2013.073 127.481 C 2012.559 127.998 2012.043 128.512 2011.011 129.544 C 2002.756 138.317 1998.113 149.666 1998.627 161.534 C 1998.627 173.398 2002.756 184.751 2011.011 193.52 C 2019.265 201.776 2030.1 206.42 2041.451 206.42 Z"
    style="fill: rgb(255, 255, 255);"
  />
  <path
    class="st0"
    d="M 2132.771 226.023 L 2132.771 96.526 L 2158.05 96.526 L 2158.05 109.423 C 2163.208 104.265 2168.885 100.652 2175.59 98.074 C 2182.301 95.494 2189.522 93.945 2197.261 93.945 C 2224.09 92.913 2246.789 113.552 2248.338 140.38 C 2248.338 141.927 2248.338 143.476 2248.338 145.022 L 2248.338 226.54 L 2223.058 226.54 L 2223.058 149.151 C 2223.572 140.38 2220.478 131.608 2214.803 124.901 C 2208.612 119.225 2199.842 116.13 2191.586 116.648 C 2185.396 116.648 2178.687 118.197 2173.014 120.773 C 2167.337 123.869 2162.694 127.998 2159.083 133.155 L 2159.083 226.54 L 2132.771 226.023 Z"
    style="fill: rgb(255, 255, 255);"
  />
  <path
    class="st0"
    d="M 2265.364 209.515 L 2279.293 192.49 C 2285.485 197.647 2292.707 201.776 2299.932 204.872 C 2306.639 207.45 2314.378 208.997 2321.601 208.997 C 2329.34 209.515 2337.079 207.45 2344.3 203.84 C 2349.462 201.259 2352.557 195.584 2352.557 189.908 C 2352.557 185.782 2351.008 181.655 2347.396 179.075 C 2342.752 175.979 2337.079 173.916 2331.404 173.398 L 2308.187 170.304 C 2297.351 169.273 2287.55 165.144 2279.293 158.438 C 2272.586 152.247 2268.976 143.476 2269.492 134.188 C 2268.976 122.84 2274.649 112.52 2283.422 105.813 C 2294.256 98.074 2307.153 94.462 2320.053 94.98 C 2329.34 94.98 2338.626 96.526 2347.396 99.104 C 2356.683 102.201 2364.94 106.327 2372.679 111.486 L 2359.778 128.512 C 2353.588 123.869 2346.365 120.773 2339.143 118.197 C 2332.436 116.13 2325.728 115.099 2319.021 115.099 C 2312.315 114.583 2305.607 116.648 2299.932 119.743 C 2295.289 122.322 2292.707 127.481 2292.707 132.641 C 2292.193 136.769 2294.256 140.894 2297.868 143.476 C 2303.028 146.57 2308.702 148.119 2314.378 149.151 L 2337.595 152.247 C 2348.428 153.277 2358.229 157.405 2367.003 164.111 C 2373.71 170.304 2377.322 179.075 2377.322 188.362 C 2377.322 194.038 2375.774 199.711 2373.193 204.354 C 2370.097 209.515 2366.486 213.641 2361.844 217.254 C 2356.683 220.864 2351.008 223.961 2344.818 225.508 C 2338.109 227.571 2330.888 228.603 2323.149 228.603 C 2312.315 228.603 2301.995 227.057 2291.675 223.961 C 2281.36 220.864 2272.586 215.705 2265.364 209.515 Z"
    style="fill: rgb(255, 255, 255);"
  />
  <path
    class="st0"
    d="M 2391.252 161.016 C 2391.252 151.729 2392.8 142.959 2396.41 134.704 C 2399.507 126.45 2404.664 119.225 2410.855 113.034 C 2423.756 100.652 2440.782 93.431 2458.837 93.431 C 2495.984 93.431 2525.909 123.354 2526.425 160.501 C 2526.425 160.501 2526.425 161.016 2526.425 161.016 C 2526.425 170.304 2524.877 179.075 2521.266 187.845 C 2506.304 221.898 2467.093 237.89 2432.525 223.444 C 2424.27 220.35 2417.047 215.189 2410.855 208.997 C 2404.664 202.805 2399.507 195.584 2396.41 187.328 C 2393.314 179.589 2391.252 170.304 2391.252 161.016 Z M 2458.837 206.42 C 2470.189 206.42 2481.024 201.776 2488.763 193.52 C 2497.017 184.751 2501.66 173.398 2501.146 161.534 C 2501.66 149.666 2497.017 138.317 2488.763 129.544 C 2481.024 121.291 2470.189 116.13 2458.837 116.648 C 2447.488 116.648 2436.653 121.291 2428.914 129.544 C 2420.66 138.317 2416.017 149.666 2416.531 161.534 C 2416.017 173.398 2420.66 184.751 2428.914 193.52 C 2436.653 201.776 2447.488 206.42 2458.837 206.42 Z"
    style="fill: rgb(255, 255, 255);"
  />
  <path
    class="st0"
    d="M 2575.953 41.838 L 2575.953 226.023 L 2550.674 226.023 L 2550.674 47.512 L 2575.953 41.838 Z"
    style="fill: rgb(255, 255, 255);"
  />
  <path
    class="st0"
    d="M 2718.866 211.579 C 2704.42 222.926 2686.88 229.119 2668.821 228.603 C 2650.763 228.603 2633.223 221.898 2620.325 208.997 C 2614.134 202.805 2608.972 195.584 2605.877 187.845 C 2599.17 170.819 2599.17 151.729 2605.877 134.704 C 2608.972 126.964 2613.616 119.743 2619.808 113.552 C 2625.484 107.361 2632.706 102.719 2640.446 99.622 C 2648.701 96.008 2656.953 94.462 2665.726 94.462 C 2682.751 94.462 2698.745 101.684 2710.61 114.066 C 2716.287 120.259 2720.931 127.481 2724.027 135.737 C 2727.123 144.508 2729.185 153.277 2728.669 162.565 L 2728.669 169.787 L 2625.998 169.787 C 2629.094 191.457 2648.185 207.45 2669.853 206.934 C 2676.046 206.934 2682.237 205.902 2687.91 203.84 C 2693.587 201.776 2698.23 199.195 2702.872 195.584 L 2718.866 211.579 Z M 2664.692 115.615 C 2655.406 115.615 2646.119 118.711 2639.413 125.418 C 2632.19 132.126 2627.546 140.894 2625.998 150.182 L 2702.872 150.182 C 2701.326 140.894 2696.681 132.126 2689.458 125.418 C 2682.751 119.225 2673.98 115.615 2664.692 115.615 Z"
    style="fill: rgb(255, 255, 255);"
  />
  <path
    class="cls-1"
    d="M -837.591 85.118 L -837.591 41.838 L -944.981 78.458 C -964.27 86.046 -979.886 100.787 -988.571 119.608 L -1008.441 162.718 L -989.151 175.548 L -1011.981 229.058 L -1034.871 175.548 L -1015.581 162.718 L -1035.451 119.608 C -1044.083 100.905 -1059.565 86.229 -1078.701 78.608 L -1186.411 44.078 L -1186.411 85.078 C -1223.17 125.393 -1223.17 187.072 -1186.411 227.388 L -1186.411 300.088 L -1060.611 339.868 L -1060.611 351.968 C -1060.606 355.529 -1057.723 358.417 -1054.161 358.428 L -970.161 358.428 C -966.598 358.417 -963.712 355.531 -963.701 351.968 L -963.701 339.248 L -837.571 297.618 L -837.571 227.428 C -800.799 187.117 -800.799 125.428 -837.571 85.118 L -837.591 85.118 Z"
    style="fill: rgb(245, 137, 31);"
  />
  <path
    class="cls-2"
    d="M -953.781 54.178 L -837.591 14.548 L -837.591 -77.162 L -1011.981 12.698 L -1186.411 -74.762 L -1186.411 16.938 L -1070.061 54.238 C -1044.35 64.212 -1023.523 83.791 -1011.981 108.838 C -1000.421 83.747 -979.547 64.143 -953.781 54.178 Z"
    style="fill: rgb(151, 212, 232);"
  />
  <circle class="cls-3" cx="-915.801" cy="156.268" r="62.18" style="fill: rgb(255, 255, 255);" />
  <path
    class="cls-4"
    d="M -894.761 119.838 C -922.797 103.61 -957.886 123.817 -957.921 156.211 C -957.957 188.604 -922.912 208.888 -894.841 192.722 C -881.805 185.215 -873.769 171.32 -873.761 156.278 L -915.801 156.278 L -894.761 119.838 Z"
    style="fill: rgb(8, 88, 112);"
  />
  <circle class="cls-3" cx="-1108.191" cy="156.268" r="62.18" style="fill: rgb(255, 255, 255);" />
  <path
    class="cls-4"
    d="M -1087.151 119.838 C -1115.187 103.61 -1150.276 123.817 -1150.311 156.211 C -1150.347 188.604 -1115.302 208.888 -1087.231 192.722 C -1074.195 185.215 -1066.159 171.32 -1066.151 156.278 L -1108.191 156.278 L -1087.151 119.838 Z"
    style="fill: rgb(8, 88, 112);"
  />
  <path
    class="cls-3"
    d="M -699.411 322.048 C -701.867 319.66 -703.224 316.362 -703.161 312.938 L -703.161 -36.062 C -703.299 -39.611 -702.047 -43.073 -699.671 -45.712 C -697.233 -48.259 -693.813 -49.626 -690.291 -49.462 L -642.041 -49.462 C -634.508 -49.792 -628.311 -43.596 -628.641 -36.062 L -628.641 89.378 L -509.081 -39.832 C -503.999 -46.136 -496.265 -49.706 -488.171 -49.482 L -433.491 -49.482 C -430.581 -49.462 -427.793 -48.307 -425.721 -46.262 C -423.451 -44.229 -422.177 -41.309 -422.231 -38.262 C -422.2 -35.841 -423.169 -33.515 -424.911 -31.832 L -570.741 130.118 L -414.191 307.578 C -412.882 309.685 -412.144 312.098 -412.051 314.578 C -411.981 317.571 -413.141 320.463 -415.261 322.578 C -417.216 324.636 -419.933 325.797 -422.771 325.788 L -479.061 325.788 C -486.568 325.788 -491.928 324.271 -495.141 321.238 C -498.361 318.238 -500.141 316.498 -500.501 316.138 L -628.641 174.618 L -628.641 312.938 C -628.578 316.362 -629.936 319.66 -632.391 322.048 C -634.95 324.58 -638.444 325.938 -642.041 325.798 L -690.291 325.798 C -693.719 325.864 -697.022 324.507 -699.411 322.048 Z"
    style="fill: rgb(255, 255, 255);"
  />
  <path
    class="cls-3"
    d="M -360.041 322.048 C -362.503 319.663 -363.865 316.364 -363.801 312.938 L -363.801 -36.612 C -363.969 -40.137 -362.597 -43.56 -360.041 -45.992 C -357.579 -48.304 -354.308 -49.558 -350.931 -49.482 L -299.461 -49.482 C -295.989 -49.652 -292.598 -48.391 -290.081 -45.992 C -287.761 -43.672 -286.601 -40.546 -286.601 -36.612 L -286.601 312.938 C -286.524 316.313 -287.774 319.583 -290.081 322.048 C -292.516 324.599 -295.939 325.967 -299.461 325.798 L -350.931 325.798 C -354.357 325.866 -357.657 324.508 -360.041 322.048 Z"
    style="fill: rgb(255, 255, 255);"
  />
  <path
    class="cls-3"
    d="M -199.211 322.048 C -201.673 319.663 -203.035 316.364 -202.971 312.938 L -202.971 -36.062 C -203.109 -39.611 -201.857 -43.073 -199.481 -45.712 C -197.043 -48.259 -193.623 -49.626 -190.101 -49.462 L 46.329 -49.462 C 53.862 -49.792 60.059 -43.596 59.729 -36.062 L 59.729 -0.162 C 59.893 3.362 58.526 6.786 55.979 9.228 C 53.34 11.603 49.876 12.852 46.329 12.708 L -129.521 12.708 L -129.521 106.528 L 34.479 106.528 C 42.012 106.211 48.206 112.404 47.889 119.938 L 47.889 153.708 C 48.054 157.231 46.682 160.654 44.129 163.088 C 41.492 165.467 38.028 166.72 34.479 166.578 L -129.521 166.578 L -129.521 263.578 L 50.619 263.578 C 54.166 263.439 57.627 264.687 60.269 267.058 C 62.812 269.498 64.179 272.917 64.019 276.438 L 64.019 312.938 C 64.183 316.459 62.815 319.88 60.269 322.318 C 57.63 324.693 54.166 325.942 50.619 325.798 L -190.101 325.798 C -193.527 325.866 -196.827 324.508 -199.211 322.048 Z"
    style="fill: rgb(255, 255, 255);"
  />
  <path
    class="cls-3"
    d="M -1053.391 94.718 C -1045.866 101.779 -1039.781 110.231 -1035.471 119.608 L -1015.601 162.718 L -1034.891 175.548 L -1011.981 229.058 L -989.091 175.548 L -1008.381 162.718 L -988.511 119.608 C -979.84 100.798 -964.248 86.059 -944.981 78.458 L -837.591 41.838 L -837.591 14.548 L -953.781 54.178 C -979.547 64.143 -1000.421 83.747 -1011.981 108.838 C -1023.529 83.813 -1044.347 64.254 -1070.041 54.288 L -1186.411 16.938 L -1186.411 44.078 L -1078.721 78.588 C -1069.334 82.313 -1060.738 87.787 -1053.391 94.718 Z"
    style="fill: rgb(255, 255, 255);"
  />
</svg>
