<?xml version="1.0" encoding="utf-8"?>
<svg id="eventAll" version="1.1" xmlns="http://www.w3.org/2000/svg"
		 xmlns:stunner="http://kiegroup.org/2017/stunner"
		 x="0" y="0" width="56px" height="56px" viewBox="0 0 56 56" xml:space="preserve">
	<circle class="eventAll" cx="28px" cy="28px" r="28px"/>
	<circle id="eventAll_interm" class="eventAll_interm_circle" stunner:transform="scalable" cx="28px" cy="28px" r="25px"/>
	<g class="eventAll_group_timer" stunner:transform="scalable" transform="translate(8,8) scale(0.09,0.09)">
		<path class="eventAll_timerIcon" d="M256,136v112c0,2.3-0.8,4.2-2.2,5.8s-3.4,2.2-5.8,2.2h-80c-2.3,0-4.2-0.8-5.8-2.2s-2.2-3.4-2.2-5.8v-16
	c0-2.3,0.8-4.2,2.2-5.8s3.4-2.2,5.8-2.2h56v-88c0-2.3,0.8-4.2,2.2-5.8s3.4-2.2,5.8-2.2h16c2.3,0,4.2,0.8,5.8,2.2S256,133.7,256,136z
	 M376,224c0-27.6-6.8-53-20.3-76.2s-32.1-41.7-55.3-55.3C277,78.8,251.6,72,224,72s-53,6.8-76.2,20.3s-41.7,32.1-55.3,55.3
	S72,196.4,72,224s6.8,53,20.3,76.2s32.1,41.7,55.3,55.3c23.2,13.6,48.7,20.5,76.3,20.5s53-6.8,76.2-20.3
	c23.2-13.6,41.7-32.1,55.3-55.3C369.2,277.1,376,251.6,376,224z M416,224c0,34.8-8.6,67-25.8,96.4s-40.5,52.7-69.9,69.9
	S258.8,416,224,416s-67-8.6-96.4-25.8s-52.7-40.5-69.9-69.9S32,258.8,32,224s8.6-67,25.8-96.4s40.5-52.7,69.9-69.9S189.2,32,224,32
	s67,8.6,96.4,25.8s52.7,40.5,69.9,69.9S416,189.2,416,224z"/>
	</g>
	<g class="eventAll_group_signal" stunner:transform="scalable" transform="translate(8,5) scale(0.09,0.09)">
		<path class="eventAll_signalIcon" d="M224.7,32.3L416.4,384H33.1L224.7,32.3 M224.7,0c-5.8,0-11.2,1.5-16.2,4.5s-8.9,7.1-11.7,12.2L5,368.8
	c-5.8,10.5-5.7,21,0.5,31.5c2.8,4.8,6.7,8.7,11.6,11.5C22,414.6,27.3,416,33,416h383.6c5.7,0,10.9-1.4,15.9-4.2s8.8-6.7,11.6-11.5
	c6.2-10.5,6.3-21,0.5-31.5l-191.8-352c-2.8-5.2-6.7-9.2-11.7-12.2C236,1.5,230.6,0,224.7,0L224.7,0z"/>
	</g>
	<g class="eventAll_group_message" stunner:transform="scalable" transform="translate(8,5) scale(0.09,0.09)">
        <path class="eventAll_messageIcon" d="M416,376V184c-5.3,6-11.1,11.5-17.2,16.5c-44.7,34.3-80.2,62.5-106.5,84.5c-8.5,7.2-15.4,12.8-20.8,16.8
        s-12.5,8-21.6,12.1s-17.6,6.1-25.6,6.1h-0.5c-8,0-16.5-2-25.6-6.1s-16.3-8.1-21.6-12.1s-12.2-9.6-20.8-16.8
        c-26.3-22-61.8-50.2-106.5-84.5c-6.2-5-11.9-10.5-17.2-16.5v192c0,2.2,0.8,4,2.4,5.6s3.5,2.4,5.6,2.4h368c2.2,0,4-0.8,5.6-2.4
        S416,378.2,416,376z M416,104c0-2.2-0.8-4-2.4-5.6S410.2,96,408,96l0,0H40c-2.2,0-4,0.8-5.6,2.4S32,101.8,32,104
        c0,28,12.2,51.7,36.8,71c32.2,25.3,65.6,51.8,100.2,79.2c1,0.8,3.9,3.3,8.8,7.4s8.7,7.2,11.5,9.4s6.5,4.8,11.1,7.9s8.8,5.4,12.6,6.9
        s7.4,2.2,10.8,2.2h0.5c3.3,0,6.9-0.8,10.8-2.2s8-3.8,12.6-6.9s8.3-5.7,11.1-7.9c2.8-2.2,6.7-5.3,11.5-9.4s7.8-6.5,8.8-7.4
        c34.7-27.5,68.1-53.9,100.2-79.2c9-7.2,17.4-16.8,25.1-28.9s11.6-23,11.6-32.9v-6.1V104z M448,104v272c0,11-3.9,20.4-11.8,28.2
        S419,416,408,416H40c-11,0-20.4-3.9-28.2-11.8S0,387,0,376V104c0-11,3.9-20.4,11.8-28.2S29,64,40,64h368c11,0,20.4,3.9,28.2,11.8
        S448,93,448,104z"/>
  	</g>
	<g class="eventAll_group_terminate" stunner:transform="scalable">
		<circle class="eventAll_terminateIcon" cx="28px" cy="28px" r="14px"/>
	</g>
	<!--TODO, UX please complete the proper paths, etc., for modelling the BPMN ErrorElements-->
	<g class="eventAll_group_error" stunner:transform="scalable">
		<circle class="eventAll_errorIcon" cx="28px" cy="28px" r="14px"/>
	</g>
</svg>