<?xml version="1.0" encoding="utf-8"?>
<!--
  ~ Copyright 2018 Red Hat, Inc. and/or its affiliates.
  ~
  ~ Licensed under the Apache License, Version 2.0 (the "License");
  ~ you may not use this file except in compliance with the License.
  ~ You may obtain a copy of the License at
  ~
  ~   http://www.apache.org/licenses/LICENSE-2.0
  ~
  ~ Unless required by applicable law or agreed to in writing, software
  ~ distributed under the License is distributed on an "AS IS" BASIS,
  ~ WITHOUT WARRANTIES OR CONDITIONS OF ANY KIND, either express or implied.
  ~ See the License for the specific language governing permissions and
  ~ limitations under the License.
  -->
<!-- add  filter="url(#selectShadow)"  to make the selection shadow -->
<svg id="eventAll" version="1.1" xmlns="http://www.w3.org/2000/svg" xmlns:xlink="http://www.w3.org/1999/xlink"
	 xmlns:stunner="http://kiegroup.org/2017/stunner"
	 x="0px" y="0px" width="56px" height="56px"
	 viewBox="0 0 448 448"
	 style="enable-background:new 0 0 448 448; width: 56px; height: 56px;" xml:space="preserve">
<style type="text/css">
	<!--.st0{display:none;}-->
</style>
<path id="event-background" class="st0" d="M444,224c0,39.9-9.8,76.8-29.6,110.5c-19.7,33.7-46.4,60.4-80,80S263.9,444,224,444
    s-76.8-9.8-110.5-29.6c-33.7-19.7-60.4-46.4-80-80S4,263.9,4,224s9.8-76.8,29.6-110.5s46.5-60.4,80-80S184.1,4,224,4
    s76.8,9.8,110.5,29.6s60.4,46.5,80,80S444,184.1,444,224z"/>
<g id="event-type">
	<path id="end" class="st0" stunner:shape-state="fill" d="M224,0C100.3,0,0,100.3,0,224s100.3,224,224,224s224-100.3,224-224S347.7,0,224,0z M224,400
		c-97.2,0-176-78.8-176-176S126.8,48,224,48s176,78.8,176,176S321.2,400,224,400z"/>
	<!-- Unused now due to performance implications. Let's keep it here to include it once performance issues fixed.
	<path id="intermediate-noninterrupting" class="st0" stunner:shape-state="fill" d="M225,0.1h-0.1l0,0h-0.1l0,0h-0.1l0,0h-0.1l0,0c0,0,0,0-0.1,0c0,0,0,0-0.1,0
		h-0.1c0,0,0,0-0.1,0c0,0,0,0-0.1,0c0,0,0,0-0.1,0l0,0h-0.1l0,0c0,0,0,0-0.1,0l0,0c-0.1,0-0.2,0-0.2,0l0,0c-0.6,0-1.3,0-1.9,0l0,0
		h-0.1l0,0c0,0,0,0-0.1,0h-0.1l0,0h-0.1l0,0c-0.1,0-0.2,0-0.2,0c-4.4,0.1-7.9,3.7-7.9,8.1c0.1,4.4,3.6,7.9,8,7.9h0.1
		c1.2,0,2.5,0,3.7,0c4.4,0,8-3.6,8-8S229.4,0.1,225,0.1L225,0.1L225,0.1z M182.8,4.2c-0.5,0-1,0-1.5,0.1c-1.3,0.3-2.6,0.5-3.9,0.8
		l0,0l0,0c-4.3,0.9-7.1,5.2-6.1,9.5c0.8,3.7,4.1,6.3,7.8,6.3c0.6,0,1.1-0.1,1.7-0.2c1.2-0.3,2.4-0.5,3.6-0.8
		c4.3-0.9,7.2-5.1,6.3-9.4C189.9,6.8,186.6,4.2,182.8,4.2L182.8,4.2z M142.3,16.5c-1,0-2.1,0.2-3.1,0.6c-0.3,0.1-0.6,0.3-0.9,0.4
		l0,0h-0.1l0,0c0,0,0,0-0.1,0l0,0c0,0,0,0-0.1,0h-0.1l0,0c-0.8,0.3-1.6,0.7-2.4,1c-4,1.8-5.9,6.5-4.1,10.5c1.3,3,4.3,4.8,7.3,4.8
		c1.1,0,2.2-0.2,3.2-0.7c1.1-0.5,2.3-1,3.4-1.5c4.1-1.7,6-6.4,4.3-10.5C148.4,18.3,145.4,16.5,142.3,16.5L142.3,16.5z M105,36.5
		c-1.5,0-3.1,0.4-4.4,1.3c-0.5,0.3-1,0.7-1.5,1l0,0c0,0,0,0-0.1,0c0,0,0,0-0.1,0l0,0c0,0,0,0-0.1,0l0,0c0,0-0.1,0-0.1,0.1l0,0
		c0,0-0.1,0-0.1,0.1l0,0c-0.4,0.3-0.9,0.6-1.3,0.9c-3.6,2.5-4.5,7.5-2,11.1c1.6,2.2,4,3.4,6.6,3.4c1.6,0,3.2-0.5,4.6-1.4
		c1-0.7,2-1.4,3.1-2.1c3.7-2.5,4.7-7.4,2.2-11.1C110.1,37.7,107.5,36.5,105,36.5L105,36.5z M72.2,63.4c-2,0-4.1,0.8-5.7,2.3
		c-0.1,0.1-0.1,0.1-0.2,0.2l0,0l0,0c-0.9,0.9-1.7,1.8-2.6,2.7c-3,3.2-3,8.2,0.2,11.3c1.6,1.5,3.6,2.2,5.6,2.2c2.1,0,4.2-0.8,5.8-2.4
		c0.9-0.9,1.7-1.8,2.6-2.7c3.1-3.1,3.1-8.2,0-11.3C76.3,64.2,74.3,63.4,72.2,63.4L72.2,63.4z M45.4,96.1c-2.6,0-5.1,1.2-6.6,3.5
		c-0.1,0.1-0.1,0.2-0.2,0.3l0,0c0,0,0,0,0,0.1l0,0c0,0,0,0.1-0.1,0.1l0,0l0,0l0,0c0,0,0,0,0,0.1c0,0,0,0,0,0.1l0,0c0,0,0,0,0,0.1
		l0,0c0,0,0,0.1-0.1,0.1l0,0c0,0,0,0.1-0.1,0.1l0,0c0,0,0,0.1-0.1,0.1l0,0c0,0,0,0.1-0.1,0.1l0,0c0,0,0,0.1-0.1,0.1l0,0
		c0,0,0,0.1-0.1,0.1l0,0c0,0,0,0.1-0.1,0.1l0,0c0,0,0,0.1-0.1,0.1l0,0c0,0,0,0.1-0.1,0.1l0,0c0,0,0,0.1-0.1,0.1l0,0
		c0,0,0,0.1-0.1,0.1l0,0c0,0,0,0.1-0.1,0.1l0,0c0,0,0,0.1-0.1,0.1l0,0c0,0,0,0,0,0.1l0,0c0,0,0,0,0,0.1c0,0,0,0,0,0.1l0,0
		c0,0,0,0,0,0.1l0,0c-0.2,0.3-0.3,0.5-0.5,0.8c-2.4,3.7-1.3,8.7,2.4,11c1.3,0.9,2.8,1.3,4.3,1.3c2.6,0,5.2-1.3,6.7-3.7
		c0.7-1,1.4-2.1,2-3.1c2.5-3.7,1.5-8.6-2.2-11.1C48.4,96.6,46.9,96.1,45.4,96.1L45.4,96.1z M25.4,133.5c-3.1,0-6.1,1.9-7.4,4.9
		c-0.1,0.2-0.2,0.4-0.2,0.6l0,0c-0.4,1-0.8,2.1-1.3,3.1c-1.6,4.1,0.4,8.8,4.5,10.4c1,0.4,2,0.6,2.9,0.6c3.2,0,6.2-1.9,7.4-5.1
		c0.5-1.1,0.9-2.3,1.4-3.4c1.7-4.1-0.2-8.8-4.3-10.5C27.4,133.7,26.4,133.5,25.4,133.5L25.4,133.5z M13.1,174
		c-3.7,0-7.1,2.6-7.8,6.5c-0.2,1.2-0.5,2.5-0.7,3.7l0,0v0.1l0,0v0.1l0,0c-0.8,4.3,2.1,8.5,6.5,9.3c0.5,0.1,1,0.1,1.4,0.1
		c3.8,0,7.2-2.7,7.9-6.6c0.2-1.2,0.4-2.4,0.7-3.6c0.9-4.3-2-8.5-6.3-9.4C14.1,174,13.6,174,13.1,174L13.1,174z M9,216.2L9,216.2
		c-4.4,0-8,3.6-8,8c0,0.8,0,1.6,0,2.3l0,0c0,0,0,0,0,0.1l0,0v0.1l0,0c0,0,0,0,0,0.1l0,0c0,0,0,0,0,0.1c0,0,0,0,0,0.1v0.1l0,0
		c0,0,0,0,0,0.1l0,0c0,0.1,0,0.2,0,0.3l0,0c0,0.2,0,0.5,0,0.7c0.1,4.4,3.7,7.8,8,7.8h0.1c4.4-0.1,7.9-3.7,7.9-8.1c0-1.2,0-2.5,0-3.7
		C17,219.8,13.4,216.2,9,216.2L9,216.2z M13.1,258.3c-0.5,0-1,0.1-1.6,0.2c-4.3,0.9-7.1,5.1-6.3,9.4l0,0v0.1l0,0v0.1l0,0v0.1l0,0
		v0.1l0,0c0,0.1,0,0.2,0,0.2l0,0c0,0.1,0,0.2,0,0.2l0,0c0,0.2,0.1,0.4,0.1,0.6l0,0c0,0.1,0,0.2,0,0.2l0,0c0.1,0.7,0.3,1.4,0.4,2.1
		c0.8,3.7,4.1,6.3,7.8,6.3c0.6,0,1.1-0.1,1.7-0.2c4.3-0.9,7.1-5.2,6.1-9.5c-0.3-1.2-0.5-2.4-0.8-3.6C20.2,261,16.9,258.3,13.1,258.3
		L13.1,258.3z M25.4,298.9c-1,0-2.1,0.2-3.1,0.6c-4.1,1.7-6,6.4-4.3,10.5c0.5,1.2,1,2.5,1.6,3.7c1.3,3,4.3,4.8,7.3,4.8
		c1.1,0,2.2-0.2,3.2-0.7c4-1.8,5.9-6.5,4.1-10.5c-0.5-1.1-1-2.3-1.5-3.4C31.6,300.7,28.6,298.9,25.4,298.9L25.4,298.9z M45.5,336.2
		c-1.5,0-3.1,0.4-4.4,1.4c-3.7,2.5-4.6,7.4-2.2,11.1c0.8,1.1,1.5,2.2,2.3,3.3c1.6,2.2,4,3.4,6.6,3.4c1.6,0,3.2-0.5,4.6-1.4
		c3.6-2.5,4.5-7.5,2-11.1c-0.7-1-1.4-2-2.1-3.1C50.6,337.4,48.1,336.2,45.5,336.2L45.5,336.2z M72.4,368.9c-2,0-4.1,0.8-5.7,2.3
		c-3.1,3.1-3.1,8.2,0,11.3c0.1,0.1,0.2,0.2,0.2,0.2l0,0l0,0c0.8,0.8,1.7,1.7,2.6,2.5c1.5,1.5,3.5,2.2,5.5,2.2c2.1,0,4.2-0.8,5.8-2.4
		c3.1-3.2,3-8.2-0.2-11.3c-0.9-0.9-1.8-1.7-2.7-2.6C76.5,369.7,74.5,368.9,72.4,368.9L72.4,368.9z M105.2,395.8
		c-2.6,0-5.1,1.2-6.7,3.6c-2.5,3.7-1.5,8.6,2.2,11.1l0,0c0.1,0,0.1,0.1,0.2,0.1l0,0c0.4,0.3,0.8,0.5,1.1,0.8l0,0c0,0,0.1,0,0.1,0.1
		l0,0c0,0,0,0,0.1,0l0,0c0,0,0,0,0.1,0c0,0,0,0,0.1,0l0,0c0,0,0,0,0.1,0l0,0c0.5,0.3,1,0.7,1.6,1c1.3,0.9,2.8,1.3,4.3,1.3
		c2.6,0,5.2-1.3,6.7-3.7c2.4-3.7,1.3-8.7-2.4-11.1c-1-0.7-2.1-1.4-3.1-2C108.2,396.2,106.7,395.8,105.2,395.8L105.2,395.8z
		 M142.5,415.7c-3.1,0-6.1,1.9-7.4,4.9c-1.7,4.1,0.2,8.7,4.3,10.4c1.2,0.5,2.5,1,3.7,1.5c1,0.4,1.9,0.5,2.9,0.5
		c3.2,0,6.2-1.9,7.4-5.1c1.6-4.1-0.4-8.8-4.5-10.4c-1.1-0.5-2.3-0.9-3.4-1.4C144.6,415.9,143.5,415.7,142.5,415.7L142.5,415.7z
		 M183,428c-3.7,0-7.1,2.6-7.8,6.5c-0.9,4.3,2,8.5,6.3,9.4c0.7,0.1,1.4,0.3,2.1,0.4l0,0c0,0,0,0,0.1,0c0.6,0.1,1.2,0.2,1.8,0.3
		c0.5,0.1,0.9,0.1,1.4,0.1c3.8,0,7.2-2.7,7.9-6.6c0.8-4.3-2.1-8.5-6.5-9.3c-1.2-0.2-2.4-0.4-3.6-0.7C184.1,428,183.6,428,183,428
		L183,428z M229.1,432c-0.1,0-0.1,0-0.2,0c-1.2,0-2.5,0-3.7,0c-4.4,0-8,3.6-8,8s3.6,8,8,8c0.7,0,1.5,0,2.2,0l0,0h0.1l0,0h0.1l0,0
		c0,0,0,0,0.1,0l0,0c0,0,0,0,0.1,0c0,0,0,0,0.1,0h0.1c0,0,0,0,0.1,0c0,0,0,0,0.1,0l0,0c0.1,0,0.1,0,0.2,0l0,0h0.1l0,0
		c0.3,0,0.5,0,0.8,0c4.4-0.1,7.9-3.7,7.8-8.1C237,435.5,233.4,432,229.1,432L229.1,432z M271.2,427.1c-0.6,0-1.1,0.1-1.7,0.2
		c-1.2,0.3-2.4,0.5-3.6,0.8c-4.3,0.9-7.1,5.1-6.3,9.4c0.8,3.8,4.1,6.4,7.8,6.4c0.5,0,1-0.1,1.6-0.2c1.3-0.3,2.6-0.5,3.9-0.8
		c4.3-0.9,7.1-5.2,6.1-9.5C278.2,429.7,274.9,427.1,271.2,427.1L271.2,427.1z M311.5,414c-1.1,0-2.2,0.2-3.2,0.7
		c-1.1,0.5-2.3,1-3.4,1.5c-4.1,1.7-6,6.4-4.3,10.5c1.3,3.1,4.3,4.9,7.4,4.9c1,0,2.1-0.2,3.1-0.6c0.6-0.3,1.2-0.5,1.8-0.8l0,0h0.1
		l0,0h0.1l0,0h0.1l0,0h0.1l0,0c0,0,0,0,0.1,0l0,0h0.1l0,0c0,0,0,0,0.1,0l0,0c0,0,0,0,0.1,0c0,0,0,0,0.1,0c0,0,0,0,0.1,0
		c0,0,0,0,0.1,0c0,0,0,0,0.1,0c0,0,0,0,0.1,0c0,0,0,0,0.1,0l0,0l0,0h0.1c0,0,0,0,0.1,0l0,0c0,0,0,0,0.1,0c0,0,0,0,0.1,0
		c0,0,0,0,0.1,0c0,0,0,0,0.1,0l0,0l0,0c4-1.8,5.9-6.5,4.1-10.5C317.5,415.8,314.5,414,311.5,414L311.5,414z M348.4,393.3
		c-1.6,0-3.2,0.5-4.6,1.4c-1,0.7-2,1.4-3.1,2.1c-3.7,2.5-4.6,7.4-2.2,11.1c1.5,2.3,4.1,3.5,6.6,3.5c1.5,0,3.1-0.4,4.4-1.4
		c0.2-0.1,0.3-0.2,0.5-0.3l0,0c0,0,0,0,0.1,0l0,0c0,0,0.1,0,0.1-0.1l0,0l0,0c0,0,0,0,0.1,0c0,0,0,0,0.1,0c0,0,0,0,0.1,0l0,0
		c0,0,0.1,0,0.1-0.1l0,0c0,0,0.1,0,0.1-0.1l0,0c0.1,0,0.1-0.1,0.2-0.1l0,0c0.7-0.4,1.3-0.9,2-1.3c3.6-2.5,4.5-7.5,2-11.1
		C353.4,394.5,350.9,393.3,348.4,393.3L348.4,393.3z M380.6,365.8c-2.1,0-4.2,0.8-5.8,2.5c-0.9,0.9-1.7,1.8-2.6,2.7
		c-3.1,3.1-3.1,8.2,0,11.3c1.6,1.6,3.6,2.3,5.6,2.3s4.1-0.8,5.6-2.3c0.3-0.3,0.5-0.5,0.8-0.8l0,0l0.1-0.1l0,0l0,0c0,0,0,0,0.1-0.1
		l0,0c0,0,0,0,0.1-0.1l0,0c0.1-0.1,0.1-0.1,0.2-0.2l0,0c0.5-0.5,1-1.1,1.6-1.6c3.1-3.2,3-8.2-0.2-11.3
		C384.6,366.6,382.6,365.8,380.6,365.8L380.6,365.8z M406.9,332.6c-2.6,0-5.2,1.3-6.7,3.7c-0.7,1-1.4,2.1-2,3.1
		c-2.5,3.7-1.5,8.6,2.2,11.1c1.4,0.9,2.9,1.3,4.4,1.3c2.6,0,5.1-1.2,6.7-3.6c0.3-0.4,0.6-0.8,0.8-1.2l0,0c0.4-0.7,0.9-1.3,1.3-2l0,0
		c0,0,0-0.1,0.1-0.1l0,0c2.4-3.7,1.3-8.7-2.4-11.1C409.9,333,408.4,332.6,406.9,332.6L406.9,332.6z M426.2,294.9
		c-3.2,0-6.2,1.9-7.4,5.1c-0.4,1.1-0.9,2.3-1.4,3.4c-1.7,4.1,0.3,8.8,4.3,10.4c1,0.4,2,0.6,3.1,0.6c3.1,0,6.1-1.9,7.4-4.9
		c0.2-0.4,0.3-0.8,0.5-1.3l0,0v-0.1l0,0V308l0,0l0,0c0,0,0,0,0-0.1l0,0c0,0,0-0.1,0.1-0.1l0,0c0.2-0.5,0.4-1,0.6-1.5l0,0
		c0,0,0,0,0-0.1c0,0,0,0,0-0.1l0,0V306l0,0v-0.1c1.6-4.1-0.4-8.8-4.5-10.4C428.1,295,427.1,294.9,426.2,294.9L426.2,294.9z
		 M437.6,254.1c-3.8,0-7.2,2.7-7.9,6.6c-0.2,1.2-0.4,2.4-0.7,3.6c-0.9,4.3,2,8.5,6.3,9.4c0.5,0.1,1,0.2,1.6,0.2
		c3.7,0,7.1-2.6,7.8-6.5l0,0l0,0v-0.1c0,0,0,0,0-0.1c0,0,0,0,0-0.1c0,0,0,0,0-0.1c0,0,0,0,0-0.1c0,0,0,0,0-0.1c0,0,0,0,0-0.1l0,0
		c0,0,0,0,0-0.1c0,0,0,0,0-0.1v-0.1l0,0c0,0,0,0,0-0.1l0,0v-0.1l0,0c0,0,0,0,0-0.1l0,0c0-0.1,0-0.2,0-0.2l0,0c0-0.1,0-0.2,0-0.2l0,0
		c0-0.2,0.1-0.4,0.1-0.6l0,0c0-0.1,0-0.2,0-0.2l0,0c0,0,0,0,0-0.1c0,0,0,0,0-0.1c0,0,0,0,0-0.1v-0.1l0,0c0.1-0.4,0.1-0.7,0.2-1.1
		c0.8-4.3-2.1-8.5-6.5-9.3C438.6,254.1,438.1,254.1,437.6,254.1L437.6,254.1z M441,211.8c-0.1,0-0.1,0-0.2,0
		c-4.4,0.1-7.9,3.7-7.8,8.2c0,1.2,0,2.5,0,3.7c0,4.4,3.6,8,8,8l0,0c4.4,0,8-3.6,8-8c0-0.3,0-0.6,0-0.9l0,0c0-0.1,0-0.2,0-0.2l0,0
		v-0.1l0,0v-0.1c0,0,0,0,0-0.1l0,0c0,0,0,0,0-0.1l0,0c0-0.1,0-0.2,0-0.3l0,0c0-0.5,0-1,0-1.5l0,0v-0.1l0,0c0,0,0,0,0-0.1v-0.1l0,0
		V220l0,0c0-0.1,0-0.2,0-0.2C448.9,215.3,445.3,211.8,441,211.8L441,211.8z M436,169.8c-0.6,0-1.1,0.1-1.7,0.2
		c-4.3,0.9-7.1,5.2-6.1,9.5c0.3,1.2,0.5,2.4,0.8,3.6c0.8,3.8,4.1,6.4,7.8,6.4c0.5,0,1-0.1,1.6-0.2c4.3-0.9,7.1-5.1,6.3-9.4l0,0v-0.1
		l0,0v-0.1l0,0c0-0.1,0-0.2,0-0.2l0,0c-0.2-1.1-0.5-2.3-0.7-3.4C443,172.3,439.7,169.8,436,169.8L436,169.8z M422.9,129.5
		c-1.1,0-2.2,0.2-3.2,0.7c-4,1.8-5.9,6.5-4.1,10.5c0.5,1.1,1,2.3,1.5,3.4c1.3,3.1,4.3,4.9,7.4,4.9c1,0,2.1-0.2,3.1-0.6
		c4.1-1.7,6-6.4,4.3-10.5l0,0c0,0,0,0,0-0.1l0,0v-0.1l0,0c0,0,0,0,0-0.1l0,0v-0.1l0,0c0,0,0,0,0-0.1l0,0v-0.1l0,0c0,0,0,0,0-0.1l0,0
		c0,0,0,0,0-0.1c0,0,0,0,0-0.1c0,0,0,0,0-0.1l0,0c0,0,0,0,0-0.1c0,0,0,0,0-0.1c0,0,0,0,0-0.1l0,0c0,0,0,0,0-0.1v-0.1c0,0,0,0,0-0.1
		c0,0,0,0,0-0.1l0,0v-0.1l0,0c0,0,0,0,0-0.1l0,0c0-0.1-0.1-0.1-0.1-0.2l0,0c0-0.1-0.1-0.1-0.1-0.2l0,0c0,0,0,0,0-0.1l0,0
		c0-0.1,0-0.1-0.1-0.1l0,0c-0.2-0.4-0.3-0.8-0.5-1.2C428.9,131.3,426,129.5,422.9,129.5L422.9,129.5z M402.2,92.6
		c-1.6,0-3.2,0.5-4.6,1.4c-3.6,2.5-4.5,7.5-2,11.1c0.7,1,1.4,2,2.1,3.1c1.5,2.3,4.1,3.5,6.6,3.5c1.5,0,3.1-0.4,4.5-1.4
		c3.7-2.5,4.6-7.4,2.2-11.1l0,0c0,0,0,0,0-0.1c0,0,0,0,0-0.1l0,0c-0.5-0.8-1.1-1.6-1.6-2.4l0,0c0,0,0-0.1-0.1-0.1c0,0,0,0,0-0.1l0,0
		c0,0,0,0,0-0.1l0,0c0,0,0-0.1-0.1-0.1l0,0c-0.1-0.1-0.2-0.3-0.3-0.4C407.2,93.7,404.7,92.6,402.2,92.6L402.2,92.6z M374.7,60.4
		c-2.1,0-4.2,0.8-5.8,2.5c-3.1,3.2-3,8.2,0.2,11.3c0.9,0.9,1.8,1.7,2.7,2.6c1.6,1.6,3.6,2.3,5.6,2.3c2.1,0,4.1-0.8,5.7-2.4
		c3.1-3.1,3.1-8.2,0-11.3c-0.5-0.5-0.9-0.9-1.4-1.4l0,0c0,0,0,0-0.1-0.1l0,0l0,0c0,0,0,0-0.1-0.1l0,0c-0.4-0.4-0.8-0.8-1.3-1.2
		C378.7,61.1,376.7,60.4,374.7,60.4L374.7,60.4z M341.4,34.1c-2.6,0-5.2,1.3-6.7,3.7c-2.4,3.7-1.3,8.7,2.4,11.1c1,0.7,2.1,1.3,3.1,2
		c1.4,0.9,2.9,1.3,4.4,1.3c2.6,0,5.1-1.3,6.7-3.6c2.5-3.7,1.5-8.6-2.2-11.1c-0.9-0.6-1.7-1.1-2.6-1.7l0,0c0,0-0.1,0-0.1-0.1l0,0
		c0,0-0.1,0-0.1-0.1l0,0l0,0c-0.1,0-0.1-0.1-0.2-0.1l0,0c-0.1-0.1-0.2-0.1-0.3-0.2C344.4,34.5,342.9,34.1,341.4,34.1L341.4,34.1z
		 M303.7,14.8c-3.2,0-6.2,1.9-7.5,5.1c-1.6,4.1,0.4,8.8,4.5,10.4c1.1,0.4,2.3,0.9,3.4,1.4c1,0.4,2,0.6,3,0.6c3.1,0,6.1-1.9,7.4-5
		c1.7-4.1-0.3-8.8-4.3-10.4c-0.7-0.3-1.5-0.6-2.2-0.9l0,0h-0.1l0,0h-0.1l0,0h-0.1l0,0h-0.1l0,0c0,0,0,0-0.1,0c0,0,0,0-0.1,0l0,0
		c-0.1,0-0.1,0-0.2-0.1l0,0c-0.3-0.1-0.5-0.2-0.8-0.3C305.6,15,304.7,14.8,303.7,14.8L303.7,14.8z M262.9,3.4
		c-3.8,0-7.2,2.7-7.9,6.6c-0.8,4.4,2.1,8.5,6.5,9.3c1.2,0.2,2.4,0.4,3.6,0.7c0.5,0.1,1,0.2,1.5,0.2c3.7,0,7.1-2.6,7.8-6.5
		c0.8-4.3-2-8.5-6.3-9.4c-1.3-0.3-2.6-0.5-4-0.7C263.8,3.4,263.4,3.4,262.9,3.4L262.9,3.4z M231,40.1h-0.1l0,0h-0.1l0,0h-0.1l0,0
		h-0.1l0,0h-0.1l0,0h-0.1l0,0h-0.1l0,0h-0.1l0,0h-0.1l0,0H230l0,0h-0.1l0,0c0,0,0,0-0.1,0l0,0h-0.1l0,0h-0.1l0,0c0,0,0,0-0.1,0l0,0
		h-0.1l0,0h-0.1l0,0c0,0,0,0-0.1,0l0,0h-0.1l0,0H229l0,0h-0.1l0,0h-0.1l0,0h-0.1l0,0h-0.1l0,0c-0.3,0-0.6,0-1,0
		c-4.4-0.1-8,3.5-8.1,7.9c0,4.4,3.4,7.9,7.7,8.1c0.1,0,0.1,0,0.2,0c1.2,0,2.4,0,3.6,0.1c4.4,0.1,8.1-3.3,8.3-7.7
		S235.4,40.3,231,40.1L231,40.1L231,40.1z M190,43.6c-0.6,0-1.2,0-1.9,0.2c-1,0.2-1.9,0.4-2.9,0.6l0,0h-0.1l0,0c0,0,0,0-0.1,0h-0.1
		l0,0c-0.2,0.1-0.4,0.1-0.7,0.2c-4.3,1-7,5.3-6,9.6c0.8,3.6,4,6.1,7.5,6.2c0.7,0,1.3,0,2-0.2c1.2-0.3,2.3-0.5,3.5-0.8
		c4.3-0.9,7.1-5.1,6.2-9.4C196.8,46.3,193.6,43.7,190,43.6L190,43.6z M151,56.5c-1.2,0-2.5,0.2-3.6,0.7c-1.2,0.6-2.4,1.1-3.5,1.7
		c-4,2-5.6,6.8-3.6,10.7c1.4,2.7,4.1,4.4,6.9,4.5c1.3,0,2.6-0.2,3.8-0.8c1.1-0.5,2.1-1,3.2-1.5c4-1.9,5.7-6.6,3.9-10.6
		C156.7,58.3,153.9,56.6,151,56.5L151,56.5z M116,78.1c-1.8-0.1-3.7,0.5-5.2,1.7c-0.9,0.7-1.7,1.4-2.6,2.1l0,0c0,0-0.1,0-0.1,0.1
		l0,0c0,0,0,0-0.1,0.1l0,0l0,0c0,0,0,0-0.1,0l0,0l-0.1,0.1c-3.4,2.8-3.9,7.9-1.1,11.3c1.5,1.8,3.7,2.8,5.9,2.9
		c1.9,0.1,3.8-0.5,5.4-1.8c0.9-0.8,1.8-1.5,2.8-2.3c3.5-2.7,4-7.8,1.3-11.2C120.5,79.2,118.3,78.2,116,78.1L116,78.1z M87,107.2
		c-2.5-0.1-4.9,1-6.5,3c0,0,0,0.1-0.1,0.1l0,0c0,0,0,0.1-0.1,0.1l0,0c0,0,0,0,0,0.1c0,0,0,0,0,0.1l0,0c-0.2,0.3-0.4,0.6-0.7,0.9l0,0
		c0,0.1-0.1,0.1-0.1,0.2l0,0c0,0,0,0.1-0.1,0.1l0,0c0,0,0,0,0,0.1c0,0,0,0,0,0.1l0,0c0,0,0,0.1-0.1,0.1l0,0c0,0,0,0.1-0.1,0.1l0,0
		c-0.3,0.4-0.6,0.8-1,1.3c-2.7,3.5-2,8.5,1.6,11.2c1.4,1,3,1.6,4.6,1.6c2.5,0.1,5-1,6.6-3.2c0.7-0.9,1.4-1.9,2.2-2.8
		c2.7-3.5,2.1-8.5-1.3-11.2C90.3,107.8,88.7,107.2,87,107.2L87,107.2z M65.5,142.2c-3.1-0.1-6.1,1.6-7.5,4.6l0,0
		c-0.5,1.2-1.1,2.4-1.6,3.6c-1.8,4,0.1,8.8,4.1,10.5c1,0.4,2,0.6,2.9,0.7c3.2,0.1,6.2-1.7,7.6-4.8c0.5-1.1,1-2.2,1.5-3.3
		c1.9-4,0.1-8.8-3.9-10.6C67.6,142.5,66.5,142.2,65.5,142.2L65.5,142.2z M52.7,181.3c-3.8-0.1-7.3,2.5-8.1,6.4
		c-0.2,1.2-0.5,2.3-0.7,3.5l0,0v0.1l0,0v0.1c0,0,0,0,0,0.1l0,0c0,0,0,0,0,0.1c-0.8,4.3,2.1,8.5,6.5,9.3c0.4,0.1,0.8,0.1,1.2,0.1
		c3.9,0.1,7.4-2.6,8.1-6.6c0.2-1.2,0.4-2.3,0.7-3.5c0.9-4.3-1.9-8.5-6.3-9.4C53.6,181.3,53.2,181.3,52.7,181.3L52.7,181.3z
		 M49.4,222.2c-0.2,0-0.4,0-0.5,0c-4.4,0.2-7.9,3.8-7.7,8.3c0,1.3,0.1,2.6,0.2,3.9c0.2,4.2,3.6,7.4,7.7,7.5c0.2,0,0.5,0,0.7,0
		c4.4-0.2,7.8-4,7.5-8.4c-0.1-1.2-0.1-2.4-0.2-3.6C57,225.7,53.6,222.4,49.4,222.2L49.4,222.2z M55.6,262.9c-0.8,0-1.6,0.1-2.4,0.3
		c-4.3,1.2-6.7,5.6-5.6,9.8c0.2,0.6,0.3,1.1,0.5,1.7l0,0v0.1l0,0v0.1l0,0c0,0,0,0,0,0.1c0,0,0,0,0,0.1c0,0,0,0,0,0.1c0,0,0,0,0,0.1
		c0,0,0,0,0,0.1c0,0,0,0,0,0.1l0,0v0.1l0,0c0,0,0,0,0,0.1c0,0,0,0,0,0.1c0,0,0,0,0,0.1c0,0,0,0,0,0.1c0,0,0,0,0,0.1l0,0v0.1
		c0,0,0,0,0,0.1c0,0,0,0,0,0.1c0,0,0,0,0,0.1l0,0v0.1l0,0c0,0,0,0,0,0.1l0,0v0.1l0,0v0.1l0,0c0,0.1,0,0.1,0.1,0.2
		c1,3.4,4.1,5.6,7.4,5.7c0.8,0,1.7-0.1,2.6-0.3c4.2-1.3,6.6-5.7,5.4-10c-0.3-1.1-0.7-2.3-1-3.4C62.1,265.3,59,263,55.6,262.9
		L55.6,262.9z M71.1,300.9c-1.4,0-2.8,0.3-4.1,1c-3.9,2.1-5.3,7-3.1,10.9c0.2,0.3,0.3,0.6,0.5,0.8l0,0v0.1l0,0v0.1l0,0v0.1l0,0v0.1
		l0,0v0.1l0,0v0.1l0,0c0,0,0,0.1,0.1,0.1l0,0c0,0,0,0.1,0.1,0.1l0,0c0,0,0,0.1,0.1,0.1l0,0c0,0,0,0.1,0.1,0.1l0,0
		c0.3,0.5,0.6,1,0.9,1.5c1.4,2.5,4,3.9,6.7,4c1.4,0,2.9-0.3,4.3-1.1c3.8-2.2,5.1-7.1,2.9-10.9c-0.6-1-1.2-2.1-1.8-3.1
		C76.4,302.5,73.8,301,71.1,300.9L71.1,300.9z M95,334.4c-2-0.1-4,0.6-5.6,2.1c-3.3,3-3.5,8-0.5,11.3c0.4,0.4,0.7,0.8,1.1,1.2l0,0
		c0,0,0,0,0.1,0.1l0,0c0,0,0,0,0.1,0.1l0,0l0,0c0.5,0.5,0.9,1,1.4,1.5c1.5,1.6,3.5,2.4,5.5,2.5c2.1,0.1,4.1-0.7,5.8-2.2
		c3.2-3,3.3-8.1,0.3-11.3c-0.8-0.9-1.6-1.7-2.4-2.6C99.2,335.3,97.1,334.4,95,334.4L95,334.4z M126,361.4c-2.6-0.1-5.3,1.1-6.9,3.5
		c-2.5,3.6-1.6,8.6,2.1,11.1c0.2,0.2,0.5,0.3,0.7,0.5l0,0c0,0,0.1,0,0.1,0.1l0,0c0,0,0.1,0,0.1,0.1l0,0c0,0,0.1,0,0.1,0.1l0,0
		c0,0,0,0,0.1,0l0,0l0,0c0,0,0,0,0.1,0l0,0c0.7,0.4,1.3,0.9,2,1.3c1.3,0.8,2.7,1.2,4.1,1.3c2.7,0.1,5.4-1.2,7-3.6
		c2.4-3.7,1.4-8.7-2.3-11.1c-1-0.6-2-1.3-3-2C129,361.9,127.5,361.4,126,361.4L126,361.4z M162.4,380.5c-3.3-0.1-6.5,1.9-7.7,5.1
		c-1.6,4.1,0.5,8.7,4.6,10.3c0,0,0,0,0.1,0l0,0c0,0,0,0,0.1,0h0.1l0,0h0.1l0,0c1.1,0.4,2.2,0.8,3.3,1.2c0.8,0.3,1.6,0.4,2.4,0.5
		c3.4,0.1,6.6-1.9,7.8-5.3c1.5-4.2-0.7-8.7-4.8-10.2c-1.1-0.4-2.2-0.8-3.3-1.2C164.1,380.7,163.3,380.5,162.4,380.5L162.4,380.5z
		 M202.2,390.5c-4.1-0.1-7.6,2.8-8.2,7c-0.6,4.4,2.5,8.4,6.9,9c0.3,0,0.6,0.1,0.8,0.1l0,0h0.1l0,0c1,0.1,1.9,0.2,2.9,0.3
		c0.2,0,0.4,0,0.6,0c4.1,0.1,7.7-2.9,8.2-7.1c0.5-4.4-2.7-8.3-7.1-8.8c-1.2-0.1-2.4-0.3-3.5-0.4
		C202.7,390.6,202.5,390.6,202.2,390.5L202.2,390.5z M247.1,390.7c-0.4,0-0.8,0-1.2,0.1c-1.2,0.1-2.4,0.3-3.6,0.4
		c-4.4,0.4-7.6,4.4-7.1,8.8c0.4,4,3.7,7.1,7.7,7.2c0.4,0,0.7,0,1.1,0c0.1,0,0.2,0,0.2,0l0,0c1.1-0.1,2.1-0.2,3.2-0.4l0,0h0.1l0,0
		c0.1,0,0.2,0,0.2,0l0,0h0.1l0,0c4.4-0.5,7.5-4.5,7-8.9C254.2,393.8,250.9,390.9,247.1,390.7L247.1,390.7z M287,380.9
		c-1,0-2.1,0.1-3.1,0.5c-1.1,0.4-2.2,0.8-3.4,1.2c-4.2,1.5-6.4,6-4.9,10.2c1.1,3.2,4.1,5.2,7.3,5.4c1,0,1.9-0.1,2.9-0.4
		c1.2-0.4,2.5-0.9,3.7-1.3c4.1-1.5,6.2-6.2,4.7-10.3C293,383,290.1,381,287,380.9L287,380.9z M323.5,362.1c-1.6-0.1-3.3,0.4-4.7,1.4
		c-1,0.7-2,1.3-3,2c-3.7,2.4-4.8,7.3-2.4,11.1c1.5,2.3,3.9,3.6,6.5,3.7c1.6,0.1,3.2-0.4,4.6-1.3l0,0c0,0,0,0,0.1,0l0,0
		c0,0,0.1,0,0.1-0.1l0,0c1-0.7,2-1.3,3.1-2c3.7-2.5,4.6-7.4,2.2-11.1C328.4,363.4,326,362.2,323.5,362.1L323.5,362.1z M354.7,335.3
		c-2.2-0.1-4.5,0.8-6.1,2.6c-0.8,0.9-1.6,1.7-2.5,2.6c-3.1,3.2-3,8.2,0.2,11.3c1.5,1.4,3.4,2.2,5.3,2.2c2.2,0.1,4.4-0.7,6-2.4
		c0.3-0.3,0.7-0.7,1-1.1l0,0l0.1-0.1l0,0l0,0l0,0c0,0,0,0,0.1-0.1l0,0l0,0l0,0l0,0c0,0,0,0,0.1-0.1l0,0c0,0,0,0,0.1-0.1l0,0l0,0l0,0
		l0,0l0,0c0,0,0,0,0.1-0.1l0,0c0,0,0,0,0.1-0.1l0,0l0,0c0,0,0-0.1,0.1-0.1l0,0c0.2-0.3,0.5-0.5,0.7-0.8c3-3.2,2.8-8.3-0.5-11.3
		C358.4,336.1,356.5,335.4,354.7,335.3L354.7,335.3z M378.9,302.1c-2.9-0.1-5.7,1.4-7.2,4.1c-0.6,1-1.2,2.1-1.8,3.1
		c-2.2,3.8-1,8.7,2.8,11c1.2,0.7,2.5,1.1,3.8,1.1c2.8,0.1,5.6-1.3,7.1-3.9c0.1-0.2,0.3-0.5,0.4-0.7l0,0c0,0,0,0,0-0.1c0,0,0,0,0-0.1
		l0,0c0,0,0-0.1,0.1-0.1l0,0c0,0,0-0.1,0.1-0.1l0,0c0.1-0.2,0.3-0.5,0.4-0.7l0,0c0,0,0-0.1,0.1-0.1l0,0c0,0,0-0.1,0.1-0.1l0,0v-0.1
		l0,0v-0.1l0,0c0,0,0,0,0-0.1l0,0l0,0c0,0,0,0,0-0.1l0,0c0.2-0.3,0.3-0.6,0.5-0.9c2.2-3.9,0.8-8.7-3.1-10.9
		C381.4,302.5,380.1,302.1,378.9,302.1L378.9,302.1z M394.6,264.2c-3.6-0.1-6.9,2.2-7.9,5.8c-0.3,1.1-0.7,2.3-1,3.4
		c-1.3,4.2,1.1,8.7,5.3,10c0.7,0.2,1.4,0.3,2.1,0.3c3.5,0.1,6.8-2.1,7.9-5.6c0.2-0.6,0.4-1.2,0.5-1.8l0,0v-0.1l0,0l0,0v-0.1l0,0V276
		l0,0v-0.1l0,0v-0.1l0,0v-0.1l0,0c0-0.1,0-0.2,0.1-0.2l0,0v-0.1l0,0c0-0.1,0.1-0.2,0.1-0.4l0,0c0-0.2,0.1-0.3,0.1-0.5l0,0
		c1.2-4.3-1.3-8.7-5.5-9.9C395.9,264.3,395.3,264.2,394.6,264.2L394.6,264.2z M401.1,223.6c-4.4-0.1-8.1,3.3-8.2,7.7
		c-0.1,1.2-0.1,2.4-0.2,3.6c-0.3,4.4,3.1,8.2,7.5,8.5c0.1,0,0.2,0,0.3,0c4.3,0.1,8-3.2,8.2-7.5c0-0.3,0-0.6,0.1-0.8l0,0V235l0,0
		v-0.1l0,0v-0.1l0,0c0,0,0,0,0-0.1v-0.1l0,0c0-0.6,0.1-1.1,0.1-1.7l0,0v-0.1l0,0c0,0,0,0,0-0.1v-0.1l0,0v-0.1l0,0v-0.1l0,0
		c0-0.1,0-0.2,0-0.2C409.1,227.5,405.6,223.8,401.1,223.6C401.2,223.6,401.2,223.6,401.1,223.6L401.1,223.6z M398.1,182.6
		c-0.6,0-1.2,0-1.8,0.1c-4.3,0.8-7.2,5-6.3,9.4c0.2,1.2,0.4,2.3,0.6,3.5c0.7,3.8,3.9,6.5,7.6,6.7c0.5,0,1.1,0,1.6-0.1
		c4.3-0.7,7.3-4.9,6.5-9.2c-0.1-0.6-0.2-1.2-0.3-1.7l0,0v-0.1l0,0v-0.1l0,0c0,0,0,0,0-0.1v-0.1l0,0v-0.1l0,0v-0.1l0,0v-0.1l0,0
		c-0.1-0.4-0.2-0.9-0.2-1.3C405,185.3,401.8,182.7,398.1,182.6L398.1,182.6z M385.7,143.4c-1.2,0-2.4,0.2-3.6,0.7
		c-4,1.8-5.8,6.6-4,10.6c0.5,1.1,1,2.2,1.4,3.3c1.3,3,4.1,4.8,7.1,4.8c1.1,0,2.3-0.2,3.4-0.6c4.1-1.7,5.9-6.4,4.2-10.5
		c-0.5-1.2-1-2.4-1.6-3.6C391.4,145.3,388.6,143.5,385.7,143.4L385.7,143.4z M364.4,108.3c-1.8-0.1-3.6,0.5-5.2,1.7
		c-3.5,2.7-4.1,7.7-1.4,11.2c0.7,0.9,1.5,1.9,2.2,2.8c1.5,2,3.8,3.2,6.2,3.2c1.7,0.1,3.5-0.5,5-1.6c3.5-2.6,4.3-7.6,1.7-11.2
		c-0.2-0.2-0.4-0.5-0.5-0.7l0,0c0,0,0,0-0.1-0.1l0,0l0,0c0,0,0,0,0-0.1l0,0c0,0,0-0.1-0.1-0.1l0,0c0,0,0-0.1-0.1-0.1l0,0
		c0,0,0-0.1-0.1-0.1l0,0c0,0,0-0.1-0.1-0.1l0,0c0,0,0-0.1-0.1-0.1l0,0c0,0,0-0.1-0.1-0.1l0,0c0,0,0-0.1-0.1-0.1l0,0
		c0,0,0-0.1-0.1-0.1l0,0c0,0,0-0.1-0.1-0.1l0,0c0,0,0-0.1-0.1-0.1l0,0c0,0,0,0-0.1-0.1l0,0c0,0,0,0,0-0.1l0,0c0,0,0,0,0-0.1l0,0
		c0,0,0,0,0-0.1l0,0l0,0c0,0,0,0,0-0.1l0,0c0,0,0-0.1-0.1-0.1l0,0c0,0,0-0.1-0.1-0.1l0,0c-0.1-0.1-0.2-0.3-0.3-0.4
		C368.9,109.4,366.7,108.3,364.4,108.3L364.4,108.3z M335.6,78.9c-2.4-0.1-4.9,0.9-6.5,3c-2.8,3.4-2.2,8.5,1.2,11.2
		c0.9,0.7,1.9,1.5,2.8,2.3c1.4,1.2,3.2,1.8,4.9,1.9c2.4,0.1,4.7-0.9,6.4-2.8c2.8-3.4,2.4-8.4-1-11.3l0,0l0,0l0,0c0,0,0,0-0.1-0.1
		l0,0c0,0,0,0-0.1-0.1l0,0c0,0,0,0-0.1-0.1l0,0c0,0,0,0-0.1,0l0,0c0,0,0,0-0.1-0.1l0,0c0,0,0,0-0.1-0.1l0,0c0,0,0,0-0.1,0l0,0l0,0
		l0,0l0,0l0,0c0,0,0,0-0.1-0.1l0,0l0,0c0,0,0,0-0.1,0l0,0c0,0,0,0-0.1-0.1l0,0c0,0-0.1,0-0.1-0.1l0,0l0,0l0,0c0,0-0.1,0-0.1-0.1l0,0
		c0,0-0.1,0-0.1-0.1l0,0l-0.1-0.1l0,0c-0.1,0-0.1-0.1-0.2-0.1l0,0l-0.1-0.1l0,0l-0.1-0.1l0,0c-0.1,0-0.1-0.1-0.2-0.1l0,0l-0.1-0.1
		l0,0c0,0-0.1,0-0.1-0.1l0,0c0,0-0.1,0-0.1-0.1l0,0l0,0c0,0,0,0-0.1,0l0,0l0,0l0,0c0,0,0,0-0.1,0l0,0c0,0,0,0-0.1-0.1l0,0
		C339,79.6,337.3,79,335.6,78.9L335.6,78.9z M300.8,57c-3.1-0.1-6.1,1.6-7.5,4.6c-1.9,4-0.2,8.8,3.8,10.7c1.1,0.5,2.2,1,3.2,1.6
		c1.1,0.5,2.2,0.8,3.3,0.8c3,0.1,6-1.5,7.4-4.4c2-3.9,0.4-8.8-3.6-10.7c-1.2-0.6-2.3-1.2-3.5-1.7C303,57.3,301.9,57.1,300.8,57
		L300.8,57z M261.9,43.9c-3.8-0.1-7.3,2.5-8.1,6.3c-0.9,4.3,1.8,8.6,6.2,9.5c1.2,0.2,2.3,0.5,3.5,0.8c0.5,0.1,1.1,0.2,1.6,0.2
		c3.7,0.1,7.2-2.4,8-6.2c1-4.3-1.7-8.6-6-9.6c-0.2,0-0.4-0.1-0.6-0.1l0,0c-0.1,0-0.1,0-0.2,0l0,0h-0.1l0,0c0,0,0,0-0.1,0
		c0,0,0,0-0.1,0l0,0h-0.1l0,0h-0.1l0,0h-0.1l0,0h-0.1l0,0h-0.1l0,0h-0.1l0,0h-0.1l0,0h-0.1l0,0c-0.1,0-0.2,0-0.2-0.1l0,0h-0.1l0,0
		c-0.1,0-0.2,0-0.2-0.1l0,0h-0.1l0,0h-0.1l0,0h-0.1l0,0h-0.1l0,0h-0.1l0,0c0,0,0,0-0.1,0c0,0,0,0-0.1,0c0,0,0,0-0.1,0c0,0,0,0-0.1,0
		l0,0h-0.1l0,0c-0.1,0-0.1,0-0.2,0C262.8,43.9,262.4,43.9,261.9,43.9L261.9,43.9z"/>-->
	<path id="intermediate" class="st0" stunner:shape-state="fill" d="M224,408c-101.5,0-184-82.5-184-184S122.5,40,224,40s184,82.5,184,184S325.5,408,224,408z
		 M224,56c-92.6,0-168,75.4-168,168s75.4,168,168,168s168-75.4,168-168S316.6,56,224,56z M224,16c28.1,0,55.3,5.5,81,16.3
		c24.8,10.5,47,25.5,66.1,44.6s34.1,41.4,44.6,66.1c10.8,25.6,16.3,52.9,16.3,81s-5.5,55.3-16.3,81c-10.5,24.8-25.5,47-44.6,66.1
		s-41.4,34.1-66.1,44.6c-25.6,10.8-52.9,16.3-81,16.3s-55.3-5.5-81-16.3c-24.8-10.5-47-25.5-66.1-44.6S42.8,329.7,32.3,305
		C21.5,279.3,16,252.1,16,224s5.5-55.3,16.3-81c10.5-24.8,25.5-47,44.6-66.1s41.4-34.1,66.1-44.6C168.7,21.5,195.9,16,224,16 M224,0
		C100.3,0,0,100.3,0,224s100.3,224,224,224s224-100.3,224-224S347.7,0,224,0L224,0z"/>
	<!-- Unused now due to performance implications. Let's keep it here to include it once performance issues fixed.
	<path id="start-noninterrupting" class="st0" stunner:shape-state="fill" d="M225,0.1h-0.1l0,0h-0.1l0,0h-0.1l0,0h-0.1l0,0c0,0,0,0-0.1,0c0,0,0,0-0.1,0h-0.1
		c0,0,0,0-0.1,0c0,0,0,0-0.1,0c0,0,0,0-0.1,0l0,0h-0.1l0,0c0,0,0,0-0.1,0l0,0c-0.1,0-0.2,0-0.2,0l0,0c-0.6,0-1.3,0-1.9,0l0,0h-0.1
		l0,0c0,0,0,0-0.1,0h-0.1l0,0h-0.1l0,0c-0.1,0-0.2,0-0.2,0c-4.4,0.1-7.9,3.7-7.9,8.1c0.1,4.4,3.6,7.9,8,7.9h0.1c1.2,0,2.5,0,3.7,0
		c4.4,0,8-3.6,8-8S229.4,0.1,225,0.1L225,0.1L225,0.1z M182.8,4.2c-0.5,0-1,0-1.5,0.1c-1.3,0.3-2.6,0.5-3.9,0.8l0,0l0,0
		c-4.3,0.9-7.1,5.2-6.1,9.5c0.8,3.7,4.1,6.3,7.8,6.3c0.6,0,1.1-0.1,1.7-0.2c1.2-0.3,2.4-0.5,3.6-0.8c4.3-0.9,7.2-5.1,6.3-9.4
		C189.9,6.8,186.6,4.2,182.8,4.2L182.8,4.2z M142.3,16.5c-1,0-2.1,0.2-3.1,0.6c-0.3,0.1-0.6,0.3-0.9,0.4l0,0h-0.1l0,0c0,0,0,0-0.1,0
		l0,0c0,0,0,0-0.1,0h-0.1l0,0c-0.8,0.3-1.6,0.7-2.4,1c-4,1.8-5.9,6.5-4.1,10.5c1.3,3,4.3,4.8,7.3,4.8c1.1,0,2.2-0.2,3.2-0.7
		c1.1-0.5,2.3-1,3.4-1.5c4.1-1.7,6-6.4,4.3-10.5C148.4,18.3,145.4,16.5,142.3,16.5L142.3,16.5z M105,36.5c-1.5,0-3.1,0.4-4.4,1.3
		c-0.5,0.3-1,0.7-1.5,1l0,0c0,0,0,0-0.1,0c0,0,0,0-0.1,0l0,0c0,0,0,0-0.1,0l0,0c0,0-0.1,0-0.1,0.1l0,0c0,0-0.1,0-0.1,0.1l0,0
		c-0.4,0.3-0.9,0.6-1.3,0.9c-3.6,2.5-4.5,7.5-2,11.1c1.6,2.2,4,3.4,6.6,3.4c1.6,0,3.2-0.5,4.6-1.4c1-0.7,2-1.4,3.1-2.1
		c3.7-2.5,4.7-7.4,2.2-11.1C110.1,37.7,107.5,36.5,105,36.5L105,36.5z M72.2,63.4c-2,0-4.1,0.8-5.7,2.3c-0.1,0.1-0.1,0.1-0.2,0.2
		l0,0l0,0c-0.9,0.9-1.7,1.8-2.6,2.7c-3,3.2-3,8.2,0.2,11.3c1.6,1.5,3.6,2.2,5.6,2.2c2.1,0,4.2-0.8,5.8-2.4c0.9-0.9,1.7-1.8,2.6-2.7
		c3.1-3.1,3.1-8.2,0-11.3C76.3,64.2,74.3,63.4,72.2,63.4L72.2,63.4z M45.4,96.1c-2.6,0-5.1,1.2-6.6,3.5c-0.1,0.1-0.1,0.2-0.2,0.3
		l0,0c0,0,0,0,0,0.1l0,0c0,0,0,0.1-0.1,0.1l0,0l0,0l0,0c0,0,0,0,0,0.1c0,0,0,0,0,0.1l0,0c0,0,0,0,0,0.1l0,0c0,0,0,0.1-0.1,0.1l0,0
		c0,0,0,0.1-0.1,0.1l0,0c0,0,0,0.1-0.1,0.1l0,0c0,0,0,0.1-0.1,0.1l0,0c0,0,0,0.1-0.1,0.1l0,0c0,0,0,0.1-0.1,0.1l0,0
		c0,0,0,0.1-0.1,0.1l0,0c0,0,0,0.1-0.1,0.1l0,0c0,0,0,0.1-0.1,0.1l0,0c0,0,0,0.1-0.1,0.1l0,0c0,0,0,0.1-0.1,0.1l0,0
		c0,0,0,0.1-0.1,0.1l0,0c0,0,0,0.1-0.1,0.1l0,0c0,0,0,0,0,0.1l0,0c0,0,0,0,0,0.1c0,0,0,0,0,0.1l0,0c0,0,0,0,0,0.1l0,0
		c-0.2,0.3-0.3,0.5-0.5,0.8c-2.4,3.7-1.3,8.7,2.4,11c1.3,0.9,2.8,1.3,4.3,1.3c2.6,0,5.2-1.3,6.7-3.7c0.7-1,1.4-2.1,2-3.1
		c2.5-3.7,1.5-8.6-2.2-11.1C48.4,96.6,46.9,96.1,45.4,96.1L45.4,96.1z M25.4,133.5c-3.1,0-6.1,1.9-7.4,4.9c-0.1,0.2-0.2,0.4-0.2,0.6
		l0,0c-0.4,1-0.8,2.1-1.3,3.1c-1.6,4.1,0.4,8.8,4.5,10.4c1,0.4,2,0.6,2.9,0.6c3.2,0,6.2-1.9,7.4-5.1c0.5-1.1,0.9-2.3,1.4-3.4
		c1.7-4.1-0.2-8.8-4.3-10.5C27.4,133.7,26.4,133.5,25.4,133.5L25.4,133.5z M13.1,174c-3.7,0-7.1,2.6-7.8,6.5
		c-0.2,1.2-0.5,2.5-0.7,3.7l0,0v0.1l0,0v0.1l0,0c-0.8,4.3,2.1,8.5,6.5,9.3c0.5,0.1,1,0.1,1.4,0.1c3.8,0,7.2-2.7,7.9-6.6
		c0.2-1.2,0.4-2.4,0.7-3.6c0.9-4.3-2-8.5-6.3-9.4C14.1,174,13.6,174,13.1,174L13.1,174z M9,216.2L9,216.2c-4.4,0-8,3.6-8,8
		c0,0.8,0,1.6,0,2.3l0,0c0,0,0,0,0,0.1l0,0v0.1l0,0c0,0,0,0,0,0.1l0,0c0,0,0,0,0,0.1c0,0,0,0,0,0.1v0.1l0,0c0,0,0,0,0,0.1l0,0
		c0,0.1,0,0.2,0,0.3l0,0c0,0.2,0,0.5,0,0.7c0.1,4.4,3.7,7.8,8,7.8h0.1c4.4-0.1,7.9-3.7,7.9-8.1c0-1.2,0-2.5,0-3.7
		C17,219.8,13.4,216.2,9,216.2L9,216.2z M13.1,258.3c-0.5,0-1,0.1-1.6,0.2c-4.3,0.9-7.1,5.1-6.3,9.4l0,0v0.1l0,0v0.1l0,0v0.1l0,0
		v0.1l0,0c0,0.1,0,0.2,0,0.2l0,0c0,0.1,0,0.2,0,0.2l0,0c0,0.2,0.1,0.4,0.1,0.6l0,0c0,0.1,0,0.2,0,0.2l0,0c0.1,0.7,0.3,1.4,0.4,2.1
		c0.8,3.7,4.1,6.3,7.8,6.3c0.6,0,1.1-0.1,1.7-0.2c4.3-0.9,7.1-5.2,6.1-9.5c-0.3-1.2-0.5-2.4-0.8-3.6C20.2,261,16.9,258.3,13.1,258.3
		L13.1,258.3z M25.4,298.9c-1,0-2.1,0.2-3.1,0.6c-4.1,1.7-6,6.4-4.3,10.5c0.5,1.2,1,2.5,1.6,3.7c1.3,3,4.3,4.8,7.3,4.8
		c1.1,0,2.2-0.2,3.2-0.7c4-1.8,5.9-6.5,4.1-10.5c-0.5-1.1-1-2.3-1.5-3.4C31.6,300.7,28.6,298.9,25.4,298.9L25.4,298.9z M45.5,336.2
		c-1.5,0-3.1,0.4-4.4,1.4c-3.7,2.5-4.6,7.4-2.2,11.1c0.8,1.1,1.5,2.2,2.3,3.3c1.6,2.2,4,3.4,6.6,3.4c1.6,0,3.2-0.5,4.6-1.4
		c3.6-2.5,4.5-7.5,2-11.1c-0.7-1-1.4-2-2.1-3.1C50.6,337.4,48.1,336.2,45.5,336.2L45.5,336.2z M72.4,368.9c-2,0-4.1,0.8-5.7,2.3
		c-3.1,3.1-3.1,8.2,0,11.3c0.1,0.1,0.2,0.2,0.2,0.2l0,0l0,0c0.8,0.8,1.7,1.7,2.6,2.5c1.5,1.5,3.5,2.2,5.5,2.2c2.1,0,4.2-0.8,5.8-2.4
		c3.1-3.2,3-8.2-0.2-11.3c-0.9-0.9-1.8-1.7-2.7-2.6C76.5,369.7,74.5,368.9,72.4,368.9L72.4,368.9z M105.2,395.8
		c-2.6,0-5.1,1.2-6.7,3.6c-2.5,3.7-1.5,8.6,2.2,11.1l0,0c0.1,0,0.1,0.1,0.2,0.1l0,0c0.4,0.3,0.8,0.5,1.1,0.8l0,0c0,0,0.1,0,0.1,0.1
		l0,0c0,0,0,0,0.1,0l0,0c0,0,0,0,0.1,0c0,0,0,0,0.1,0l0,0c0,0,0,0,0.1,0l0,0c0.5,0.3,1,0.7,1.6,1c1.3,0.9,2.8,1.3,4.3,1.3
		c2.6,0,5.2-1.3,6.7-3.7c2.4-3.7,1.3-8.7-2.4-11.1c-1-0.7-2.1-1.4-3.1-2C108.2,396.2,106.7,395.8,105.2,395.8L105.2,395.8z
		 M142.5,415.7c-3.1,0-6.1,1.9-7.4,4.9c-1.7,4.1,0.2,8.7,4.3,10.4c1.2,0.5,2.5,1,3.7,1.5c1,0.4,1.9,0.5,2.9,0.5
		c3.2,0,6.2-1.9,7.4-5.1c1.6-4.1-0.4-8.8-4.5-10.4c-1.1-0.5-2.3-0.9-3.4-1.4C144.6,415.9,143.5,415.7,142.5,415.7L142.5,415.7z
		 M183,428c-3.7,0-7.1,2.6-7.8,6.5c-0.9,4.3,2,8.5,6.3,9.4c0.7,0.1,1.4,0.3,2.1,0.4l0,0c0,0,0,0,0.1,0c0.6,0.1,1.2,0.2,1.8,0.3
		c0.5,0.1,0.9,0.1,1.4,0.1c3.8,0,7.2-2.7,7.9-6.6c0.8-4.3-2.1-8.5-6.5-9.3c-1.2-0.2-2.4-0.4-3.6-0.7C184.1,428,183.6,428,183,428
		L183,428z M229.1,432c-0.1,0-0.1,0-0.2,0c-1.2,0-2.5,0-3.7,0c-4.4,0-8,3.6-8,8s3.6,8,8,8c0.7,0,1.5,0,2.2,0l0,0h0.1l0,0h0.1l0,0
		c0,0,0,0,0.1,0l0,0c0,0,0,0,0.1,0c0,0,0,0,0.1,0h0.1c0,0,0,0,0.1,0c0,0,0,0,0.1,0l0,0c0.1,0,0.1,0,0.2,0l0,0h0.1l0,0
		c0.3,0,0.5,0,0.8,0c4.4-0.1,7.9-3.7,7.8-8.1C237,435.5,233.4,432,229.1,432L229.1,432z M271.2,427.1c-0.6,0-1.1,0.1-1.7,0.2
		c-1.2,0.3-2.4,0.5-3.6,0.8c-4.3,0.9-7.1,5.1-6.3,9.4c0.8,3.8,4.1,6.4,7.8,6.4c0.5,0,1-0.1,1.6-0.2c1.3-0.3,2.6-0.5,3.9-0.8
		c4.3-0.9,7.1-5.2,6.1-9.5C278.2,429.7,274.9,427.1,271.2,427.1L271.2,427.1z M311.5,414c-1.1,0-2.2,0.2-3.2,0.7
		c-1.1,0.5-2.3,1-3.4,1.5c-4.1,1.7-6,6.4-4.3,10.5c1.3,3.1,4.3,4.9,7.4,4.9c1,0,2.1-0.2,3.1-0.6c0.6-0.3,1.2-0.5,1.8-0.8l0,0h0.1
		l0,0h0.1l0,0h0.1l0,0h0.1l0,0c0,0,0,0,0.1,0l0,0h0.1l0,0c0,0,0,0,0.1,0l0,0c0,0,0,0,0.1,0c0,0,0,0,0.1,0c0,0,0,0,0.1,0
		c0,0,0,0,0.1,0c0,0,0,0,0.1,0c0,0,0,0,0.1,0c0,0,0,0,0.1,0l0,0l0,0h0.1c0,0,0,0,0.1,0l0,0c0,0,0,0,0.1,0c0,0,0,0,0.1,0
		c0,0,0,0,0.1,0c0,0,0,0,0.1,0l0,0l0,0c4-1.8,5.9-6.5,4.1-10.5C317.5,415.8,314.5,414,311.5,414L311.5,414z M348.4,393.3
		c-1.6,0-3.2,0.5-4.6,1.4c-1,0.7-2,1.4-3.1,2.1c-3.7,2.5-4.6,7.4-2.2,11.1c1.5,2.3,4.1,3.5,6.6,3.5c1.5,0,3.1-0.4,4.4-1.4
		c0.2-0.1,0.3-0.2,0.5-0.3l0,0c0,0,0,0,0.1,0l0,0c0,0,0.1,0,0.1-0.1l0,0l0,0c0,0,0,0,0.1,0c0,0,0,0,0.1,0c0,0,0,0,0.1,0l0,0
		c0,0,0.1,0,0.1-0.1l0,0c0,0,0.1,0,0.1-0.1l0,0c0.1,0,0.1-0.1,0.2-0.1l0,0c0.7-0.4,1.3-0.9,2-1.3c3.6-2.5,4.5-7.5,2-11.1
		C353.4,394.5,350.9,393.3,348.4,393.3L348.4,393.3z M380.6,365.8c-2.1,0-4.2,0.8-5.8,2.5c-0.9,0.9-1.7,1.8-2.6,2.7
		c-3.1,3.1-3.1,8.2,0,11.3c1.6,1.6,3.6,2.3,5.6,2.3s4.1-0.8,5.6-2.3c0.3-0.3,0.5-0.5,0.8-0.8l0,0l0.1-0.1l0,0l0,0c0,0,0,0,0.1-0.1
		l0,0c0,0,0,0,0.1-0.1l0,0c0.1-0.1,0.1-0.1,0.2-0.2l0,0c0.5-0.5,1-1.1,1.6-1.6c3.1-3.2,3-8.2-0.2-11.3
		C384.6,366.6,382.6,365.8,380.6,365.8L380.6,365.8z M406.9,332.6c-2.6,0-5.2,1.3-6.7,3.7c-0.7,1-1.4,2.1-2,3.1
		c-2.5,3.7-1.5,8.6,2.2,11.1c1.4,0.9,2.9,1.3,4.4,1.3c2.6,0,5.1-1.2,6.7-3.6c0.3-0.4,0.6-0.8,0.8-1.2l0,0c0.4-0.7,0.9-1.3,1.3-2l0,0
		c0,0,0-0.1,0.1-0.1l0,0c2.4-3.7,1.3-8.7-2.4-11.1C409.9,333,408.4,332.6,406.9,332.6L406.9,332.6z M426.2,294.9
		c-3.2,0-6.2,1.9-7.4,5.1c-0.4,1.1-0.9,2.3-1.4,3.4c-1.7,4.1,0.3,8.8,4.3,10.4c1,0.4,2,0.6,3.1,0.6c3.1,0,6.1-1.9,7.4-4.9
		c0.2-0.4,0.3-0.8,0.5-1.3l0,0v-0.1l0,0V308l0,0l0,0c0,0,0,0,0-0.1l0,0c0,0,0-0.1,0.1-0.1l0,0c0.2-0.5,0.4-1,0.6-1.5l0,0
		c0,0,0,0,0-0.1c0,0,0,0,0-0.1l0,0V306l0,0v-0.1c1.6-4.1-0.4-8.8-4.5-10.4C428.1,295,427.1,294.9,426.2,294.9L426.2,294.9z
		 M437.6,254.1c-3.8,0-7.2,2.7-7.9,6.6c-0.2,1.2-0.4,2.4-0.7,3.6c-0.9,4.3,2,8.5,6.3,9.4c0.5,0.1,1,0.2,1.6,0.2
		c3.7,0,7.1-2.6,7.8-6.5l0,0l0,0v-0.1c0,0,0,0,0-0.1c0,0,0,0,0-0.1c0,0,0,0,0-0.1c0,0,0,0,0-0.1c0,0,0,0,0-0.1c0,0,0,0,0-0.1l0,0
		c0,0,0,0,0-0.1c0,0,0,0,0-0.1v-0.1l0,0c0,0,0,0,0-0.1l0,0v-0.1l0,0c0,0,0,0,0-0.1l0,0c0-0.1,0-0.2,0-0.2l0,0c0-0.1,0-0.2,0-0.2l0,0
		c0-0.2,0.1-0.4,0.1-0.6l0,0c0-0.1,0-0.2,0-0.2l0,0c0,0,0,0,0-0.1c0,0,0,0,0-0.1c0,0,0,0,0-0.1v-0.1l0,0c0.1-0.4,0.1-0.7,0.2-1.1
		c0.8-4.4-2.1-8.5-6.5-9.3C438.6,254.1,438.1,254.1,437.6,254.1L437.6,254.1z M441,211.8c-0.1,0-0.1,0-0.2,0
		c-4.4,0.1-7.9,3.7-7.8,8.2c0,1.2,0,2.5,0,3.7c0,4.4,3.6,8,8,8l0,0c4.4,0,8-3.6,8-8c0-0.3,0-0.6,0-0.9l0,0c0-0.1,0-0.2,0-0.2l0,0
		v-0.1l0,0v-0.1c0,0,0,0,0-0.1l0,0c0,0,0,0,0-0.1l0,0c0-0.1,0-0.2,0-0.3l0,0c0-0.5,0-1,0-1.5l0,0v-0.1l0,0c0,0,0,0,0-0.1v-0.1l0,0
		V220l0,0c0-0.1,0-0.2,0-0.2C448.9,215.3,445.3,211.8,441,211.8L441,211.8z M436,169.8c-0.6,0-1.1,0.1-1.7,0.2
		c-4.3,0.9-7.1,5.2-6.1,9.5c0.3,1.2,0.5,2.4,0.8,3.6c0.8,3.8,4.1,6.4,7.8,6.4c0.5,0,1-0.1,1.6-0.2c4.3-0.9,7.1-5.1,6.3-9.4l0,0v-0.1
		l0,0v-0.1l0,0c0-0.1,0-0.2,0-0.2l0,0c-0.2-1.1-0.5-2.3-0.7-3.4C443,172.3,439.7,169.8,436,169.8L436,169.8z M422.9,129.5
		c-1.1,0-2.2,0.2-3.2,0.7c-4,1.8-5.9,6.5-4.1,10.5c0.5,1.1,1,2.3,1.5,3.4c1.3,3.1,4.3,4.9,7.4,4.9c1,0,2.1-0.2,3.1-0.6
		c4.1-1.7,6-6.4,4.3-10.5l0,0c0,0,0,0,0-0.1l0,0v-0.1l0,0c0,0,0,0,0-0.1l0,0v-0.1l0,0c0,0,0,0,0-0.1l0,0v-0.1l0,0c0,0,0,0,0-0.1l0,0
		c0,0,0,0,0-0.1c0,0,0,0,0-0.1c0,0,0,0,0-0.1l0,0c0,0,0,0,0-0.1c0,0,0,0,0-0.1c0,0,0,0,0-0.1l0,0c0,0,0,0,0-0.1v-0.1c0,0,0,0,0-0.1
		c0,0,0,0,0-0.1l0,0v-0.1l0,0c0,0,0,0,0-0.1l0,0c0-0.1-0.1-0.1-0.1-0.2l0,0c0-0.1-0.1-0.1-0.1-0.2l0,0c0,0,0,0,0-0.1l0,0
		c0-0.1,0-0.1-0.1-0.1l0,0c-0.2-0.4-0.3-0.8-0.5-1.2C428.9,131.3,426,129.5,422.9,129.5L422.9,129.5z M402.2,92.6
		c-1.6,0-3.2,0.5-4.6,1.4c-3.6,2.5-4.5,7.5-2,11.1c0.7,1,1.4,2,2.1,3.1c1.5,2.3,4.1,3.5,6.6,3.5c1.5,0,3.1-0.4,4.5-1.4
		c3.7-2.5,4.6-7.4,2.2-11.1l0,0c0,0,0,0,0-0.1c0,0,0,0,0-0.1l0,0c-0.5-0.8-1.1-1.6-1.6-2.4l0,0c0,0,0-0.1-0.1-0.1c0,0,0,0,0-0.1l0,0
		c0,0,0,0,0-0.1l0,0c0,0,0-0.1-0.1-0.1l0,0c-0.1-0.1-0.2-0.3-0.3-0.4C407.2,93.7,404.7,92.6,402.2,92.6L402.2,92.6z M374.7,60.4
		c-2.1,0-4.2,0.8-5.8,2.5c-3.1,3.2-3,8.2,0.2,11.3c0.9,0.9,1.8,1.7,2.7,2.6c1.6,1.6,3.6,2.3,5.6,2.3c2.1,0,4.1-0.8,5.7-2.4
		c3.1-3.1,3.1-8.2,0-11.3c-0.5-0.5-0.9-0.9-1.4-1.4l0,0c0,0,0,0-0.1-0.1l0,0l0,0c0,0,0,0-0.1-0.1l0,0c-0.4-0.4-0.8-0.8-1.3-1.2
		C378.7,61.1,376.7,60.4,374.7,60.4L374.7,60.4z M341.4,34.1c-2.6,0-5.2,1.3-6.7,3.7c-2.4,3.7-1.3,8.7,2.4,11.1c1,0.7,2.1,1.3,3.1,2
		c1.4,0.9,2.9,1.3,4.4,1.3c2.6,0,5.1-1.3,6.7-3.6c2.5-3.7,1.5-8.6-2.2-11.1c-0.9-0.6-1.7-1.1-2.6-1.7l0,0c0,0-0.1,0-0.1-0.1l0,0
		c0,0-0.1,0-0.1-0.1l0,0l0,0c-0.1,0-0.1-0.1-0.2-0.1l0,0c-0.1-0.1-0.2-0.1-0.3-0.2C344.4,34.5,342.9,34.1,341.4,34.1L341.4,34.1z
		 M303.7,14.8c-3.2,0-6.2,1.9-7.5,5.1c-1.6,4.1,0.4,8.8,4.5,10.4c1.1,0.4,2.3,0.9,3.4,1.4c1,0.4,2,0.6,3,0.6c3.1,0,6.1-1.9,7.4-5
		c1.7-4.1-0.3-8.8-4.3-10.4c-0.7-0.3-1.5-0.6-2.2-0.9l0,0h-0.1l0,0h-0.1l0,0h-0.1l0,0h-0.1l0,0c0,0,0,0-0.1,0c0,0,0,0-0.1,0l0,0
		c-0.1,0-0.1,0-0.2-0.1l0,0c-0.3-0.1-0.5-0.2-0.8-0.3C305.6,15,304.7,14.8,303.7,14.8L303.7,14.8z M262.9,3.4
		c-3.8,0-7.2,2.7-7.9,6.6c-0.8,4.4,2.1,8.5,6.5,9.3c1.2,0.2,2.4,0.4,3.6,0.7c0.5,0.1,1,0.2,1.5,0.2c3.7,0,7.1-2.6,7.8-6.5
		c0.8-4.3-2-8.5-6.3-9.4c-1.3-0.3-2.6-0.5-4-0.7C263.8,3.4,263.4,3.4,262.9,3.4L262.9,3.4z"/>-->
	<path id="start" stunner:shape-state="fill" class="st0" d="M224,0C100.3,0,0,100.3,0,224s100.3,224,224,224s224-100.3,224-224S347.7,0,224,0z M224,432
		c-114.9,0-208-93.1-208-208S109.1,16,224,16s208,93.1,208,208S338.9,432,224,432z"/>
</g>
<g id="event-subtypes">
	<path id="wait" class="st0" d="M240.2,176.7v56c0,1.2-0.4,2.1-1.1,2.9c-0.7,0.8-1.7,1.1-2.9,1.1h-40c-1.2,0-2.1-0.4-2.9-1.1
		c-0.8-0.7-1.1-1.7-1.1-2.9v-8c0-1.2,0.4-2.1,1.1-2.9c0.7-0.8,1.7-1.1,2.9-1.1h28v-44c0-1.2,0.4-2.1,1.1-2.9
		c0.7-0.8,1.7-1.1,2.9-1.1h8c1.1,0,2.1,0.4,2.9,1.1C239.9,174.5,240.2,175.5,240.2,176.7z M300.2,220.7c0-13.8-3.4-26.5-10.1-38.1
		c-6.8-11.6-16-20.9-27.6-27.7c-11.7-6.8-24.4-10.2-38.2-10.2s-26.5,3.4-38.1,10.2c-11.6,6.8-20.8,16-27.6,27.6
		s-10.2,24.4-10.2,38.2s3.4,26.5,10.1,38.1c6.8,11.6,16.1,20.9,27.7,27.7c11.6,6.8,24.3,10.2,38.1,10.2s26.5-3.4,38.1-10.2
		c11.6-6.8,20.9-16,27.6-27.6C296.8,247.2,300.2,234.5,300.2,220.7z M320.2,220.7c0,17.4-4.3,33.5-12.9,48.2
		c-8.6,14.7-20.2,26.4-34.9,34.9c-14.7,8.6-30.8,12.9-48.2,12.9s-33.5-4.3-48.2-12.9c-14.7-8.6-26.3-20.2-34.9-34.9
		c-8.6-14.7-12.8-30.8-12.8-48.2s4.3-33.5,12.9-48.2c8.6-14.7,20.2-26.4,34.9-35c14.7-8.6,30.8-12.8,48.2-12.8s33.5,4.3,48.2,12.9
		c14.7,8.6,26.4,20.3,34.9,34.9C316,187.2,320.2,203.3,320.2,220.7z"/>
	<path id="signal-catching" class="st0" d="M224.6,124.8l95.9,175.9H128.8L224.6,124.8 M224.6,108.7c-2.9,0-5.6,0.8-8.1,2.2
		s-4.4,3.6-5.9,6.1l-95.9,176c-2.9,5.2-2.8,10.5,0.2,15.8c1.4,2.4,3.3,4.4,5.8,5.8c2.4,1.4,5.1,2.1,8,2.1h191.8
		c2.9,0,5.4-0.7,7.9-2.1c2.5-1.4,4.4-3.3,5.8-5.8c3.1-5.2,3.1-10.5,0.2-15.8l-95.9-176c-1.4-2.6-3.3-4.6-5.8-6.1
		C230.2,109.4,227.5,108.7,224.6,108.7L224.6,108.7z"/>
	<path id="signal-throwing" class="st0" d="M224.6,108.7c-2.9,0-5.6,0.8-8.1,2.2s-4.4,3.6-5.9,6.1l-95.9,176
		c-2.9,5.2-2.8,10.5,0.2,15.8c1.4,2.4,3.3,4.4,5.8,5.8c2.4,1.4,5.1,2.1,8,2.1h191.8c2.9,0,5.4-0.7,7.9-2.1c2.5-1.4,4.4-3.3,5.8-5.8
		c3.1-5.2,3.1-10.5,0.2-15.8l-95.9-176c-1.4-2.6-3.3-4.6-5.8-6.1C230.2,109.4,227.5,108.7,224.6,108.7L224.6,108.7z"/>
	<path id="parallel-multiple-catching" class="st0" d="M232.2,140.7v64h64v16h-64v64h-16v-64h-64v-16h64v-64H232.2 M236.2,124.7h-24
		c-3.4,0-6.2,1.2-8.5,3.5c-2.4,2.4-3.5,5.1-3.5,8.5v52h-52c-3.4,0-6.2,1.2-8.5,3.5c-2.4,2.3-3.5,5.2-3.5,8.5v24
		c0,3.3,1.1,6.2,3.5,8.5c2.3,2.3,5.1,3.5,8.5,3.5h52v52c0,3.3,1.1,6.1,3.5,8.5c2.3,2.3,5.1,3.5,8.5,3.5h24c3.3,0,6.1-1.2,8.5-3.5
		c2.4-2.4,3.5-5.2,3.5-8.5v-52h52c3.4,0,6.1-1.2,8.5-3.5s3.5-5.2,3.5-8.5v-24c0-3.3-1.1-6.2-3.5-8.5s-5.1-3.5-8.5-3.5h-52v-52
		c0-3.4-1.1-6.1-3.5-8.5C242.4,125.8,239.6,124.7,236.2,124.7L236.2,124.7z"/>
	<path id="parallel-multiple-throwing" class="st0" d="M236.2,124.7h-24c-3.4,0-6.2,1.2-8.5,3.5c-2.4,2.4-3.5,5.1-3.5,8.5v52h-52
		c-3.4,0-6.2,1.2-8.5,3.5c-2.4,2.3-3.5,5.2-3.5,8.5v24c0,3.3,1.1,6.2,3.5,8.5c2.3,2.3,5.1,3.5,8.5,3.5h52v52c0,3.3,1.1,6.1,3.5,8.5
		c2.3,2.3,5.1,3.5,8.5,3.5h24c3.3,0,6.1-1.2,8.5-3.5c2.4-2.4,3.5-5.2,3.5-8.5v-52h52c3.4,0,6.1-1.2,8.5-3.5s3.5-5.2,3.5-8.5v-24
		c0-3.3-1.1-6.2-3.5-8.5s-5.1-3.5-8.5-3.5h-52v-52c0-3.4-1.1-6.1-3.5-8.5C242.4,125.8,239.6,124.7,236.2,124.7L236.2,124.7z"/>
	<path id="multiple-catching" class="st0" d="M224.2,127.3l94.2,68.2l-35.8,105.4H165.8L130,195.5L224.2,127.3 M224.2,109.1
		c-1.6,0-3.1,0.4-4.4,1.4l-104.5,75.6c-2.6,1.9-3.8,5.4-2.7,8.4L152.4,312c1.1,3,3.9,5,7.1,5h129.4c3.2,0,6-2,7.1-5l39.8-117.5
		c1.1-3.1,0-6.5-2.7-8.4l-104.5-75.6C227.3,109.5,225.8,109.1,224.2,109.1L224.2,109.1z"/>
	<path id="multiple-throwing" class="st0" d="M224.2,109.1c-1.6,0-3.1,0.4-4.4,1.4l-104.5,75.6c-2.6,1.9-3.8,5.4-2.7,8.4L152.4,312
		c1.1,3,3.9,5,7.1,5h129.4c3.2,0,6-2,7.1-5l39.8-117.5c1.1-3.1,0-6.5-2.7-8.4l-104.5-75.6C227.3,109.5,225.8,109.1,224.2,109.1
		L224.2,109.1z"/>
	<path id="message-catching" class="st0" d="M320.2,288.7v-96c-2.6,3-5.5,5.8-8.6,8.2c-22.4,17.2-40.1,31.2-53.2,42.2
		c-4.2,3.6-7.7,6.4-10.4,8.4s-6.2,4-10.8,6.1c-4.6,2.1-8.8,3.1-12.8,3.1h-0.2c-4,0-8.2-1-12.8-3.1c-4.6-2.1-8.2-4.1-10.8-6.1
		c-2.7-2-6.1-4.8-10.4-8.4c-13.1-11-30.9-25.1-53.2-42.2c-3.1-2.5-5.9-5.2-8.6-8.2v96c0,1.1,0.4,2,1.2,2.8s1.8,1.2,2.8,1.2h184
		c1.1,0,2-0.4,2.8-1.2C319.9,290.7,320.2,289.8,320.2,288.7z M320.2,152.7c0-1.1-0.4-2-1.2-2.8c-0.8-0.8-1.7-1.2-2.8-1.2l0,0h-184
		c-1.1,0-2,0.4-2.8,1.2c-0.8,0.8-1.2,1.7-1.2,2.8c0,14,6.1,25.8,18.4,35.5c16.1,12.7,32.8,25.9,50.1,39.6c0.5,0.4,1.9,1.7,4.4,3.7
		c2.5,2.1,4.4,3.6,5.8,4.7c1.4,1.1,3.2,2.4,5.6,3.9s4.4,2.7,6.3,3.4c1.9,0.8,3.7,1.1,5.4,1.1h0.2c1.6,0,3.4-0.4,5.4-1.1
		c2-0.7,4-1.9,6.3-3.4s4.2-2.9,5.6-3.9c1.4-1.1,3.4-2.6,5.8-4.7s3.9-3.2,4.4-3.7c17.4-13.8,34-26.9,50.1-39.6
		c4.5-3.6,8.7-8.4,12.6-14.5c3.9-6,5.8-11.5,5.8-16.4v-3.1V152.7z M336.2,152.7v136c0,5.5-1.9,10.2-5.9,14.1
		c-3.9,3.9-8.6,5.9-14.1,5.9h-184c-5.5,0-10.2-2-14.1-5.9c-3.9-3.9-5.9-8.6-5.9-14.1v-136c0-5.5,2-10.2,5.9-14.1
		c3.9-3.9,8.6-5.9,14.1-5.9h184c5.5,0,10.2,1.9,14.1,5.9C334.2,142.6,336.2,147.2,336.2,152.7z"/>
	<path id="message-throwing" class="st0" d="M336.2,189.4v99.3c0,5.5-1.9,10.2-5.9,14.1c-3.9,3.9-8.6,5.9-14.1,5.9h-184
		c-5.5,0-10.2-2-14.1-5.9c-3.9-3.9-5.9-8.6-5.9-14.1v-99.3c3.7,4.1,7.9,7.7,12.6,10.9c30.2,20.5,50.9,34.9,62.1,43.1
		c4.8,3.5,8.6,6.2,11.6,8.2c2.9,1.9,6.9,3.9,11.8,6c4.9,2.1,9.5,3.1,13.8,3.1h0.2c4.2,0,8.8-1,13.8-3.1c4.9-2.1,8.9-4.1,11.8-6
		s6.8-4.7,11.6-8.2c14.1-10.2,34.9-24.6,62.2-43.1C328.5,197.1,332.6,193.4,336.2,189.4z M336.2,152.7c0,6.6-2,12.9-6.1,18.9
		c-4,6-9.1,11.1-15.2,15.4c-31.4,21.8-50.9,35.3-58.5,40.6c-0.8,0.6-2.6,1.8-5.3,3.8s-4.9,3.6-6.8,4.8s-3.9,2.6-6.5,4.1
		s-4.9,2.6-7.2,3.4s-4.4,1.1-6.2,1.1h-0.2c-1.9,0-4-0.4-6.2-1.1s-4.7-1.9-7.2-3.4c-2.6-1.5-4.7-2.9-6.5-4.1s-4.1-2.8-6.8-4.8
		s-4.5-3.2-5.3-3.8c-7.6-5.3-18.5-12.9-32.8-22.8s-22.8-15.8-25.6-17.8c-5.2-3.5-10.1-8.3-14.6-14.4s-6.9-11.8-6.9-17.1
		c0-6.5,1.8-11.9,5.2-16.2c3.4-4.3,8.4-6.5,14.8-6.5h184c5.4,0,10.1,1.9,14.1,5.9C334.2,142.6,336.2,147.2,336.2,152.7z"/>
	<path id="link-catching" class="st0" d="M222.9,147.4L222.9,147.4l81.3,81.3c0,0.1,0,0.1,0,0.1L223.1,310c-0.1,0-0.1,0.1-0.2,0.1
		h-0.1c-0.1,0-0.1-0.1-0.1-0.1l-9.2-9.2l-0.1,0l0.1,0l36.6-36.6l27.3-27.3H144.2v-16h133.1l-27.2-27.3l-36.6-36.8L222.9,147.4
		 M222.8,131.3c-4.3,0-8.1,1.6-11.2,4.8l-9.3,9.4c-3.2,3-4.8,6.8-4.8,11.2s1.6,8.2,4.8,11.2l36.6,36.8h-96c-4.4,0-7.9,1.6-10.6,4.7
		s-4,6.9-4,11.3v16c0,4.4,1.3,8.2,4,11.3s6.2,4.7,10.6,4.7h96l-36.6,36.6c-3.2,3.2-4.8,7-4.8,11.4c0,4.4,1.6,8.2,4.8,11.4l9.4,9.4
		c3.2,3.1,7,4.6,11.2,4.6c4.4,0,8.1-1.5,11.4-4.6l81.4-81.4c3.1-3.1,4.6-6.9,4.6-11.4c0-4.6-1.5-8.3-4.6-11.2l-81.4-81.3
		C231.1,132.9,227.3,131.3,222.8,131.3L222.8,131.3z"/>
	<path id="link-throwing" class="st0" d="M222.8,131.3c-4.3,0-8.1,1.6-11.2,4.8l-9.3,9.4c-3.2,3-4.8,6.8-4.8,11.2s1.6,8.2,4.8,11.2
		l36.6,36.8h-96c-4.4,0-7.9,1.6-10.6,4.7s-4,6.9-4,11.3v16c0,4.4,1.3,8.2,4,11.3s6.2,4.7,10.6,4.7h96l-36.6,36.6
		c-3.2,3.2-4.8,7-4.8,11.4c0,4.4,1.6,8.2,4.8,11.4l9.4,9.4c3.2,3.1,7,4.6,11.2,4.6c4.4,0,8.1-1.5,11.4-4.6l81.4-81.4
		c3.1-3.1,4.6-6.9,4.6-11.4c0-4.6-1.5-8.3-4.6-11.2l-81.4-81.3C231.1,132.9,227.3,131.3,222.8,131.3L222.8,131.3z"/>
	<path id="escalation-catching" class="st0" d="M224.2,156.9l41,123.1l-29.7-29.7l-11.3-11.4l-11.3,11.3L183.2,280L224.2,156.9
		 M224.5,124.2c-0.1,0-0.2,0-0.3,0s-0.2,0-0.2,0c-2.2,0-4.1,0.8-5.7,2.4c-1,1-1.6,2.1-2,3.3L157.6,306c-0.6,1.9-0.6,3.7,0.1,5.4
		c0.6,1.8,1.8,3.2,3.5,4.2c1.3,0.9,2.8,1.2,4.2,1.2c0.3,0,0.7,0,1-0.1c1.9-0.2,3.5-1,4.9-2.4l52.9-52.9l52.8,52.9
		c1.4,1.3,3,2.1,4.9,2.4c0.4,0.1,0.7,0.1,1.1,0.1c1.5,0,2.9-0.4,4.2-1.2c0.8-0.5,1.2-0.9,1.5-1.2c2.5-2.5,3.1-5.2,2-8.5l-58.7-176.1
		c-0.6-1.8-1.6-3.2-3.1-4.2C227.7,124.8,226.1,124.2,224.5,124.2L224.5,124.2z"/>
	<path id="escalation-throwing" class="st0" d="M224.5,124.2c-0.1,0-0.2,0-0.3,0s-0.2,0-0.2,0c-2.2,0-4.1,0.8-5.7,2.4
		c-1,1-1.6,2.1-2,3.3L157.6,306c-0.6,1.9-0.6,3.7,0.1,5.4c0.6,1.8,1.8,3.2,3.5,4.2c1.3,0.9,2.8,1.2,4.2,1.2c0.3,0,0.7,0,1-0.1
		c1.9-0.2,3.5-1,4.9-2.4l52.9-52.9l52.8,52.9c1.4,1.3,3,2.1,4.9,2.4c0.4,0.1,0.7,0.1,1.1,0.1c1.5,0,2.9-0.4,4.2-1.2
		c0.8-0.5,1.2-0.9,1.5-1.2c2.5-2.5,3.1-5.2,2-8.5l-58.7-176.1c-0.6-1.8-1.6-3.2-3.1-4.2C227.7,124.8,226.1,124.2,224.5,124.2
		L224.5,124.2z"/>
	<path id="error-catching" class="st0" d="M177,155.9c14.8,14.9,45.6,46.3,67.8,68.8l10.5,10.7l11.3-9.8l31.6-27.4
		c-12.4,34.5-25.2,69.9-31.5,86.9L204,217.4l-10.4-11.2l-11.7,10l-33.9,29C159.3,210.1,171.3,173.4,177,155.9 M173.5,132.7
		c-0.7,0-1.4,0.1-2.2,0.4c-3.3,1.2-3.8,2.8-5.7,6.8c-1.6,3.4-45.2,138.4-45.2,138.4s-1.3,4.5,2.5,6.1c0.6,0.3,1.2,0.4,1.8,0.4
		c2.8,0,4.7-2.6,4.7-2.6l62.9-53.9l71.6,77.1c2.1,2,4,3.3,6.2,3.3c0.7,0,1.4-0.2,2.2-0.4c3.3-1.2,4.1-3.2,5.7-6.8
		c1.5-3.4,50.1-138.4,50.1-138.4s1.3-4.5-2.4-6.1c-0.6-0.3-1.2-0.4-1.9-0.4c-2.8,0-4.6,2.6-4.6,2.6l-62.9,54.3
		c0,0-73.6-74.9-76.5-77.5C177.6,134,175.7,132.7,173.5,132.7L173.5,132.7z"/>
	<path id="error-throwing" class="st0" d="M173.5,132.7c-0.7,0-1.4,0.1-2.2,0.4c-3.3,1.2-3.8,2.8-5.7,6.8
		c-1.6,3.4-45.2,138.4-45.2,138.4s-1.3,4.5,2.5,6.1c0.6,0.3,1.2,0.4,1.8,0.4c2.8,0,4.7-2.6,4.7-2.6l62.9-53.9l71.6,77.1
		c2.1,2,4,3.3,6.2,3.3c0.7,0,1.4-0.2,2.2-0.4c3.3-1.2,4.1-3.2,5.7-6.8c1.5-3.4,50.1-138.4,50.1-138.4s1.3-4.5-2.4-6.1
		c-0.6-0.3-1.2-0.4-1.9-0.4c-2.8,0-4.6,2.6-4.6,2.6l-62.9,54.3c0,0-73.6-74.9-76.5-77.5C177.6,134,175.7,132.7,173.5,132.7
		L173.5,132.7z"/>
	<path id="end_1_" class="st0" d="M320.2,220.7c0,17.4-4.3,33.5-12.9,48.2c-8.6,14.7-20.2,26.4-34.9,34.9
		c-14.7,8.6-30.8,12.9-48.2,12.9s-33.5-4.3-48.2-12.9c-14.7-8.6-26.3-20.2-34.9-34.9c-8.6-14.7-12.8-30.8-12.8-48.2
		s4.3-33.5,12.9-48.2c8.6-14.7,20.2-26.4,34.9-35c14.7-8.6,30.8-12.8,48.2-12.8s33.5,4.3,48.2,12.9c14.7,8.6,26.4,20.3,34.9,34.9
		C316,187.2,320.2,203.3,320.2,220.7z"/>
	<path id="conditional-catching" class="st0" d="M320.2,304.7c0,3.3-1.1,6.1-3.5,8.5c-2.4,2.3-5.1,3.5-8.5,3.5h-168
		c-3.4,0-6.2-1.2-8.5-3.5c-2.4-2.4-3.5-5.2-3.5-8.5v-184c0-3.3,1.1-6.2,3.5-8.5c2.3-2.3,5.1-3.5,8.5-3.5h168c3.4,0,6.1,1.2,8.5,3.5
		s3.5,5.2,3.5,8.5V304.7z M304.2,300.7v-176h-160v176H304.2z M176.2,192.7c0-1.2,0.4-2.1,1.1-2.9c0.7-0.8,1.7-1.1,2.9-1.1h88
		c1.1,0,2.1,0.4,2.9,1.1c0.8,0.7,1.1,1.7,1.1,2.9v8c0,1.2-0.4,2.1-1.1,2.9c-0.7,0.8-1.7,1.1-2.9,1.1h-88c-1.2,0-2.1-0.4-2.9-1.1
		c-0.8-0.7-1.1-1.7-1.1-2.9V192.7z M176.2,160.7c0-1.2,0.4-2.1,1.1-2.9c0.7-0.8,1.7-1.1,2.9-1.1h88c1.1,0,2.1,0.4,2.9,1.1
		c0.8,0.7,1.1,1.7,1.1,2.9v8c0,1.2-0.4,2.1-1.1,2.9c-0.7,0.8-1.7,1.1-2.9,1.1h-88c-1.2,0-2.1-0.4-2.9-1.1c-0.8-0.7-1.1-1.7-1.1-2.9
		V160.7z M268.2,220.7c1.1,0,2.1,0.4,2.9,1.1c0.8,0.7,1.1,1.7,1.1,2.9v8c0,1.2-0.4,2.1-1.1,2.9c-0.7,0.8-1.7,1.1-2.9,1.1h-88
		c-1.2,0-2.1-0.4-2.9-1.1c-0.8-0.7-1.1-1.7-1.1-2.9v-8c0-1.2,0.4-2.1,1.1-2.9c0.7-0.8,1.7-1.1,2.9-1.1H268.2z M268.2,252.7
		c1.1,0,2.1,0.4,2.9,1.1s1.1,1.7,1.1,2.9v8c0,1.1-0.4,2.1-1.1,2.9s-1.7,1.1-2.9,1.1h-88c-1.2,0-2.1-0.4-2.9-1.1s-1.1-1.7-1.1-2.9v-8
		c0-1.2,0.4-2.1,1.1-2.9s1.7-1.1,2.9-1.1H268.2z"/>
	<path id="compensation-catching" class="st0" d="M318.5,124.9c-0.3-0.1-0.6-0.2-0.9-0.2c-0.9,0-1.9,0.6-3.1,1.8l-88.3,88.6
		c-0.8,0.8-1.4,1.6-1.8,2.5v-88.7c0-2.1-0.6-3.5-1.7-4c-0.3-0.1-0.6-0.2-0.9-0.2c-0.9,0-1.9,0.6-3.1,1.8l-88.3,88.6
		c-1.6,1.5-2.4,3.4-2.4,5.6c0,2.1,0.8,4,2.4,5.6l88.5,88.6c1.2,1.2,2.3,1.8,3.2,1.8c0.3,0,0.6-0.1,0.8-0.2c1.1-0.5,1.6-1.9,1.6-4
		v-88.8c0.4,0.9,1,1.8,1.7,2.6l88.5,88.6c1.2,1.2,2.3,1.8,3.2,1.8c0.3,0,0.6-0.1,0.8-0.2c1.1-0.5,1.6-1.9,1.6-4V128.9
		C320.2,126.7,319.6,125.4,318.5,124.9z M208.4,281.8l-61.1-61.1l61.1-61.2V281.8z M304.2,281.8l-61.1-61.1l61.1-61.2V281.8z"/>
	<path id="compensation-throwing" class="st0" d="M314.6,126.5c1.6-1.6,2.9-2.1,4-1.6s1.6,1.9,1.6,4v183.6c0,2.1-0.5,3.5-1.6,4
		c-1,0.5-2.4,0-4-1.6l-88.3-88.6c-0.7-0.8-1.2-1.5-1.6-2.4v88.6c0,2.1-0.6,3.5-1.6,4c-1.1,0.5-2.4-0.1-4-1.6l-88.5-88.6
		c-1.6-1.6-2.4-3.4-2.4-5.6s0.8-4.1,2.4-5.6l88.4-88.6c1.6-1.6,2.9-2.1,4-1.6c1.1,0.5,1.6,1.9,1.6,4v88.6c0.4-0.9,0.9-1.7,1.6-2.4
		L314.6,126.5z"/>
	<path id="cancel-catching" class="st0" d="M269.5,164.1l11.4,11.3l-33.9,33.9l-11.3,11.3l11.3,11.3l33.9,34l-11.4,11.3l-33.9-33.9
		L224.2,232l-11.3,11.3L179,277.3l-11.4-11.4l34-33.9l11.3-11.3l-11.3-11.3l-34-33.9l11.4-11.4l34,34l11.3,11.3l11.3-11.3
		L269.5,164.1 M269.5,146.4c-3.4,0-6.1,1.2-8.5,3.5l-36.7,36.8l-36.8-36.8c-2.4-2.3-5.2-3.5-8.5-3.5c-3.4,0-6.2,1.2-8.5,3.5l-17,17
		c-2.4,2.3-3.5,5.2-3.5,8.5s1.1,6.2,3.5,8.5l36.8,36.8l-36.8,36.8c-2.4,2.3-3.5,5.1-3.5,8.5c0,3.3,1.1,6.1,3.5,8.5l17,17
		c2.3,2.3,5.1,3.5,8.5,3.5c3.3,0,6.1-1.2,8.5-3.5l36.8-36.8l36.7,36.8c2.4,2.3,5.1,3.5,8.5,3.5s6.1-1.2,8.5-3.5l17-17
		c2.4-2.4,3.5-5.2,3.5-8.5c0-3.4-1.1-6.2-3.5-8.5l-36.8-36.8l36.8-36.8c2.4-2.3,3.5-5.2,3.5-8.5s-1.1-6.2-3.5-8.5l-17-17
		C275.6,147.6,272.8,146.4,269.5,146.4L269.5,146.4z"/>
	<path id="cancel-throwing" class="st0" d="M298.5,266c0,3.3-1.1,6.1-3.5,8.5l-17,17c-2.4,2.3-5.1,3.5-8.5,3.5s-6.1-1.2-8.5-3.5
		l-36.7-36.8l-36.8,36.8c-2.4,2.3-5.2,3.5-8.5,3.5c-3.4,0-6.2-1.2-8.5-3.5l-17-17c-2.4-2.4-3.5-5.2-3.5-8.5c0-3.4,1.1-6.2,3.5-8.5
		l36.8-36.8l-36.8-36.8c-2.4-2.3-3.5-5.2-3.5-8.5s1.1-6.2,3.5-8.5l17-17c2.3-2.3,5.1-3.5,8.5-3.5c3.3,0,6.1,1.2,8.5,3.5l36.8,36.8
		l36.7-36.8c2.4-2.3,5.1-3.5,8.5-3.5s6.1,1.2,8.5,3.5l17,17c2.4,2.3,3.5,5.2,3.5,8.5s-1.1,6.2-3.5,8.5l-36.8,36.8l36.8,36.8
		C297.3,259.8,298.5,262.6,298.5,266z"/>
</g>

<defs>

    <filter id="selectShadow" height="300%" width="300%" x="-75%" y="-75%">
      <!-- Thicken out the original shape -->
      <feMorphology operator="dilate" radius="0" in="SourceAlpha" result="thicken" />

		<!-- Create a drop shadow -->
      <feDropShadow dx="0" dy="2" stdDeviation="2" flood-color="#000000" flood-opacity=".6" result="droppedShadow"/>

		<!--	Layer the effects together -->
      <feMerge>
        <feMergeNode in="droppedShadow"/>
        <feMergeNode in="SourceGraphic"/>
      </feMerge>

    </filter>

</defs>


</svg>
