<?xml version="1.0" encoding="utf-8"?>
<svg id="eventAll" version="1.1" xmlns="http://www.w3.org/2000/svg"
		 xmlns:stunner="http://kiegroup.org/2017/stunner"
		 x="0" y="0" width="56px" height="56px" viewBox="0 0 56 56" xml:space="preserve">
	<circle class="eventAll" cx="28px" cy="28px" r="28px"/>
	<circle id="eventAll_interm" class="eventAll_interm_circle" stunner:transform="scalable" cx="28px" cy="28px" r="25px"/>
	<g class="eventAll_group_timer" stunner:transform="scalable" transform="translate(8,8) scale(0.09,0.09)">
		<path class="eventAll_timerIcon" d="M256,136v112c0,2.3-0.8,4.2-2.2,5.8s-3.4,2.2-5.8,2.2h-80c-2.3,0-4.2-0.8-5.8-2.2s-2.2-3.4-2.2-5.8v-16
	c0-2.3,0.8-4.2,2.2-5.8s3.4-2.2,5.8-2.2h56v-88c0-2.3,0.8-4.2,2.2-5.8s3.4-2.2,5.8-2.2h16c2.3,0,4.2,0.8,5.8,2.2S256,133.7,256,136z
	 M376,224c0-27.6-6.8-53-20.3-76.2s-32.1-41.7-55.3-55.3C277,78.8,251.6,72,224,72s-53,6.8-76.2,20.3s-41.7,32.1-55.3,55.3
	S72,196.4,72,224s6.8,53,20.3,76.2s32.1,41.7,55.3,55.3c23.2,13.6,48.7,20.5,76.3,20.5s53-6.8,76.2-20.3
	c23.2-13.6,41.7-32.1,55.3-55.3C369.2,277.1,376,251.6,376,224z M416,224c0,34.8-8.6,67-25.8,96.4s-40.5,52.7-69.9,69.9
	S258.8,416,224,416s-67-8.6-96.4-25.8s-52.7-40.5-69.9-69.9S32,258.8,32,224s8.6-67,25.8-96.4s40.5-52.7,69.9-69.9S189.2,32,224,32
	s67,8.6,96.4,25.8s52.7,40.5,69.9,69.9S416,189.2,416,224z"/>
	</g>
	<g class="eventAll_group_signal" stunner:transform="scalable" transform="translate(8,5) scale(0.09,0.09)">
		<path class="eventAll_signalIcon" d="M224.7,32.3L416.4,384H33.1L224.7,32.3 M224.7,0c-5.8,0-11.2,1.5-16.2,4.5s-8.9,7.1-11.7,12.2L5,368.8
	c-5.8,10.5-5.7,21,0.5,31.5c2.8,4.8,6.7,8.7,11.6,11.5C22,414.6,27.3,416,33,416h383.6c5.7,0,10.9-1.4,15.9-4.2s8.8-6.7,11.6-11.5
	c6.2-10.5,6.3-21,0.5-31.5l-191.8-352c-2.8-5.2-6.7-9.2-11.7-12.2C236,1.5,230.6,0,224.7,0L224.7,0z"/>
	</g>
	<g class="eventAll_group_terminate" stunner:transform="scalable">
		<circle class="eventAll_terminateIcon" cx="28px" cy="28px" r="14px"/>
	</g>
</svg>