<?xml version="1.0" encoding="utf-8"?>
<!-- Generator: Adobe Illustrator 23.1.1, SVG Export Plug-In . SVG Version: 6.00 Build 0)  -->
<svg version="1.1" id="Layer_1" xmlns="http://www.w3.org/2000/svg" xmlns:xlink="http://www.w3.org/1999/xlink" x="0px" y="0px"
	 viewBox="0 0 275 38" width="275" height="38" style="enable-background:new 0 0 275 38;" xml:space="preserve">
<style type="text/css">
	.st0{fill:#FFFFFF;}
	.st1{fill:#00586F;}
	.st2{fill:#F88D2B;}
	.st3{fill:#B8D8EB;}
	.st4{fill:#DD3926;}
	.st5{fill:#CC3427;}
	.st6{fill:#E5E5E4;}
</style>
<title>Automation</title>
<desc>Created with Sketch.</desc>
<g>
	<path class="st0" d="M55.9,9.5c4,0,6.7,2.1,6.7,5.4c0,1.9-1.1,3.5-2.8,4.4c2.2,0.9,3.6,2.6,3.6,4.8c0,3.5-2.8,5.8-7.1,5.8H47V9.5
		H55.9z M50.1,12.1v6.1h5.6c2.3,0,3.8-1.2,3.8-3s-1.4-3-3.8-3H50.1z M60.3,24.1c0-2-1.6-3.4-4.2-3.4h-5.9v6.8h5.9
		C58.7,27.5,60.3,26.1,60.3,24.1z"/>
	<path class="st0" d="M66.8,9.5h9.5c4,0,6.7,2.5,6.7,6.2c0,3.6-2.7,6.1-6.7,6.1h-6.4V30h-3.1L66.8,9.5L66.8,9.5z M69.9,12.2v6.9H76
		c2.4,0,3.9-1.3,3.9-3.5c0-2.1-1.5-3.4-3.9-3.4C76,12.2,69.9,12.2,69.9,12.2z"/>
	<path class="st0" d="M89.1,13.3V30h-2.9V9.5h4.1l6.4,13.1l6.5-13.1h4.1V30h-2.9V13.3l-7.7,15.3L89.1,13.3z"/>
	<path class="st0" d="M114.5,9.5L126,24.7V9.5h2.9V30h-2.7l-11.8-15.7V30h-2.9V9.5H114.5z"/>
</g>
<g>
	<path class="st1" d="M232.4,17.9c-0.2-0.3-0.5-0.4-0.8-0.4c0,0-2,0.3-2,0.3c-0.3,0-0.5,0.2-0.7,0.5l-0.3,0.5c-0.7-0.6-1.5-1-2.3-1
		c-0.8,0-1.6,0.3-2.3,1l-0.3-0.5c-0.1-0.2-0.4-0.4-0.7-0.5c0,0-1.9-0.3-2-0.3c-0.6,0-1,0.5-1,1c0,0.2,0,0.3,0.1,0.5l0.7,1.3
		c-0.5,0.8-0.2,1.9,0.5,2.4c0.1,0,0.2,0.1,0.3,0.1l-1.4,6.5l6.1,3.4l6.1-3.4l-1.4-6.5c0.9-0.3,1.4-1.3,1.1-2.2
		c0-0.1-0.1-0.2-0.1-0.3l0.7-1.3C232.7,18.7,232.6,18.3,232.4,17.9z"/>
	<path class="st0" d="M225.6,21.6h0.1l0.3,0.3l0.3-0.3h0.1c0.9,0,1.9,0,2.6,0.1c-0.7-1.5-1.8-2.8-3.1-2.8c-1.3,0-2.4,1.3-3.1,2.8
		C223.7,21.7,224.6,21.6,225.6,21.6z"/>
	<path class="st2" d="M225.1,28c0.6,0.4,1.4,0.4,2,0C226.4,27.9,225.8,27.9,225.1,28z"/>
	<path class="st3" d="M228.8,27.7c0-0.2-0.1-0.4-0.2-0.6c0,0,0,0,0-0.1c0,0,0,0,0,0c0,0,0,0,0-0.1l0,0l0,0l0,0l0,0
		c-0.3-0.3-0.7-0.6-1.2-0.8c-0.2,0.1-0.6,0.3-0.9,0.3c-0.3,0-0.6-0.1-0.9-0.3c-0.4,0.1-0.9,0.4-1.2,0.8l0,0l0,0l0,0l0,0
		c0,0,0,0,0,0.1c0,0,0,0,0,0c0,0,0,0,0,0.1c-0.1,0.2-0.2,0.4-0.2,0.6c0.2,0,0.4-0.1,0.6-0.2l0,0h0l0.2-0.7v0.6h0c0.1,0,0.2,0,0.3,0
		h0c0.1,0,0.2,0,0.3,0l0.2-0.8v0.8c0.1,0,0.2,0,0.4,0h0c0,0,0.1,0,0.1,0c0.1,0,0.1,0,0.2,0s0.1,0,0.2,0h0.1c0,0,0,0,0.1,0
		c0.1,0,0.2,0,0.4,0v-0.8l0.2,0.8h0c0.1,0,0.2,0,0.3,0c0,0,0.1,0,0.1,0c0,0,0.1,0,0.2,0c0,0,0,0,0.1,0v-0.6l0.2,0.7h0h0.1l0,0
		C228.4,27.6,228.6,27.7,228.8,27.7z"/>
	<path class="st2" d="M229.5,22.4h-0.1c-0.8,0-1.7-0.1-2.6-0.1l-0.6,0.6l-0.6-0.6c-0.9,0-1.9,0-2.6,0.1h-0.1
		c-0.3,0.7-0.4,1.5-0.4,2.1c0,1,0.4,1.6,1.1,1.8c0.3-0.4,0.8-0.8,1.3-1c-0.1-0.1,0-0.3,0.1-0.4c0.1,0,0.2,0,0.3,0
		c0.2,0.2,0.7,0.5,0.9,0.5c0.2,0,0.7-0.3,0.9-0.5c0.1-0.1,0.3-0.1,0.4,0c0.1,0.1,0.1,0.2,0,0.3c0.5,0.2,0.9,0.6,1.3,1
		c0.7-0.2,1.1-0.7,1.1-1.8C229.9,23.9,229.8,23.1,229.5,22.4z M224.4,24.4c-0.4,0-0.8-0.2-1.1-0.6c0.2-0.4,0.6-0.7,1.1-0.7
		c0.4,0,0.8,0.2,1.1,0.6C225.3,24.2,224.9,24.4,224.4,24.4z M228.9,24.2l-0.5,0.5l-0.5-0.5l-0.5,0.5l-0.5-0.5l0.5-0.5l-0.5-0.5
		l0.5-0.5l0.5,0.5l0.5-0.5l0.5,0.5l-0.5,0.5L228.9,24.2z"/>
	<path class="st3" d="M227.5,29.5l0.3,1.2l1.1-0.6v-1.3l0.3,1.2L231,29l-0.7-3.1c-0.2,0.5-0.6,0.9-1.1,1.1c0.1,0.2,0.2,0.4,0.2,0.6
		c0.1,0.3-0.1,0.6-0.4,0.7c-0.1,0-0.2,0-0.3,0c-0.2-0.1-0.4-0.1-0.7-0.2c-0.9,1-2.4,1-3.3,0.2c0,0-0.1-0.1-0.2-0.2
		c-0.2,0-0.5,0.1-0.8,0.2c-0.3,0.1-0.7,0-0.8-0.4c0-0.1,0-0.2,0-0.3c0-0.2,0.1-0.4,0.2-0.6c-0.5-0.2-0.9-0.6-1.1-1.1l-0.7,3.1
		l1.7,0.9l0.3-1.2v1.3l1.1,0.6l0.3-1.2v1.4l1.4,0.8l1.4-0.8L227.5,29.5L227.5,29.5z"/>
	<path class="st0" d="M222.2,21.9c0.2-0.4,0.4-0.9,0.6-1.3c0.1-0.2,0.2-0.4,0.3-0.5l-0.7-1.2l-1.8-0.3l1.2,2.1l0,0
		c-0.3,0.1-0.6,0.4-0.5,0.8c0.1,0.3,0.4,0.6,0.8,0.5C222.2,22,222.2,22,222.2,21.9z"/>
	<path class="st0" d="M230.3,20.6L230.3,20.6l1.2-2.1l-1.8,0.3l-0.7,1.2c0.1,0.1,0.2,0.3,0.3,0.5c0.2,0.4,0.5,0.8,0.6,1.3
		c0.3,0.1,0.7,0,0.8-0.4C230.9,21.2,230.7,20.8,230.3,20.6C230.4,20.7,230.4,20.6,230.3,20.6L230.3,20.6z"/>
	<path class="st0" d="M239.6,24.5l0.1-0.2l4.1-4.3h1.7l-4.2,4.3l4.4,5.8h-1.7l-3.7-4.9l-0.8,0.8v4.1h-1.4V19.9h1.4v4L239.6,24.5z"/>
	<path class="st0" d="M246.7,25.5c0.2-0.4,0.6-0.8,1.1-1.1c0.5-0.2,1-0.4,1.6-0.4c0.6,0,1.1,0.1,1.6,0.4c0.4,0.2,0.8,0.6,1.1,1.1
		c0.2,0.5,0.4,1,0.4,1.5c0,0.5-0.1,1.1-0.4,1.6c-0.2,0.4-0.6,0.8-1.1,1.1c-0.5,0.2-1,0.4-1.6,0.4c-0.6,0-1.1-0.1-1.6-0.4
		c-0.5-0.2-0.8-0.6-1.1-1.1c-0.3-0.4-0.4-1-0.4-1.6C246.2,26.5,246.4,26,246.7,25.5z M247.8,28.1c0.1,0.3,0.4,0.5,0.6,0.7
		c0.3,0.2,0.6,0.2,0.9,0.2c0.5,0,1-0.2,1.3-0.5c0.3-0.4,0.5-0.8,0.5-1.4c0-0.5-0.2-1-0.5-1.4c-0.3-0.4-0.8-0.6-1.3-0.6
		c-0.3,0-0.6,0.1-0.9,0.2c-0.3,0.2-0.5,0.4-0.6,0.7C247.5,26.7,247.5,27.5,247.8,28.1L247.8,28.1z"/>
	<path class="st0" d="M259.9,24.2v5.8c0,0.5-0.1,1-0.4,1.4c-0.2,0.4-0.6,0.7-1.1,1c-0.5,0.2-1.1,0.4-1.7,0.4c-0.6,0-1.1-0.1-1.5-0.3
		c-0.4-0.2-0.8-0.5-1.3-0.8l0.7-0.9c0.3,0.2,0.6,0.5,0.9,0.7c0.3,0.1,0.7,0.2,1,0.2c0.6,0,1.1-0.1,1.5-0.4c0.3-0.3,0.5-0.7,0.5-1.2
		V29c-0.2,0.3-0.5,0.6-0.9,0.9c-0.4,0.2-0.9,0.3-1.4,0.3c-0.5,0-1-0.1-1.4-0.4c-0.4-0.2-0.8-0.6-1-1.1c-0.5-1-0.5-2.1,0-3.1
		c0.2-0.4,0.6-0.8,1.1-1.1c0.4-0.2,0.9-0.4,1.5-0.4c0.4,0,0.9,0.1,1.3,0.3c0.4,0.2,0.7,0.4,0.9,0.7l0.1-0.8L259.9,24.2z M257.9,28.7
		c0.3-0.2,0.6-0.6,0.7-1v-1.2c-0.1-0.4-0.4-0.7-0.7-1c-0.3-0.2-0.8-0.4-1.2-0.4c-0.5,0-1,0.2-1.4,0.5s-0.5,0.8-0.5,1.4
		c0,0.7,0.3,1.4,1,1.7c0.3,0.2,0.6,0.3,1,0.2C257.1,29.1,257.6,29,257.9,28.7z"/>
	<path class="st0" d="M261.8,21.6c0.1-0.1,0.3-0.2,0.5-0.2c0.2,0,0.4,0,0.5,0.2c0.3,0.2,0.3,0.7,0,1l0,0c-0.1,0.1-0.3,0.2-0.5,0.2
		c-0.2,0-0.4,0-0.5-0.2C261.5,22.4,261.5,22,261.8,21.6C261.7,21.7,261.8,21.7,261.8,21.6L261.8,21.6z M263,24.2V30h-1.3v-5.8H263z"
		/>
	<path class="st0" d="M266.5,21.7v2.5h1.6v1h-1.6V30h-1.3v-4.7h-1v-1h1v-2.5H266.5z"/>
	<path class="st0" d="M269.1,25.5c0.2-0.4,0.6-0.8,1.1-1.1c0.5-0.2,1-0.4,1.6-0.4c0.6,0,1.1,0.1,1.6,0.4c0.4,0.2,0.8,0.6,1.1,1.1
		c0.2,0.5,0.4,1,0.4,1.5c0,0.5-0.1,1.1-0.4,1.6c-0.2,0.4-0.6,0.8-1.1,1.1c-0.5,0.2-1,0.4-1.6,0.4c-0.6,0-1.1-0.1-1.6-0.4
		c-0.5-0.2-0.8-0.6-1.1-1.1c-0.3-0.4-0.4-1-0.4-1.6C268.6,26.5,268.8,26,269.1,25.5z M270.2,28.1c0.1,0.3,0.4,0.5,0.6,0.7
		c0.3,0.2,0.6,0.2,0.9,0.2c0.5,0,1-0.2,1.3-0.5c0.3-0.4,0.5-0.8,0.5-1.4c0-0.5-0.2-1-0.5-1.4c-0.3-0.4-0.8-0.6-1.3-0.6
		c-0.3,0-0.6,0.1-0.9,0.2c-0.3,0.2-0.5,0.4-0.6,0.7C269.9,26.7,269.9,27.5,270.2,28.1L270.2,28.1z"/>
</g>
<g>
	<path class="st0" d="M153,21.7h3.4c1.6,0,2.7,1,2.7,2.5c0,1.5-1,2.5-2.7,2.5h-2.5v3.4H153V21.7z M153.9,22.5v3.3h2.4
		c1.1,0,1.8-0.6,1.8-1.7c0-1-0.7-1.6-1.8-1.6H153.9z"/>
	<path class="st0" d="M162.9,24.1c1.6,0,2.8,1.3,2.8,3s-1.2,3-2.8,3c-1.6,0-2.8-1.3-2.8-3S161.3,24.1,162.9,24.1z M164.9,27.1
		c0-1.3-0.8-2.2-2-2.2c-1.1,0-2,0.9-2,2.2s0.8,2.2,2,2.2C164,29.4,164.9,28.4,164.9,27.1z"/>
	<path class="st0" d="M168.2,30.1l-1.6-5.8h0.8l1.2,4.7l1.4-4.7h0.8l1.4,4.7l1.2-4.7h0.8l-1.6,5.8h-0.8l-1.4-4.7l-1.4,4.7H168.2z"/>
	<path class="st0" d="M178,30.2c-1.6,0-2.9-1.3-2.9-3c0-1.7,1.2-3,2.7-3s2.7,1.2,2.7,2.9v0.2H176c0.1,1.2,0.9,2.1,2.1,2.1
		c0.6,0,1.2-0.2,1.6-0.6l0.5,0.6C179.5,29.9,178.8,30.2,178,30.2z M176,26.7h3.7c-0.1-1-0.9-1.8-1.8-1.8
		C176.9,24.9,176.1,25.6,176,26.7z"/>
	<path class="st0" d="M182.1,24.2h0.9v1.2c0.3-0.8,0.9-1.3,1.6-1.3c0.2,0,0.3,0,0.5,0.1V25c-0.2,0-0.4-0.1-0.6-0.1
		c-0.7,0-1.2,0.4-1.5,1.2v4h-0.9V24.2z"/>
	<path class="st0" d="M188.6,30.2c-1.6,0-2.9-1.3-2.9-3c0-1.7,1.2-3,2.7-3c1.5,0,2.7,1.2,2.7,2.9v0.2h-4.6c0.1,1.2,0.9,2.1,2.1,2.1
		c0.6,0,1.2-0.2,1.6-0.6l0.5,0.6C190.1,29.9,189.4,30.2,188.6,30.2z M186.5,26.7h3.7c-0.1-1-0.9-1.8-1.8-1.8
		C187.4,24.9,186.7,25.6,186.5,26.7z"/>
	<path class="st0" d="M196.9,29.3c-0.4,0.5-1.1,0.8-1.8,0.8c-1.5,0-2.7-1.3-2.7-3s1.2-3,2.7-3c0.7,0,1.3,0.3,1.8,0.8v-3.4l0.9-0.2
		V30h-0.9V29.3z M195.3,29.4c0.7,0,1.3-0.3,1.6-0.8v-2.9c-0.4-0.5-1-0.8-1.6-0.8c-1.2,0-2,0.9-2,2.2S194.1,29.4,195.3,29.4z"/>
	<path class="st0" d="M205.1,30.1c-0.7,0-1.4-0.3-1.8-0.8V30h-0.8v-8.5l0.9-0.2V25c0.4-0.5,1.1-0.9,1.9-0.9c1.5,0,2.7,1.3,2.7,3
		C207.9,28.8,206.7,30.1,205.1,30.1z M203.3,25.7v2.8c0.4,0.5,1,0.8,1.6,0.8c1.2,0,2-0.9,2-2.2s-0.9-2.2-2-2.2
		C204.2,24.9,203.6,25.2,203.3,25.7z"/>
	<path class="st0" d="M210.7,30l-2.2-5.8h0.9l1.8,4.8l1.9-4.8h0.9l-2.9,7c-0.3,0.9-0.8,1.3-1.7,1.3c-0.1,0-0.3,0-0.5-0.1v-0.8
		c0.2,0,0.3,0,0.5,0c0.4,0,0.7-0.2,0.9-0.7L210.7,30z"/>
</g>
<g>
	<circle class="st4" cx="19" cy="19" r="19"/>
	<path class="st5" d="M32.4,5.6L5.5,32.4c7.4,7.3,19.4,7.3,26.8-0.1S39.8,13,32.4,5.6z"/>
	<polygon class="st0" points="20,17.2 24.4,8.3 13.7,8.3 13.7,21.8 16.2,21.8 20.7,17.2 	"/>
	<polygon class="st6" points="18.9,30.5 25.5,17.2 20.7,17.2 16.2,21.8 18.9,21.9 	"/>
</g>
</svg>
