<?xml version="1.0" encoding="utf-8"?>
<!-- Generator: Adobe Illustrator 23.1.1, SVG Export Plug-In . SVG Version: 6.00 Build 0)  -->
<svg version="1.1" id="Layer_1" xmlns="http://www.w3.org/2000/svg" xmlns:xlink="http://www.w3.org/1999/xlink" x="0px" y="0px"
	 viewBox="0 0 141 188" style="enable-background:new 0 0 141 188;" xml:space="preserve">
<style type="text/css">
	.st0{fill:#030303;}
</style>
<g>
	<path class="st0" d="M135.8,36c3.4,3.4,5.2,7.6,5.2,12.5v121.9c0,4.9-1.7,9.1-5.2,12.5c-3.4,3.4-7.6,5.2-12.5,5.2H17.6
		c-4.9,0-9.1-1.7-12.5-5.2c-3.4-3.4-5.2-7.6-5.2-12.5V17.6c0-4.9,1.7-9.1,5.2-12.5S12.7,0,17.6,0h74.9c4.9,0,9.1,1.7,12.5,5.2
		L135.8,36z M17.6,170.4h105.7V64.6H85.1c-2.5,0-4.5-0.9-6.2-2.6c-1.7-1.7-2.6-3.8-2.6-6.2V17.6H17.6V170.4z M121.9,47L94,19.1V47
		H121.9z"/>
</g>
</svg>
