<?xml version="1.0" encoding="utf-8"?>
<svg viewBox="40.8542 74.14 248.1654 56.1135" xmlns="http://www.w3.org/2000/svg">
  <path class="cls-1" d="M 87.72 94.346 L 87.72 88.957 L 74.349 93.517 C 71.947 94.462 70.003 96.297 68.921 98.641 L 66.447 104.008 L 68.849 105.606 L 66.006 112.269 L 63.156 105.606 L 65.558 104.008 L 63.084 98.641 C 62.009 96.312 60.081 94.485 57.699 93.536 L 44.287 89.236 L 44.287 94.341 C 39.71 99.361 39.71 107.041 44.287 112.061 L 44.287 121.113 L 59.951 126.066 L 59.951 127.573 C 59.952 128.016 60.311 128.376 60.754 128.377 L 71.213 128.377 C 71.657 128.376 72.016 128.016 72.018 127.573 L 72.018 125.989 L 87.723 120.805 L 87.723 112.066 C 92.301 107.047 92.301 99.365 87.723 94.346 L 87.72 94.346 Z" style="fill: rgb(245, 137, 31);" transform="matrix(1, 0, 0, 1, 3.552713678800501e-15, 0)"/>
  <path class="cls-2" d="M 73.253 90.494 L 87.72 85.559 L 87.72 74.14 L 66.006 85.329 L 44.287 74.439 L 44.287 85.857 L 58.774 90.501 C 61.976 91.743 64.569 94.181 66.006 97.3 C 67.445 94.176 70.045 91.734 73.253 90.494 Z" style="fill: rgb(151, 212, 232);" transform="matrix(1, 0, 0, 1, 3.552713678800501e-15, 0)"/>
  <circle class="cls-3" cx="77.982" cy="103.205" r="7.742" style="fill: rgb(255, 255, 255);" transform="matrix(1, 0, 0, 1, 3.552713678800501e-15, 0)"/>
  <path class="cls-4" d="M 80.602 98.669 C 77.111 96.649 72.742 99.165 72.738 103.198 C 72.733 107.232 77.096 109.757 80.592 107.744 C 82.215 106.81 83.216 105.08 83.217 103.207 L 77.982 103.207 L 80.602 98.669 Z" style="fill: rgb(8, 88, 112);" transform="matrix(1, 0, 0, 1, 3.552713678800501e-15, 0)"/>
  <circle class="cls-3" cx="54.027" cy="103.205" r="7.742" style="fill: rgb(255, 255, 255);" transform="matrix(1, 0, 0, 1, 3.552713678800501e-15, 0)"/>
  <path class="cls-4" d="M 56.646 98.669 C 53.156 96.649 48.787 99.165 48.782 103.198 C 48.778 107.232 53.141 109.757 56.637 107.744 C 58.26 106.81 59.26 105.08 59.261 103.207 L 54.027 103.207 L 56.646 98.669 Z" style="fill: rgb(8, 88, 112);" transform="matrix(1, 0, 0, 1, 3.552713678800501e-15, 0)"/>
  <path class="cls-3" d="M 104.925 123.847 C 104.62 123.55 104.451 123.139 104.459 122.713 L 104.459 79.258 C 104.441 78.816 104.597 78.385 104.893 78.056 C 105.197 77.739 105.622 77.569 106.061 77.589 L 112.069 77.589 C 113.007 77.548 113.778 78.32 113.737 79.258 L 113.737 94.877 L 128.624 78.788 C 129.257 78.003 130.22 77.559 131.228 77.587 L 138.036 77.587 C 138.398 77.589 138.745 77.733 139.004 77.988 C 139.286 78.241 139.445 78.604 139.438 78.984 C 139.442 79.285 139.321 79.575 139.105 79.784 L 120.947 99.949 L 140.439 122.045 C 140.602 122.308 140.694 122.608 140.706 122.917 C 140.714 123.29 140.57 123.65 140.306 123.913 C 140.063 124.169 139.724 124.314 139.371 124.313 L 132.362 124.313 C 131.427 124.313 130.76 124.124 130.36 123.746 C 129.959 123.373 129.737 123.156 129.692 123.111 L 113.737 105.49 L 113.737 122.713 C 113.745 123.139 113.576 123.55 113.27 123.847 C 112.952 124.162 112.517 124.332 112.069 124.314 L 106.061 124.314 C 105.634 124.322 105.223 124.153 104.925 123.847 Z" style="fill: rgb(8, 88, 112);" transform="matrix(1, 0, 0, 1, 3.552713678800501e-15, 0)"/>
  <path class="cls-3" d="M 147.182 123.847 C 146.875 123.55 146.706 123.14 146.714 122.713 L 146.714 79.189 C 146.693 78.75 146.864 78.324 147.182 78.021 C 147.488 77.733 147.895 77.577 148.316 77.587 L 154.725 77.587 C 155.157 77.566 155.579 77.723 155.893 78.021 C 156.181 78.31 156.326 78.699 156.326 79.189 L 156.326 122.713 C 156.335 123.133 156.18 123.54 155.893 123.847 C 155.59 124.165 155.163 124.335 154.725 124.314 L 148.316 124.314 C 147.889 124.323 147.478 124.153 147.182 123.847 Z" style="fill: rgb(8, 88, 112);" transform="matrix(1, 0, 0, 1, 3.552713678800501e-15, 0)"/>
  <path class="cls-3" d="M 167.207 123.847 C 166.901 123.55 166.731 123.14 166.739 122.713 L 166.739 79.258 C 166.722 78.816 166.878 78.385 167.173 78.056 C 167.477 77.739 167.903 77.569 168.341 77.589 L 197.78 77.589 C 198.718 77.548 199.49 78.32 199.449 79.258 L 199.449 83.728 C 199.469 84.167 199.299 84.593 198.982 84.897 C 198.653 85.193 198.222 85.348 197.78 85.33 L 175.885 85.33 L 175.885 97.012 L 196.305 97.012 C 197.243 96.973 198.014 97.744 197.975 98.682 L 197.975 102.886 C 197.995 103.325 197.824 103.751 197.506 104.054 C 197.178 104.351 196.747 104.507 196.305 104.489 L 175.885 104.489 L 175.885 116.567 L 198.314 116.567 C 198.756 116.549 199.187 116.705 199.516 117 C 199.833 117.304 200.003 117.73 199.983 118.168 L 199.983 122.713 C 200.003 123.151 199.833 123.577 199.516 123.881 C 199.187 124.177 198.756 124.332 198.314 124.314 L 168.341 124.314 C 167.915 124.323 167.504 124.153 167.207 123.847 Z" style="fill: rgb(8, 88, 112);" transform="matrix(1, 0, 0, 1, 3.552713678800501e-15, 0)"/>
  <path class="cls-3" d="M 60.85 95.542 C 61.787 96.421 62.545 97.473 63.081 98.641 L 65.556 104.008 L 63.154 105.606 L 66.006 112.269 L 68.856 105.606 L 66.454 104.008 L 68.929 98.641 C 70.008 96.299 71.95 94.463 74.349 93.517 L 87.72 88.957 L 87.72 85.559 L 73.253 90.494 C 70.045 91.734 67.445 94.176 66.006 97.3 C 64.568 94.184 61.976 91.748 58.777 90.507 L 44.287 85.857 L 44.287 89.236 L 57.696 93.533 C 58.865 93.997 59.935 94.678 60.85 95.542 Z" style="fill: rgb(255, 255, 255);" transform="matrix(1, 0, 0, 1, 3.552713678800501e-15, 0)"/>
</svg>