<?xml version="1.0" encoding="utf-8"?>
<svg viewBox="0.001 0 2284.265 435.59" width="2284.265" height="435.59" xmlns="http://www.w3.org/2000/svg">
  <defs>
    <style>.cls-1{fill:#f5891f;}.cls-2{fill:#97d4e8;}.cls-3{fill:#fff;}.cls-4{fill:#085870;}</style>
  </defs>
  <path class="cls-1" d="M376.39,162.28V119L269,155.62a80.44,80.44,0,0,0-43.59,41.15l-19.87,43.11,19.29,12.83L202,306.22l-22.89-53.51,19.29-12.83-19.87-43.11a80.4,80.4,0,0,0-43.25-41L27.57,121.24v41a105.61,105.61,0,0,0,0,142.31v72.7l125.8,39.78v12.1a6.47,6.47,0,0,0,6.45,6.46h84a6.48,6.48,0,0,0,6.46-6.46V416.41l126.13-41.63V304.59a105.58,105.58,0,0,0,0-142.31Z"/>
  <path class="cls-2" d="M260.2,131.34,376.39,91.71V0L202,89.86,27.57,2.4V94.1l116.35,37.3A106.27,106.27,0,0,1,202,186,106.3,106.3,0,0,1,260.2,131.34Z"/>
  <circle class="cls-3" cx="298.18" cy="233.43" r="62.18"/>
  <path class="cls-4" d="M319.22,197a42.08,42.08,0,1,0,21,36.44H298.18Z"/>
  <circle class="cls-3" cx="105.79" cy="233.43" r="62.18"/>
  <path class="cls-4" d="M126.83,197a42.08,42.08,0,1,0,21,36.44H105.79Z"/>
  <path class="cls-3" d="M514.57,399.21a12.39,12.39,0,0,1-3.75-9.11v-349a13.63,13.63,0,0,1,3.49-9.65,12.2,12.2,0,0,1,9.38-3.75h48.25a12.85,12.85,0,0,1,13.4,13.4V166.54L704.9,37.33a25.94,25.94,0,0,1,20.91-9.65h54.68a11.17,11.17,0,0,1,7.77,3.22,10.49,10.49,0,0,1,3.49,8,8.78,8.78,0,0,1-2.68,6.43L643.24,207.28,799.79,384.74a14.28,14.28,0,0,1,2.14,7,10.94,10.94,0,0,1-3.21,8,10.31,10.31,0,0,1-7.51,3.21H734.92q-11.26,0-16.08-4.55c-3.22-3-5-4.74-5.36-5.1L585.34,251.78V390.1a12.39,12.39,0,0,1-3.75,9.11,13,13,0,0,1-9.65,3.75H523.69A12.38,12.38,0,0,1,514.57,399.21Z" style="fill: rgb(8, 88, 112);"/>
  <path class="cls-3" d="M853.94,399.21a12.36,12.36,0,0,1-3.76-9.11V40.55a12.15,12.15,0,0,1,3.76-9.38,12.89,12.89,0,0,1,9.11-3.49h51.47a12.7,12.7,0,0,1,9.38,3.49q3.48,3.48,3.48,9.38V390.1a12.9,12.9,0,0,1-3.48,9.11,12.16,12.16,0,0,1-9.38,3.75H863.05A12.34,12.34,0,0,1,853.94,399.21Z" style="fill: rgb(8, 88, 112);"/>
  <path class="cls-3" d="M1014.77,399.21a12.36,12.36,0,0,1-3.76-9.11v-349a13.63,13.63,0,0,1,3.49-9.65,12.2,12.2,0,0,1,9.38-3.75h236.43a12.85,12.85,0,0,1,13.4,13.4V77a12.22,12.22,0,0,1-3.75,9.39,13.6,13.6,0,0,1-9.65,3.48H1084.46v93.82h164a12.88,12.88,0,0,1,13.41,13.41v33.77a12.17,12.17,0,0,1-3.76,9.38,13.59,13.59,0,0,1-9.65,3.49h-164v97H1264.6a13.65,13.65,0,0,1,9.65,3.48,12.23,12.23,0,0,1,3.75,9.38V390.1a12.2,12.2,0,0,1-3.75,9.38,13.6,13.6,0,0,1-9.65,3.48H1023.88A12.34,12.34,0,0,1,1014.77,399.21Z" style="fill: rgb(8, 88, 112);"/>
  <path class="cls-3" d="M160.59,171.88a79.89,79.89,0,0,1,17.92,24.89l19.87,43.11-19.29,12.83L202,306.22l22.89-53.51-19.29-12.83,19.87-43.11A80.44,80.44,0,0,1,269,155.62L376.39,119V91.71L260.2,131.34A106.3,106.3,0,0,0,202,186a106.27,106.27,0,0,0-58.06-54.55L27.57,94.1v27.14l107.69,34.51A79.83,79.83,0,0,1,160.59,171.88Z"/>
  <path d="M 713.905 195.549 Q 696.905 195.549 680.705 189.249 Q 664.505 182.949 651.905 171.349 L 668.505 150.549 Q 680.705 161.349 692.005 166.149 Q 703.305 170.949 715.905 170.949 Q 724.705 170.949 731.105 168.849 Q 737.505 166.749 741.005 162.749 Q 744.505 158.749 744.505 153.349 Q 744.505 146.149 739.305 142.249 Q 734.105 138.349 721.505 136.149 L 693.705 131.349 Q 675.905 128.349 666.605 118.749 Q 657.305 109.149 657.305 93.949 Q 657.305 80.949 664.005 71.349 Q 670.705 61.749 683.005 56.649 Q 695.305 51.549 712.305 51.549 Q 727.705 51.549 743.005 56.749 Q 758.305 61.949 770.105 71.149 L 754.505 92.749 Q 732.505 75.949 710.305 75.949 Q 702.505 75.949 696.705 77.949 Q 690.905 79.949 687.805 83.449 Q 684.705 86.949 684.705 91.749 Q 684.705 98.149 689.305 101.649 Q 693.905 105.149 704.705 106.949 L 731.105 111.349 Q 752.105 114.749 762.505 124.649 Q 772.905 134.549 772.905 150.749 Q 772.905 164.349 765.705 174.449 Q 758.505 184.549 745.205 190.049 Q 731.905 195.549 713.905 195.549 Z" transform="matrix(1, 0, 0, 1, 796.211487, 98.207909)" style="fill: rgb(8, 88, 112); white-space: pre;"/>
  <path d="M 824.501 195.349 Q 813.301 195.349 804.701 191.249 Q 796.101 187.149 791.301 179.949 Q 786.501 172.749 786.501 163.349 Q 786.501 148.349 797.801 140.049 Q 809.101 131.749 828.901 131.749 Q 842.501 131.749 854.501 135.949 L 854.501 128.349 Q 854.501 119.349 848.901 114.749 Q 843.301 110.149 832.501 110.149 Q 825.901 110.149 818.301 112.249 Q 810.701 114.349 800.701 118.749 L 790.701 98.549 Q 803.101 92.949 814.401 90.149 Q 825.701 87.349 837.101 87.349 Q 858.101 87.349 869.801 97.449 Q 881.501 107.549 881.501 125.949 L 881.501 193.549 L 854.501 193.549 L 854.501 186.149 Q 848.101 190.949 840.701 193.149 Q 833.301 195.349 824.501 195.349 Z M 812.501 162.749 Q 812.501 168.749 817.701 172.249 Q 822.901 175.749 831.501 175.749 Q 838.301 175.749 844.101 174.049 Q 849.901 172.349 854.501 168.949 L 854.501 153.749 Q 849.501 151.749 844.101 150.749 Q 838.701 149.749 832.501 149.749 Q 823.101 149.749 817.801 153.249 Q 812.501 156.749 812.501 162.749 Z" transform="matrix(1, 0, 0, 1, 796.211487, 98.207909)" style="fill: rgb(8, 88, 112); white-space: pre;"/>
  <path d="M 902.295 193.549 L 902.295 89.349 L 929.695 89.349 L 929.695 97.949 Q 941.495 87.349 958.895 87.349 Q 971.095 87.349 980.395 92.649 Q 989.695 97.949 994.895 107.249 Q 1000.095 116.549 1000.095 128.949 L 1000.095 193.549 L 972.695 193.549 L 972.695 132.949 Q 972.695 122.749 966.895 116.849 Q 961.095 110.949 951.095 110.949 Q 944.095 110.949 938.695 113.649 Q 933.295 116.349 929.695 121.349 L 929.695 193.549 Z" transform="matrix(1, 0, 0, 1, 796.211487, 98.207909)" style="fill: rgb(8, 88, 112); white-space: pre;"/>
  <path d="M 1069.097 194.949 Q 1054.297 194.949 1042.297 187.749 Q 1030.297 180.549 1023.197 168.449 Q 1016.097 156.349 1016.097 141.349 Q 1016.097 126.349 1023.197 114.249 Q 1030.297 102.149 1042.497 95.049 Q 1054.697 87.949 1069.897 87.949 Q 1077.697 87.949 1084.897 90.049 Q 1092.097 92.149 1098.297 96.149 L 1098.297 53.549 L 1125.697 48.949 L 1125.697 193.549 L 1098.697 193.549 L 1098.697 184.949 Q 1085.897 194.949 1069.097 194.949 Z M 1073.497 171.549 Q 1081.097 171.549 1087.397 169.049 Q 1093.697 166.549 1098.297 161.549 L 1098.297 120.949 Q 1093.697 116.349 1087.297 113.749 Q 1080.897 111.149 1073.497 111.149 Q 1064.897 111.149 1057.997 115.049 Q 1051.097 118.949 1047.097 125.849 Q 1043.097 132.749 1043.097 141.349 Q 1043.097 149.949 1047.097 156.749 Q 1051.097 163.549 1057.997 167.549 Q 1064.897 171.549 1073.497 171.549 Z" transform="matrix(1, 0, 0, 1, 796.211487, 98.207909)" style="fill: rgb(8, 88, 112); white-space: pre;"/>
  <path d="M 1147.094 193.549 L 1147.094 53.549 L 1174.494 48.949 L 1174.494 97.749 Q 1186.894 87.949 1203.694 87.949 Q 1218.494 87.949 1230.494 95.149 Q 1242.494 102.349 1249.594 114.449 Q 1256.694 126.549 1256.694 141.549 Q 1256.694 156.549 1249.494 168.649 Q 1242.294 180.749 1230.094 187.849 Q 1217.894 194.949 1202.894 194.949 Q 1195.094 194.949 1187.694 192.749 Q 1180.294 190.549 1174.094 186.349 L 1174.094 193.549 Z M 1199.294 171.749 Q 1207.894 171.749 1214.794 167.749 Q 1221.694 163.749 1225.694 156.949 Q 1229.694 150.149 1229.694 141.549 Q 1229.694 132.949 1225.694 126.049 Q 1221.694 119.149 1214.794 115.249 Q 1207.894 111.349 1199.294 111.349 Q 1191.694 111.349 1185.394 113.849 Q 1179.094 116.349 1174.494 121.349 L 1174.494 161.949 Q 1178.894 166.549 1185.394 169.149 Q 1191.894 171.749 1199.294 171.749 Z" transform="matrix(1, 0, 0, 1, 796.211487, 98.207909)" style="fill: rgb(8, 88, 112); white-space: pre;"/>
  <path d="M 1324.09 195.549 Q 1308.49 195.549 1295.89 188.349 Q 1283.29 181.149 1275.89 168.949 Q 1268.49 156.749 1268.49 141.549 Q 1268.49 126.349 1275.79 114.049 Q 1283.09 101.749 1295.79 94.549 Q 1308.49 87.349 1324.09 87.349 Q 1339.69 87.349 1352.39 94.549 Q 1365.09 101.749 1372.39 114.049 Q 1379.69 126.349 1379.69 141.549 Q 1379.69 156.749 1372.39 168.949 Q 1365.09 181.149 1352.49 188.349 Q 1339.89 195.549 1324.09 195.549 Z M 1324.09 171.749 Q 1332.29 171.749 1338.79 167.749 Q 1345.29 163.749 1349.19 156.849 Q 1353.09 149.949 1353.09 141.549 Q 1353.09 132.949 1349.19 126.149 Q 1345.29 119.349 1338.79 115.249 Q 1332.29 111.149 1324.09 111.149 Q 1316.09 111.149 1309.49 115.249 Q 1302.89 119.349 1299.09 126.149 Q 1295.29 132.949 1295.29 141.549 Q 1295.29 149.949 1299.09 156.849 Q 1302.89 163.749 1309.49 167.749 Q 1316.09 171.749 1324.09 171.749 Z" transform="matrix(1, 0, 0, 1, 796.211487, 98.207909)" style="fill: rgb(8, 88, 112); white-space: pre;"/>
  <path d="M 1376.287 193.549 L 1416.287 140.549 L 1377.287 89.349 L 1409.087 89.349 L 1432.087 120.349 L 1454.887 89.349 L 1485.687 89.349 L 1447.287 140.149 L 1488.087 193.549 L 1456.087 193.549 L 1431.487 160.349 L 1406.887 193.549 Z" transform="matrix(1, 0, 0, 1, 796.211487, 98.207909)" style="fill: rgb(8, 88, 112); white-space: pre;"/>
</svg>