<?xml version="1.0" encoding="utf-8"?>
<!-- Generator: Adobe Illustrator 23.1.1, SVG Export Plug-In . SVG Version: 6.00 Build 0)  -->
<svg version="1.1" id="Layer_1" xmlns="http://www.w3.org/2000/svg" xmlns:xlink="http://www.w3.org/1999/xlink" x="0px" y="0px"
	 width="514" height="76" viewBox="0 0 514 76" style="enable-background:new 0 0 514 76;" xml:space="preserve">
<style type="text/css">
	.st0{fill:#EE0000;}
	.st1{fill:#FFFFFF;}
	.st2{fill:#00586F;}
	.st3{fill:#F88D2B;}
	.st4{fill:#B8D8EB;}
</style>
<title>Automation</title>
<desc>Created with Sketch.</desc>
<g id="Symbols">
	<g id="Automation">
		<path id="Path" class="st0" d="M74.8,44.4c-0.4-0.1-0.8,0-1.2,0.2c-0.3,0.2-0.6,0.6-0.7,1c-2.2,10.7-9.6,19.7-19.8,24.2
			c-10.2,4.5-22,4-31.7-1.4c-0.4-0.2-0.8-0.2-1.2-0.1c-0.4,0.1-0.7,0.4-0.9,0.8c-0.4,0.7-0.2,1.7,0.6,2.1
			c10.6,5.9,23.5,6.4,34.6,1.5c11.1-5,19.2-14.8,21.6-26.5c0.1-0.4,0-0.8-0.2-1.2C75.6,44.7,75.2,44.4,74.8,44.4z"/>
		<path class="st0" d="M3.2,38.4C3.3,19.8,17.7,4.4,36.1,3.2S70.7,15.5,73,33.9c0.1,0.9,0.9,1.5,1.7,1.4c0.9-0.1,1.5-0.9,1.4-1.8
			c-2-16.3-14.3-29.6-30.4-32.8S13.3,4.9,5.1,19.3s-6.3,32.4,4.7,44.7c0.3,0.3,0.7,0.5,1.2,0.5c0.4,0,0.8-0.1,1-0.4
			c0.6-0.6,0.7-1.6,0.1-2.2C6.4,55.5,3.2,47.1,3.2,38.4L3.2,38.4z"/>
		<path id="Shape" class="st0" d="M34.4,62c0.7,0.9,1.9,1.4,3.1,1.3c1.2-0.1,2.3-0.7,2.9-1.8l15-25.2c0.7-1.1,0.7-2.5,0-3.6
			s-1.9-1.8-3.2-1.8h-7.6l3-8.8c0.3-1.1,0.1-2.2-0.6-3.1c-0.7-0.9-1.8-1.4-2.9-1.4H31.8c-1.8,0-3.4,1.3-3.6,3.1l-2.7,19.9
			c-0.1,1,0.2,2,0.9,2.8s1.7,1.2,2.7,1.2h8.1L33.7,59C33.4,60,33.7,61.1,34.4,62L34.4,62z M41.2,41.6H29.1c-0.1,0-0.3-0.1-0.3-0.2
			c-0.1-0.1-0.1-0.2-0.1-0.4L31.4,21c0-0.2,0.2-0.4,0.4-0.4h12.3c0.1,0,0.3,0.1,0.3,0.2c0.1,0.1,0.1,0.2,0.1,0.3l-4.3,12.8h12
			c0.2,0,0.3,0.1,0.4,0.2c0.1,0.1,0.1,0.3,0,0.4L37.6,60c-0.2,0.3-0.7,0.2-0.7,0c-0.1-0.1-0.1-0.2-0.1-0.4L41.2,41.6z"/>
		<path class="st0" d="M76,38.8c-0.1-0.2-0.1-0.3-0.3-0.4c-0.2-0.3-0.6-0.4-0.9-0.4c-0.1,0-0.3,0-0.4,0.1c-0.5,0.2-0.8,0.7-0.8,1.2
			c0,0.3,0.1,0.7,0.4,0.9c0.2,0.2,0.6,0.4,0.9,0.4c0.3,0,0.7-0.1,0.9-0.4c0.2-0.2,0.4-0.6,0.4-0.9C76.1,39.1,76.1,38.9,76,38.8z"/>
		<path class="st0" d="M16.2,66.3c-0.3-0.2-0.6-0.4-0.9-0.4c-0.2,0-0.3,0-0.5,0.1s-0.3,0.2-0.4,0.3c-0.2,0.2-0.4,0.6-0.4,0.9
			c0,0.3,0.1,0.7,0.4,0.9c0.2,0.2,0.6,0.4,0.9,0.4s0.7-0.1,0.9-0.4c0.2-0.2,0.4-0.6,0.4-0.9c0-0.2,0-0.3-0.1-0.5
			S16.3,66.4,16.2,66.3z"/>
	</g>
</g>
<g>
	<path class="st1" d="M94.2,18.9h14.5c12.4,0,21.7,8.8,21.7,20.7c0,11.8-9.2,20.5-21.7,20.5H94.2V18.9z M100.4,24.4v30.1h8.5
		c8.6,0,15.2-6.5,15.2-15c0-8.6-6.6-15.1-15.2-15.1C108.9,24.4,100.4,24.4,100.4,24.4z"/>
	<path class="st1" d="M142.8,26.6v33.5H137V18.9h8.2l12.9,26.3l13-26.3h8.2v41.2h-5.8V26.5l-15.4,30.7L142.8,26.6z"/>
	<path class="st1" d="M193.8,18.9l23,30.5V18.9h5.8v41.2h-5.5l-23.6-31.5v31.5h-5.8V18.9H193.8z"/>
</g>
<g>
	<path class="st2" d="M428.8,35.8c-0.4-0.6-1-0.9-1.7-0.9c-0.1,0-4.1,0.7-4.1,0.7c-0.6,0.1-1.1,0.5-1.5,1l-0.7,1.1
		c-1.5-1.3-3.1-2-4.7-2c-1.6,0-3.3,0.7-4.7,2l-0.7-1.1c-0.3-0.5-0.8-0.9-1.5-1c0,0-3.9-0.7-4.1-0.7c-1.2,0-2.1,1-2.1,2.1
		c0,0.4,0.1,0.7,0.3,1l1.5,2.7c-1,1.6-0.5,3.8,1.1,4.8c0.2,0.1,0.5,0.3,0.7,0.3l-2.8,13l12.2,6.9l12.3-6.9l-2.8-13
		c1.8-0.6,2.8-2.6,2.2-4.4c-0.1-0.3-0.2-0.5-0.3-0.7l1.5-2.7C429.3,37.4,429.2,36.5,428.8,35.8z"/>
	<path class="st1" d="M415.1,43.3h0.3l0.7,0.7l0.7-0.7h0.3c1.9,0,3.8,0.1,5.3,0.2c-1.4-3-3.7-5.7-6.3-5.7c-2.6,0-4.9,2.6-6.3,5.7
		C411.4,43.4,413.2,43.3,415.1,43.3z"/>
	<path class="st3" d="M414.2,56c1.2,0.8,2.8,0.8,4,0C416.8,55.9,415.5,55.9,414.2,56z"/>
	<path class="st4" d="M421.6,55.5c-0.1-0.4-0.3-0.9-0.5-1.3c0-0.1-0.1-0.1-0.1-0.2c0,0,0-0.1-0.1-0.1c0-0.1-0.1-0.1-0.1-0.2
		c0,0-0.1-0.1-0.1-0.1s-0.1-0.1-0.1-0.1c0,0-0.1-0.1-0.1-0.1c0,0-0.1-0.1-0.1-0.1c-0.7-0.7-1.5-1.3-2.5-1.6
		c-0.5,0.3-1.2,0.7-1.8,0.7c-0.6,0-1.3-0.3-1.8-0.7c-0.9,0.3-1.8,0.9-2.5,1.6c0,0-0.1,0.1-0.1,0.1c0,0-0.1,0.1-0.1,0.1
		c0,0-0.1,0.1-0.1,0.1c0,0-0.1,0.1-0.1,0.1c0,0.1-0.1,0.1-0.1,0.2c0,0,0,0.1-0.1,0.1c0,0.1-0.1,0.1-0.1,0.2
		c-0.2,0.4-0.4,0.8-0.5,1.3c0.4-0.1,0.8-0.3,1.2-0.4c0,0,0,0,0,0l0.1,0l0.5-1.4V55l0.1,0c0.2,0,0.4-0.1,0.6-0.1l0.1,0
		c0.2,0,0.5-0.1,0.7-0.1l0.4-1.7v1.6c0.3,0,0.5,0,0.8-0.1l0.1,0c0.1,0,0.2,0,0.3,0c0.2,0,0.3,0,0.5,0s0.3,0,0.5,0l0.3,0
		c0.1,0,0.1,0,0.2,0c0.3,0,0.5,0,0.8,0.1v-1.6l0.4,1.7l0.1,0c0.2,0,0.4,0.1,0.7,0.1c0.1,0,0.2,0,0.2,0c0.1,0,0.2,0,0.4,0.1
		c0.1,0,0.1,0,0.2,0v-1.3l0.5,1.4c0,0,0.1,0,0.1,0l0.2,0l0,0C420.8,55.3,421.2,55.4,421.6,55.5z"/>
	<path class="st3" d="M423,44.8l-0.3,0c-1.6-0.1-3.4-0.2-5.3-0.2l-1.2,1.2l-1.2-1.2c-1.9,0-3.8,0.1-5.3,0.2l-0.3,0
		c-0.6,1.5-0.9,3-0.9,4.3c0,2.1,0.9,3.2,2.2,3.7c0.7-0.9,1.6-1.6,2.6-2.1c-0.2-0.3,0-0.7,0.3-0.8c0.2-0.1,0.5-0.1,0.7,0.1
		c0.5,0.5,1.4,1.1,1.9,1.1c0.5,0,1.4-0.7,1.9-1.1c0.2-0.2,0.6-0.2,0.9,0c0.2,0.2,0.2,0.5,0.1,0.7c1,0.5,1.9,1.2,2.6,2.1
		c1.4-0.5,2.2-1.5,2.2-3.7C423.8,47.9,423.5,46.3,423,44.8z M412.8,48.9c-0.9,0-1.7-0.5-2.3-1.3c0.5-0.9,1.3-1.4,2.2-1.4
		s1.7,0.5,2.3,1.3C414.5,48.4,413.7,48.9,412.8,48.9z M421.7,48.5l-1,1l-1-1l-1,1l-1-1l1-1l-1-1l1-1l1,1l1-1l1,1l-1,1L421.7,48.5z"
		/>
	<path class="st4" d="M419,59.1l0.6,2.4l2.3-1.3v-2.7l0.6,2.4l3.4-1.9l-1.4-6.3c-0.5,1-1.2,1.8-2.3,2.2c0.2,0.4,0.4,0.8,0.5,1.3
		c0.2,0.7-0.2,1.3-0.9,1.5c-0.2,0.1-0.5,0.1-0.7,0c-0.5-0.2-0.9-0.3-1.4-0.4c-1.8,2-4.8,2.1-6.7,0.4c-0.1-0.1-0.3-0.3-0.4-0.4
		c-0.5,0.1-1,0.3-1.6,0.4c-0.6,0.2-1.4-0.1-1.6-0.8c-0.1-0.2-0.1-0.5,0-0.7c0.1-0.4,0.3-0.9,0.5-1.3c-1.1-0.5-1.9-1.2-2.3-2.2
		l-1.4,6.3l3.4,1.9l0.6-2.4v2.7l2.3,1.3l0.6-2.4v2.8l2.9,1.6l2.9-1.6V59.1z"/>
	<path class="st1" d="M408.3,43.9c0.4-0.9,0.8-1.8,1.3-2.7c0.2-0.4,0.5-0.8,0.7-1.1l-1.5-2.5l-3.7-0.7l2.4,4.3l0,0
		c-0.7,0.2-1.2,0.9-1.1,1.6s0.9,1.2,1.6,1.1C408.2,44,408.2,44,408.3,43.9z"/>
	<path class="st1" d="M424.6,41.3L424.6,41.3L427,37l-3.7,0.7l-1.5,2.5c0.3,0.3,0.5,0.7,0.7,1.1c0.5,0.8,1,1.7,1.3,2.7
		c0.7,0.3,1.5-0.1,1.7-0.8c0.3-0.7-0.1-1.5-0.8-1.7C424.8,41.4,424.7,41.3,424.6,41.3L424.6,41.3z"/>
	<path class="st1" d="M443.1,49l0.3-0.5l8.3-8.6h3.5l-8.4,8.7l8.8,11.6h-3.4l-7.4-9.8l-1.7,1.6l0,8.2h-2.8V39.9h2.8V48L443.1,49z"/>
	<path class="st1" d="M457.3,51.1c0.5-0.9,1.3-1.7,2.3-2.2c1-0.5,2.1-0.8,3.3-0.8c1.2,0,2.3,0.3,3.3,0.8c0.9,0.5,1.7,1.3,2.2,2.2
		c0.5,1,0.8,2,0.8,3.1c0,1.1-0.3,2.2-0.8,3.2c-0.5,0.9-1.3,1.7-2.3,2.2c-1,0.5-2.1,0.8-3.3,0.8c-1.2,0-2.3-0.3-3.3-0.8
		c-1-0.5-1.7-1.2-2.3-2.2c-0.6-0.9-0.8-2-0.8-3.2C456.4,53.1,456.7,52.1,457.3,51.1z M459.6,56.3c0.3,0.6,0.8,1.1,1.3,1.5
		c0.6,0.4,1.2,0.5,1.9,0.5c1.1,0,2-0.4,2.7-1.1c0.7-0.8,1.1-1.7,1.1-2.9c0-1.1-0.4-2.1-1.1-2.9c-0.7-0.8-1.6-1.2-2.7-1.2
		c-0.7,0-1.3,0.2-1.9,0.5c-0.6,0.4-1,0.9-1.3,1.5C458.9,53.5,458.9,55,459.6,56.3L459.6,56.3z"/>
	<path class="st1" d="M483.8,48.5v11.7c0,1-0.3,2-0.8,2.9c-0.5,0.9-1.3,1.5-2.3,2c-1,0.5-2.2,0.8-3.5,0.8c-1.2,0-2.2-0.2-3-0.6
		c-0.8-0.4-1.7-1-2.6-1.7l1.5-1.8c0.6,0.5,1.2,1,1.9,1.4c0.7,0.3,1.4,0.5,2.1,0.5c1.3,0,2.3-0.3,3-0.9c0.7-0.6,1.1-1.4,1.1-2.5
		l0-2.2c-0.4,0.7-1.1,1.3-1.9,1.8s-1.8,0.7-2.9,0.7c-1,0-2.1-0.3-2.9-0.8c-0.9-0.5-1.6-1.3-2.1-2.2c-1.1-2-1.1-4.3,0-6.3
		c0.5-0.9,1.3-1.7,2.2-2.2c0.9-0.5,1.9-0.8,3-0.8c0.9,0,1.9,0.2,2.7,0.6c0.8,0.4,1.5,0.9,1.9,1.5l0.2-1.6L483.8,48.5z M479.8,57.5
		c0.7-0.5,1.2-1.3,1.4-2.1V53c-0.3-0.8-0.8-1.5-1.5-2c-0.7-0.5-1.6-0.8-2.5-0.8c-1.1,0-2.1,0.4-2.9,1.1s-1.1,1.7-1.1,2.9
		c0,1.4,0.7,2.8,2,3.5c0.6,0.4,1.3,0.6,2,0.5C478.2,58.3,479.1,58,479.8,57.5z"/>
	<path class="st1" d="M487.5,43.3c0.3-0.3,0.7-0.4,1.1-0.4c0.4,0,0.8,0.1,1.1,0.4c0.6,0.5,0.6,1.4,0.1,2c0,0-0.1,0.1-0.1,0.1
		c-0.3,0.3-0.7,0.4-1.1,0.4c-0.4,0-0.8-0.1-1.1-0.4c-0.6-0.5-0.6-1.4-0.1-1.9C487.4,43.4,487.5,43.4,487.5,43.3L487.5,43.3z
		 M489.9,48.5v11.6h-2.6V48.5L489.9,48.5z"/>
	<path class="st1" d="M497,43.4v5.1h3.2v2.1H497v9.5h-2.6v-9.5h-2.1v-2.1h2.1v-5.1L497,43.4z"/>
	<path class="st1" d="M502.1,51.1c0.5-0.9,1.3-1.7,2.3-2.2c1-0.5,2.1-0.8,3.3-0.8c1.2,0,2.3,0.3,3.3,0.8c0.9,0.5,1.7,1.3,2.2,2.2
		c0.5,1,0.8,2,0.8,3.1c0,1.1-0.3,2.2-0.8,3.2c-0.5,0.9-1.3,1.7-2.3,2.2c-1,0.5-2.1,0.8-3.3,0.8c-1.2,0-2.3-0.3-3.3-0.8
		c-1-0.5-1.7-1.2-2.3-2.2c-0.6-0.9-0.8-2-0.8-3.2C501.2,53.1,501.5,52.1,502.1,51.1z M504.4,56.3c0.3,0.6,0.8,1.1,1.3,1.5
		c0.6,0.4,1.2,0.5,1.9,0.5c1.1,0,2-0.4,2.7-1.1c0.7-0.8,1.1-1.7,1.1-2.9c0-1.1-0.4-2.1-1.1-2.9c-0.7-0.8-1.6-1.2-2.7-1.2
		c-0.7,0-1.3,0.2-1.9,0.5c-0.6,0.4-1,0.9-1.3,1.5C503.7,53.5,503.7,55,504.4,56.3L504.4,56.3z"/>
</g>
<g>
	<path class="st1" d="M269.7,43.4h6.9c3.3,0,5.4,2,5.4,5c0,3-2.1,5-5.4,5h-5.1v6.9h-1.8V43.4z M271.5,45v6.7h4.9
		c2.3,0,3.7-1.3,3.7-3.4c0-2.1-1.4-3.3-3.7-3.3H271.5z"/>
	<path class="st1" d="M289.5,48.3c3.3,0,5.7,2.6,5.7,6.1c0,3.5-2.5,6.1-5.7,6.1c-3.2,0-5.7-2.6-5.7-6.1
		C283.8,50.8,286.3,48.3,289.5,48.3z M293.5,54.3c0-2.6-1.7-4.5-4-4.5c-2.3,0-4,1.9-4,4.5c0,2.6,1.7,4.5,4,4.5
		C291.8,58.8,293.5,56.9,293.5,54.3z"/>
	<path class="st1" d="M300.2,60.2l-3.2-11.7h1.7l2.4,9.4l2.8-9.4h1.6l2.8,9.4l2.4-9.4h1.7l-3.2,11.7h-1.7l-2.8-9.5l-2.8,9.5H300.2z"
		/>
	<path class="st1" d="M319.9,60.4c-3.3,0-5.8-2.6-5.8-6.1c0-3.4,2.4-6.1,5.5-6.1c3.1,0,5.4,2.5,5.4,5.9v0.5h-9.2
		c0.2,2.4,1.9,4.2,4.2,4.2c1.2,0,2.4-0.5,3.2-1.2l1.1,1.2C322.9,59.9,321.5,60.4,319.9,60.4z M315.8,53.4h7.4
		c-0.3-2.1-1.8-3.7-3.7-3.7C317.6,49.8,316.1,51.3,315.8,53.4z"/>
	<path class="st1" d="M328,48.4h1.8v2.4c0.6-1.6,1.8-2.6,3.3-2.6c0.4,0,0.7,0,1.1,0.2V50c-0.4-0.1-0.8-0.2-1.2-0.2
		c-1.4,0-2.5,0.9-3.1,2.4v8H328V48.4z"/>
	<path class="st1" d="M341,60.4c-3.3,0-5.8-2.6-5.8-6.1c0-3.4,2.4-6.1,5.5-6.1c3.1,0,5.4,2.5,5.4,5.9v0.5h-9.2
		c0.2,2.4,1.9,4.2,4.2,4.2c1.2,0,2.4-0.5,3.2-1.2l1.1,1.2C344,59.9,342.6,60.4,341,60.4z M336.9,53.4h7.4c-0.3-2.1-1.8-3.7-3.7-3.7
		C338.7,49.8,337.2,51.3,336.9,53.4z"/>
	<path class="st1" d="M357.7,58.6c-0.9,1.1-2.2,1.7-3.7,1.7c-3,0-5.4-2.6-5.4-6c0-3.4,2.4-6,5.5-6c1.4,0,2.7,0.6,3.6,1.6V43l1.8-0.4
		v17.5h-1.8V58.6z M354.4,58.8c1.4,0,2.6-0.6,3.3-1.6v-5.8c-0.8-1-2-1.6-3.3-1.6c-2.4,0-4.1,1.9-4.1,4.5S352,58.8,354.4,58.8z"/>
	<path class="st1" d="M374.1,60.3c-1.5,0-2.8-0.6-3.7-1.7v1.5h-1.7V43l1.8-0.4v7.4c0.9-1.1,2.2-1.8,3.8-1.8c3,0,5.4,2.6,5.4,6
		C379.6,57.7,377.2,60.3,374.1,60.3z M370.4,51.4v5.7c0.8,1,2,1.6,3.3,1.6c2.4,0,4.1-1.9,4.1-4.5s-1.8-4.5-4.1-4.5
		C372.3,49.8,371.1,50.4,370.4,51.4z"/>
	<path class="st1" d="M385.3,60.1l-4.5-11.7h1.9l3.6,9.6l3.8-9.6h1.9l-5.8,14.1c-0.7,1.9-1.6,2.6-3.4,2.6c-0.3,0-0.7,0-1.1-0.2v-1.6
		c0.5,0.1,0.7,0.1,1,0.1c0.9,0,1.4-0.4,1.9-1.5L385.3,60.1z"/>
</g>
</svg>
