<?xml version="1.0" encoding="utf-8"?>
<!-- Generator: Adobe Illustrator 23.1.1, SVG Export Plug-In . SVG Version: 6.00 Build 0)  -->
<svg version="1.1" id="Layer_1" xmlns="http://www.w3.org/2000/svg" xmlns:xlink="http://www.w3.org/1999/xlink" x="0px" y="0px"
	 viewBox="0 0 171 38" width="171" height="38" style="enable-background:new 0 0 171 38;" xml:space="preserve">
<style type="text/css">
	.st0{fill:#FFFFFF;}
	.st1{fill:#DD3926;}
	.st2{fill:#CC3427;}
	.st3{fill:#E5E5E4;}
</style>
<title>Automation</title>
<desc>Created with Sketch.</desc>
<g>
	<g>
		<path class="st0" d="M47,6.5h3.1v20.6H47V6.5z"/>
		<path class="st0" d="M54,12.1h3v1.5c1.2-1.2,2.7-1.8,4.5-1.8c3.5,0,5.9,2.4,5.9,5.9v9.4h-3v-8.9c0-2.4-1.5-3.8-3.7-3.8
			c-1.6,0-2.9,0.7-3.7,2v10.8h-3V12.1z"/>
		<path class="st0" d="M72,14.6h-3.2v-2.5H72V8.3l2.9-0.7v4.6h4.4v2.5h-4.4v8.2c0,1.6,0.6,2.1,2.2,2.1c0.9,0,1.4-0.1,2.2-0.4V27
			c-0.8,0.3-1.9,0.5-2.8,0.5c-2.9,0-4.5-1.4-4.5-4L72,14.6L72,14.6z"/>
		<path class="st0" d="M88.4,27.4c-4.4,0-7.9-3.4-7.9-7.8c0-4.4,3.3-7.7,7.5-7.7c4.1,0,7.3,3.4,7.3,7.9v0.9H83.5
			c0.4,2.5,2.5,4.3,5.1,4.3c1.5,0,2.9-0.5,3.8-1.3l1.9,1.9C92.5,26.8,90.7,27.4,88.4,27.4z M83.5,18.4h8.9c-0.5-2.3-2.2-4-4.4-4
			C85.7,14.4,83.9,16,83.5,18.4z"/>
		<path class="st0" d="M101.1,27.1h-3V6.5l3-0.7V27.1z"/>
		<path class="st0" d="M107.5,27.1h-3V6.5l3-0.7V27.1z"/>
		<path class="st0" d="M110.6,7.9c0-1,0.8-1.9,1.8-1.9s1.9,0.8,1.9,1.9c0,1-0.8,1.9-1.9,1.9S110.6,8.9,110.6,7.9z M113.9,27.1h-3
			v-15h3V27.1z"/>
		<path class="st0" d="M124.2,6.5h3.6l8.4,20.6h-3.4l-2.4-6.1h-9.2l-2.4,6.1h-3.2L124.2,6.5z M129.5,18.5l-3.6-9.1l-3.6,9.1H129.5z"
			/>
		<path class="st0" d="M138,12.1h2.9v1.5c1.3-1.1,2.9-1.7,4.6-1.7c4.3,0,7.6,3.4,7.6,7.7c0,4.4-3.4,7.8-7.7,7.8
			c-1.7,0-3.3-0.6-4.5-1.5v7.4H138V12.1z M141,16.3V23c1,1.1,2.5,1.8,4.2,1.8c2.9,0,5.1-2.2,5.1-5.2c0-3-2.2-5.2-5.1-5.2
			C143.5,14.5,142,15.1,141,16.3z"/>
		<path class="st0" d="M155.9,12.1h2.9v1.5c1.3-1.1,2.9-1.7,4.6-1.7c4.3,0,7.6,3.4,7.6,7.7c0,4.4-3.4,7.8-7.7,7.8
			c-1.7,0-3.3-0.6-4.5-1.5v7.4h-3L155.9,12.1L155.9,12.1z M158.9,16.3V23c1,1.1,2.5,1.8,4.2,1.8c2.9,0,5.1-2.2,5.1-5.2
			c0-3-2.2-5.2-5.1-5.2C161.3,14.5,159.8,15.1,158.9,16.3z"/>
	</g>
	<g>
		<circle class="st1" cx="19" cy="19" r="19"/>
		<path class="st2" d="M32.4,5.6L5.5,32.4c7.4,7.3,19.4,7.3,26.8-0.1S39.8,13,32.4,5.6z"/>
		<polygon class="st0" points="20,17.3 24.4,8.4 13.7,8.3 13.7,21.8 16.2,21.8 20.7,17.2 		"/>
		<polygon class="st3" points="18.9,30.5 25.5,17.2 20.7,17.2 16.2,21.8 18.9,21.9 		"/>
	</g>
</g>
</svg>
