<?xml version="1.0" encoding="utf-8"?>
<!-- Generator: Adobe Illustrator 23.1.1, SVG Export Plug-In . SVG Version: 6.00 Build 0)  -->
<svg version="1.1" id="Layer_1" xmlns="http://www.w3.org/2000/svg" xmlns:xlink="http://www.w3.org/1999/xlink" x="0px" y="0px"
	 viewBox="0 0 341.9 76" width="341.9px" height="76px" style="enable-background:new 0 0 341.9 76;" xml:space="preserve">
<style type="text/css">
	.st0{fill:#EE0000;}
	.st1{fill:#FFFFFF;}
</style>
<title>Automation</title>
<desc>Created with Sketch.</desc>
<g id="Symbols">
	<g id="Automation">
		<path id="Path" class="st0" d="M74.7,44.4c-0.4-0.1-0.8,0-1.2,0.2c-0.3,0.2-0.6,0.6-0.7,1c-2.2,10.7-9.6,19.7-19.8,24.2
			s-22,4-31.7-1.4c-0.4-0.2-0.8-0.2-1.2-0.1c-0.4,0.1-0.7,0.4-0.9,0.8c-0.4,0.7-0.2,1.7,0.6,2.1c10.6,5.9,23.5,6.4,34.6,1.5
			C65.5,67.7,73.6,57.9,76,46.2c0.1-0.4,0-0.8-0.2-1.2C75.5,44.7,75.1,44.4,74.7,44.4z"/>
		<path class="st0" d="M3.1,38.4C3.2,19.9,17.6,4.5,36,3.3s34.6,12.3,36.9,30.7c0.1,0.9,0.9,1.5,1.7,1.4c0.9-0.1,1.5-0.9,1.4-1.8
			C74,17.3,61.7,4,45.6,0.8S13.2,5,5,19.4s-6.3,32.4,4.7,44.7c0.3,0.3,0.7,0.5,1.2,0.5c0.4,0,0.8-0.1,1-0.4c0.6-0.6,0.7-1.6,0.1-2.2
			C6.3,55.5,3.1,47.1,3.1,38.4L3.1,38.4z"/>
		<path id="Shape" class="st0" d="M34.3,62c0.7,0.9,1.9,1.4,3.1,1.3c1.2-0.1,2.3-0.7,2.9-1.8l15-25.2c0.7-1.1,0.7-2.5,0-3.6
			c-0.7-1.1-1.9-1.8-3.2-1.8h-7.6l3-8.8c0.3-1.1,0.1-2.2-0.6-3.1s-1.8-1.4-2.9-1.4H31.7c-1.8,0-3.4,1.3-3.6,3.1l-2.7,19.9
			c-0.1,1,0.2,2,0.9,2.8c0.7,0.8,1.7,1.2,2.7,1.2h8.1L33.6,59C33.3,60,33.6,61.1,34.3,62L34.3,62z M41.1,41.6H29
			c-0.1,0-0.3-0.1-0.3-0.2c-0.1-0.1-0.1-0.2-0.1-0.4l2.7-19.9c0-0.2,0.2-0.4,0.4-0.4h12.3c0.1,0,0.3,0.1,0.3,0.2
			c0.1,0.1,0.1,0.2,0.1,0.3l-4.3,12.8h12c0.2,0,0.3,0.1,0.4,0.2c0.1,0.1,0.1,0.3,0,0.4L37.5,60c-0.2,0.3-0.7,0.2-0.7,0
			c-0.1-0.1-0.1-0.2-0.1-0.4L41.1,41.6z"/>
		<path class="st0" d="M75.9,38.8c-0.1-0.2-0.1-0.3-0.3-0.4C75.4,38.1,75,38,74.7,38c-0.1,0-0.3,0-0.4,0.1c-0.5,0.2-0.8,0.7-0.8,1.2
			c0,0.3,0.1,0.7,0.4,0.9c0.2,0.2,0.6,0.4,0.9,0.4c0.3,0,0.7-0.1,0.9-0.4c0.2-0.2,0.4-0.6,0.4-0.9C76,39.1,76,38.9,75.9,38.8z"/>
		<path class="st0" d="M16.1,66.3c-0.3-0.2-0.6-0.4-0.9-0.4c-0.2,0-0.3,0-0.5,0.1c-0.2,0.1-0.3,0.2-0.4,0.3
			c-0.2,0.2-0.4,0.6-0.4,0.9c0,0.3,0.1,0.7,0.4,0.9c0.2,0.2,0.6,0.4,0.9,0.4c0.3,0,0.7-0.1,0.9-0.4c0.2-0.2,0.4-0.6,0.4-0.9
			c0-0.2,0-0.3-0.1-0.5C16.3,66.5,16.2,66.4,16.1,66.3z"/>
	</g>
</g>
<g>
	<path class="st1" d="M94,13.1h6.2v41.2H94V13.1z"/>
	<path class="st1" d="M107.9,24.3h5.9v3c2.4-2.4,5.4-3.6,9-3.6c6.9,0,11.7,4.8,11.7,11.7v18.8h-5.9V36.4c0-4.7-2.9-7.6-7.4-7.6
		c-3.2,0-5.8,1.4-7.4,3.9v21.6h-5.9V24.3z"/>
	<path class="st1" d="M144,29.3h-6.4v-4.9h6.4v-7.7l5.8-1.4v9.1h8.8v4.9h-8.8v16.3c0,3.1,1.2,4.2,4.4,4.2c1.7,0,2.8-0.2,4.3-0.7v4.9
		c-1.6,0.5-3.8,0.9-5.6,0.9c-5.8,0-9-2.8-9-8V29.3z"/>
	<path class="st1" d="M176.8,54.8c-8.8,0-15.7-6.8-15.7-15.6c0-8.7,6.6-15.4,15-15.4c8.2,0,14.5,6.8,14.5,15.7v1.7h-23.7
		c0.8,5,4.9,8.6,10.1,8.6c2.9,0,5.7-1,7.6-2.6l3.8,3.7C184.9,53.6,181.3,54.8,176.8,54.8z M167,36.8h17.8c-0.9-4.6-4.4-8-8.8-8
		C171.4,28.8,167.8,32,167,36.8z"/>
	<path class="st1" d="M202.1,54.3h-5.9V13.1l5.9-1.3V54.3z"/>
	<path class="st1" d="M214.9,54.3H209V13.1l5.9-1.3V54.3z"/>
	<path class="st1" d="M221.2,15.8c0-2,1.6-3.7,3.6-3.7s3.7,1.6,3.7,3.7c0,2-1.6,3.7-3.7,3.7S221.2,17.8,221.2,15.8z M227.8,54.3
		h-5.9v-30h5.9V54.3z"/>
	<path class="st1" d="M248.4,13.1h7.2l16.8,41.2h-6.7L261,42.2h-18.4l-4.8,12.1h-6.4L248.4,13.1z M259,37.1L251.8,19l-7.2,18.1H259z
		"/>
	<path class="st1" d="M276,24.3h5.8v2.9c2.5-2.2,5.7-3.4,9.2-3.4c8.5,0,15.1,6.8,15.1,15.4c0,8.7-6.7,15.5-15.3,15.5
		c-3.3,0-6.5-1.1-9-2.9v14.7H276V24.3z M281.9,32.6v13.5c1.9,2.2,5,3.5,8.4,3.5c5.8,0,10.1-4.4,10.1-10.3c0-5.9-4.4-10.4-10.1-10.4
		C286.9,29,283.9,30.3,281.9,32.6z"/>
	<path class="st1" d="M311.8,24.3h5.8v2.9c2.5-2.2,5.7-3.4,9.2-3.4c8.5,0,15.1,6.8,15.1,15.4c0,8.7-6.7,15.5-15.3,15.5
		c-3.3,0-6.5-1.1-9-2.9v14.7h-5.9V24.3z M317.7,32.6v13.5c1.9,2.2,5,3.5,8.4,3.5c5.8,0,10.1-4.4,10.1-10.3c0-5.9-4.4-10.4-10.1-10.4
		C322.6,29,319.6,30.3,317.7,32.6z"/>
</g>
</svg>
