<?xml version="1.0" encoding="utf-8"?>
<!-- Generator: Adobe Illustrator 23.1.1, SVG Export Plug-In . SVG Version: 6.00 Build 0)  -->
<svg version="1.1" id="artwork" xmlns="http://www.w3.org/2000/svg" xmlns:xlink="http://www.w3.org/1999/xlink" x="0px" y="0px"
	 viewBox="0 0 110 30.7" style="enable-background:new 0 0 110 30.7;" xml:space="preserve">
<style type="text/css">
	.st0{fill:#00586F;}
	.st1{fill:#FFFFFF;}
	.st2{fill:#F88D2B;}
	.st3{fill:#B8D8EB;}
</style>
<title>kogito_logo_rgb_color_horizontal_reverse</title>
<path class="st0" d="M25.5,0.9c-0.4-0.6-1-0.9-1.7-0.9c-0.1,0-4,0.7-4,0.7c-0.6,0.1-1.1,0.5-1.4,1l-0.7,1.1
	c-1.5-1.3-3.1-1.9-4.7-1.9S9.7,1.5,8.3,2.8L7.6,1.7c-0.3-0.5-0.8-0.9-1.4-1c0,0-3.9-0.7-4-0.7C0.9,0,0,0.9,0,2.1
	c0,0.4,0.1,0.7,0.3,1l1.5,2.7c-1,1.6-0.5,3.8,1.1,4.8c0.2,0.1,0.5,0.3,0.7,0.3L0.8,23.9l12.1,6.9l12.1-6.9L22.3,11
	c1.8-0.6,2.8-2.6,2.2-4.4c-0.1-0.2-0.2-0.5-0.3-0.7l1.5-2.7C26,2.4,26,1.6,25.5,0.9z"/>
<path class="st1" d="M12,8.3h0.3L12.9,9l0.7-0.7h0.3c1.9,0,3.7,0.1,5.3,0.2c-1.4-3-3.7-5.6-6.3-5.6S8.1,5.6,6.7,8.6
	C8.3,8.4,10.1,8.4,12,8.3z"/>
<path class="st2" d="M11,20.9c1.2,0.8,2.8,0.8,3.9,0C13.7,20.8,12.4,20.8,11,20.9z"/>
<path class="st3" d="M18.3,20.4c-0.1-0.4-0.3-0.9-0.5-1.2c0-0.1-0.1-0.1-0.1-0.2c0,0,0-0.1-0.1-0.1c0-0.1-0.1-0.1-0.1-0.2
	c0,0-0.1-0.1-0.1-0.1s-0.1-0.1-0.1-0.1c0,0-0.1-0.1-0.1-0.1c0,0-0.1-0.1-0.1-0.1c-0.7-0.7-1.5-1.3-2.4-1.6c-0.5,0.3-1.2,0.7-1.8,0.7
	s-1.2-0.3-1.8-0.7c-0.9,0.3-1.8,0.9-2.4,1.6c0,0-0.1,0.1-0.1,0.1c0,0-0.1,0.1-0.1,0.1c0,0-0.1,0.1-0.1,0.1c0,0-0.1,0.1-0.1,0.1
	c0,0.1-0.1,0.1-0.1,0.2c0,0,0,0.1-0.1,0.1c0,0.1-0.1,0.1-0.1,0.2c-0.2,0.4-0.4,0.8-0.5,1.2c0.4-0.1,0.8-0.2,1.2-0.4c0,0,0,0,0,0
	l0.1,0l0.5-1.4v1.3l0.1,0c0.2,0,0.4-0.1,0.6-0.1l0.1,0c0.2,0,0.5-0.1,0.7-0.1l0.4-1.7v1.6c0.3,0,0.5,0,0.8-0.1l0.1,0
	c0.1,0,0.2,0,0.3,0c0.2,0,0.3,0,0.5,0c0.2,0,0.3,0,0.5,0l0.3,0c0.1,0,0.1,0,0.2,0c0.3,0,0.5,0,0.7,0V18l0.4,1.7l0,0
	c0.2,0,0.4,0.1,0.7,0.1c0.1,0,0.2,0,0.2,0c0.1,0,0.2,0,0.4,0.1c0.1,0,0.1,0,0.2,0v-1.3L17,20c0,0,0.1,0,0.1,0l0.2,0l0,0
	C17.6,20.2,18,20.3,18.3,20.4z"/>
<path class="st2" d="M19.7,9.8l-0.3,0c-1.5-0.1-3.4-0.2-5.3-0.2l-1.2,1.2l-1.2-1.2C9.8,9.6,8,9.7,6.5,9.8l-0.3,0
	c-0.5,1.5-0.9,3-0.9,4.3c0,2.1,0.9,3.1,2.2,3.6c0.7-0.9,1.6-1.6,2.6-2.1c-0.2-0.3,0-0.7,0.3-0.8c0.2-0.1,0.5-0.1,0.7,0.1
	c0.5,0.4,1.4,1.1,1.9,1.1s1.4-0.6,1.9-1.1c0.2-0.2,0.6-0.2,0.9,0c0.2,0.2,0.2,0.5,0.1,0.7c1,0.5,1.9,1.2,2.6,2.1
	c1.4-0.5,2.2-1.5,2.2-3.6C20.6,12.8,20.3,11.3,19.7,9.8z M9.7,13.9c-0.9,0-1.7-0.5-2.3-1.3c0.5-0.8,1.3-1.4,2.2-1.4
	c0.9,0,1.7,0.5,2.3,1.3C11.3,13.3,10.6,13.9,9.7,13.9z M18.5,13.5l-1,1l-1-1l-1,1l-1-1l1-1l-1-1l1-1l1,1l1-1l1,1l-1,1L18.5,13.5z"/>
<path class="st3" d="M15.8,23.9l0.6,2.4l2.3-1.3v-2.7l0.6,2.3l3.4-1.9l-1.3-6.2c-0.4,1-1.2,1.8-2.3,2.2c0.2,0.4,0.4,0.8,0.5,1.3
	c0.2,0.7-0.2,1.3-0.9,1.5c-0.2,0.1-0.5,0.1-0.7,0c-0.5-0.2-0.9-0.3-1.4-0.4c-1.7,1.9-4.7,2.1-6.7,0.4c-0.1-0.1-0.3-0.3-0.4-0.4
	c-0.5,0.1-1,0.2-1.5,0.4c-0.6,0.2-1.3-0.1-1.6-0.8c-0.1-0.2-0.1-0.5,0-0.7c0.1-0.4,0.3-0.9,0.5-1.3c-1.1-0.5-1.9-1.2-2.3-2.2
	l-1.3,6.2l3.4,1.9l0.6-2.3V25l2.3,1.3l0.6-2.4v2.7l2.9,1.6l2.9-1.6V23.9z"/>
<path class="st1" d="M5.2,9C5.5,8,6,7.2,6.5,6.3C6.7,5.9,7,5.6,7.2,5.2L5.8,2.8L2.1,2.1l2.4,4.2l0,0c-0.7,0.2-1.2,0.9-1,1.6
	S4.3,9.1,5,9C5.1,9,5.1,9,5.2,9z"/>
<path class="st1" d="M21.4,6.4L21.4,6.4l2.4-4.2l-3.7,0.6l-1.5,2.4c0.3,0.3,0.5,0.7,0.7,1.1C19.9,7.2,20.4,8,20.7,9
	c0.7,0.3,1.5-0.1,1.7-0.8c0.3-0.7-0.1-1.5-0.8-1.7C21.6,6.4,21.5,6.4,21.4,6.4L21.4,6.4z"/>
<path class="st1" d="M39.8,14l0.3-0.5l8.2-8.6h3.5l-8.3,8.6L52.2,25h-3.4l-7.3-9.7l-1.7,1.6l0,8.1h-2.7V4.9h2.7V13L39.8,14z"/>
<path class="st1" d="M53.8,16.1c0.5-0.9,1.3-1.7,2.3-2.2c1-0.5,2.1-0.8,3.3-0.8c1.2,0,2.3,0.3,3.3,0.8c0.9,0.5,1.7,1.3,2.2,2.2
	c0.5,0.9,0.8,2,0.8,3.1c0,1.1-0.3,2.2-0.8,3.1c-0.5,0.9-1.3,1.7-2.2,2.2c-1,0.5-2.1,0.8-3.3,0.8c-1.2,0-2.3-0.3-3.2-0.8
	c-0.9-0.5-1.7-1.2-2.3-2.2c-0.5-0.9-0.8-2-0.8-3.2C52.9,18.1,53.2,17,53.8,16.1z M56,21.2c0.3,0.6,0.8,1.1,1.3,1.4
	c0.6,0.4,1.2,0.5,1.9,0.5c1.1,0,2-0.4,2.7-1.1c0.7-0.8,1.1-1.7,1.1-2.8c0-1.1-0.4-2.1-1.1-2.8c-0.7-0.8-1.6-1.2-2.7-1.2
	c-0.7,0-1.3,0.2-1.9,0.5c-0.6,0.4-1,0.9-1.3,1.5C55.4,18.4,55.4,19.9,56,21.2L56,21.2z"/>
<path class="st1" d="M80.1,13.5v11.6c0,1-0.3,2-0.8,2.9c-0.5,0.9-1.3,1.5-2.3,2s-2.2,0.8-3.5,0.7c-1.2,0-2.2-0.2-3-0.6
	c-0.8-0.4-1.7-1-2.5-1.7l1.5-1.8c0.6,0.5,1.2,1,1.9,1.3c0.7,0.3,1.4,0.5,2.1,0.5c1.3,0,2.3-0.3,3-0.9c0.7-0.6,1.1-1.4,1.1-2.5l0-2.2
	c-0.4,0.7-1.1,1.3-1.9,1.7c-0.8,0.4-1.8,0.7-2.8,0.7c-1,0-2-0.3-2.9-0.8c-0.9-0.5-1.6-1.3-2.1-2.2c-1.1-1.9-1.1-4.3,0-6.2
	c0.5-0.9,1.3-1.7,2.2-2.2c0.9-0.5,1.9-0.8,3-0.8c0.9,0,1.9,0.2,2.7,0.6c0.8,0.4,1.5,0.9,1.9,1.5l0.2-1.6L80.1,13.5z M76.1,22.3
	c0.7-0.5,1.2-1.3,1.4-2.1V18c-0.2-0.8-0.8-1.5-1.5-2c-0.7-0.5-1.6-0.8-2.5-0.8c-1.1,0-2.1,0.4-2.8,1.1C70,17,69.6,18,69.6,19.1
	c0,1.4,0.7,2.8,2,3.5c0.6,0.4,1.3,0.5,2,0.5C74.5,23.2,75.4,22.9,76.1,22.3z"/>
<path class="st1" d="M83.8,8.4c0.3-0.3,0.7-0.4,1.1-0.4c0.4,0,0.8,0.1,1.1,0.4c0.6,0.5,0.6,1.4,0.1,2c0,0-0.1,0.1-0.1,0.1
	c-0.3,0.3-0.7,0.4-1.1,0.4c-0.4,0-0.8-0.1-1.1-0.4c-0.6-0.5-0.6-1.3-0.1-1.9C83.7,8.5,83.7,8.4,83.8,8.4L83.8,8.4z M86.1,13.5V25
	h-2.6V13.5L86.1,13.5z"/>
<path class="st1" d="M93.2,8.5v5.1h3.1v2.1h-3.1V25h-2.6v-9.4h-2.1v-2.1h2.1V8.5L93.2,8.5z"/>
<path class="st1" d="M98.2,16.1c0.5-0.9,1.3-1.7,2.3-2.2c1-0.5,2.1-0.8,3.3-0.8c1.2,0,2.3,0.3,3.3,0.8c0.9,0.5,1.7,1.3,2.2,2.2
	c0.5,0.9,0.8,2,0.8,3.1c0,1.1-0.3,2.2-0.8,3.1c-0.5,0.9-1.3,1.7-2.2,2.2c-1,0.5-2.1,0.8-3.3,0.8c-1.2,0-2.3-0.3-3.2-0.8
	c-0.9-0.5-1.7-1.2-2.3-2.2c-0.5-0.9-0.8-2-0.8-3.2C97.3,18.1,97.6,17,98.2,16.1z M100.4,21.2c0.3,0.6,0.8,1.1,1.3,1.4
	c0.6,0.4,1.2,0.5,1.9,0.5c1.1,0,2-0.4,2.7-1.1c0.7-0.8,1.1-1.7,1.1-2.8c0-1.1-0.4-2.1-1.1-2.8c-0.7-0.8-1.6-1.2-2.7-1.2
	c-0.7,0-1.3,0.2-1.9,0.5c-0.6,0.4-1,0.9-1.3,1.5C99.8,18.4,99.8,19.9,100.4,21.2L100.4,21.2z"/>
</svg>
