<svg xmlns="http://www.w3.org/2000/svg" viewBox="3.07 0 51.16 46.99">
  <!--
	- Licensed to the Apache Software Foundation (ASF) under one
	- or more contributor license agreements.  See the NOTICE file
	- distributed with this work for additional information
	- regarding copyright ownership.  The ASF licenses this file
	- to you under the Apache License, Version 2.0 (the
	- "License"); you may not use this file except in compliance
	- with the License.  You may obtain a copy of the License at
	-
	-   http://www.apache.org/licenses/LICENSE-2.0
	-
	- Unless required by applicable law or agreed to in writing,
	- software distributed under the License is distributed on an
	- "AS IS" BASIS, WITHOUT WARRANTIES OR CONDITIONS OF ANY
	- KIND, either express or implied.  See the License for the
	- specific language governing permissions and limitations
	- under the License.
	-->
  <path
    d="M54.2278 11.9866c-.5725-1.1825-1.235-2.3237-2.0037-3.4l-8.2125 2.9888c.955.9775 1.7575 2.0762 2.4137 3.2512zM17.925 21.07L9.71 24.0587c.105 1.3175.3325 2.6188.6512 3.8938l7.8038-2.8413c-.2538-1.32-.3438-2.68-.24-4.0412"
    fill="#c22133"
  />
  <path
    d="M36.1562 9.6601c1.7087.7975 3.1888 1.885 4.4375 3.16l8.2125-2.9887c-2.275-3.1925-5.3738-5.86-9.17-7.6313-11.7413-5.475-25.7488-.3775-31.2225 11.3625-1.7725 3.7988-2.4313 7.8338-2.1213 11.7413l8.2138-2.9888c.1362-1.78.57-3.5637 1.3662-5.2737C19.43 9.4139 28.5287 6.1039 36.1562 9.66m8.7596 15.0082c-.1312 1.7788-.58 3.5625-1.3787 5.2738-3.5563 7.6287-12.6563 10.9387-20.2825 7.3825-1.7113-.7988-3.2025-1.8775-4.4463-3.155l-8.1962 2.9825c2.27 3.1925 5.365 5.8612 9.1637 7.6337 11.7413 5.4738 25.7463.3763 31.2213-11.365 1.7737-3.7962 2.4275-7.8312 2.115-11.735z"
    fill="#db212e"
  />
  <path
    d="M46.9355 14.6411l-7.8038 2.84c1.45 2.5975 2.135 5.5875 1.91 8.595l8.1962-2.9812a23.6651 23.6651 0 00-2.3025-8.4538m-36.0627 13.124l-7.8038 2.8425a23.758 23.758 0 003.67 7.955l8.195-2.9837c-2.1037-2.16-3.5025-4.8938-4.0612-7.8138"
    fill="#eb2126"
  />
</svg>
