<?xml version="1.0" encoding="UTF-8" standalone="no"?>
<!-- Generator: Adobe Illustrator 23.1.1, SVG Export Plug-In . SVG Version: 6.00 Build 0)  -->

<svg
   xmlns:dc="http://purl.org/dc/elements/1.1/"
   xmlns:cc="http://creativecommons.org/ns#"
   xmlns:rdf="http://www.w3.org/1999/02/22-rdf-syntax-ns#"
   xmlns:svg="http://www.w3.org/2000/svg"
   xmlns="http://www.w3.org/2000/svg"
   xmlns:sodipodi="http://sodipodi.sourceforge.net/DTD/sodipodi-0.dtd"
   xmlns:inkscape="http://www.inkscape.org/namespaces/inkscape"
   version="1.1"
   id="Layer_1"
   x="0px"
   y="0px"
   viewBox="0 0 257 38"
   width="257"
   height="38"
   style="enable-background:new 0 0 257 38;"
   xml:space="preserve"
   sodipodi:docname="pmml_kogito_logo.svg"
   inkscape:version="0.92.5 (2060ec1f9f, 2020-04-08)"><metadata
   id="metadata3994"><rdf:RDF><cc:Work
       rdf:about=""><dc:format>image/svg+xml</dc:format><dc:type
         rdf:resource="http://purl.org/dc/dcmitype/StillImage" /></cc:Work></rdf:RDF></metadata><defs
   id="defs3992">
	
	
	
</defs><sodipodi:namedview
   pagecolor="#ffffff"
   bordercolor="#666666"
   borderopacity="1"
   objecttolerance="10"
   gridtolerance="10"
   guidetolerance="10"
   inkscape:pageopacity="0"
   inkscape:pageshadow="2"
   inkscape:window-width="1920"
   inkscape:window-height="1016"
   id="namedview3990"
   showgrid="false"
   inkscape:zoom="6.766537"
   inkscape:cx="97.317136"
   inkscape:cy="19"
   inkscape:window-x="0"
   inkscape:window-y="27"
   inkscape:window-maximized="1"
   inkscape:current-layer="Layer_1" />
<style
   type="text/css"
   id="style3915">
	.st0{fill:#FFFFFF;}
	.st1{fill:#00586F;}
	.st2{fill:#F88D2B;}
	.st3{fill:#B8D8EB;}
	.st4{fill:#DD3926;}
	.st5{fill:#CC3427;}
	.st6{fill:#E5E5E4;}
</style>
<title
   id="title3917">Automation</title>
<desc
   id="desc3919">Created with Sketch.</desc>

<g
   id="g3957">
	<path
   class="st1"
   d="M214.4,17.9c-0.2-0.3-0.5-0.4-0.8-0.4c0,0-2,0.3-2,0.3c-0.3,0-0.5,0.2-0.7,0.5l-0.3,0.5c-0.7-0.6-1.5-1-2.3-1   c-0.8,0-1.6,0.3-2.3,1l-0.3-0.5c-0.1-0.2-0.4-0.4-0.7-0.5c0,0-1.9-0.3-2-0.3c-0.6,0-1,0.5-1,1c0,0.2,0,0.3,0.1,0.5l0.7,1.3   c-0.5,0.8-0.2,1.9,0.5,2.4c0.1,0,0.2,0.1,0.3,0.1l-1.4,6.5l6.1,3.4l6.1-3.4l-1.4-6.5c0.9-0.3,1.4-1.3,1.1-2.2   c0-0.1-0.1-0.2-0.1-0.3l0.7-1.3C214.7,18.7,214.6,18.3,214.4,17.9z"
   id="path3929" />
	<path
   class="st0"
   d="M207.6,21.6h0.1l0.3,0.3l0.3-0.3h0.1c0.9,0,1.9,0,2.6,0.1c-0.7-1.5-1.8-2.8-3.1-2.8c-1.3,0-2.4,1.3-3.1,2.8   C205.7,21.7,206.6,21.6,207.6,21.6z"
   id="path3931" />
	<path
   class="st2"
   d="M207.1,28c0.6,0.4,1.4,0.4,2,0C208.4,27.9,207.8,27.9,207.1,28z"
   id="path3933" />
	<path
   class="st3"
   d="M210.8,27.7c0-0.2-0.1-0.4-0.2-0.6c0,0,0,0,0-0.1c0,0,0,0,0,0c0,0,0,0,0-0.1l0,0l0,0l0,0l0,0   c-0.3-0.3-0.7-0.6-1.2-0.8c-0.2,0.1-0.6,0.3-0.9,0.3c-0.3,0-0.6-0.1-0.9-0.3c-0.4,0.1-0.9,0.4-1.2,0.8l0,0l0,0l0,0l0,0   c0,0,0,0,0,0.1c0,0,0,0,0,0c0,0,0,0,0,0.1c-0.1,0.2-0.2,0.4-0.2,0.6c0.2,0,0.4-0.1,0.6-0.2l0,0h0l0.2-0.7v0.6h0c0.1,0,0.2,0,0.3,0   h0c0.1,0,0.2,0,0.3,0l0.2-0.8v0.8c0.1,0,0.2,0,0.4,0h0c0,0,0.1,0,0.1,0c0.1,0,0.1,0,0.2,0s0.1,0,0.2,0h0.1c0,0,0,0,0.1,0   c0.1,0,0.2,0,0.4,0v-0.8l0.2,0.8h0c0.1,0,0.2,0,0.3,0c0,0,0.1,0,0.1,0c0,0,0.1,0,0.2,0c0,0,0,0,0.1,0v-0.6l0.2,0.7h0h0.1l0,0   C210.4,27.6,210.6,27.7,210.8,27.7z"
   id="path3935" />
	<path
   class="st2"
   d="M211.5,22.4h-0.1c-0.8,0-1.7-0.1-2.6-0.1l-0.6,0.6l-0.6-0.6c-0.9,0-1.9,0-2.6,0.1h-0.1   c-0.3,0.7-0.4,1.5-0.4,2.1c0,1,0.4,1.6,1.1,1.8c0.3-0.4,0.8-0.8,1.3-1c-0.1-0.1,0-0.3,0.1-0.4c0.1,0,0.2,0,0.3,0   c0.2,0.2,0.7,0.5,0.9,0.5c0.2,0,0.7-0.3,0.9-0.5c0.1-0.1,0.3-0.1,0.4,0c0.1,0.1,0.1,0.2,0,0.3c0.5,0.2,0.9,0.6,1.3,1   c0.7-0.2,1.1-0.7,1.1-1.8C211.9,23.9,211.8,23.1,211.5,22.4z M206.4,24.4c-0.4,0-0.8-0.2-1.1-0.6c0.2-0.4,0.6-0.7,1.1-0.7   s0.8,0.2,1.1,0.6C207.3,24.2,206.9,24.4,206.4,24.4z M210.9,24.2l-0.5,0.5l-0.5-0.5l-0.5,0.5l-0.5-0.5l0.5-0.5l-0.5-0.5l0.5-0.5   l0.5,0.5l0.5-0.5l0.5,0.5l-0.5,0.5L210.9,24.2z"
   id="path3937" />
	<path
   class="st3"
   d="M209.5,29.5l0.3,1.2l1.1-0.6v-1.3l0.3,1.2L213,29l-0.7-3.1c-0.2,0.5-0.6,0.9-1.1,1.1c0.1,0.2,0.2,0.4,0.2,0.6   c0.1,0.3-0.1,0.6-0.4,0.7c-0.1,0-0.2,0-0.3,0c-0.2-0.1-0.4-0.1-0.7-0.2c-0.9,1-2.4,1-3.3,0.2c0,0-0.1-0.1-0.2-0.2   c-0.2,0-0.5,0.1-0.8,0.2c-0.3,0.1-0.7,0-0.8-0.4c0-0.1,0-0.2,0-0.3c0-0.2,0.1-0.4,0.2-0.6c-0.5-0.2-0.9-0.6-1.1-1.1l-0.7,3.1   l1.7,0.9l0.3-1.2v1.3l1.1,0.6l0.3-1.2v1.4l1.4,0.8l1.4-0.8L209.5,29.5L209.5,29.5z"
   id="path3939" />
	<path
   class="st0"
   d="M204.2,21.9c0.2-0.4,0.4-0.9,0.6-1.3c0.1-0.2,0.2-0.4,0.3-0.5l-0.7-1.2l-1.8-0.3l1.2,2.1l0,0   c-0.3,0.1-0.6,0.4-0.5,0.8s0.4,0.6,0.8,0.5C204.1,22,204.1,22,204.2,21.9z"
   id="path3941" />
	<path
   class="st0"
   d="M212.3,20.6L212.3,20.6l1.2-2.1l-1.8,0.3l-0.7,1.2c0.1,0.1,0.2,0.3,0.3,0.5c0.2,0.4,0.5,0.8,0.6,1.3   c0.3,0.1,0.7,0,0.8-0.4C212.9,21.2,212.7,20.8,212.3,20.6C212.4,20.7,212.4,20.6,212.3,20.6L212.3,20.6z"
   id="path3943" />
	<path
   class="st0"
   d="M221.6,24.5l0.1-0.2l4.1-4.3h1.7l-4.2,4.3l4.4,5.8h-1.7l-3.7-4.9l-0.8,0.8v4.1h-1.4V19.9h1.4v4L221.6,24.5z"
   id="path3945" />
	<path
   class="st0"
   d="M228.7,25.5c0.2-0.4,0.6-0.8,1.1-1.1c0.5-0.2,1-0.4,1.6-0.4s1.1,0.1,1.6,0.4c0.4,0.2,0.8,0.6,1.1,1.1   c0.2,0.5,0.4,1,0.4,1.5c0,0.5-0.1,1.1-0.4,1.6c-0.2,0.4-0.6,0.8-1.1,1.1c-0.5,0.2-1,0.4-1.6,0.4c-0.6,0-1.1-0.1-1.6-0.4   c-0.5-0.2-0.8-0.6-1.1-1.1c-0.3-0.4-0.4-1-0.4-1.6C228.2,26.5,228.4,26,228.7,25.5z M229.8,28.1c0.1,0.3,0.4,0.5,0.6,0.7   c0.3,0.2,0.6,0.2,0.9,0.2c0.5,0,1-0.2,1.3-0.5c0.3-0.4,0.5-0.8,0.5-1.4c0-0.5-0.2-1-0.5-1.4c-0.3-0.4-0.8-0.6-1.3-0.6   c-0.3,0-0.6,0.1-0.9,0.2c-0.3,0.2-0.5,0.4-0.6,0.7C229.5,26.7,229.5,27.5,229.8,28.1L229.8,28.1z"
   id="path3947" />
	<path
   class="st0"
   d="M241.9,24.2v5.8c0,0.5-0.1,1-0.4,1.4c-0.2,0.4-0.6,0.7-1.1,1c-0.5,0.2-1.1,0.4-1.7,0.4c-0.6,0-1.1-0.1-1.5-0.3   c-0.4-0.2-0.8-0.5-1.3-0.8l0.7-0.9c0.3,0.2,0.6,0.5,0.9,0.7c0.3,0.1,0.7,0.2,1,0.2c0.6,0,1.1-0.1,1.5-0.4c0.3-0.3,0.5-0.7,0.5-1.2   V29c-0.2,0.3-0.5,0.6-0.9,0.9s-0.9,0.3-1.4,0.3c-0.5,0-1-0.1-1.4-0.4c-0.4-0.2-0.8-0.6-1-1.1c-0.5-1-0.5-2.1,0-3.1   c0.2-0.4,0.6-0.8,1.1-1.1c0.4-0.2,0.9-0.4,1.5-0.4c0.4,0,0.9,0.1,1.3,0.3c0.4,0.2,0.7,0.4,0.9,0.7l0.1-0.8L241.9,24.2z M239.9,28.7   c0.3-0.2,0.6-0.6,0.7-1v-1.2c-0.1-0.4-0.4-0.7-0.7-1c-0.3-0.2-0.8-0.4-1.2-0.4c-0.5,0-1,0.2-1.4,0.5c-0.4,0.3-0.5,0.8-0.5,1.4   c0,0.7,0.3,1.4,1,1.7c0.3,0.2,0.6,0.3,1,0.2C239.1,29.1,239.6,29,239.9,28.7z"
   id="path3949" />
	<path
   class="st0"
   d="M243.8,21.6c0.1-0.1,0.3-0.2,0.5-0.2s0.4,0,0.5,0.2c0.3,0.2,0.3,0.7,0,1l0,0c-0.1,0.1-0.3,0.2-0.5,0.2   s-0.4,0-0.5-0.2C243.5,22.4,243.5,22,243.8,21.6C243.7,21.7,243.8,21.7,243.8,21.6L243.8,21.6z M245,24.2V30h-1.3v-5.8H245z"
   id="path3951" />
	<path
   class="st0"
   d="M248.5,21.7v2.5h1.6v1h-1.6V30h-1.3v-4.7h-1v-1h1v-2.5H248.5z"
   id="path3953" />
	<path
   class="st0"
   d="M251.1,25.5c0.2-0.4,0.6-0.8,1.1-1.1c0.5-0.2,1-0.4,1.6-0.4s1.1,0.1,1.6,0.4c0.4,0.2,0.8,0.6,1.1,1.1   c0.2,0.5,0.4,1,0.4,1.5c0,0.5-0.1,1.1-0.4,1.6c-0.2,0.4-0.6,0.8-1.1,1.1c-0.5,0.2-1,0.4-1.6,0.4c-0.6,0-1.1-0.1-1.6-0.4   c-0.5-0.2-0.8-0.6-1.1-1.1c-0.3-0.4-0.4-1-0.4-1.6C250.6,26.5,250.8,26,251.1,25.5z M252.2,28.1c0.1,0.3,0.4,0.5,0.6,0.7   c0.3,0.2,0.6,0.2,0.9,0.2c0.5,0,1-0.2,1.3-0.5c0.3-0.4,0.5-0.8,0.5-1.4c0-0.5-0.2-1-0.5-1.4c-0.3-0.4-0.8-0.6-1.3-0.6   c-0.3,0-0.6,0.1-0.9,0.2c-0.3,0.2-0.5,0.4-0.6,0.7C251.9,26.7,251.9,27.5,252.2,28.1L252.2,28.1z"
   id="path3955" />
</g>
<g
   id="g3977">
	<path
   class="st0"
   d="M135,21.7h3.4c1.6,0,2.7,1,2.7,2.5c0,1.5-1,2.5-2.7,2.5h-2.5v3.4H135V21.7z M135.9,22.5v3.3h2.4   c1.1,0,1.8-0.6,1.8-1.7c0-1-0.7-1.6-1.8-1.6H135.9z"
   id="path3959" />
	<path
   class="st0"
   d="M144.9,24.1c1.6,0,2.8,1.3,2.8,3s-1.2,3-2.8,3c-1.6,0-2.8-1.3-2.8-3C142,25.4,143.3,24.1,144.9,24.1z    M146.9,27.1c0-1.3-0.8-2.2-2-2.2c-1.1,0-2,0.9-2,2.2s0.8,2.2,2,2.2C146,29.4,146.9,28.4,146.9,27.1z"
   id="path3961" />
	<path
   class="st0"
   d="M150.2,30.1l-1.6-5.8h0.8l1.2,4.7l1.4-4.7h0.8l1.4,4.7l1.2-4.7h0.8l-1.6,5.8h-0.8l-1.4-4.7l-1.4,4.7H150.2z"
   id="path3963" />
	<path
   class="st0"
   d="M160,30.2c-1.6,0-2.9-1.3-2.9-3c0-1.7,1.2-3,2.7-3s2.7,1.2,2.7,2.9v0.2H158c0.1,1.2,0.9,2.1,2.1,2.1   c0.6,0,1.2-0.2,1.6-0.6l0.5,0.6C161.5,29.9,160.8,30.2,160,30.2z M158,26.7h3.7c-0.1-1-0.9-1.8-1.8-1.8   C158.9,24.9,158.1,25.6,158,26.7z"
   id="path3965" />
	<path
   class="st0"
   d="M164.1,24.2h0.9v1.2c0.3-0.8,0.9-1.3,1.6-1.3c0.2,0,0.3,0,0.5,0.1V25c-0.2,0-0.4-0.1-0.6-0.1   c-0.7,0-1.2,0.4-1.5,1.2v4h-0.9V24.2z"
   id="path3967" />
	<path
   class="st0"
   d="M170.6,30.2c-1.6,0-2.9-1.3-2.9-3c0-1.7,1.2-3,2.7-3c1.5,0,2.7,1.2,2.7,2.9v0.2h-4.6c0.1,1.2,0.9,2.1,2.1,2.1   c0.6,0,1.2-0.2,1.6-0.6l0.5,0.6C172.1,29.9,171.4,30.2,170.6,30.2z M168.5,26.7h3.7c-0.1-1-0.9-1.8-1.8-1.8   C169.4,24.9,168.7,25.6,168.5,26.7z"
   id="path3969" />
	<path
   class="st0"
   d="M178.9,29.3c-0.4,0.5-1.1,0.8-1.8,0.8c-1.5,0-2.7-1.3-2.7-3s1.2-3,2.7-3c0.7,0,1.3,0.3,1.8,0.8v-3.4l0.9-0.2   V30h-0.9V29.3z M177.3,29.4c0.7,0,1.3-0.3,1.6-0.8v-2.9c-0.4-0.5-1-0.8-1.6-0.8c-1.2,0-2,0.9-2,2.2S176.1,29.4,177.3,29.4z"
   id="path3971" />
	<path
   class="st0"
   d="M187.1,30.1c-0.7,0-1.4-0.3-1.8-0.8V30h-0.8v-8.5l0.9-0.2V25c0.4-0.5,1.1-0.9,1.9-0.9c1.5,0,2.7,1.3,2.7,3   C189.9,28.8,188.7,30.1,187.1,30.1z M185.3,25.7v2.8c0.4,0.5,1,0.8,1.6,0.8c1.2,0,2-0.9,2-2.2s-0.9-2.2-2-2.2   C186.2,24.9,185.6,25.2,185.3,25.7z"
   id="path3973" />
	<path
   class="st0"
   d="M192.7,30l-2.2-5.8h0.9l1.8,4.8l1.9-4.8h0.9l-2.9,7c-0.3,0.9-0.8,1.3-1.7,1.3c-0.1,0-0.3,0-0.5-0.1v-0.8   c0.2,0,0.3,0,0.5,0c0.4,0,0.7-0.2,0.9-0.7L192.7,30z"
   id="path3975" />
</g>
<g
   id="g3987">
	<circle
   class="st4"
   cx="19"
   cy="19"
   r="19"
   id="circle3979" />
	<path
   class="st5"
   d="M32.4,5.6L5.5,32.4c7.4,7.3,19.4,7.3,26.8-0.1S39.8,13,32.4,5.6z"
   id="path3981" />
	<polygon
   class="st0"
   points="20,17.2 24.4,8.3 13.6,8.3 13.6,21.8 16.2,21.8 20.7,17.2  "
   id="polygon3983" />
	<polygon
   class="st6"
   points="18.9,30.5 25.5,17.2 20.7,17.2 16.2,21.8 18.9,21.9  "
   id="polygon3985" />
</g>
<text
   xml:space="preserve"
   style="font-style:normal;font-weight:normal;font-size:28.90684128px;line-height:1.25;font-family:sans-serif;letter-spacing:0px;word-spacing:0px;fill:#ffffff;fill-opacity:1;stroke:none;stroke-width:0.72267097"
   x="43.635136"
   y="29.305708"
   id="text4890"
   transform="scale(1.0162445,0.98401517)"><tspan
     sodipodi:role="line"
     id="tspan4888"
     x="43.635136"
     y="29.305708"
     style="fill:#ffffff;fill-opacity:1;stroke-width:0.72267097">PMML</tspan></text>
</svg>