<?xml version="1.0" encoding="UTF-8" standalone="no"?>
<!DOCTYPE svg PUBLIC "-//W3C//DTD SVG 1.1//EN" "http://www.w3.org/Graphics/SVG/1.1/DTD/svg11.dtd">
<svg width="100%" height="100%" viewBox="0 0 257 38" version="1.1" xmlns="http://www.w3.org/2000/svg" xmlns:xlink="http://www.w3.org/1999/xlink" xml:space="preserve" xmlns:serif="http://www.serif.com/" style="fill-rule:evenodd;clip-rule:evenodd;stroke-linejoin:round;stroke-miterlimit:2;">
    <g transform="matrix(1.57664,0,0,1.57664,-41.5447,53.0104)">
        <g>
            <text x="54.918px" y="-14.952px" style="font-family:'GillSans', 'Gill Sans', sans-serif;font-size:18.704px;fill:white;">F</text>
            <text x="64.214px" y="-14.952px" style="font-family:'GillSans', 'Gill Sans', sans-serif;font-size:18.704px;fill:white;">E</text>
            <text x="74.086px" y="-14.952px" style="font-family:'GillSans', 'Gill Sans', sans-serif;font-size:18.704px;fill:white;">E</text>
            <text x="83.957px" y="-14.952px" style="font-family:'GillSans', 'Gill Sans', sans-serif;font-size:18.704px;fill:white;">L</text>
        </g>
    </g>
    <g>
        <path d="M214.4,17.9C214.2,17.6 213.9,17.5 213.6,17.5L211.6,17.8C211.3,17.8 211.1,18 210.9,18.3L210.6,18.8C209.9,18.2 209.1,17.8 208.3,17.8C207.5,17.8 206.7,18.1 206,18.8L205.7,18.3C205.6,18.1 205.3,17.9 205,17.8C205,17.8 203.1,17.5 203,17.5C202.4,17.5 202,18 202,18.5C202,18.7 202,18.8 202.1,19L202.8,20.3C202.3,21.1 202.6,22.2 203.3,22.7C203.4,22.7 203.5,22.8 203.6,22.8L202.2,29.3L208.3,32.7L214.4,29.3L213,22.8C213.9,22.5 214.4,21.5 214.1,20.6C214.1,20.5 214,20.4 214,20.3L214.7,19C214.7,18.7 214.6,18.3 214.4,17.9Z" style="fill:rgb(0,88,111);fill-rule:nonzero;"/>
        <path d="M207.6,21.6L207.7,21.6L208,21.9L208.3,21.6L208.4,21.6C209.3,21.6 210.3,21.6 211,21.7C210.3,20.2 209.2,18.9 207.9,18.9C206.6,18.9 205.5,20.2 204.8,21.7C205.7,21.7 206.6,21.6 207.6,21.6Z" style="fill:white;fill-rule:nonzero;"/>
        <path d="M207.1,28C207.7,28.4 208.5,28.4 209.1,28C208.4,27.9 207.8,27.9 207.1,28Z" style="fill:rgb(248,141,43);fill-rule:nonzero;"/>
        <path d="M210.8,27.7C210.8,27.5 210.7,27.3 210.6,27.1L210.6,26.9C210.3,26.6 209.9,26.3 209.4,26.1C209.2,26.2 208.8,26.4 208.5,26.4C208.2,26.4 207.9,26.3 207.6,26.1C207.2,26.2 206.7,26.5 206.4,26.9L206.4,27.1C206.3,27.3 206.2,27.5 206.2,27.7C206.4,27.7 206.6,27.6 206.8,27.5L207,26.8L207,27.4L207.6,27.4L207.8,26.6L207.8,27.4L209.3,27.4L209.3,26.6L209.5,27.4L210.2,27.4L210.2,26.8L210.4,27.5L210.5,27.5C210.4,27.6 210.6,27.7 210.8,27.7Z" style="fill:rgb(184,216,235);fill-rule:nonzero;"/>
        <path d="M211.5,22.4L211.4,22.4C210.6,22.4 209.7,22.3 208.8,22.3L208.2,22.9L207.6,22.3C206.7,22.3 205.7,22.3 205,22.4L204.9,22.4C204.6,23.1 204.5,23.9 204.5,24.5C204.5,25.5 204.9,26.1 205.6,26.3C205.9,25.9 206.4,25.5 206.9,25.3C206.8,25.2 206.9,25 207,24.9L207.3,24.9C207.5,25.1 208,25.4 208.2,25.4C208.4,25.4 208.9,25.1 209.1,24.9C209.2,24.8 209.4,24.8 209.5,24.9C209.6,25 209.6,25.1 209.5,25.2C210,25.4 210.4,25.8 210.8,26.2C211.5,26 211.9,25.5 211.9,24.4C211.9,23.9 211.8,23.1 211.5,22.4ZM206.4,24.4C206,24.4 205.6,24.2 205.3,23.8C205.5,23.4 205.9,23.1 206.4,23.1C206.9,23.1 207.2,23.3 207.5,23.7C207.3,24.2 206.9,24.4 206.4,24.4ZM210.9,24.2L210.4,24.7L209.9,24.2L209.4,24.7L208.9,24.2L209.4,23.7L208.9,23.2L209.4,22.7L209.9,23.2L210.4,22.7L210.9,23.2L210.4,23.7L210.9,24.2Z" style="fill:rgb(248,141,43);fill-rule:nonzero;"/>
        <path d="M209.5,29.5L209.8,30.7L210.9,30.1L210.9,28.8L211.2,30L213,29L212.3,25.9C212.1,26.4 211.7,26.8 211.2,27C211.3,27.2 211.4,27.4 211.4,27.6C211.5,27.9 211.3,28.2 211,28.3L210.7,28.3C210.5,28.2 210.3,28.2 210,28.1C209.1,29.1 207.6,29.1 206.7,28.3C206.7,28.3 206.6,28.2 206.5,28.1C206.3,28.1 206,28.2 205.7,28.3C205.4,28.4 205,28.3 204.9,27.9L204.9,27.6C204.9,27.4 205,27.2 205.1,27C204.6,26.8 204.2,26.4 204,25.9L203.3,29L205,29.9L205.3,28.7L205.3,30L206.4,30.6L206.7,29.4L206.7,30.8L208.1,31.6L209.5,30.8L209.5,29.5Z" style="fill:rgb(184,216,235);fill-rule:nonzero;"/>
        <path d="M204.2,21.9C204.4,21.5 204.6,21 204.8,20.6C204.9,20.4 205,20.2 205.1,20.1L204.4,18.9L202.6,18.6L203.8,20.7C203.5,20.8 203.2,21.1 203.3,21.5C203.4,21.9 203.7,22.1 204.1,22L204.2,21.9Z" style="fill:white;fill-rule:nonzero;"/>
        <path d="M212.3,20.6L213.5,18.5L211.7,18.8L211,20C211.1,20.1 211.2,20.3 211.3,20.5C211.5,20.9 211.8,21.3 211.9,21.8C212.2,21.9 212.6,21.8 212.7,21.4C212.9,21.2 212.7,20.8 212.3,20.6C212.4,20.7 212.4,20.6 212.3,20.6Z" style="fill:white;fill-rule:nonzero;"/>
        <path d="M221.6,24.5L221.7,24.3L225.8,20L227.5,20L223.3,24.3L227.7,30.1L226,30.1L222.3,25.2L221.5,26L221.5,30.1L220.1,30.1L220.1,19.9L221.5,19.9L221.5,23.9L221.6,24.5Z" style="fill:white;fill-rule:nonzero;"/>
        <path d="M228.7,25.5C228.9,25.1 229.3,24.7 229.8,24.4C230.3,24.2 230.8,24 231.4,24C232,24 232.5,24.1 233,24.4C233.4,24.6 233.8,25 234.1,25.5C234.3,26 234.5,26.5 234.5,27C234.5,27.5 234.4,28.1 234.1,28.6C233.9,29 233.5,29.4 233,29.7C232.5,29.9 232,30.1 231.4,30.1C230.8,30.1 230.3,30 229.8,29.7C229.3,29.5 229,29.1 228.7,28.6C228.4,28.2 228.3,27.6 228.3,27C228.2,26.5 228.4,26 228.7,25.5ZM229.8,28.1C229.9,28.4 230.2,28.6 230.4,28.8C230.7,29 231,29 231.3,29C231.8,29 232.3,28.8 232.6,28.5C232.9,28.1 233.1,27.7 233.1,27.1C233.1,26.6 232.9,26.1 232.6,25.7C232.3,25.3 231.8,25.1 231.3,25.1C231,25.1 230.7,25.2 230.4,25.3C230.1,25.5 229.9,25.7 229.8,26C229.5,26.7 229.5,27.5 229.8,28.1Z" style="fill:white;fill-rule:nonzero;"/>
        <path d="M241.9,24.2L241.9,30C241.9,30.5 241.8,31 241.5,31.4C241.3,31.8 240.9,32.1 240.4,32.4C239.9,32.6 239.3,32.8 238.7,32.8C238.1,32.8 237.6,32.7 237.2,32.5C236.8,32.3 236.4,32 235.9,31.7L236.6,30.8C236.9,31 237.2,31.3 237.5,31.5C237.8,31.6 238.2,31.7 238.5,31.7C239.1,31.7 239.6,31.6 240,31.3C240.3,31 240.5,30.6 240.5,30.1L240.5,29C240.3,29.3 240,29.6 239.6,29.9C239.2,30.2 238.7,30.2 238.2,30.2C237.7,30.2 237.2,30.1 236.8,29.8C236.4,29.6 236,29.2 235.8,28.7C235.3,27.7 235.3,26.6 235.8,25.6C236,25.2 236.4,24.8 236.9,24.5C237.3,24.3 237.8,24.1 238.4,24.1C238.8,24.1 239.3,24.2 239.7,24.4C240.1,24.6 240.4,24.8 240.6,25.1L240.7,24.3L241.9,24.2ZM239.9,28.7C240.2,28.5 240.5,28.1 240.6,27.7L240.6,26.5C240.5,26.1 240.2,25.8 239.9,25.5C239.6,25.3 239.1,25.1 238.7,25.1C238.2,25.1 237.7,25.3 237.3,25.6C236.9,25.9 236.8,26.4 236.8,27C236.8,27.7 237.1,28.4 237.8,28.7C238.1,28.9 238.4,29 238.8,28.9C239.1,29.1 239.6,29 239.9,28.7Z" style="fill:white;fill-rule:nonzero;"/>
        <path d="M243.8,21.6C243.9,21.5 244.1,21.4 244.3,21.4C244.5,21.4 244.7,21.4 244.8,21.6C245.1,21.8 245.1,22.3 244.8,22.6C244.7,22.7 244.5,22.8 244.3,22.8C244.1,22.8 243.9,22.8 243.8,22.6C243.5,22.4 243.5,22 243.8,21.6C243.7,21.7 243.8,21.7 243.8,21.6ZM245,24.2L245,30L243.7,30L243.7,24.2L245,24.2Z" style="fill:white;fill-rule:nonzero;"/>
        <path d="M248.5,21.7L248.5,24.2L250.1,24.2L250.1,25.2L248.5,25.2L248.5,30L247.2,30L247.2,25.3L246.2,25.3L246.2,24.3L247.2,24.3L247.2,21.8L248.5,21.8L248.5,21.7Z" style="fill:white;fill-rule:nonzero;"/>
        <path d="M251.1,25.5C251.3,25.1 251.7,24.7 252.2,24.4C252.7,24.2 253.2,24 253.8,24C254.4,24 254.9,24.1 255.4,24.4C255.8,24.6 256.2,25 256.5,25.5C256.7,26 256.9,26.5 256.9,27C256.9,27.5 256.8,28.1 256.5,28.6C256.3,29 255.9,29.4 255.4,29.7C254.9,29.9 254.4,30.1 253.8,30.1C253.2,30.1 252.7,30 252.2,29.7C251.7,29.5 251.4,29.1 251.1,28.6C250.8,28.2 250.7,27.6 250.7,27C250.6,26.5 250.8,26 251.1,25.5ZM252.2,28.1C252.3,28.4 252.6,28.6 252.8,28.8C253.1,29 253.4,29 253.7,29C254.2,29 254.7,28.8 255,28.5C255.3,28.1 255.5,27.7 255.5,27.1C255.5,26.6 255.3,26.1 255,25.7C254.7,25.3 254.2,25.1 253.7,25.1C253.4,25.1 253.1,25.2 252.8,25.3C252.5,25.5 252.3,25.7 252.2,26C251.9,26.7 251.9,27.5 252.2,28.1Z" style="fill:white;fill-rule:nonzero;"/>
    </g>
    <g>
        <path d="M135,21.7L138.4,21.7C140,21.7 141.1,22.7 141.1,24.2C141.1,25.7 140.1,26.7 138.4,26.7L135.9,26.7L135.9,30.1L135,30.1L135,21.7ZM135.9,22.5L135.9,25.8L138.3,25.8C139.4,25.8 140.1,25.2 140.1,24.1C140.1,23.1 139.4,22.5 138.3,22.5L135.9,22.5Z" style="fill:white;fill-rule:nonzero;"/>
        <path d="M144.9,24.1C146.5,24.1 147.7,25.4 147.7,27.1C147.7,28.8 146.5,30.1 144.9,30.1C143.3,30.1 142.1,28.8 142.1,27.1C142,25.4 143.3,24.1 144.9,24.1ZM146.9,27.1C146.9,25.8 146.1,24.9 144.9,24.9C143.8,24.9 142.9,25.8 142.9,27.1C142.9,28.4 143.7,29.3 144.9,29.3C146,29.4 146.9,28.4 146.9,27.1Z" style="fill:white;fill-rule:nonzero;"/>
        <path d="M150.2,30.1L148.6,24.3L149.4,24.3L150.6,29L152,24.3L152.8,24.3L154.2,29L155.4,24.3L156.2,24.3L154.6,30.1L153.8,30.1L152.4,25.4L151,30.1L150.2,30.1Z" style="fill:white;fill-rule:nonzero;"/>
        <path d="M160,30.2C158.4,30.2 157.1,28.9 157.1,27.2C157.1,25.5 158.3,24.2 159.8,24.2C161.3,24.2 162.5,25.4 162.5,27.1L162.5,27.3L158,27.3C158.1,28.5 158.9,29.4 160.1,29.4C160.7,29.4 161.3,29.2 161.7,28.8L162.2,29.4C161.5,29.9 160.8,30.2 160,30.2ZM158,26.7L161.7,26.7C161.6,25.7 160.8,24.9 159.9,24.9C158.9,24.9 158.1,25.6 158,26.7Z" style="fill:white;fill-rule:nonzero;"/>
        <path d="M164.1,24.2L165,24.2L165,25.4C165.3,24.6 165.9,24.1 166.6,24.1C166.8,24.1 166.9,24.1 167.1,24.2L167.1,25C166.9,25 166.7,24.9 166.5,24.9C165.8,24.9 165.3,25.3 165,26.1L165,30.1L164.1,30.1L164.1,24.2Z" style="fill:white;fill-rule:nonzero;"/>
        <path d="M170.6,30.2C169,30.2 167.7,28.9 167.7,27.2C167.7,25.5 168.9,24.2 170.4,24.2C171.9,24.2 173.1,25.4 173.1,27.1L173.1,27.3L168.5,27.3C168.6,28.5 169.4,29.4 170.6,29.4C171.2,29.4 171.8,29.2 172.2,28.8L172.7,29.4C172.1,29.9 171.4,30.2 170.6,30.2ZM168.5,26.7L172.2,26.7C172.1,25.7 171.3,24.9 170.4,24.9C169.4,24.9 168.7,25.6 168.5,26.7Z" style="fill:white;fill-rule:nonzero;"/>
        <path d="M178.9,29.3C178.5,29.8 177.8,30.1 177.1,30.1C175.6,30.1 174.4,28.8 174.4,27.1C174.4,25.4 175.6,24.1 177.1,24.1C177.8,24.1 178.4,24.4 178.9,24.9L178.9,21.5L179.8,21.3L179.8,30L178.9,30L178.9,29.3ZM177.3,29.4C178,29.4 178.6,29.1 178.9,28.6L178.9,25.7C178.5,25.2 177.9,24.9 177.3,24.9C176.1,24.9 175.3,25.8 175.3,27.1C175.3,28.4 176.1,29.4 177.3,29.4Z" style="fill:white;fill-rule:nonzero;"/>
        <path d="M187.1,30.1C186.4,30.1 185.7,29.8 185.3,29.3L185.3,30L184.5,30L184.5,21.5L185.4,21.3L185.4,25C185.8,24.5 186.5,24.1 187.3,24.1C188.8,24.1 190,25.4 190,27.1C189.9,28.8 188.7,30.1 187.1,30.1ZM185.3,25.7L185.3,28.5C185.7,29 186.3,29.3 186.9,29.3C188.1,29.3 188.9,28.4 188.9,27.1C188.9,25.8 188,24.9 186.9,24.9C186.2,24.9 185.6,25.2 185.3,25.7Z" style="fill:white;fill-rule:nonzero;"/>
        <path d="M192.7,30L190.5,24.2L191.4,24.2L193.2,29L195.1,24.2L196,24.2L193.1,31.2C192.8,32.1 192.3,32.5 191.4,32.5C191.3,32.5 191.1,32.5 190.9,32.4L190.9,31.6L191.4,31.6C191.8,31.6 192.1,31.4 192.3,30.9L192.7,30Z" style="fill:white;fill-rule:nonzero;"/>
    </g>
    <g>
        <circle cx="19" cy="19" r="19" style="fill:rgb(221,57,38);"/>
        <path d="M32.4,5.6L5.5,32.4C12.9,39.7 24.9,39.7 32.3,32.3C39.7,24.9 39.8,13 32.4,5.6Z" style="fill:rgb(204,52,39);fill-rule:nonzero;"/>
        <path d="M20,17.2L24.4,8.3L13.6,8.3L13.6,21.8L16.2,21.8L20.7,17.2L20,17.2Z" style="fill:white;fill-rule:nonzero;"/>
        <path d="M18.9,30.5L25.5,17.2L20.7,17.2L16.2,21.8L18.9,21.9L18.9,30.5Z" style="fill:rgb(229,229,228);fill-rule:nonzero;"/>
    </g>
</svg>
