<?xml version="1.0" encoding="utf-8"?>
<!-- Generator: Adobe Illustrator 16.0.4, SVG Export Plug-In . SVG Version: 6.00 Build 0)  -->
<svg version="1.1" id="Layer_1"
	 xmlns="http://www.w3.org/2000/svg" x="0px" y="0px" width="448px" height="448px"
	 viewBox="6.5 1030.5 448 448" enable-background="new 6.5 1030.5 448 448" xml:space="preserve">

	<path d="M282.418,1346.737c-10.357-1.649-10.729-26.888-10.594-30.13c8.1-3.242,30.436-30.131,37.069-70.646
			c17.844,0,40.363-56.354,11.02-56.354c0.744-15.955,22.936-127.107-89.413-127.107c-112.349,0-90.157,110.685-89.414,126.639
			c-30.748,0-6.824,56.823,11.02,56.823c6.633,40.515,27.565,67.403,37.069,70.646c-1.071,3.316-0.236,28.481-10.594,30.13
			C145.216,1352.046,22.5,1418.241,22.5,1478.5h416C438.5,1418.241,315.783,1352.046,282.418,1346.737L282.418,1346.737z"/>
</svg>
