<?xml version="1.0" encoding="utf-8"?>
<!-- Generated by IcoMoon.io -->
<svg version="1.1" xmlns="http://www.w3.org/2000/svg"
     x="0px" y="0px" width="384px" height="448px" viewBox="0 0 384 448">
  <g id="icomoon-ignore">
  </g>
  <path d="M224 136v112q0 3.5-2.25 5.75t-5.75 2.25h-80q-3.5 0-5.75-2.25t-2.25-5.75v-16q0-3.5 2.25-5.75t5.75-2.25h56v-88q0-3.5 2.25-5.75t5.75-2.25h16q3.5 0 5.75 2.25t2.25 5.75zM328 224q0-37-18.25-68.25t-49.5-49.5-68.25-18.25-68.25 18.25-49.5 49.5-18.25 68.25 18.25 68.25 49.5 49.5 68.25 18.25 68.25-18.25 49.5-49.5 18.25-68.25zM384 224q0 52.25-25.75 96.375t-69.875 69.875-96.375 25.75-96.375-25.75-69.875-69.875-25.75-96.375 25.75-96.375 69.875-69.875 96.375-25.75 96.375 25.75 69.875 69.875 25.75 96.375z"></path>
</svg>
