<?xml version="1.0" encoding="utf-8"?>
<!-- Generator: Adobe Illustrator 20.0.0, SVG Export Plug-In . SVG Version: 6.00 Build 0)  -->
<svg version="1.1" id="Layer_1" xmlns="http://www.w3.org/2000/svg" xmlns:xlink="http://www.w3.org/1999/xlink" x="0px" y="0px"
	 viewBox="0 0 384 448" style="enable-background:new 0 0 384 448;" xml:space="preserve">
<style type="text/css">
	.st0{display:none;}
</style>
<g id="icomoon-ignore" class="st0">
</g>
<path d="M320,240v-32c0-4.3-1.6-8.1-4.8-11.2s-6.9-4.8-11.2-4.8h-80v-80c0-4.3-1.6-8.1-4.8-11.2S212.3,96,208,96h-32
	c-4.3,0-8.1,1.6-11.2,4.8s-4.8,6.9-4.8,11.2v80H80c-4.3,0-8.1,1.6-11.2,4.8S64,203.7,64,208v32c0,4.3,1.6,8.1,4.8,11.2
	S75.7,256,80,256h80v80c0,4.3,1.6,8.1,4.8,11.2s6.9,4.8,11.2,4.8h32c4.3,0,8.1-1.6,11.2-4.8s4.8-6.9,4.8-11.2v-80h80
	c4.3,0,8.1-1.6,11.2-4.8S320,244.3,320,240z M384,104v240c0,19.8-7,36.8-21.1,50.9S331.8,416,312,416H72c-19.8,0-36.8-7-50.9-21.1
	S0,363.8,0,344V104c0-19.8,7-36.8,21.1-50.9S52.2,32,72,32h240c19.8,0,36.8,7,50.9,21.1S384,84.2,384,104z"/>
</svg>
