<?xml version="1.0" encoding="utf-8"?>
<!--
  ~ Copyright 2018 Red Hat, Inc. and/or its affiliates.
  ~
  ~ Licensed under the Apache License, Version 2.0 (the "License");
  ~ you may not use this file except in compliance with the License.
  ~ You may obtain a copy of the License at
  ~
  ~   http://www.apache.org/licenses/LICENSE-2.0
  ~
  ~ Unless required by applicable law or agreed to in writing, software
  ~ distributed under the License is distributed on an "AS IS" BASIS,
  ~ WITHOUT WARRANTIES OR CONDITIONS OF ANY KIND, either express or implied.
  ~ See the License for the specific language governing permissions and
  ~ limitations under the License.
  -->
<!-- add  filter="url(#selectShadow)"  to make the selection shadow -->
<svg id="event" version="1.1" xmlns="http://www.w3.org/2000/svg" xmlns:xlink="http://www.w3.org/1999/xlink"
		 xmlns:stunner="http://kiegroup.org/2017/stunner"
		 x="0px" y="0px" width="56px" height="56px"
		 viewBox="0 0 448 448"
		 style="enable-background:new 0 0 448 448; width: 56px; height: 56px;" xml:space="preserve">
<path class="event_background" d="M444,224c0,39.9-9.8,76.8-29.6,110.5c-19.7,33.7-46.4,60.4-80,80S263.9,444,224,444
    s-76.8-9.8-110.5-29.6c-33.7-19.7-60.4-46.4-80-80S4,263.9,4,224s9.8-76.8,29.6-110.5s46.5-60.4,80-80S184.1,4,224,4
    s76.8,9.8,110.5,29.6s60.4,46.5,80,80S444,184.1,444,224z"/>
	<path class="event_border" stunner:shape-state="fill" d="M224,0C100.3,0,0,100.3,0,224s100.3,224,224,224s224-100.3,224-224S347.7,0,224,0z M224,432
	c-114.9,0-208-93.1-208-208S109.1,16,224,16s208,93.1,208,208S338.9,432,224,432z"/>
	<g transform="translate(-62,-110) scale(2,2)">
	<path class="event_icon"  d="m93.34844,0.00045c-11.45626,0.05598 -23.83168,5.42051 -34.36431,19.10064c-23.92787,-2.54008 -31.26318,12.02617 -34.02531,23.56238c-38.69941,5.22863 -27.98891,57.24356 2.18025,54.7599c0,0 92.11794,0.63571 102.00468,0.68813c27.62773,1.94493 42.75722,-51.75384 1.10631,-66.49283c-0.14417,-16.04428 -17.15786,-31.7147 -36.90162,-31.61822z"/>
</g>
</svg>