<?xml version="1.0" encoding="utf-8"?>
<!--
  ~ Copyright 2018 Red Hat, Inc. and/or its affiliates.
  ~
  ~ Licensed under the Apache License, Version 2.0 (the "License");
  ~ you may not use this file except in compliance with the License.
  ~ You may obtain a copy of the License at
  ~
  ~   http://www.apache.org/licenses/LICENSE-2.0
  ~
  ~ Unless required by applicable law or agreed to in writing, software
  ~ distributed under the License is distributed on an "AS IS" BASIS,
  ~ WITHOUT WARRANTIES OR CONDITIONS OF ANY KIND, either express or implied.
  ~ See the License for the specific language governing permissions and
  ~ limitations under the License.
  -->
<svg id="eventTimeout" version="1.1" xmlns="http://www.w3.org/2000/svg"
     xmlns:stunner="http://kiegroup.org/2017/stunner"
     x="0px" y="0px" width="56px" height="56px"
     viewBox="0 0 448 448"
     style="enable-background:new 0 0 448 448; width: 56px; height: 56px;" xml:space="preserve">
	<path class="event_timeout_background" d="M444,224c0,39.9-9.8,76.8-29.6,110.5c-19.7,33.7-46.4,60.4-80,80S263.9,444,224,444
    s-76.8-9.8-110.5-29.6c-33.7-19.7-60.4-46.4-80-80S4,263.9,4,224s9.8-76.8,29.6-110.5s46.5-60.4,80-80S184.1,4,224,4
    s76.8,9.8,110.5,29.6s60.4,46.5,80,80S444,184.1,444,224z"/>
  <path class="event_timeout_inner" stunner:shape-state="fill" d="M224,408c-101.5,0-184-82.5-184-184S122.5,40,224,40s184,82.5,184,184S325.5,408,224,408z
		 M224,56c-92.6,0-168,75.4-168,168s75.4,168,168,168s168-75.4,168-168S316.6,56,224,56z M224,16c28.1,0,55.3,5.5,81,16.3
		c24.8,10.5,47,25.5,66.1,44.6s34.1,41.4,44.6,66.1c10.8,25.6,16.3,52.9,16.3,81s-5.5,55.3-16.3,81c-10.5,24.8-25.5,47-44.6,66.1
		s-41.4,34.1-66.1,44.6c-25.6,10.8-52.9,16.3-81,16.3s-55.3-5.5-81-16.3c-24.8-10.5-47-25.5-66.1-44.6S42.8,329.7,32.3,305
		C21.5,279.3,16,252.1,16,224s5.5-55.3,16.3-81c10.5-24.8,25.5-47,44.6-66.1s41.4-34.1,66.1-44.6C168.7,21.5,195.9,16,224,16 M224,0
		C100.3,0,0,100.3,0,224s100.3,224,224,224s224-100.3,224-224S347.7,0,224,0L224,0z"/>
  <path class="event_timeout_icon" d="M240.2,176.7v56c0,1.2-0.4,2.1-1.1,2.9c-0.7,0.8-1.7,1.1-2.9,1.1h-40c-1.2,0-2.1-0.4-2.9-1.1
		c-0.8-0.7-1.1-1.7-1.1-2.9v-8c0-1.2,0.4-2.1,1.1-2.9c0.7-0.8,1.7-1.1,2.9-1.1h28v-44c0-1.2,0.4-2.1,1.1-2.9
		c0.7-0.8,1.7-1.1,2.9-1.1h8c1.1,0,2.1,0.4,2.9,1.1C239.9,174.5,240.2,175.5,240.2,176.7z M300.2,220.7c0-13.8-3.4-26.5-10.1-38.1
		c-6.8-11.6-16-20.9-27.6-27.7c-11.7-6.8-24.4-10.2-38.2-10.2s-26.5,3.4-38.1,10.2c-11.6,6.8-20.8,16-27.6,27.6
		s-10.2,24.4-10.2,38.2s3.4,26.5,10.1,38.1c6.8,11.6,16.1,20.9,27.7,27.7c11.6,6.8,24.3,10.2,38.1,10.2s26.5-3.4,38.1-10.2
		c11.6-6.8,20.9-16,27.6-27.6C296.8,247.2,300.2,234.5,300.2,220.7z M320.2,220.7c0,17.4-4.3,33.5-12.9,48.2
		c-8.6,14.7-20.2,26.4-34.9,34.9c-14.7,8.6-30.8,12.9-48.2,12.9s-33.5-4.3-48.2-12.9c-14.7-8.6-26.3-20.2-34.9-34.9
		c-8.6-14.7-12.8-30.8-12.8-48.2s4.3-33.5,12.9-48.2c8.6-14.7,20.2-26.4,34.9-35c14.7-8.6,30.8-12.8,48.2-12.8s33.5,4.3,48.2,12.9
		c14.7,8.6,26.4,20.3,34.9,34.9C316,187.2,320.2,203.3,320.2,220.7z"/>
</svg>
