<?xml version="1.0" encoding="utf-8"?>
<!--
  ~ Licensed to the Apache Software Foundation (ASF) under one
  ~ or more contributor license agreements.  See the NOTICE file
  ~ distributed with this work for additional information
  ~ regarding copyright ownership.  The ASF licenses this file
  ~ to you under the Apache License, Version 2.0 (the
  ~ "License"); you may not use this file except in compliance
  ~ with the License.  You may obtain a copy of the License at
  ~ 
  ~   http://www.apache.org/licenses/LICENSE-2.0
  ~ 
  ~ Unless required by applicable law or agreed to in writing,
  ~ software distributed under the License is distributed on an
  ~ "AS IS" BASIS, WITHOUT WARRANTIES OR CONDITIONS OF ANY
  ~ KIND, either express or implied.  See the License for the
  ~ specific language governing permissions and limitations
  ~ under the License.      
-->
<!--
	This SVG provides Subprocess icon SVG since embedded sub-process SVG and
	embedded sub-process icon are different and can't be reused.
-->
<svg id="Layer_1" data-name="Layer 1" xmlns="http://www.w3.org/2000/svg" viewBox="0 0 20 20">
	<path d="M18.68,0H1.41A1.37,1.37,0,0,0,0,1.4V18.5A1.4,1.4,0,0,0,1.41,20H18.58A1.37,1.37,0,0,0,20,18.6V1.4A1.24,1.24,0,0,0,18.68,0Zm0,18.6H1.41V1.4H18.58V18.6Z"/>
	<path id="Icon" d="M10.67,12.59a2.9,2.9,0,0,0-1.54-2.51,3.27,3.27,0,0,0-1.57-.4A3.14,3.14,0,0,0,6,10.05a2.9,2.9,0,0,0-1.1,1.07,2.75,2.75,0,0,0-.43,1.47,2.81,2.81,0,0,0,.43,1.48A3.17,3.17,0,0,0,6,15.14a3.28,3.28,0,0,0,3.14,0,3,3,0,0,0,1.14-1.07A3.14,3.14,0,0,0,10.67,12.59Zm1.28,0a4.06,4.06,0,0,1-.57,2.14,4.48,4.48,0,0,1-3.82,2.14,4.23,4.23,0,0,1-2.19-.56,4.63,4.63,0,0,1-1.62-1.58,4,4,0,0,1-.57-2.14,4,4,0,0,1,.57-2.14A4.63,4.63,0,0,1,5.37,8.86,4.23,4.23,0,0,1,7.56,8.3a4.21,4.21,0,0,1,2.19.56,4.4,4.4,0,0,1,1.58,1.54A4.15,4.15,0,0,1,12,12.58Z"/>
	<path id="Icon-2" data-name="Icon" d="M15.48,6.05a1.76,1.76,0,0,0-.23-.84,1.56,1.56,0,0,0-.58-.59,1.53,1.53,0,0,0-.82-.23A1.56,1.56,0,0,0,13,4.6a1.71,1.71,0,0,0-.8,1.45,1.67,1.67,0,0,0,.22.84,1.6,1.6,0,0,0,.6.61,1.57,1.57,0,0,0,.83.23,1.51,1.51,0,0,0,.82-.23,1.53,1.53,0,0,0,.6-.61A2,2,0,0,0,15.48,6.05Zm1.34,0a2.73,2.73,0,0,1-.39,1.46,3,3,0,0,1-1.07,1A3,3,0,0,1,13.85,9a2.93,2.93,0,0,1-1.49-.38,3.22,3.22,0,0,1-1.1-1.07A2.73,2.73,0,0,1,10.87,6a2.72,2.72,0,0,1,.39-1.45,3.22,3.22,0,0,1,1.1-1.07,2.93,2.93,0,0,1,1.49-.38,2.89,2.89,0,0,1,1.48.38,3.08,3.08,0,0,1,1.08,1A2.94,2.94,0,0,1,16.82,6Z"/>
	<rect x="9.04" y="8.21" width="4.33" height="1.4" transform="translate(-3.02 10.53) rotate(-45)"/>
</svg>
