<?xml version="1.0" encoding="utf-8"?>
<!--
  ~ Licensed to the Apache Software Foundation (ASF) under one
  ~ or more contributor license agreements.  See the NOTICE file
  ~ distributed with this work for additional information
  ~ regarding copyright ownership.  The ASF licenses this file
  ~ to you under the Apache License, Version 2.0 (the
  ~ "License"); you may not use this file except in compliance
  ~ with the License.  You may obtain a copy of the License at
  ~ 
  ~   http://www.apache.org/licenses/LICENSE-2.0
  ~ 
  ~ Unless required by applicable law or agreed to in writing,
  ~ software distributed under the License is distributed on an
  ~ "AS IS" BASIS, WITHOUT WARRANTIES OR CONDITIONS OF ANY
  ~ KIND, either express or implied.  See the License for the
  ~ specific language governing permissions and limitations
  ~ under the License.      
-->

<svg version="1.1" id="subProcessAdHoc" xmlns="http://www.w3.org/2000/svg"
		 x="0px" y="0px" width="448px" height="448px"
	 viewBox="0 0 448 448" style="enable-background:new 0 0 448 448;" xml:space="preserve">
<style type="text/css">
	.st0{display:none;}
	.st1{display:inline;}
	.st2{fill:none;}
</style>
<g id="Grid" class="st0">
	<g id="icomoon-ignore" class="st1">
		<line class="st2" x1="16" y1="0" x2="16" y2="448"/>
		<line class="st2" x1="32" y1="0" x2="32" y2="448"/>
		<line class="st2" x1="48" y1="0" x2="48" y2="448"/>
		<line class="st2" x1="64" y1="0" x2="64" y2="448"/>
		<line class="st2" x1="80" y1="0" x2="80" y2="448"/>
		<line class="st2" x1="96" y1="0" x2="96" y2="448"/>
		<line class="st2" x1="112" y1="0" x2="112" y2="448"/>
		<line class="st2" x1="128" y1="0" x2="128" y2="448"/>
		<line class="st2" x1="144" y1="0" x2="144" y2="448"/>
		<line class="st2" x1="160" y1="0" x2="160" y2="448"/>
		<line class="st2" x1="176" y1="0" x2="176" y2="448"/>
		<line class="st2" x1="192" y1="0" x2="192" y2="448"/>
		<line class="st2" x1="208" y1="0" x2="208" y2="448"/>
		<line class="st2" x1="224" y1="0" x2="224" y2="448"/>
		<line class="st2" x1="240" y1="0" x2="240" y2="448"/>
		<line class="st2" x1="256" y1="0" x2="256" y2="448"/>
		<line class="st2" x1="272" y1="0" x2="272" y2="448"/>
		<line class="st2" x1="288" y1="0" x2="288" y2="448"/>
		<line class="st2" x1="304" y1="0" x2="304" y2="448"/>
		<line class="st2" x1="320" y1="0" x2="320" y2="448"/>
		<line class="st2" x1="336" y1="0" x2="336" y2="448"/>
		<line class="st2" x1="352" y1="0" x2="352" y2="448"/>
		<line class="st2" x1="368" y1="0" x2="368" y2="448"/>
		<line class="st2" x1="384" y1="0" x2="384" y2="448"/>
		<line class="st2" x1="400" y1="0" x2="400" y2="448"/>
		<line class="st2" x1="416" y1="0" x2="416" y2="448"/>
		<line class="st2" x1="432" y1="0" x2="432" y2="448"/>
		<line class="st2" x1="0" y1="16" x2="448" y2="16"/>
		<line class="st2" x1="0" y1="32" x2="448" y2="32"/>
		<line class="st2" x1="0" y1="48" x2="448" y2="48"/>
		<line class="st2" x1="0" y1="64" x2="448" y2="64"/>
		<line class="st2" x1="0" y1="80" x2="448" y2="80"/>
		<line class="st2" x1="0" y1="96" x2="448" y2="96"/>
		<line class="st2" x1="0" y1="112" x2="448" y2="112"/>
		<line class="st2" x1="0" y1="128" x2="448" y2="128"/>
		<line class="st2" x1="0" y1="144" x2="448" y2="144"/>
		<line class="st2" x1="0" y1="160" x2="448" y2="160"/>
		<line class="st2" x1="0" y1="176" x2="448" y2="176"/>
		<line class="st2" x1="0" y1="192" x2="448" y2="192"/>
		<line class="st2" x1="0" y1="208" x2="448" y2="208"/>
		<line class="st2" x1="0" y1="224" x2="448" y2="224"/>
		<line class="st2" x1="0" y1="240" x2="448" y2="240"/>
		<line class="st2" x1="0" y1="256" x2="448" y2="256"/>
		<line class="st2" x1="0" y1="272" x2="448" y2="272"/>
		<line class="st2" x1="0" y1="288" x2="448" y2="288"/>
		<line class="st2" x1="0" y1="304" x2="448" y2="304"/>
		<line class="st2" x1="0" y1="320" x2="448" y2="320"/>
		<line class="st2" x1="0" y1="336" x2="448" y2="336"/>
		<line class="st2" x1="0" y1="352" x2="448" y2="352"/>
		<line class="st2" x1="0" y1="368" x2="448" y2="368"/>
		<line class="st2" x1="0" y1="384" x2="448" y2="384"/>
		<line class="st2" x1="0" y1="400" x2="448" y2="400"/>
		<line class="st2" x1="0" y1="416" x2="448" y2="416"/>
		<line class="st2" x1="0" y1="432" x2="448" y2="432"/>
	</g>
</g>
<path id="Icon" d="M421.5,159.5c-15.9-3.1-31.4,6.3-36.4,21.3l0,0l0.1-0.3c0,0.1-4.3,11.8-14.9,22.9c-13,13.6-29.2,20.2-49.6,20.2
	c-24.1,0-48.9-23-75.1-47.4c-32.3-30-68.8-64.1-117.4-64.1c-29.5,0-71.2,12.8-102.9,73.6C8.7,217.6,2.3,249.2,2,250.6v0.1
	c-0.1,0.4-0.2,0.9-0.2,1.3c0,0.1,0,0.2,0,0.3c-0.1,0.4-0.1,0.9-0.2,1.3c0,0.1,0,0.2,0,0.3c0,0.4-0.1,0.9-0.1,1.3c0,0.1,0,0.2,0,0.3
	c0,0.4,0,0.8,0,1.1c0,0.2,0,0.3,0,0.5c0,0.3,0,0.6,0,0.9c0,0.2,0,0.5,0,0.7s0,0.5,0.1,0.7c0,0.3,0,0.6,0.1,0.9c0,0.1,0,0.3,0.1,0.4
	c0,0.4,0.1,0.8,0.2,1.2v0.1c2.1,12.7,11.9,23.5,25.3,26.1c2.1,0.4,4.2,0.6,6.3,0.6c13.6,0,25.9-8.7,30.3-21.7
	c0.6-1.4,4.9-11.4,13.7-21.2c13.3-14.7,29.9-21.8,50.8-21.8c23.4,0,47.9,22.8,73.8,46.9c32.5,30.3,69.4,64.6,118.7,64.6
	c24.6,0,46.9-8.5,66.5-25.3c14-12,26.4-28.3,36.7-48.3c16.5-31.9,22.7-63.6,22.9-65C450.3,179.6,438.9,162.8,421.5,159.5z"/>
</svg>
