<?xml version="1.0" encoding="utf-8"?>

<!--
  ~ Licensed to the Apache Software Foundation (ASF) under one
  ~ or more contributor license agreements.  See the NOTICE file
  ~ distributed with this work for additional information
  ~ regarding copyright ownership.  The ASF licenses this file
  ~ to you under the Apache License, Version 2.0 (the
  ~ "License"); you may not use this file except in compliance
  ~ with the License.  You may obtain a copy of the License at
  ~ 
  ~   http://www.apache.org/licenses/LICENSE-2.0
  ~ 
  ~ Unless required by applicable law or agreed to in writing,
  ~ software distributed under the License is distributed on an
  ~ "AS IS" BASIS, WITHOUT WARRANTIES OR CONDITIONS OF ANY
  ~ KIND, either express or implied.  See the License for the
  ~ specific language governing permissions and limitations
  ~ under the License.      
-->
<svg version="1.1" id="subProcessReusable" xmlns="http://www.w3.org/2000/svg"
	 x="0" y="0" width="352px" height="448px"
	 viewBox="0 0 352 448" style="enable-background:new 0 0 352 448;" xml:space="preserve">
<style type="text/css">
	.st0{display:none;}
</style>
<g id="icomoon-ignore" class="st0">
</g>
<rect x="0" y="0" width="352px" height="448px" style="fill:none; stroke: black; stroke-width: 5px;"/>
<path transform="translate(44,70) scale(0.75,0.75)" d="M352,184v48c0,6.7-2.3,12.3-7,17s-10.3,7-17,7H224v104c0,6.7-2.3,12.3-7,17s-10.3,7-17,7h-48c-6.7,0-12.3-2.3-17-7
	s-7-10.3-7-17V256H24c-6.7,0-12.3-2.3-17-7s-7-10.3-7-17v-48c0-6.7,2.3-12.3,7-17s10.3-7,17-7h104V56c0-6.7,2.3-12.3,7-17
	s10.3-7,17-7h48c6.7,0,12.3,2.3,17,7s7,10.3,7,17v104h104c6.7,0,12.3,2.3,17,7S352,177.3,352,184z"/>
</svg>