<svg id="Layer_1" data-name="Layer 1" xmlns="http://www.w3.org/2000/svg" viewBox="0 0 22.03 23.98"><defs><style>.cls-1{fill:#fff;}.cls-2{font-size:12.02px;font-family:MyriadPro-Regular, Myriad Pro;}.cls-3{fill:#c00;}</style></defs><title>Closed</title><circle class="cls-1" cx="15.82" cy="6.8" r="6.09"/><path class="cls-1" d="M16.49,15.85A9.37,9.37,0,0,1,9.84,13.1L9.78,23.32,20,23.51l.07-8.38A9.33,9.33,0,0,1,16.49,15.85Z" transform="translate(-0.93 0)"/><path d="M19.58,15.33V21c0,1.36.21,1.85-1.85,1.85H12.18c-1.85,0-1.85-.45-1.85-1.85v-6.4a9.41,9.41,0,0,1-1.39-1.5v9.08A1.85,1.85,0,0,0,10.79,24h8.32A1.85,1.85,0,0,0,21,22.13V14.71A9.52,9.52,0,0,1,19.58,15.33Z" transform="translate(-0.93 0)"/><path class="cls-1" d="M7.15,6.65a7.32,7.32,0,0,1,0-.81L1.85,6,1.77,20.14l10.24.2.05-5.6A9.17,9.17,0,0,1,7.15,6.65Z" transform="translate(-0.93 0)"/><rect x="16" y="17.53" width="2.5" height="1.51" transform="translate(33.58 36.57) rotate(-180)"/><polyline points="4.85 12.25 8.63 15.11 4.85 17.97"/><rect x="2.5" y="14.36" width="2.5" height="1.51"/><text class="cls-2" transform="translate(14.29 10.06)"> </text><path d="M12.3,14.86l-.07,0c-.23-.12-.45-.25-.67-.38v3.32c0,2-.43,1.85-1.85,1.85H4.16c-2,0-1.84-.83-1.84-1.85V8.11c0-1.37-.12-1.85,1.84-1.85h3A9.06,9.06,0,0,1,7.3,5.08H2.78A1.84,1.84,0,0,0,.93,6.93V19A1.85,1.85,0,0,0,2.78,20.8H11.1A1.85,1.85,0,0,0,13,19V15.16C12.73,15.07,12.51,15,12.3,14.86Z" transform="translate(-0.93 0)"/><path d="M15.65,15.8l-3.28,2.48,3.78,2.86V15.83Z" transform="translate(-0.93 0)"/><path class="cls-3" d="M16.26,0A6.33,6.33,0,0,1,19.61,1a6.85,6.85,0,0,1,2.45,2.48A6.67,6.67,0,0,1,23,6.83a6.68,6.68,0,0,1-.9,3.4,6.85,6.85,0,0,1-2.45,2.48,6.56,6.56,0,0,1-6.7,0,6.83,6.83,0,0,1-2.44-2.48,6.59,6.59,0,0,1-.91-3.4,6.58,6.58,0,0,1,.91-3.39A6.83,6.83,0,0,1,12.91,1,6.38,6.38,0,0,1,16.26,0Zm0,12.27a5.13,5.13,0,0,0,2.7-.74,5.5,5.5,0,0,0,2-2,5.51,5.51,0,0,0,0-5.48,5.58,5.58,0,0,0-2-2,5.3,5.3,0,0,0-5.4,0,5.55,5.55,0,0,0-2,2,5.36,5.36,0,0,0-.73,2.74,5.33,5.33,0,0,0,.73,2.74,5.48,5.48,0,0,0,2,2A5.13,5.13,0,0,0,16.26,12.31ZM19,5.13a.41.41,0,0,0,.08-.24A.31.31,0,0,0,19,4.67L18.4,4A.29.29,0,0,0,18.18,4a.35.35,0,0,0-.24.08l-1.68,1.7L14.59,4A.38.38,0,0,0,14.34,4a.25.25,0,0,0-.21.08l-.62.63a.27.27,0,0,0-.08.22.35.35,0,0,0,.08.24l1.67,1.7-1.67,1.7a.38.38,0,0,0-.08.25.29.29,0,0,0,.08.22l.62.63a.29.29,0,0,0,.21.08.44.44,0,0,0,.25-.08l1.67-1.7,1.68,1.7a.41.41,0,0,0,.24.08.33.33,0,0,0,.22-.08L19,9a.33.33,0,0,0,.08-.22A.44.44,0,0,0,19,8.53l-1.68-1.7Z" transform="translate(-0.93 0)"/></svg>