<svg id="Layer_1" data-name="Layer 1" xmlns="http://www.w3.org/2000/svg" viewBox="0 0 22.03 23.98"><defs><style>.cls-1{fill:#fff;}.cls-2{font-size:12.02px;font-family:MyriadPro-Regular, Myriad Pro;}.cls-3{fill:#509149;}</style></defs><title>Merged</title><circle class="cls-1" cx="15.82" cy="6.8" r="6.09"/><path class="cls-1" d="M16.49,15.85A9.37,9.37,0,0,1,9.84,13.1L9.78,23.32,20,23.51l.07-8.38A9.33,9.33,0,0,1,16.49,15.85Z" transform="translate(-0.93 0)"/><path d="M19.58,15.33V21c0,1.36.21,1.85-1.85,1.85H12.18c-1.85,0-1.85-.45-1.85-1.85v-6.4a9.41,9.41,0,0,1-1.39-1.5v9.08A1.85,1.85,0,0,0,10.79,24h8.32A1.85,1.85,0,0,0,21,22.13V14.71A9.52,9.52,0,0,1,19.58,15.33Z" transform="translate(-0.93 0)"/><path class="cls-1" d="M7.15,6.65a7.32,7.32,0,0,1,0-.81L1.85,6,1.77,20.14l10.24.2.05-5.6A9.17,9.17,0,0,1,7.15,6.65Z" transform="translate(-0.93 0)"/><rect x="16" y="17.53" width="2.5" height="1.51" transform="translate(33.58 36.57) rotate(-180)"/><polyline points="4.85 12.25 8.63 15.11 4.85 17.97"/><rect x="2.5" y="14.36" width="2.5" height="1.51"/><text class="cls-2" transform="translate(14.29 10.06)"> </text><path d="M12.3,14.86l-.07,0c-.23-.12-.45-.25-.67-.38v3.32c0,2-.43,1.85-1.85,1.85H4.16c-2,0-1.84-.83-1.84-1.85V8.11c0-1.37-.12-1.85,1.84-1.85h3A9.06,9.06,0,0,1,7.3,5.08H2.78A1.84,1.84,0,0,0,.93,6.93V19A1.85,1.85,0,0,0,2.78,20.8H11.1A1.85,1.85,0,0,0,13,19V15.16C12.73,15.07,12.51,15,12.3,14.86Z" transform="translate(-0.93 0)"/><path d="M15.65,15.8l-3.28,2.48,3.78,2.86V15.83Z" transform="translate(-0.93 0)"/><path class="cls-3" d="M16.27,0A6.35,6.35,0,0,1,19.62,1a6.8,6.8,0,0,1,2.44,2.47A6.67,6.67,0,0,1,23,6.82a6.67,6.67,0,0,1-.9,3.39,6.9,6.9,0,0,1-2.44,2.48,6.6,6.6,0,0,1-6.69,0,6.9,6.9,0,0,1-2.44-2.48,6.67,6.67,0,0,1-.9-3.39,6.67,6.67,0,0,1,.9-3.39A6.8,6.8,0,0,1,12.93,1,6.34,6.34,0,0,1,16.27,0Zm0,1.31a5.19,5.19,0,0,0-2.69.74,5.48,5.48,0,0,0-2,2,5.47,5.47,0,0,0,0,5.46,5.48,5.48,0,0,0,2,2,5.28,5.28,0,0,0,5.39,0,5.48,5.48,0,0,0,2-2,5.47,5.47,0,0,0,0-5.46,5.48,5.48,0,0,0-2-2A5.2,5.2,0,0,0,16.27,1.35Zm3.78,3.56a.34.34,0,0,1,.11.24.27.27,0,0,1-.11.22l-4.64,4.68a.34.34,0,0,1-.24.11.28.28,0,0,1-.22-.11L12.5,7.56a.36.36,0,0,1-.11-.25.28.28,0,0,1,.11-.22l.62-.62a.28.28,0,0,1,.22-.09.36.36,0,0,1,.24.09l1.59,1.66L19,4.28a.25.25,0,0,1,.21-.08.36.36,0,0,1,.25.1Z" transform="translate(-0.93 0)"/></svg>