<svg id="Layer_1" data-name="Layer 1" xmlns="http://www.w3.org/2000/svg" viewBox="0 0 23.97 22.61"><defs><style>.cls-1{fill:#fff;}</style></defs><title>Open</title><polygon class="cls-1" points="10.69 4.86 10.59 21.82 22.84 22.05 22.94 10.31 17.33 4.71 10.69 4.86"/><path d="M22.33,8.77V19.55c0,1.62.25,2.21-2.22,2.21H13.47c-2.21,0-2.21-.54-2.21-2.21V8c0-2.41.57-2.21,2.21-2.21h5.86L17.92,4.36H11.81A2.22,2.22,0,0,0,9.6,6.58V21a2.22,2.22,0,0,0,2.21,2.21h10A2.22,2.22,0,0,0,24,21V10.43Z" transform="translate(-0.02 -0.57)"/><polygon points="23.97 9.86 17.9 3.8 15.46 3.8 23.97 12.3 23.97 9.86"/><polyline points="18.21 12.37 13.69 15.79 18.21 19.22"/><rect x="18.05" y="15.46" width="2.98" height="1.8" transform="translate(39.07 32.15) rotate(-180)"/><path d="M19.08,7.07V5.64H17.42V8.48a2.21,2.21,0,0,0,2.21,2.21h3.18V9.28H21.29A2.22,2.22,0,0,1,19.08,7.07Z" transform="translate(-0.02 -0.57)"/><polygon class="cls-1" points="1.11 1.06 1.01 18.02 13.25 18.25 13.36 6.52 7.75 0.91 1.11 1.06"/><path d="M12.74,5V15.75c0,2.37-.52,2.21-2.21,2.21H3.89c-2.35,0-2.21-1-2.21-2.21V4.19C1.68,2.55,1.54,2,3.89,2H9.75L8.34.57H2.23a2.16,2.16,0,0,0-1.56.65A2.2,2.2,0,0,0,0,2.78V17.16a2.22,2.22,0,0,0,2.21,2.22h10a2.22,2.22,0,0,0,2.21-2.22V6.63Z" transform="translate(-0.02 -0.57)"/><polygon points="14.39 6.07 8.32 0 5.88 0 14.39 8.51 14.39 6.07"/><path d="M9.6,3.28V1.85H8V4.69A2.21,2.21,0,0,0,10.16,6.9h3.17V5.49H11.82A2.23,2.23,0,0,1,9.6,3.28Z" transform="translate(-0.02 -0.57)"/><polyline points="5.8 8.57 10.33 12 5.8 15.42"/><rect x="3" y="11.1" width="2.98" height="1.8"/></svg>