<?xml version="1.0" encoding="utf-8"?>
<!--
  ~ Licensed to the Apache Software Foundation (ASF) under one
  ~ or more contributor license agreements.  See the NOTICE file
  ~ distributed with this work for additional information
  ~ regarding copyright ownership.  The ASF licenses this file
  ~ to you under the Apache License, Version 2.0 (the
  ~ "License"); you may not use this file except in compliance
  ~ with the License.  You may obtain a copy of the License at
  ~ 
  ~   http://www.apache.org/licenses/LICENSE-2.0
  ~ 
  ~ Unless required by applicable law or agreed to in writing,
  ~ software distributed under the License is distributed on an
  ~ "AS IS" BASIS, WITHOUT WARRANTIES OR CONDITIONS OF ANY
  ~ KIND, either express or implied.  See the License for the
  ~ specific language governing permissions and limitations
  ~ under the License.      
-->

<svg version="1.1" id="Layer_1" xmlns="http://www.w3.org/2000/svg" x="0px" y="0px"
	 viewBox="0 0 420 420" style="enable-background:new 0 0 420 420;" xml:space="preserve">
<style type="text/css">
	.container-svg-css {fill:#4D5258;}
</style>
<path id="Icon" class="container-svg-css" d="M380,60H40C17.9,60,0,77.9,0,100v240c0,22.1,17.9,40,40,40h340c22.1,0,40-17.9,40-40V100
	C420,77.9,402.1,60,380,60z M60,340V100h320v240H60z M100,140h60v60h-60V140z M100,240h60v60h-60V240z M200,140h140v60H200V140z
	 M200,240h140v60H200V240z"/>
</svg>
