<?xml version="1.0" encoding="utf-8"?>
<!--
  ~ Licensed to the Apache Software Foundation (ASF) under one
  ~ or more contributor license agreements.  See the NOTICE file
  ~ distributed with this work for additional information
  ~ regarding copyright ownership.  The ASF licenses this file
  ~ to you under the Apache License, Version 2.0 (the
  ~ "License"); you may not use this file except in compliance
  ~ with the License.  You may obtain a copy of the License at
  ~ 
  ~   http://www.apache.org/licenses/LICENSE-2.0
  ~ 
  ~ Unless required by applicable law or agreed to in writing,
  ~ software distributed under the License is distributed on an
  ~ "AS IS" BASIS, WITHOUT WARRANTIES OR CONDITIONS OF ANY
  ~ KIND, either express or implied.  See the License for the
  ~ specific language governing permissions and limitations
  ~ under the License.      
-->

<svg version="1.1" id="Layer_1" xmlns="http://www.w3.org/2000/svg" x="0px" y="0px"
	 viewBox="0 0 448 448" style="enable-background:new 0 0 448 448;" xml:space="preserve">
<style type="text/css">
	.end-events-svg-css {fill:#C13030;}
</style>
<path id="Icon" class="end-events-svg-css" d="M224.9,1.2c-123.7,0-224,100.3-224,224s100.3,224,224,224s224-100.3,224-224S348.6,1.2,224.9,1.2
	L224.9,1.2z M224,97c33.9,0,65.8,13.2,89.8,37.2S351,190.1,351,224s-13.2,65.8-37.2,89.8S257.9,351,224,351s-65.8-13.2-89.8-37.2
	S97,257.9,97,224s13.2-65.8,37.2-89.8S190.1,97,224,97"/>
</svg>
