<?xml version="1.0" encoding="utf-8"?>
<!--
  ~ Licensed to the Apache Software Foundation (ASF) under one
  ~ or more contributor license agreements.  See the NOTICE file
  ~ distributed with this work for additional information
  ~ regarding copyright ownership.  The ASF licenses this file
  ~ to you under the Apache License, Version 2.0 (the
  ~ "License"); you may not use this file except in compliance
  ~ with the License.  You may obtain a copy of the License at
  ~ 
  ~   http://www.apache.org/licenses/LICENSE-2.0
  ~ 
  ~ Unless required by applicable law or agreed to in writing,
  ~ software distributed under the License is distributed on an
  ~ "AS IS" BASIS, WITHOUT WARRANTIES OR CONDITIONS OF ANY
  ~ KIND, either express or implied.  See the License for the
  ~ specific language governing permissions and limitations
  ~ under the License.      
-->

<svg version="1.1" id="Layer_1" xmlns="http://www.w3.org/2000/svg" x="0px" y="0px"
	 viewBox="0 0 420 420" style="enable-background:new 0 0 420 420;" xml:space="preserve">
<style type="text/css">
	.gateway-svg-css {fill:#EC7A08;}
</style>
<path id="Icon" class="gateway-svg-css" d="M210,40c0.9,0,1.8,0.3,2.4,1L379,207.6c1.3,1.3,1.3,3.5,0,4.8L212.4,379c-0.7,0.7-1.5,1-2.4,1
	s-1.8-0.3-2.4-1L41,212.4c-1.3-1.3-1.3-3.5,0-4.8L207.6,41C208.2,40.3,209.1,40,210,40 M210,0c-11.1,0-22.2,4.2-30.7,12.7
	L12.7,179.3c-17,17-17,44.5,0,61.4l166.6,166.6c8.5,8.5,19.6,12.7,30.7,12.7s22.2-4.2,30.7-12.7l166.6-166.6c17-17,17-44.5,0-61.4
	L240.7,12.7C232.2,4.2,221.1,0,210,0L210,0z"/>
</svg>
