<?xml version="1.0" encoding="utf-8"?>
<!--
  ~ Licensed to the Apache Software Foundation (ASF) under one
  ~ or more contributor license agreements.  See the NOTICE file
  ~ distributed with this work for additional information
  ~ regarding copyright ownership.  The ASF licenses this file
  ~ to you under the Apache License, Version 2.0 (the
  ~ "License"); you may not use this file except in compliance
  ~ with the License.  You may obtain a copy of the License at
  ~ 
  ~   http://www.apache.org/licenses/LICENSE-2.0
  ~ 
  ~ Unless required by applicable law or agreed to in writing,
  ~ software distributed under the License is distributed on an
  ~ "AS IS" BASIS, WITHOUT WARRANTIES OR CONDITIONS OF ANY
  ~ KIND, either express or implied.  See the License for the
  ~ specific language governing permissions and limitations
  ~ under the License.      
-->

<svg version="1.1" id="Layer_1" xmlns="http://www.w3.org/2000/svg" x="0px" y="0px"
	 viewBox="0 0 440 420" style="enable-background:new 0 0 440 420;" xml:space="preserve">
<style type="text/css">
	.service-tasks-svg-css {fill:#4D5258;}
</style>
<path id="Icon" class="service-tasks-svg-css" d="M200,210.2c0-13.8-4.8-25.6-14.7-35.3c-9.8-9.7-21.5-14.7-35.3-14.7s-25.6,4.8-35.3,14.7
	c-9.7,9.8-14.7,21.5-14.7,35.3s4.8,25.6,14.7,35.3s21.5,14.7,35.3,14.7s25.6-4.8,35.3-14.7S200,224,200,210.2z M379.9,330
	c0-8.2-3-15.2-8.9-21.1s-12.9-8.9-21.1-8.9s-15.2,3-21.1,8.9s-8.9,12.9-8.9,21.1s2.9,15.4,8.8,21.2c5.9,5.8,12.9,8.8,21.2,8.8
	c8.2,0,15.4-2.9,21.2-8.8C376.9,345.3,379.9,338.2,379.9,330z M380,90c0-8.2-3-15.2-8.9-21.1S358.2,60,350,60s-15.2,3-21.1,8.9
	S320,81.8,320,90s2.9,15.4,8.8,21.2c5.9,5.8,12.9,8.8,21.2,8.8s15.4-2.9,21.2-8.8C377,105.3,380,98.2,380,90z M300,188.5v43.3
	c0,1.6-0.6,3.1-1.7,4.6s-2.3,2.3-3.8,2.4l-36.4,5.6c-1.7,5.4-4.2,11.4-7.5,17.8c5.3,7.5,12.4,16.5,21.1,27c1.1,1.6,1.7,3.1,1.7,4.7
	c0,1.9-0.6,3.4-1.7,4.5c-3.6,4.7-10,11.7-19.3,21s-15.5,14-18.4,14c-1.7,0-3.4-0.6-4.9-1.7l-27-21.1c-5.8,3-11.8,5.4-18,7.3
	c-1.7,16.9-3.6,29-5.4,36.4c-1.1,3.8-3.5,5.6-7,5.6h-43.6c-1.7,0-3.3-0.6-4.7-1.8c-1.4-1.2-2.2-2.5-2.3-4.1l-5.4-35.8
	c-5.3-1.6-11.2-3.9-17.6-7.3l-27.6,20.8c-1.1,1.1-2.6,1.7-4.7,1.7c-1.7,0-3.4-0.7-4.9-1.9c-22.5-20.8-33.8-33.3-33.8-37.5
	c0-1.4,0.6-2.9,1.7-4.5c1.6-2.2,4.8-6.4,9.6-12.4S47,266.3,49.5,263c-3.6-6.8-6.4-13.3-8.2-19.2l-35.6-5.6c-1.6-0.2-2.9-0.9-3.9-2.2
	s-1.7-2.8-1.7-4.6V188c0-1.6,0.6-3.1,1.7-4.6s2.3-2.3,3.8-2.4l36.4-5.6c1.7-5.4,4.2-11.4,7.5-17.8c-5.3-7.5-12.4-16.5-21.1-27
	c-1.1-1.7-1.7-3.3-1.7-4.7c0-1.9,0.6-3.5,1.7-4.7c3.5-4.7,9.8-11.6,19.2-20.8s15.4-14,18.4-14c1.7,0,3.4,0.6,4.9,1.7l27,21.1
	c5.3-2.8,11.3-5.3,18-7.5c1.7-16.9,3.6-28.9,5.4-36.1c1.1-3.8,3.5-5.6,7-5.6h43.6c1.7,0,3.3,0.6,4.7,1.8s2.2,2.5,2.3,4.1l5.4,35.8
	c5.3,1.6,11.2,3.9,17.6,7.3l27.5-21c1.2-1.1,2.8-1.7,4.7-1.7c1.7,0,3.4,0.7,4.9,1.9c22.5,20.8,33.8,33.3,33.8,37.5
	c0,1.4-0.6,2.9-1.7,4.5c-1.9,2.5-5.2,6.7-9.8,12.7c-4.7,5.9-8.2,10.6-10.5,14.1c3.6,7.5,6.3,13.9,8,19.2l35.6,5.4
	c1.6,0.3,2.9,1.1,3.9,2.4C299.3,185.3,300,186.8,300,188.5z M440,313.6v32.8c0,2.5-11.6,4.9-34.9,7.3c-1.9,4.2-4.2,8.3-7,12.2
	c8,17.6,12,28.4,12,32.4c0,0.7-0.3,1.1-0.9,1.7c-19.1,11.1-28.8,16.7-29.1,16.7c-1.2,0-4.9-3.7-10.8-11.1s-10-12.7-12.2-16
	c-3.1,0.3-5.4,0.5-7,0.5s-3.9-0.2-7-0.5c-2.2,3.3-6.3,8.6-12.2,16c-5.9,7.3-9.6,11.1-10.8,11.1c-0.3,0-10-5.5-29.1-16.7
	c-0.7-0.5-0.9-1-0.9-1.7c0-3.9,3.9-14.7,12-32.4c-2.8-3.9-5.2-8-7-12.2c-23.3-2.3-34.9-4.8-34.9-7.3v-32.8c0-2.5,11.6-4.9,34.9-7.3
	c2.1-4.5,4.4-8.6,7-12.2c-8-17.6-12-28.4-12-32.4c0-0.7,0.3-1.1,0.9-1.7c0.7-0.3,3.4-1.9,8.3-4.7s9.5-5.4,13.9-8
	c4.4-2.5,6.8-3.8,7-3.8c1.2,0,4.9,3.7,10.8,10.9c5.9,7.2,10,12.6,12.2,15.9c3.1-0.3,5.4-0.5,7-0.5s3.9,0.2,7,0.5
	c8-11.1,15.2-19.9,21.6-26.3l1.4-0.5c0.7,0,10.3,5.4,29.1,16.4c0.7,0.5,0.9,1,0.9,1.7c0,3.9-3.9,14.7-12,32.4c2.6,3.6,5,7.7,7,12.2
	C428.4,308.6,440,311.1,440,313.6z M440,74v32.8c0,2.5-11.6,4.9-34.9,7.3c-1.9,4.2-4.2,8.3-7,12.2c8,17.6,12,28.4,12,32.4
	c0,0.7-0.3,1.1-0.9,1.7c-19.1,11.1-28.8,16.7-29.1,16.7c-1.2,0-4.9-3.7-10.8-11.1c-5.9-7.4-10-12.7-12.2-16c-3.1,0.3-5.4,0.5-7,0.5
	s-3.9-0.2-7-0.5c-2.2,3.3-6.3,8.6-12.2,16c-5.9,7.3-9.6,11.1-10.8,11.1c-0.3,0-10-5.5-29.1-16.7c-0.7-0.5-0.9-1-0.9-1.7
	c0-3.9,3.9-14.7,12-32.4c-2.8-3.9-5.2-8-7-12.2c-23.3-2.3-34.9-4.8-34.9-7.3V74c0-2.5,11.6-4.9,34.9-7.3c2.1-4.5,4.4-8.6,7-12.2
	C293.9,36.9,290,26.1,290,22.1c0-0.7,0.3-1.1,0.9-1.7c0.7-0.3,3.4-1.9,8.3-4.7s9.5-5.4,13.9-8s6.8-3.8,7-3.8
	c1.2,0,4.9,3.7,10.8,10.9s10,12.6,12.2,15.9c3.1-0.3,5.4-0.5,7-0.5s3.9,0.2,7,0.5c8-11.1,15.2-19.9,21.6-26.3L380,4
	c0.7,0,10.3,5.4,29.1,16.4c0.7,0.5,0.9,1,0.9,1.7c0,3.9-3.9,14.7-12,32.4c2.6,3.6,5,7.7,7,12.2C428.4,69,440,71.5,440,74z"/>
</svg>
